<svg width="40" height="41" viewBox="0 0 40 41" fill="none" xmlns="http://www.w3.org/2000/svg">
<g clip-path="url(#clip0_1_985)">
<g clip-path="url(#clip1_1_985)">
<path d="M33.6422 21.7269C33.1113 20.2155 32.3134 18.8286 31.3033 17.6229L28.7071 13.8342L21.1188 2.75671L14.8162 12.016C16.2365 14.1732 18.2825 15.7028 20.9239 16.5738L21.2814 16.6907C21.5528 16.7798 21.823 16.8677 22.0933 16.96C22.594 17.1305 22.7028 17.3515 22.7103 17.6304C22.719 17.934 22.5036 18.1603 22.0675 18.303C20.6644 18.7632 19.0739 19.2855 17.7053 20.2681C15.641 21.7505 14.1917 23.7446 13.3959 26.1979L13.3216 26.4274C13.2117 26.7664 13.0987 27.1171 12.977 27.454C12.8564 27.7865 12.6647 27.9302 12.3428 27.9367C12.0649 27.9313 11.8463 27.8348 11.6881 27.3799C11.6062 27.1461 11.5287 26.9112 11.449 26.6677C11.2089 25.9393 10.9601 25.1852 10.594 24.4698C10.0513 23.41 9.38798 22.4757 8.60944 21.6647C8.48776 22.008 8.38008 22.3545 8.28747 22.7052C7.99889 23.7983 7.85352 24.9257 7.85352 26.0723C7.85352 33.358 13.804 39.2855 21.1177 39.2855C28.4315 39.2855 34.3819 33.358 34.3819 26.0723C34.3819 24.5492 34.1213 23.086 33.6432 21.7237L33.6422 21.7269ZM28.5155 30.2719C27.9329 30.4628 27.2717 30.6806 26.7182 31.0774C25.8805 31.6792 25.2925 32.4891 24.9695 33.4845L24.9372 33.5832C24.892 33.7227 24.8414 33.8814 24.7864 34.0327C24.6734 34.3437 24.4408 34.4135 24.2663 34.4167C23.9993 34.4113 23.8216 34.2708 23.7269 33.9983C23.6924 33.8997 23.659 33.7999 23.6256 33.6969C23.5233 33.3858 23.42 33.0726 23.2724 32.7841C22.6726 31.6127 21.7111 30.8125 20.4156 30.4049C20.2509 30.3534 20.1131 30.3083 19.9752 30.2611C19.6985 30.1657 19.5585 29.9876 19.5585 29.7323C19.5585 29.4695 19.7039 29.2861 19.9903 29.1895C20.0775 29.1595 20.1658 29.1305 20.2541 29.1027C20.5815 28.9954 20.9185 28.8849 21.2286 28.7261C22.3851 28.1297 23.1766 27.1804 23.5804 25.905C23.6224 25.7731 23.6698 25.6293 23.7258 25.4674C23.8195 25.196 24.0176 25.034 24.2556 25.034H24.2696C24.5248 25.0437 24.7014 25.1863 24.7983 25.4599C24.836 25.565 24.8715 25.6733 24.907 25.7774C24.9824 26.0048 25.0589 26.2333 25.1536 26.4478C25.7125 27.7114 26.6784 28.5781 28.0277 29.0233L28.1806 29.0737C28.2979 29.1123 28.4153 29.1509 28.5316 29.1906C28.8245 29.2904 28.9709 29.4652 28.9785 29.7237C28.9817 29.8428 28.944 30.1346 28.5176 30.2751L28.5155 30.2719Z" fill="url(#paint0_linear_1_985)"/>
<path d="M28.5295 29.1864C28.4132 29.1467 28.2958 29.1081 28.1785 29.0695L28.0255 29.0191C26.6774 28.5739 25.7104 27.7083 25.1515 26.4436C25.0568 26.2291 24.9803 26.0006 24.9049 25.7732C24.8705 25.6681 24.8339 25.5608 24.7962 25.4557C24.6993 25.1821 24.5227 25.0395 24.2675 25.0309H24.2535C24.0155 25.0309 23.8174 25.1929 23.7237 25.4642C23.6677 25.6273 23.6203 25.77 23.5783 25.9019C23.1745 27.1773 22.383 28.1266 21.2265 28.723C20.9164 28.8829 20.5794 28.9933 20.252 29.0995C20.1637 29.1285 20.0765 29.1575 19.9882 29.1864C19.7018 29.283 19.5564 29.4664 19.5564 29.7292C19.5564 29.9845 19.6964 30.1626 19.9731 30.258C20.111 30.3052 20.2488 30.3503 20.4135 30.4018C21.709 30.8083 22.6705 31.6096 23.2703 32.781C23.4179 33.0695 23.5212 33.3827 23.6235 33.6938C23.658 33.7968 23.6903 33.8965 23.7247 33.9952C23.8195 34.2677 23.9983 34.4082 24.2642 34.4136C24.4387 34.4103 24.6713 34.3406 24.7843 34.0295C24.8393 33.8783 24.8899 33.7195 24.9351 33.5801L24.9674 33.4814C25.2904 32.4849 25.8795 31.675 26.7161 31.0743C27.2696 30.6774 27.9308 30.4597 28.5133 30.2687C28.9398 30.1293 28.9775 29.8365 28.9742 29.7174C28.9667 29.4589 28.8202 29.284 28.5273 29.1843L28.5295 29.1864ZM26.8357 29.7442C25.6953 30.3256 24.8339 31.188 24.2761 32.3068C24.2718 32.3154 24.2675 32.3229 24.2642 32.3304C23.6806 31.1698 22.8224 30.3149 21.6476 29.726C22.1967 29.4428 22.6092 29.165 22.9699 28.8346C23.4922 28.3562 23.9186 27.7984 24.2373 27.1773L24.2481 27.1526C24.2513 27.1451 24.2545 27.1344 24.2578 27.1247L24.0026 27.0389L24.2589 27.1226C24.2589 27.1226 24.2589 27.1183 24.2599 27.1162C24.2632 27.1226 24.2664 27.129 24.2696 27.1376C24.275 27.1516 24.2804 27.1644 24.2868 27.1762C24.8554 28.2811 25.7093 29.1317 26.826 29.7024C26.8378 29.7088 26.8497 29.7142 26.8626 29.7185C26.8669 29.7206 26.8723 29.7228 26.8787 29.7249L26.8367 29.7421L26.8357 29.7442Z" fill="#0C67BD"/>
<path d="M39.0898 8.29181C39.0822 8.03329 38.9358 7.85845 38.6429 7.75869C38.5266 7.719 38.4092 7.68038 38.2919 7.64177L38.139 7.59135C36.7908 7.14619 35.8238 6.28054 35.2649 5.01586C35.1702 4.80133 35.0937 4.57285 35.0183 4.34544C34.9839 4.24032 34.9473 4.13305 34.9096 4.02793C34.8127 3.7544 34.6361 3.61173 34.3809 3.60315H34.3669C34.1289 3.60315 33.9308 3.76512 33.8371 4.03651C33.7811 4.19956 33.7337 4.34222 33.6917 4.47416C33.2879 5.74957 32.4964 6.69889 31.3399 7.29529C31.0298 7.45512 30.6928 7.56561 30.3654 7.6718C30.2771 7.70076 30.1899 7.72972 30.1016 7.75869C29.8152 7.85523 29.6698 8.03865 29.6698 8.30146C29.6698 8.55676 29.8098 8.73482 30.0865 8.83029C30.2244 8.87748 30.3622 8.92254 30.5269 8.97403C31.8224 9.38057 32.784 10.1819 33.3837 11.3532C33.5313 11.6418 33.6346 11.955 33.7369 12.2661C33.7714 12.369 33.8037 12.4688 33.8382 12.5675C33.9329 12.8399 34.1117 12.9805 34.3776 12.9858C34.5521 12.9826 34.7847 12.9129 34.8977 12.6018C34.9527 12.4506 35.0033 12.2918 35.0485 12.1524L35.0808 12.0537C35.4038 11.0572 35.9929 10.2473 36.8295 9.64659C37.383 9.2497 38.0442 9.03195 38.6268 8.84101C39.0532 8.70157 39.0909 8.40873 39.0876 8.28966L39.0898 8.29181ZM34.116 5.61227L34.3723 5.69594C34.3723 5.69594 34.3723 5.69164 34.3733 5.6895C34.3766 5.69594 34.3798 5.70237 34.383 5.71095C34.3884 5.7249 34.3938 5.73777 34.4003 5.74957C34.9688 6.85442 35.8227 7.70505 36.9394 8.27572C36.9512 8.28215 36.9631 8.28751 36.976 8.29181C36.9803 8.29395 36.9857 8.2961 36.9921 8.29824L36.9502 8.3154C35.8098 8.89679 34.9483 9.75922 34.3906 10.878C34.3863 10.8866 34.3819 10.8941 34.3787 10.9016C33.7951 9.74099 32.9369 8.88607 31.7621 8.29717C32.3112 8.01398 32.7237 7.73616 33.0844 7.40578C33.6066 6.92736 34.0331 6.36957 34.3518 5.7485L34.3626 5.72383C34.3658 5.71632 34.369 5.70559 34.3723 5.69594L34.117 5.61012L34.116 5.61227Z" fill="#0C67BD"/>
<path d="M33.4312 18.4446L21.1145 0.46875L14.1013 10.7739C14.0119 10.5959 13.9268 10.4135 13.845 10.229C13.6113 9.70125 13.4293 9.15312 13.2538 8.62321C13.173 8.37864 13.088 8.12657 13.0007 7.88092C12.8597 7.48296 12.6702 7.3167 12.3471 7.3049H12.3267C12.0435 7.3049 11.8152 7.51407 11.6838 7.8938C11.5546 8.26816 11.4458 8.59747 11.3489 8.89996C10.355 12.0397 8.4049 14.376 5.55349 15.8455C4.78572 16.2413 3.9738 16.5063 3.18773 16.7637C2.98529 16.8302 2.78177 16.8967 2.57933 16.9654C2.09907 17.1284 2 17.3526 2 17.6401C2 17.9115 2.09368 18.1239 2.55025 18.2826C2.86576 18.3921 3.18234 18.494 3.56031 18.612C5.13353 19.1065 6.50647 19.838 7.67159 20.7981C7.66405 20.8163 7.65651 20.8345 7.64897 20.8528C6.99858 22.5165 6.66799 24.2746 6.66799 26.0756C6.66799 34.0123 13.1493 40.4688 21.1167 40.4688C29.0841 40.4688 35.5654 34.0123 35.5654 26.0756C35.5654 23.5001 34.8816 21.0802 33.6874 18.9863C33.6239 18.7771 33.5388 18.5926 33.4312 18.4457V18.4446ZM5.62025 18.0231L4.81695 17.6444L5.61379 17.2507C7.01904 16.5556 8.03447 15.8906 8.90669 15.0925C10.0697 14.0284 11.0183 12.7863 11.7279 11.4025C11.7323 11.3929 11.7366 11.3768 11.7409 11.365C11.7786 11.2491 11.8905 10.9005 12.2857 10.8726C12.5862 10.8512 12.808 11.0131 12.9437 11.3532L12.948 11.3639C12.9534 11.3768 12.9577 11.3896 12.9641 11.4004C14.2283 13.8589 16.1289 15.7501 18.6142 17.0212C18.626 17.0276 18.639 17.033 18.6529 17.0383C18.7746 17.0888 19.0761 17.2143 19.1278 17.5586C19.1547 17.7409 19.1311 18.0692 18.6637 18.2194L18.6508 18.2236C18.6508 18.2236 18.6411 18.2269 18.6368 18.2279C16.1009 19.5194 14.1831 21.4384 12.9437 23.927C12.9006 24.0139 12.8586 24.088 12.8166 24.1545C12.7746 24.2199 12.7305 24.2596 12.6842 24.3025C12.6626 24.3218 12.6389 24.3432 12.6077 24.3733L12.177 24.7841L11.9207 24.2489C10.5661 21.4181 8.50719 19.3821 5.62456 18.0241L5.62025 18.0231ZM21.1167 39.2888C13.803 39.2888 7.85249 33.3612 7.85249 26.0756C7.85249 24.9289 7.99894 23.8015 8.28645 22.7085C8.37905 22.3577 8.48674 22.0113 8.60842 21.668C9.38695 22.4779 10.0503 23.4132 10.593 24.473C10.9591 25.1885 11.2078 25.9415 11.448 26.6709C11.5287 26.9144 11.6063 27.1494 11.687 27.3832C11.8453 27.8369 12.0628 27.9335 12.3417 27.9399C12.6637 27.9335 12.8554 27.7897 12.976 27.4572C13.0987 27.1204 13.2118 26.7696 13.3206 26.4307L13.3949 26.2011C14.1906 23.749 15.6411 21.7538 17.7043 20.2714C19.0729 19.2888 20.6634 18.7664 22.0665 18.3062C22.5026 18.1636 22.719 17.9372 22.7093 17.6337C22.7007 17.3548 22.593 17.1338 22.0923 16.9633C21.822 16.871 21.5517 16.783 21.2804 16.694L20.9229 16.5771C18.2814 15.7061 16.2355 14.1764 14.8152 12.0193L21.1178 2.75998L28.7072 13.8364L31.3034 17.6251C32.3134 18.8308 33.1113 20.2177 33.6422 21.7291C34.1203 23.0914 34.3809 24.5546 34.3809 26.0778C34.3809 33.3634 28.4304 39.291 21.1167 39.291V39.2888Z" fill="#0C67BD"/>
</g>
</g>
<defs>
<linearGradient id="paint0_linear_1_985" x1="21.1177" y1="2.75671" x2="21.1177" y2="39.2855" gradientUnits="userSpaceOnUse">
<stop stop-color="#12E4FD"/>
<stop offset="1" stop-color="#23BDFD"/>
</linearGradient>
<clipPath id="clip0_1_985">
<rect width="40" height="40" fill="white" transform="translate(0 0.46875)"/>
</clipPath>
<clipPath id="clip1_1_985">
<rect width="37.0909" height="40" fill="white" transform="translate(2 0.46875)"/>
</clipPath>
</defs>
</svg>
