<svg width="320" height="130" viewBox="0 0 320 130" fill="none" xmlns="http://www.w3.org/2000/svg">
<path d="M-433.017 71.5108C-338.678 1.35962 -208.467 -27.2985 -106.646 38.3541C-94.5974 46.1242 -82.4781 55.0583 -74.9964 69.12C-66.9492 84.2512 -70.0144 102.486 -86.4089 106.177C-98.272 108.851 -112.847 102.067 -119.64 90.0919C-127.863 75.5898 -118.73 58.9066 -109.137 49.2281C-87.6103 27.5116 -55.7928 20.916 -28.4097 20.0037C0.0333557 19.0704 28.503 24.5756 55.8507 33.5725C112.516 52.2166 165.012 85.7402 222.844 99.9173C280.949 114.168 341.077 110.938 398.21 92.4827C454.019 74.4573 506.762 44.9183 563.198 29.4201C624.404 12.6111 688.454 13.5338 750.922 14.8131C782.484 15.4633 813.965 18.3259 844.21 29.7242C872.283 40.3045 898.464 56.4739 925.061 71.2486C952.038 86.2436 979.713 99.4139 1007.93 110.728C1032.18 120.449 1057.94 131.071 1083.93 129.267C1094.16 128.554 1103.98 125.534 1112.69 119.023C1113.41 118.488 1112.74 117.125 1112.02 117.66C1087.03 136.325 1053.95 126.321 1027.78 116.705C995.551 104.856 963.919 90.6372 933.223 74.0064C905.99 59.2422 879.464 42.3912 851.092 30.7728C820.59 18.284 788.967 14.2993 756.867 13.3765C691.978 11.51 625.031 10.5768 561.484 28.2666C500.597 45.212 443.931 78.3266 383.079 95.4293C317.51 113.853 248.893 110.403 184.71 86.3379C126.667 64.5795 71.9626 30.4687 10.9689 21.0103C-17.2092 16.6377 -46.5179 16.8998 -73.9364 26.5889C-92.9014 33.2894 -121.786 47.9278 -124.056 75.2647C-125.814 96.394 -104.402 109.711 -88.9618 108.128C-81.1266 107.32 -72.7527 102.224 -69.8466 93.049C-66.6489 82.9824 -71.2599 72.0246 -76.3302 64.1182C-91.1347 41.0385 -118.023 28.2981 -140.424 19.0809C-167.251 8.07065 -195.588 2.28239 -223.934 0.824842C-283.099 -2.21609 -342.397 14.3937 -395.529 44.9917C-408.638 52.5416 -421.349 60.9724 -433.689 70.1476C-434.413 70.6824 -433.742 72.0455 -433.017 71.5108Z" fill="#BABFDE"/>
</svg>
