<svg width="1408" height="63" viewBox="0 0 1408 63" fill="none" xmlns="http://www.w3.org/2000/svg">
<path d="M2.09468 42.6302L8.58474 10.6468H10.6909V52.1511H8.58474V20.1392L2.09468 52.1511H0V10.6468H2.09468V42.6302Z" fill="#6D6D6D"/>
<path d="M15.0977 10.6468H17.1351L21.4962 44.4831L25.8458 10.6468H27.8832L22.286 52.1511H20.6835L15.0977 10.6468ZM14.4338 10.6468H16.2194L16.5285 35.9599V52.1511H14.4338V10.6468ZM26.75 10.6468H28.5357V52.1511H26.441V35.9599L26.75 10.6468Z" fill="#6D6D6D"/>
<path d="M41.1152 47.6757V52.1511H33.8811V47.6757H41.1152ZM34.2588 10.6468V52.1511H32.1527V10.6468H34.2588ZM40.1422 28.4914V32.9668H33.8811V28.4914H40.1422ZM41.0007 10.6468V15.1507H33.8811V10.6468H41.0007Z" fill="#6D6D6D"/>
<path d="M46.0027 10.6468V52.1511H43.8966V10.6468H46.0027ZM49.1848 29.6601V33.993H45.8311V29.6601H49.1848ZM59.0859 27.8072V35.0192C59.0859 37.9458 58.9562 40.5208 58.6967 42.7442C58.4449 44.9487 58.0748 46.7921 57.5864 48.2744C57.098 49.7567 56.5105 50.8684 55.8237 51.6095C55.1369 52.3507 54.3624 52.7213 53.5001 52.7213C52.6683 52.7213 51.909 52.3507 51.2223 51.6095C50.5355 50.8684 49.9441 49.7567 49.4481 48.2744C48.9521 46.7921 48.5667 44.9487 48.292 42.7442C48.0249 40.5208 47.8914 37.9458 47.8914 35.0192V27.8072C47.8914 24.8806 48.0249 22.3151 48.292 20.1107C48.5591 17.8872 48.9406 16.0344 49.4366 14.5521C49.9327 13.0698 50.524 11.958 51.2108 11.2169C51.8976 10.4567 52.6569 10.0767 53.4886 10.0767C54.3509 10.0767 55.1255 10.4567 55.8122 11.2169C56.5066 11.958 57.0942 13.0698 57.575 14.5521C58.0634 16.0344 58.4373 17.8872 58.6967 20.1107C58.9562 22.3151 59.0859 24.8806 59.0859 27.8072ZM57.0027 35.0192V27.7502C57.0027 25.4698 56.9263 23.5124 56.7737 21.878C56.6211 20.2247 56.396 18.8754 56.0984 17.8302C55.8008 16.785 55.4345 16.0154 54.9996 15.5213C54.5646 15.0082 54.061 14.7516 53.4886 14.7516C52.9468 14.7516 52.4585 15.0082 52.0235 15.5213C51.5962 16.0154 51.2299 16.785 50.9247 17.8302C50.6194 18.8754 50.3829 20.2247 50.215 21.878C50.0547 23.5124 49.9746 25.4698 49.9746 27.7502V35.0192C49.9746 37.3187 50.0547 39.2951 50.215 40.9484C50.3829 42.5827 50.6194 43.932 50.9247 44.9962C51.2375 46.0414 51.6114 46.8206 52.0464 47.3337C52.4814 47.8278 52.9659 48.0748 53.5001 48.0748C54.0724 48.0748 54.576 47.8278 55.011 47.3337C55.4536 46.8206 55.8199 46.0414 56.1098 44.9962C56.4075 43.932 56.6287 42.5827 56.7737 40.9484C56.9263 39.2951 57.0027 37.3187 57.0027 35.0192Z" fill="#6D6D6D"/>
<path d="M66.7664 10.6468V52.1511H64.6831V10.6468H66.7664ZM71.1503 10.6468V15.1507H60.3106V10.6468H71.1503Z" fill="#6D6D6D"/>
<path d="M81.6351 38.953H83.7413C83.6878 41.8036 83.4551 44.2646 83.043 46.336C82.6386 48.3884 82.0472 49.9657 81.2688 51.0679C80.4981 52.1701 79.5328 52.7213 78.3729 52.7213C77.5412 52.7213 76.7895 52.3127 76.118 51.4955C75.4465 50.6783 74.8704 49.5096 74.3896 47.9893C73.9165 46.45 73.554 44.6066 73.3022 42.4592C73.0504 40.3118 72.9245 37.8983 72.9245 35.2187V27.5507C72.9245 24.8901 73.0504 22.4862 73.3022 20.3387C73.5617 18.1913 73.9318 16.3574 74.4125 14.8371C74.9009 13.2978 75.4923 12.1196 76.1867 11.3024C76.8887 10.4852 77.6823 10.0767 78.5675 10.0767C79.6511 10.0767 80.5668 10.6183 81.3146 11.7015C82.0701 12.7657 82.65 14.3335 83.0545 16.4049C83.4665 18.4573 83.6955 20.9754 83.7413 23.959H81.6351C81.5817 21.7735 81.4444 19.9967 81.2231 18.6284C81.0018 17.2411 80.6736 16.2244 80.2387 15.5783C79.8113 14.9131 79.2543 14.5806 78.5675 14.5806C77.9571 14.5806 77.4267 14.8846 76.9765 15.4928C76.5339 16.1009 76.1676 16.9751 75.8776 18.1153C75.5953 19.2365 75.3816 20.5953 75.2366 22.1916C75.0993 23.7689 75.0306 25.5363 75.0306 27.4937V35.2187C75.0306 37.0431 75.0878 38.7439 75.2023 40.3213C75.3244 41.8986 75.5152 43.2859 75.7746 44.4831C76.0417 45.6613 76.3889 46.583 76.8162 47.2482C77.2436 47.9133 77.7625 48.2459 78.3729 48.2459C79.1437 48.2459 79.7541 47.9323 80.2043 47.3052C80.6546 46.678 80.9865 45.6803 81.2002 44.3121C81.4215 42.9438 81.5665 41.1574 81.6351 38.953Z" fill="#6D6D6D"/>
<path d="M94.3176 35.9884H90.7006L89.6361 34.8767C88.5983 33.9265 87.8009 32.4727 87.2438 30.5153C86.6944 28.5389 86.4197 26.0874 86.4197 23.1608C86.4197 20.4813 86.6219 18.2103 87.0264 16.3479C87.4308 14.4855 88.0069 13.0698 88.7547 12.1006C89.5102 11.1314 90.3992 10.6468 91.4217 10.6468H95.9774V52.1511H93.8712V15.1507H91.4217C90.4526 15.1507 89.7277 15.8728 89.2469 17.3171C88.7662 18.7614 88.5258 20.7093 88.5258 23.1608C88.5258 24.7571 88.6326 26.1824 88.8463 27.4367C89.0676 28.6909 89.3957 29.6791 89.8307 30.4013C90.2657 31.1234 90.8113 31.4845 91.4675 31.4845H94.3291L94.3176 35.9884ZM91.5019 33.1378L88.1138 52.1511H85.8703L89.3728 33.1378H91.5019Z" fill="#6D6D6D"/>
<path d="M115.986 10.6468V52.1511H113.879V15.1507H107.366V52.1511H105.26V10.6468H115.986Z" fill="#6D6D6D"/>
<path d="M125.028 35.8744H121.388V31.399H125.028C125.715 31.399 126.268 31.0569 126.688 30.3728C127.115 29.6886 127.424 28.7384 127.615 27.5222C127.813 26.3059 127.913 24.9187 127.913 23.3603C127.913 21.9351 127.813 20.5953 127.615 19.341C127.424 18.0868 127.115 17.0796 126.688 16.3194C126.268 15.5403 125.715 15.1507 125.028 15.1507H121.823V52.1511H119.717V10.6468H125.028C126.104 10.6468 127.012 11.1884 127.752 12.2716C128.493 13.3548 129.053 14.8561 129.435 16.7755C129.824 18.6759 130.019 20.8518 130.019 23.3033C130.019 25.9639 129.824 28.2348 129.435 30.1162C129.053 31.9976 128.493 33.4324 127.752 34.4206C127.012 35.3898 126.104 35.8744 125.028 35.8744Z" fill="#6D6D6D"/>
<path d="M143.56 27.8072V35.0192C143.56 37.9458 143.43 40.5208 143.171 42.7442C142.919 44.9487 142.549 46.7921 142.06 48.2744C141.572 49.7567 140.984 50.8684 140.298 51.6095C139.611 52.3507 138.836 52.7213 137.974 52.7213C137.142 52.7213 136.383 52.3507 135.696 51.6095C135.009 50.8684 134.418 49.7567 133.922 48.2744C133.426 46.7921 133.041 44.9487 132.766 42.7442C132.499 40.5208 132.365 37.9458 132.365 35.0192V27.8072C132.365 24.8806 132.499 22.3151 132.766 20.1107C133.033 17.8872 133.414 16.0344 133.91 14.5521C134.406 13.0698 134.998 11.958 135.685 11.2169C136.371 10.4567 137.131 10.0767 137.962 10.0767C138.825 10.0767 139.599 10.4567 140.286 11.2169C140.98 11.958 141.568 13.0698 142.049 14.5521C142.537 16.0344 142.911 17.8872 143.171 20.1107C143.43 22.3151 143.56 24.8806 143.56 27.8072ZM141.476 35.0192V27.7502C141.476 25.4698 141.4 23.5124 141.248 21.878C141.095 20.2247 140.87 18.8754 140.572 17.8302C140.275 16.785 139.908 16.0154 139.473 15.5213C139.038 15.0082 138.535 14.7516 137.962 14.7516C137.421 14.7516 136.932 15.0082 136.497 15.5213C136.07 16.0154 135.704 16.785 135.398 17.8302C135.093 18.8754 134.857 20.2247 134.689 21.878C134.529 23.5124 134.448 25.4698 134.448 27.7502V35.0192C134.448 37.3187 134.529 39.2951 134.689 40.9484C134.857 42.5827 135.093 43.932 135.398 44.9962C135.711 46.0414 136.085 46.8206 136.52 47.3337C136.955 47.8278 137.44 48.0748 137.974 48.0748C138.546 48.0748 139.05 47.8278 139.485 47.3337C139.927 46.8206 140.294 46.0414 140.584 44.9962C140.881 43.932 141.103 42.5827 141.248 40.9484C141.4 39.2951 141.476 37.3187 141.476 35.0192Z" fill="#6D6D6D"/>
<path d="M151.858 10.6468V52.1511H149.775V10.6468H151.858ZM156.242 10.6468V15.1507H145.403V10.6468H156.242Z" fill="#6D6D6D"/>
<path d="M160.901 42.6302L167.391 10.6468H169.497V52.1511H167.391V20.1392L160.901 52.1511H158.806V10.6468H160.901V42.6302Z" fill="#6D6D6D"/>
<path d="M178.288 32.7387H174.9L174.877 28.3203H178.025C178.498 28.3203 178.917 28.0543 179.284 27.5222C179.65 26.9901 179.936 26.2299 180.142 25.2417C180.356 24.2345 180.463 23.0373 180.463 21.65C180.463 20.1297 180.371 18.8944 180.188 17.9442C180.012 16.9751 179.742 16.2719 179.375 15.8348C179.017 15.3787 178.559 15.1507 178.002 15.1507H175.346V52.1511H173.24V10.6468H178.002C178.719 10.6468 179.36 10.8653 179.925 11.3024C180.489 11.7205 180.966 12.3856 181.355 13.2978C181.752 14.191 182.054 15.3312 182.26 16.7185C182.466 18.1058 182.569 19.7686 182.569 21.707C182.569 23.4173 182.412 24.9662 182.099 26.3534C181.794 27.7217 181.367 28.8429 180.817 29.7171C180.268 30.5913 179.635 31.1519 178.917 31.399L178.288 32.7387ZM178.208 52.1511H174.03L175.255 47.6757H178.208C178.757 47.6757 179.223 47.3717 179.604 46.7636C179.986 46.1554 180.276 45.3003 180.474 44.198C180.68 43.0768 180.783 41.756 180.783 40.2357C180.783 38.6964 180.699 37.3662 180.531 36.2449C180.363 35.1237 180.096 34.259 179.73 33.6509C179.364 33.0428 178.883 32.7387 178.288 32.7387H175.575L175.598 28.3203H179.261L179.73 29.9167C180.417 30.0877 180.993 30.6578 181.458 31.627C181.932 32.5772 182.286 33.7934 182.523 35.2757C182.767 36.758 182.889 38.3924 182.889 40.1787C182.889 42.7633 182.695 44.9487 182.305 46.7351C181.924 48.5024 181.382 49.8517 180.68 50.7829C179.978 51.695 179.154 52.1511 178.208 52.1511Z" fill="#6D6D6D"/>
<path d="M196.877 27.8072V35.0192C196.877 37.9458 196.747 40.5208 196.487 42.7442C196.236 44.9487 195.866 46.7921 195.377 48.2744C194.889 49.7567 194.301 50.8684 193.614 51.6095C192.928 52.3507 192.153 52.7213 191.291 52.7213C190.459 52.7213 189.7 52.3507 189.013 51.6095C188.326 50.8684 187.735 49.7567 187.239 48.2744C186.743 46.7921 186.357 44.9487 186.083 42.7442C185.816 40.5208 185.682 37.9458 185.682 35.0192V27.8072C185.682 24.8806 185.816 22.3151 186.083 20.1107C186.35 17.8872 186.731 16.0344 187.227 14.5521C187.723 13.0698 188.315 11.958 189.002 11.2169C189.688 10.4567 190.448 10.0767 191.279 10.0767C192.142 10.0767 192.916 10.4567 193.603 11.2169C194.297 11.958 194.885 13.0698 195.366 14.5521C195.854 16.0344 196.228 17.8872 196.487 20.1107C196.747 22.3151 196.877 24.8806 196.877 27.8072ZM194.793 35.0192V27.7502C194.793 25.4698 194.717 23.5124 194.564 21.878C194.412 20.2247 194.187 18.8754 193.889 17.8302C193.592 16.785 193.225 16.0154 192.79 15.5213C192.355 15.0082 191.852 14.7516 191.279 14.7516C190.738 14.7516 190.249 15.0082 189.814 15.5213C189.387 16.0154 189.021 16.785 188.715 17.8302C188.41 18.8754 188.174 20.2247 188.006 21.878C187.846 23.5124 187.765 25.4698 187.765 27.7502V35.0192C187.765 37.3187 187.846 39.2951 188.006 40.9484C188.174 42.5827 188.41 43.932 188.715 44.9962C189.028 46.0414 189.402 46.8206 189.837 47.3337C190.272 47.8278 190.757 48.0748 191.291 48.0748C191.863 48.0748 192.367 47.8278 192.802 47.3337C193.244 46.8206 193.611 46.0414 193.901 44.9962C194.198 43.932 194.42 42.5827 194.564 40.9484C194.717 39.2951 194.793 37.3187 194.793 35.0192Z" fill="#6D6D6D"/>
<path d="M210.967 10.6468V52.1511H208.861V15.1507H202.348V52.1511H200.242V10.6468H210.967Z" fill="#6D6D6D"/>
<path d="M225.538 27.8072V35.0192C225.538 37.9458 225.408 40.5208 225.149 42.7442C224.897 44.9487 224.527 46.7921 224.039 48.2744C223.55 49.7567 222.963 50.8684 222.276 51.6095C221.589 52.3507 220.815 52.7213 219.952 52.7213C219.121 52.7213 218.361 52.3507 217.675 51.6095C216.988 50.8684 216.396 49.7567 215.9 48.2744C215.404 46.7921 215.019 44.9487 214.744 42.7442C214.477 40.5208 214.344 37.9458 214.344 35.0192V27.8072C214.344 24.8806 214.477 22.3151 214.744 20.1107C215.011 17.8872 215.393 16.0344 215.889 14.5521C216.385 13.0698 216.976 11.958 217.663 11.2169C218.35 10.4567 219.109 10.0767 219.941 10.0767C220.803 10.0767 221.578 10.4567 222.265 11.2169C222.959 11.958 223.547 13.0698 224.027 14.5521C224.516 16.0344 224.89 17.8872 225.149 20.1107C225.408 22.3151 225.538 24.8806 225.538 27.8072ZM223.455 35.0192V27.7502C223.455 25.4698 223.379 23.5124 223.226 21.878C223.073 20.2247 222.848 18.8754 222.551 17.8302C222.253 16.785 221.887 16.0154 221.452 15.5213C221.017 15.0082 220.513 14.7516 219.941 14.7516C219.399 14.7516 218.911 15.0082 218.476 15.5213C218.049 16.0154 217.682 16.785 217.377 17.8302C217.072 18.8754 216.835 20.2247 216.667 21.878C216.507 23.5124 216.427 25.4698 216.427 27.7502V35.0192C216.427 37.3187 216.507 39.2951 216.667 40.9484C216.835 42.5827 217.072 43.932 217.377 44.9962C217.69 46.0414 218.064 46.8206 218.499 47.3337C218.934 47.8278 219.418 48.0748 219.952 48.0748C220.525 48.0748 221.028 47.8278 221.463 47.3337C221.906 46.8206 222.272 46.0414 222.562 44.9962C222.86 43.932 223.081 42.5827 223.226 40.9484C223.379 39.2951 223.455 37.3187 223.455 35.0192Z" fill="#6D6D6D"/>
<path d="M231.01 10.6468V52.1511H228.903V10.6468H231.01ZM239.583 10.6468L233.562 33.4799H230.174L229.819 28.919H232.292L236.973 10.6468H239.583ZM237.408 52.1511L232.395 32.7672L233.574 27.9498L239.972 52.1511H237.408Z" fill="#6D6D6D"/>
<path d="M247.343 14.324L242.788 52.1511H240.636L246.004 10.6468H247.355L247.343 14.324ZM251.029 52.1511L246.474 14.324L246.451 10.6468H247.813L253.181 52.1511H251.029ZM251.029 36.7865V41.2905H242.994V36.7865H251.029Z" fill="#6D6D6D"/>
<path d="M259.831 32.2256H258.206V28.7194H259.763C260.411 28.7194 260.934 28.4249 261.331 27.8357C261.728 27.2466 262.018 26.4295 262.201 25.3842C262.384 24.339 262.475 23.1323 262.475 21.764C262.475 20.4528 262.372 19.2555 262.166 18.1723C261.968 17.0701 261.659 16.1959 261.239 15.5498C260.82 14.8846 260.274 14.5521 259.602 14.5521C259.106 14.5521 258.656 14.8561 258.252 15.4642C257.847 16.0534 257.527 16.88 257.29 17.9442C257.061 18.9895 256.947 20.1962 256.947 21.5645H254.841C254.841 19.7971 254.963 18.2103 255.207 16.804C255.459 15.3787 255.802 14.172 256.237 13.1838C256.68 12.1766 257.187 11.4069 257.76 10.8748C258.34 10.3427 258.954 10.0767 259.602 10.0767C260.358 10.0767 261.041 10.3332 261.651 10.8463C262.262 11.3404 262.785 12.0816 263.219 13.0698C263.662 14.058 263.998 15.2837 264.227 16.747C264.463 18.2103 264.582 19.9111 264.582 21.8495C264.582 23.2748 264.467 24.6146 264.238 25.8688C264.017 27.1231 263.693 28.2253 263.265 29.1755C262.846 30.1257 262.346 30.8764 261.766 31.4275C261.186 31.9596 260.541 32.2256 259.831 32.2256ZM258.206 29.8026H259.831C260.61 29.8026 261.304 30.0402 261.915 30.5153C262.533 30.9904 263.055 31.684 263.483 32.5962C263.91 33.5084 264.234 34.6391 264.456 35.9884C264.685 37.3187 264.799 38.8485 264.799 40.5778C264.799 42.5162 264.669 44.236 264.41 45.7374C264.158 47.2387 263.799 48.5119 263.334 49.5571C262.868 50.6023 262.319 51.391 261.686 51.9231C261.052 52.4552 260.358 52.7213 259.602 52.7213C258.992 52.7213 258.393 52.4932 257.805 52.0371C257.218 51.562 256.684 50.8399 256.203 49.8707C255.73 48.8825 255.348 47.6282 255.058 46.1079C254.776 44.5876 254.635 42.7632 254.635 40.6348H256.741C256.741 42.0221 256.859 43.2954 257.096 44.4546C257.34 45.6138 257.676 46.545 258.103 47.2482C258.53 47.9323 259.03 48.2744 259.602 48.2744C260.259 48.2744 260.816 47.9513 261.274 47.3052C261.739 46.64 262.09 45.7374 262.327 44.5971C262.571 43.4379 262.693 42.1361 262.693 40.6918C262.693 39.4186 262.628 38.3164 262.498 37.3852C262.376 36.435 262.189 35.6558 261.938 35.0477C261.693 34.4396 261.388 33.993 261.022 33.7079C260.663 33.4039 260.243 33.2518 259.763 33.2518H258.206V29.8026Z" fill="#6D6D6D"/>
<path d="M273.006 14.324L268.45 52.1511H266.299L271.667 10.6468H273.018L273.006 14.324ZM276.692 52.1511L272.136 14.324L272.113 10.6468H273.475L278.844 52.1511H276.692ZM276.692 36.7865V41.2905H268.656V36.7865H276.692Z" fill="#6D6D6D"/>
<path d="M290.176 28.4914V32.9668H282.953V28.4914H290.176ZM283.239 10.6468V52.1511H281.133V10.6468H283.239ZM292.041 10.6468V52.1511H289.935V10.6468H292.041Z" fill="#6D6D6D"/>
<path d="M297.867 42.6302L304.358 10.6468H306.464V52.1511H304.358V20.1392L297.867 52.1511H295.773V10.6468H297.867V42.6302Z" fill="#6D6D6D"/>
<path d="M317.933 35.9884H314.316L313.251 34.8767C312.214 33.9265 311.416 32.4727 310.859 30.5153C310.31 28.5389 310.035 26.0874 310.035 23.1608C310.035 20.4813 310.237 18.2103 310.642 16.3479C311.046 14.4855 311.622 13.0698 312.37 12.1006C313.125 11.1314 314.014 10.6468 315.037 10.6468H319.593V52.1511H317.487V15.1507H315.037C314.068 15.1507 313.343 15.8728 312.862 17.3171C312.381 18.7614 312.141 20.7093 312.141 23.1608C312.141 24.7571 312.248 26.1824 312.462 27.4367C312.683 28.6909 313.011 29.6791 313.446 30.4013C313.881 31.1234 314.427 31.4845 315.083 31.4845H317.944L317.933 35.9884ZM315.117 33.1378L311.729 52.1511H309.486L312.988 33.1378H315.117Z" fill="#6D6D6D"/>
<path d="M323.244 49.3576C323.244 48.4644 323.355 47.7137 323.576 47.1056C323.805 46.4785 324.133 46.1649 324.56 46.1649C324.988 46.1649 325.312 46.4785 325.533 47.1056C325.762 47.7137 325.877 48.4644 325.877 49.3576C325.877 50.2318 325.762 50.9729 325.533 51.581C325.312 52.1892 324.988 52.4932 324.56 52.4932C324.133 52.4932 323.805 52.1892 323.576 51.581C323.355 50.9729 323.244 50.2318 323.244 49.3576Z" fill="#6D6D6D"/>
<path d="M345.782 10.6468V52.1511H343.676V15.1507H337.163V52.1511H335.057V10.6468H345.782Z" fill="#6D6D6D"/>
<path d="M358.476 47.6757V52.1511H351.242V47.6757H358.476ZM351.619 10.6468V52.1511H349.513V10.6468H351.619ZM357.503 28.4914V32.9668H351.242V28.4914H357.503ZM358.361 10.6468V15.1507H351.242V10.6468H358.361Z" fill="#6D6D6D"/>
<path d="M366.477 35.8744H362.837V31.399H366.477C367.164 31.399 367.717 31.0569 368.136 30.3728C368.564 29.6886 368.873 28.7384 369.064 27.5222C369.262 26.3059 369.361 24.9187 369.361 23.3603C369.361 21.9351 369.262 20.5953 369.064 19.341C368.873 18.0868 368.564 17.0796 368.136 16.3194C367.717 15.5403 367.164 15.1507 366.477 15.1507H363.272V52.1511H361.166V10.6468H366.477C367.553 10.6468 368.461 11.1884 369.201 12.2716C369.941 13.3548 370.502 14.8561 370.884 16.7755C371.273 18.6759 371.467 20.8518 371.467 23.3033C371.467 25.9639 371.273 28.2348 370.884 30.1162C370.502 31.9976 369.941 33.4324 369.201 34.4206C368.461 35.3898 367.553 35.8744 366.477 35.8744Z" fill="#6D6D6D"/>
<path d="M383.131 47.6757V52.1511H375.897V47.6757H383.131ZM376.275 10.6468V52.1511H374.169V10.6468H376.275ZM382.158 28.4914V32.9668H375.897V28.4914H382.158ZM383.017 10.6468V15.1507H375.897V10.6468H383.017Z" fill="#6D6D6D"/>
<path d="M396.901 47.6757V52.1511H386.451V47.6757H396.901ZM386.771 47.6757V62.3562H384.676L384.665 47.6757H386.771ZM398.732 47.6757L398.71 62.3277H396.626V47.6757H398.732ZM394.932 10.6468V15.1507H388.889V10.6468H394.932ZM396.775 10.6468V52.1511H394.669V10.6468H396.775ZM388.168 10.6468H390.274L389.976 27.3511C389.938 29.8596 389.862 32.1781 389.747 34.3065C389.633 36.416 389.484 38.3449 389.301 40.0932C389.125 41.8416 388.923 43.4094 388.694 44.7967C388.465 46.1649 388.217 47.3527 387.95 48.3599C387.683 49.3481 387.401 50.1652 387.103 50.8114C386.805 51.4385 386.5 51.8851 386.187 52.1511H385.306V47.6757H385.89C386.058 47.1436 386.241 46.374 386.439 45.3668C386.645 44.3596 386.844 43.0578 387.034 41.4615C387.233 39.8462 387.404 37.8793 387.549 35.5608C387.702 33.2423 387.805 30.5058 387.858 27.3511L388.168 10.6468Z" fill="#6D6D6D"/>
<path d="M417.504 10.6468V52.1511H415.398V15.1507H408.885V52.1511H406.779V10.6468H417.504Z" fill="#6D6D6D"/>
<path d="M426.547 35.8744H422.907V31.399H426.547C427.234 31.399 427.787 31.0569 428.207 30.3728C428.634 29.6886 428.943 28.7384 429.134 27.5222C429.332 26.3059 429.431 24.9187 429.431 23.3603C429.431 21.9351 429.332 20.5953 429.134 19.341C428.943 18.0868 428.634 17.0796 428.207 16.3194C427.787 15.5403 427.234 15.1507 426.547 15.1507H423.342V52.1511H421.236V10.6468H426.547C427.623 10.6468 428.531 11.1884 429.271 12.2716C430.011 13.3548 430.572 14.8561 430.954 16.7755C431.343 18.6759 431.538 20.8518 431.538 23.3033C431.538 25.9639 431.343 28.2348 430.954 30.1162C430.572 31.9976 430.011 33.4324 429.271 34.4206C428.531 35.3898 427.623 35.8744 426.547 35.8744Z" fill="#6D6D6D"/>
<path d="M436.437 42.6302L442.927 10.6468H445.033V52.1511H442.927V20.1392L436.437 52.1511H434.342V10.6468H436.437V42.6302Z" fill="#6D6D6D"/>
<path d="M449.44 10.6468H451.477L455.838 44.4831L460.188 10.6468H462.225L456.628 52.1511H455.025L449.44 10.6468ZM448.776 10.6468H450.561L450.87 35.9599V52.1511H448.776V10.6468ZM461.092 10.6468H462.878V52.1511H460.783V35.9599L461.092 10.6468Z" fill="#6D6D6D"/>
<path d="M475.457 47.6757V52.1511H468.223V47.6757H475.457ZM468.601 10.6468V52.1511H466.495V10.6468H468.601ZM474.484 28.4914V32.9668H468.223V28.4914H474.484ZM475.343 10.6468V15.1507H468.223V10.6468H475.343Z" fill="#6D6D6D"/>
<path d="M487.19 28.4914V32.9668H479.967V28.4914H487.19ZM480.253 10.6468V52.1511H478.147V10.6468H480.253ZM489.055 10.6468V52.1511H486.949V10.6468H489.055Z" fill="#6D6D6D"/>
<path d="M501.646 47.6757V52.1511H494.412V47.6757H501.646ZM494.79 10.6468V52.1511H492.684V10.6468H494.79ZM500.673 28.4914V32.9668H494.412V28.4914H500.673ZM501.532 10.6468V15.1507H494.412V10.6468H501.532Z" fill="#6D6D6D"/>
<path d="M513.379 28.4914V32.9668H506.156V28.4914H513.379ZM506.442 10.6468V52.1511H504.336V10.6468H506.442ZM515.245 10.6468V52.1511H513.138V10.6468H515.245Z" fill="#6D6D6D"/>
<path d="M521.071 42.6302L527.561 10.6468H529.667V52.1511H527.561V20.1392L521.071 52.1511H518.976V10.6468H521.071V42.6302Z" fill="#6D6D6D"/>
<path d="M542.372 47.6757V52.1511H535.138V47.6757H542.372ZM535.516 10.6468V52.1511H533.41V10.6468H535.516ZM541.399 28.4914V32.9668H535.138V28.4914H541.399ZM542.258 10.6468V15.1507H535.138V10.6468H542.258Z" fill="#6D6D6D"/>
<path d="M545.726 10.6468H547.763L552.125 44.4831L556.474 10.6468H558.512L552.914 52.1511H551.312L545.726 10.6468ZM545.062 10.6468H546.848L547.157 35.9599V52.1511H545.062V10.6468ZM557.378 10.6468H559.164V52.1511H557.069V35.9599L557.378 10.6468Z" fill="#6D6D6D"/>
<path d="M579 27.8072V35.0192C579 37.9458 578.871 40.5208 578.611 42.7442C578.359 44.9487 577.989 46.7921 577.501 48.2744C577.013 49.7567 576.425 50.8684 575.738 51.6095C575.052 52.3507 574.277 52.7213 573.415 52.7213C572.583 52.7213 571.824 52.3507 571.137 51.6095C570.45 50.8684 569.859 49.7567 569.363 48.2744C568.867 46.7921 568.481 44.9487 568.207 42.7442C567.94 40.5208 567.806 37.9458 567.806 35.0192V27.8072C567.806 24.8806 567.94 22.3151 568.207 20.1107C568.474 17.8872 568.855 16.0344 569.351 14.5521C569.847 13.0698 570.439 11.958 571.125 11.2169C571.812 10.4567 572.572 10.0767 573.403 10.0767C574.266 10.0767 575.04 10.4567 575.727 11.2169C576.421 11.958 577.009 13.0698 577.49 14.5521C577.978 16.0344 578.352 17.8872 578.611 20.1107C578.871 22.3151 579 24.8806 579 27.8072ZM576.917 35.0192V27.7502C576.917 25.4698 576.841 23.5124 576.688 21.878C576.536 20.2247 576.311 18.8754 576.013 17.8302C575.715 16.785 575.349 16.0154 574.914 15.5213C574.479 15.0082 573.976 14.7516 573.403 14.7516C572.861 14.7516 572.373 15.0082 571.938 15.5213C571.511 16.0154 571.144 16.785 570.839 17.8302C570.534 18.8754 570.297 20.2247 570.13 21.878C569.969 23.5124 569.889 25.4698 569.889 27.7502V35.0192C569.889 37.3187 569.969 39.2951 570.13 40.9484C570.297 42.5827 570.534 43.932 570.839 44.9962C571.152 46.0414 571.526 46.8206 571.961 47.3337C572.396 47.8278 572.88 48.0748 573.415 48.0748C573.987 48.0748 574.491 47.8278 574.926 47.3337C575.368 46.8206 575.734 46.0414 576.024 44.9962C576.322 43.932 576.543 42.5827 576.688 40.9484C576.841 39.2951 576.917 37.3187 576.917 35.0192Z" fill="#6D6D6D"/>
<path d="M586.624 32.2256H584.998V28.7194H586.555C587.204 28.7194 587.726 28.4249 588.123 27.8357C588.52 27.2466 588.81 26.4295 588.993 25.3842C589.176 24.339 589.268 23.1323 589.268 21.764C589.268 20.4528 589.165 19.2555 588.959 18.1723C588.76 17.0701 588.451 16.1959 588.032 15.5498C587.612 14.8846 587.066 14.5521 586.395 14.5521C585.899 14.5521 585.449 14.8561 585.044 15.4642C584.64 16.0534 584.319 16.88 584.083 17.9442C583.854 18.9895 583.739 20.1962 583.739 21.5645H581.633C581.633 19.7971 581.755 18.2103 581.999 16.804C582.251 15.3787 582.595 14.172 583.03 13.1838C583.472 12.1766 583.98 11.4069 584.552 10.8748C585.132 10.3427 585.746 10.0767 586.395 10.0767C587.15 10.0767 587.833 10.3332 588.444 10.8463C589.054 11.3404 589.577 12.0816 590.012 13.0698C590.454 14.058 590.79 15.2837 591.019 16.747C591.256 18.2103 591.374 19.9111 591.374 21.8495C591.374 23.2748 591.26 24.6146 591.031 25.8688C590.809 27.1231 590.485 28.2253 590.058 29.1755C589.638 30.1257 589.138 30.8764 588.558 31.4275C587.978 31.9596 587.333 32.2256 586.624 32.2256ZM584.998 29.8026H586.624C587.402 29.8026 588.096 30.0402 588.707 30.5153C589.325 30.9904 589.848 31.684 590.275 32.5962C590.702 33.5084 591.027 34.6391 591.248 35.9884C591.477 37.3187 591.591 38.8485 591.591 40.5778C591.591 42.5162 591.462 44.236 591.202 45.7374C590.95 47.2387 590.592 48.5119 590.126 49.5571C589.661 50.6023 589.111 51.391 588.478 51.9231C587.845 52.4552 587.15 52.7213 586.395 52.7213C585.784 52.7213 585.185 52.4932 584.598 52.0371C584.01 51.562 583.476 50.8399 582.995 49.8707C582.522 48.8825 582.141 47.6282 581.851 46.1079C581.568 44.5876 581.427 42.7632 581.427 40.6348H583.533C583.533 42.0221 583.651 43.2954 583.888 44.4546C584.132 45.6138 584.468 46.545 584.895 47.2482C585.323 47.9323 585.823 48.2744 586.395 48.2744C587.051 48.2744 587.608 47.9513 588.066 47.3052C588.531 46.64 588.882 45.7374 589.119 44.5971C589.363 43.4379 589.485 42.1361 589.485 40.6918C589.485 39.4186 589.42 38.3164 589.291 37.3852C589.169 36.435 588.982 35.6558 588.73 35.0477C588.486 34.4396 588.18 33.993 587.814 33.7079C587.456 33.4039 587.036 33.2518 586.555 33.2518H584.998V29.8026Z" fill="#6D6D6D"/>
<path d="M603.438 28.4914V32.9668H596.216V28.4914H603.438ZM596.502 10.6468V52.1511H594.396V10.6468H596.502ZM605.304 10.6468V52.1511H603.198V10.6468H605.304Z" fill="#6D6D6D"/>
<path d="M614.541 14.324L609.986 52.1511H607.834L613.202 10.6468H614.553L614.541 14.324ZM618.227 52.1511L613.671 14.324L613.648 10.6468H615.011L620.379 52.1511H618.227ZM618.227 36.7865V41.2905H610.192V36.7865H618.227Z" fill="#6D6D6D"/>
<path d="M624.877 10.6468V52.1511H622.771V10.6468H624.877ZM633.451 10.6468L627.43 33.4799H624.042L623.687 28.919H626.159L630.841 10.6468H633.451ZM631.276 52.1511L626.262 32.7672L627.441 27.9498L633.84 52.1511H631.276Z" fill="#6D6D6D"/>
<path d="M646.282 27.8072V35.0192C646.282 37.9458 646.152 40.5208 645.893 42.7442C645.641 44.9487 645.271 46.7921 644.782 48.2744C644.294 49.7567 643.707 50.8684 643.02 51.6095C642.333 52.3507 641.558 52.7213 640.696 52.7213C639.864 52.7213 639.105 52.3507 638.418 51.6095C637.732 50.8684 637.14 49.7567 636.644 48.2744C636.148 46.7921 635.763 44.9487 635.488 42.7442C635.221 40.5208 635.087 37.9458 635.087 35.0192V27.8072C635.087 24.8806 635.221 22.3151 635.488 20.1107C635.755 17.8872 636.137 16.0344 636.633 14.5521C637.129 13.0698 637.72 11.958 638.407 11.2169C639.094 10.4567 639.853 10.0767 640.685 10.0767C641.547 10.0767 642.322 10.4567 643.008 11.2169C643.703 11.958 644.29 13.0698 644.771 14.5521C645.259 16.0344 645.633 17.8872 645.893 20.1107C646.152 22.3151 646.282 24.8806 646.282 27.8072ZM644.199 35.0192V27.7502C644.199 25.4698 644.122 23.5124 643.97 21.878C643.817 20.2247 643.592 18.8754 643.294 17.8302C642.997 16.785 642.631 16.0154 642.196 15.5213C641.761 15.0082 641.257 14.7516 640.685 14.7516C640.143 14.7516 639.654 15.0082 639.22 15.5213C638.792 16.0154 638.426 16.785 638.121 17.8302C637.815 18.8754 637.579 20.2247 637.411 21.878C637.251 23.5124 637.171 25.4698 637.171 27.7502V35.0192C637.171 37.3187 637.251 39.2951 637.411 40.9484C637.579 42.5827 637.815 43.932 638.121 44.9962C638.434 46.0414 638.808 46.8206 639.242 47.3337C639.677 47.8278 640.162 48.0748 640.696 48.0748C641.268 48.0748 641.772 47.8278 642.207 47.3337C642.65 46.8206 643.016 46.0414 643.306 44.9962C643.604 43.932 643.825 42.5827 643.97 40.9484C644.122 39.2951 644.199 37.3187 644.199 35.0192Z" fill="#6D6D6D"/>
<path d="M650.208 10.6468H652.245L656.607 44.4831L660.956 10.6468H662.994L657.396 52.1511H655.794L650.208 10.6468ZM649.544 10.6468H651.33L651.639 35.9599V52.1511H649.544V10.6468ZM661.86 10.6468H663.646V52.1511H661.551V35.9599L661.86 10.6468Z" fill="#6D6D6D"/>
<path d="M668.866 27.5507H672.654C673.684 27.5507 674.554 28.0638 675.264 29.09C675.981 30.0972 676.523 31.513 676.889 33.3373C677.263 35.1617 677.45 37.2996 677.45 39.7511C677.45 41.5755 677.343 43.2478 677.13 44.7682C676.924 46.2695 676.615 47.5807 676.203 48.7019C675.798 49.8042 675.298 50.6593 674.703 51.2675C674.108 51.8566 673.425 52.1511 672.654 52.1511H667.206V10.6468H669.312V47.6757H672.654C673.295 47.6757 673.81 47.3052 674.2 46.564C674.596 45.8039 674.886 44.8157 675.069 43.5994C675.253 42.3832 675.344 41.0814 675.344 39.6941C675.344 38.3069 675.253 37.0336 675.069 35.8744C674.886 34.7151 674.596 33.7934 674.2 33.1093C673.81 32.4062 673.295 32.0546 672.654 32.0546H668.866V27.5507Z" fill="#6D6D6D"/>
<path d="M682.487 10.6468V52.1511H680.403V10.6468H682.487ZM686.871 10.6468V15.1507H676.031V10.6468H686.871Z" fill="#6D6D6D"/>
<path d="M698.294 47.6757V52.1511H691.06V47.6757H698.294ZM691.438 10.6468V52.1511H689.332V10.6468H691.438ZM697.321 28.4914V32.9668H691.06V28.4914H697.321ZM698.18 10.6468V15.1507H691.06V10.6468H698.18Z" fill="#6D6D6D"/>
<path d="M709.328 38.953H711.434C711.381 41.8036 711.148 44.2646 710.736 46.336C710.332 48.3884 709.74 49.9657 708.962 51.0679C708.191 52.1701 707.226 52.7213 706.066 52.7213C705.234 52.7213 704.483 52.3127 703.811 51.4955C703.14 50.6783 702.563 49.5096 702.083 47.9893C701.61 46.45 701.247 44.6066 700.995 42.4592C700.744 40.3118 700.618 37.8983 700.618 35.2187V27.5507C700.618 24.8901 700.744 22.4862 700.995 20.3387C701.255 18.1913 701.625 16.3574 702.106 14.8371C702.594 13.2978 703.185 12.1196 703.88 11.3024C704.582 10.4852 705.375 10.0767 706.261 10.0767C707.344 10.0767 708.26 10.6183 709.008 11.7015C709.763 12.7657 710.343 14.3335 710.748 16.4049C711.16 18.4573 711.389 20.9754 711.434 23.959H709.328C709.275 21.7735 709.138 19.9967 708.916 18.6284C708.695 17.2411 708.367 16.2244 707.932 15.5783C707.505 14.9131 706.947 14.5806 706.261 14.5806C705.65 14.5806 705.12 14.8846 704.67 15.4928C704.227 16.1009 703.861 16.9751 703.571 18.1153C703.288 19.2365 703.075 20.5953 702.93 22.1916C702.792 23.7689 702.724 25.5363 702.724 27.4937V35.2187C702.724 37.0431 702.781 38.7439 702.895 40.3213C703.018 41.8986 703.208 43.2859 703.468 44.4831C703.735 45.6613 704.082 46.583 704.509 47.2482C704.937 47.9133 705.456 48.2459 706.066 48.2459C706.837 48.2459 707.447 47.9323 707.897 47.3052C708.348 46.678 708.68 45.6803 708.893 44.3121C709.115 42.9438 709.26 41.1574 709.328 38.953Z" fill="#6D6D6D"/>
<path d="M715.887 27.5507H719.676C720.706 27.5507 721.576 28.0638 722.285 29.09C723.003 30.0972 723.545 31.513 723.911 33.3373C724.285 35.1617 724.472 37.2996 724.472 39.7511C724.472 41.5755 724.365 43.2478 724.151 44.7682C723.945 46.2695 723.636 47.5807 723.224 48.7019C722.82 49.8042 722.32 50.6593 721.725 51.2675C721.129 51.8566 720.446 52.1511 719.676 52.1511H714.227V10.6468H716.333V47.6757H719.676C720.317 47.6757 720.832 47.3052 721.221 46.564C721.618 45.8039 721.908 44.8157 722.091 43.5994C722.274 42.3832 722.366 41.0814 722.366 39.6941C722.366 38.3069 722.274 37.0336 722.091 35.8744C721.908 34.7151 721.618 33.7934 721.221 33.1093C720.832 32.4062 720.317 32.0546 719.676 32.0546H715.887V27.5507Z" fill="#6D6D6D"/>
<path d="M740.943 38.953H743.049C742.996 41.8036 742.763 44.2646 742.351 46.336C741.946 48.3884 741.355 49.9657 740.577 51.0679C739.806 52.1701 738.841 52.7213 737.681 52.7213C736.849 52.7213 736.097 52.3127 735.426 51.4955C734.754 50.6783 734.178 49.5096 733.697 47.9893C733.224 46.45 732.862 44.6066 732.61 42.4592C732.358 40.3118 732.232 37.8983 732.232 35.2187V27.5507C732.232 24.8901 732.358 22.4862 732.61 20.3387C732.87 18.1913 733.24 16.3574 733.72 14.8371C734.209 13.2978 734.8 12.1196 735.495 11.3024C736.197 10.4852 736.99 10.0767 737.875 10.0767C738.959 10.0767 739.875 10.6183 740.622 11.7015C741.378 12.7657 741.958 14.3335 742.362 16.4049C742.774 18.4573 743.003 20.9754 743.049 23.959H740.943C740.89 21.7735 740.752 19.9967 740.531 18.6284C740.31 17.2411 739.982 16.2244 739.547 15.5783C739.119 14.9131 738.562 14.5806 737.875 14.5806C737.265 14.5806 736.735 14.8846 736.284 15.4928C735.842 16.1009 735.475 16.9751 735.185 18.1153C734.903 19.2365 734.689 20.5953 734.544 22.1916C734.407 23.7689 734.339 25.5363 734.339 27.4937V35.2187C734.339 37.0431 734.396 38.7439 734.51 40.3213C734.632 41.8986 734.823 43.2859 735.082 44.4831C735.35 45.6613 735.697 46.583 736.124 47.2482C736.551 47.9133 737.07 48.2459 737.681 48.2459C738.451 48.2459 739.062 47.9323 739.512 47.3052C739.962 46.678 740.294 45.6803 740.508 44.3121C740.729 42.9438 740.874 41.1574 740.943 38.953Z" fill="#6D6D6D"/>
<path d="M753.477 42.6302L759.967 10.6468H762.073V52.1511H759.967V20.1392L753.477 52.1511H751.382V10.6468H753.477V42.6302Z" fill="#6D6D6D"/>
<path d="M774.858 28.4914V32.9668H767.636V28.4914H774.858ZM767.922 10.6468V52.1511H765.816V10.6468H767.922ZM776.724 10.6468V52.1511H774.618V10.6468H776.724Z" fill="#6D6D6D"/>
<path d="M788.697 38.953H790.803C790.75 41.8036 790.517 44.2646 790.105 46.336C789.7 48.3884 789.109 49.9657 788.331 51.0679C787.56 52.1701 786.595 52.7213 785.435 52.7213C784.603 52.7213 783.851 52.3127 783.18 51.4955C782.508 50.6783 781.932 49.5096 781.452 47.9893C780.978 46.45 780.616 44.6066 780.364 42.4592C780.112 40.3118 779.986 37.8983 779.986 35.2187V27.5507C779.986 24.8901 780.112 22.4862 780.364 20.3387C780.624 18.1913 780.994 16.3574 781.474 14.8371C781.963 13.2978 782.554 12.1196 783.249 11.3024C783.951 10.4852 784.744 10.0767 785.629 10.0767C786.713 10.0767 787.629 10.6183 788.377 11.7015C789.132 12.7657 789.712 14.3335 790.116 16.4049C790.528 18.4573 790.757 20.9754 790.803 23.959H788.697C788.644 21.7735 788.506 19.9967 788.285 18.6284C788.064 17.2411 787.736 16.2244 787.301 15.5783C786.873 14.9131 786.316 14.5806 785.629 14.5806C785.019 14.5806 784.489 14.8846 784.038 15.4928C783.596 16.1009 783.229 16.9751 782.94 18.1153C782.657 19.2365 782.444 20.5953 782.299 22.1916C782.161 23.7689 782.093 25.5363 782.093 27.4937V35.2187C782.093 37.0431 782.15 38.7439 782.264 40.3213C782.386 41.8986 782.577 43.2859 782.837 44.4831C783.104 45.6613 783.451 46.583 783.878 47.2482C784.305 47.9133 784.824 48.2459 785.435 48.2459C786.206 48.2459 786.816 47.9323 787.266 47.3052C787.716 46.678 788.048 45.6803 788.262 44.3121C788.483 42.9438 788.628 41.1574 788.697 38.953Z" fill="#6D6D6D"/>
<path d="M798.667 10.6468V52.1511H796.584V10.6468H798.667ZM803.051 10.6468V15.1507H792.211V10.6468H803.051Z" fill="#6D6D6D"/>
<path d="M810.823 35.8744H807.183V31.399H810.823C811.51 31.399 812.063 31.0569 812.482 30.3728C812.91 29.6886 813.219 28.7384 813.41 27.5222C813.608 26.3059 813.707 24.9187 813.707 23.3603C813.707 21.9351 813.608 20.5953 813.41 19.341C813.219 18.0868 812.91 17.0796 812.482 16.3194C812.063 15.5403 811.51 15.1507 810.823 15.1507H807.618V52.1511H805.512V10.6468H810.823C811.899 10.6468 812.807 11.1884 813.547 12.2716C814.287 13.3548 814.848 14.8561 815.23 16.7755C815.619 18.6759 815.813 20.8518 815.813 23.3033C815.813 25.9639 815.619 28.2348 815.23 30.1162C814.848 31.9976 814.287 33.4324 813.547 34.4206C812.807 35.3898 811.899 35.8744 810.823 35.8744Z" fill="#6D6D6D"/>
<path d="M822.773 38.3829L826.31 10.6468H828.736L823.94 45.2242C823.788 46.1934 823.624 47.1341 823.448 48.0463C823.28 48.9395 823.074 49.7377 822.83 50.4408C822.586 51.1439 822.281 51.7046 821.914 52.1226C821.548 52.5407 821.09 52.7498 820.541 52.7498C820.373 52.7498 820.178 52.7213 819.957 52.6642C819.743 52.6262 819.606 52.5787 819.545 52.5217L819.591 48.1318C819.659 48.1698 819.8 48.2078 820.014 48.2459C820.235 48.2649 820.392 48.2744 820.483 48.2744C820.827 48.2744 821.09 48.0558 821.273 47.6187C821.464 47.1816 821.613 46.6305 821.72 45.9654C821.826 45.2813 821.93 44.5876 822.029 43.8845L822.773 38.3829ZM820.117 10.6468L823.711 36.5015L824.203 41.604L822.429 41.9461L817.771 10.6468H820.117Z" fill="#6D6D6D"/>
<path d="M833.567 10.6468V52.1511H831.46V10.6468H833.567ZM842.14 10.6468L836.119 33.4799H832.731L832.376 28.919H834.849L839.53 10.6468H842.14ZM839.965 52.1511L834.952 32.7672L836.131 27.9498L842.529 52.1511H839.965Z" fill="#6D6D6D"/>
<path d="M856.837 47.5332L856.631 62.1567H854.754V52.1511H853.369V47.5332H856.837ZM844.601 52.1511V10.6468H846.707V47.6757H853.22V10.6468H855.326V52.1511H844.601Z" fill="#6D6D6D"/>
<path d="M861.69 42.6302L868.18 10.6468H870.286V52.1511H868.18V20.1392L861.69 52.1511H859.596V10.6468H861.69V42.6302Z" fill="#6D6D6D"/>
<path d="M882.992 47.6757V52.1511H875.758V47.6757H882.992ZM876.135 10.6468V52.1511H874.029V10.6468H876.135ZM882.019 28.4914V32.9668H875.758V28.4914H882.019ZM882.877 10.6468V15.1507H875.758V10.6468H882.877Z" fill="#6D6D6D"/>
<path d="M887.879 42.6302L894.369 10.6468H896.476V52.1511H894.369V20.1392L887.879 52.1511H885.785V10.6468H887.879V42.6302ZM892.87 0.356201H894.587C894.587 1.8385 894.45 3.15927 894.175 4.3185C893.9 5.45873 893.507 6.35191 892.996 6.99804C892.485 7.64417 891.878 7.96724 891.176 7.96724C890.115 7.96724 889.276 7.26409 888.658 5.85781C888.047 4.43252 887.742 2.59865 887.742 0.356201H889.459C889.459 1.47743 889.589 2.46563 889.848 3.3208C890.108 4.17597 890.55 4.60356 891.176 4.60356C891.786 4.60356 892.221 4.17597 892.481 3.3208C892.74 2.46563 892.87 1.47743 892.87 0.356201Z" fill="#6D6D6D"/>
<path d="M907.796 42.6302L914.286 10.6468H916.392V52.1511H914.286V20.1392L907.796 52.1511H905.701V10.6468H907.796V42.6302Z" fill="#6D6D6D"/>
<path d="M929.212 10.6468V15.1507H922.985V10.6468H929.212ZM931.066 10.6468V52.1511H928.96V10.6468H931.066ZM922.276 10.6468H924.37L924.073 30.9714C924.034 33.898 923.962 36.511 923.855 38.8105C923.748 41.0909 923.596 43.0768 923.397 44.7682C923.199 46.4405 922.939 47.8278 922.619 48.93C922.298 50.0132 921.905 50.8209 921.44 51.353C920.982 51.8851 920.436 52.1511 919.803 52.1511H919.254V47.6757L919.654 47.5902C920.005 47.5142 920.307 47.2767 920.559 46.8776C920.818 46.4595 921.032 45.8324 921.2 44.9962C921.375 44.16 921.516 43.0768 921.623 41.7465C921.738 40.4163 921.825 38.7915 921.886 36.8721C921.947 34.9337 921.993 32.6722 922.024 30.0877L922.276 10.6468Z" fill="#6D6D6D"/>
<path d="M936.984 42.6302L943.474 10.6468H945.58V52.1511H943.474V20.1392L936.984 52.1511H934.889V10.6468H936.984V42.6302Z" fill="#6D6D6D"/>
<path d="M965.531 10.6468V52.1511H963.425V15.1507H956.912V52.1511H954.806V10.6468H965.531Z" fill="#6D6D6D"/>
<path d="M974.574 35.8744H970.934V31.399H974.574C975.261 31.399 975.814 31.0569 976.233 30.3728C976.661 29.6886 976.97 28.7384 977.161 27.5222C977.359 26.3059 977.458 24.9187 977.458 23.3603C977.458 21.9351 977.359 20.5953 977.161 19.341C976.97 18.0868 976.661 17.0796 976.233 16.3194C975.814 15.5403 975.261 15.1507 974.574 15.1507H971.369V52.1511H969.263V10.6468H974.574C975.65 10.6468 976.558 11.1884 977.298 12.2716C978.038 13.3548 978.599 14.8561 978.981 16.7755C979.37 18.6759 979.564 20.8518 979.564 23.3033C979.564 25.9639 979.37 28.2348 978.981 30.1162C978.599 31.9976 978.038 33.4324 977.298 34.4206C976.558 35.3898 975.65 35.8744 974.574 35.8744Z" fill="#6D6D6D"/>
<path d="M993.105 27.8072V35.0192C993.105 37.9458 992.976 40.5208 992.716 42.7442C992.464 44.9487 992.094 46.7921 991.606 48.2744C991.117 49.7567 990.53 50.8684 989.843 51.6095C989.156 52.3507 988.382 52.7213 987.52 52.7213C986.688 52.7213 985.928 52.3507 985.242 51.6095C984.555 50.8684 983.964 49.7567 983.468 48.2744C982.972 46.7921 982.586 44.9487 982.311 42.7442C982.044 40.5208 981.911 37.9458 981.911 35.0192V27.8072C981.911 24.8806 982.044 22.3151 982.311 20.1107C982.579 17.8872 982.96 16.0344 983.456 14.5521C983.952 13.0698 984.544 11.958 985.23 11.2169C985.917 10.4567 986.676 10.0767 987.508 10.0767C988.37 10.0767 989.145 10.4567 989.832 11.2169C990.526 11.958 991.114 13.0698 991.594 14.5521C992.083 16.0344 992.457 17.8872 992.716 20.1107C992.976 22.3151 993.105 24.8806 993.105 27.8072ZM991.022 35.0192V27.7502C991.022 25.4698 990.946 23.5124 990.793 21.878C990.641 20.2247 990.415 18.8754 990.118 17.8302C989.82 16.785 989.454 16.0154 989.019 15.5213C988.584 15.0082 988.08 14.7516 987.508 14.7516C986.966 14.7516 986.478 15.0082 986.043 15.5213C985.616 16.0154 985.249 16.785 984.944 17.8302C984.639 18.8754 984.402 20.2247 984.234 21.878C984.074 23.5124 983.994 25.4698 983.994 27.7502V35.0192C983.994 37.3187 984.074 39.2951 984.234 40.9484C984.402 42.5827 984.639 43.932 984.944 44.9962C985.257 46.0414 985.631 46.8206 986.066 47.3337C986.501 47.8278 986.985 48.0748 987.52 48.0748C988.092 48.0748 988.595 47.8278 989.03 47.3337C989.473 46.8206 989.839 46.0414 990.129 44.9962C990.427 43.932 990.648 42.5827 990.793 40.9484C990.946 39.2951 991.022 37.3187 991.022 35.0192Z" fill="#6D6D6D"/>
<path d="M998.577 10.6468V52.1511H996.471V10.6468H998.577ZM1007.15 10.6468L1001.13 33.4799H997.741L997.386 28.919H999.859L1004.54 10.6468H1007.15ZM1004.98 52.1511L999.962 32.7672L1001.14 27.9498L1007.54 52.1511H1004.98Z" fill="#6D6D6D"/>
<path d="M1019.98 27.8072V35.0192C1019.98 37.9458 1019.85 40.5208 1019.59 42.7442C1019.34 44.9487 1018.97 46.7921 1018.48 48.2744C1017.99 49.7567 1017.41 50.8684 1016.72 51.6095C1016.03 52.3507 1015.26 52.7213 1014.4 52.7213C1013.56 52.7213 1012.8 52.3507 1012.12 51.6095C1011.43 50.8684 1010.84 49.7567 1010.34 48.2744C1009.85 46.7921 1009.46 44.9487 1009.19 42.7442C1008.92 40.5208 1008.79 37.9458 1008.79 35.0192V27.8072C1008.79 24.8806 1008.92 22.3151 1009.19 20.1107C1009.45 17.8872 1009.84 16.0344 1010.33 14.5521C1010.83 13.0698 1011.42 11.958 1012.11 11.2169C1012.79 10.4567 1013.55 10.0767 1014.38 10.0767C1015.25 10.0767 1016.02 10.4567 1016.71 11.2169C1017.4 11.958 1017.99 13.0698 1018.47 14.5521C1018.96 16.0344 1019.33 17.8872 1019.59 20.1107C1019.85 22.3151 1019.98 24.8806 1019.98 27.8072ZM1017.9 35.0192V27.7502C1017.9 25.4698 1017.82 23.5124 1017.67 21.878C1017.52 20.2247 1017.29 18.8754 1016.99 17.8302C1016.7 16.785 1016.33 16.0154 1015.89 15.5213C1015.46 15.0082 1014.96 14.7516 1014.38 14.7516C1013.84 14.7516 1013.35 15.0082 1012.92 15.5213C1012.49 16.0154 1012.13 16.785 1011.82 17.8302C1011.51 18.8754 1011.28 20.2247 1011.11 21.878C1010.95 23.5124 1010.87 25.4698 1010.87 27.7502V35.0192C1010.87 37.3187 1010.95 39.2951 1011.11 40.9484C1011.28 42.5827 1011.51 43.932 1011.82 44.9962C1012.13 46.0414 1012.51 46.8206 1012.94 47.3337C1013.38 47.8278 1013.86 48.0748 1014.4 48.0748C1014.97 48.0748 1015.47 47.8278 1015.91 47.3337C1016.35 46.8206 1016.72 46.0414 1017.01 44.9962C1017.3 43.932 1017.52 42.5827 1017.67 40.9484C1017.82 39.2951 1017.9 37.3187 1017.9 35.0192Z" fill="#6D6D6D"/>
<path d="M1032.29 28.4914V32.9668H1025.06V28.4914H1032.29ZM1025.35 10.6468V52.1511H1023.24V10.6468H1025.35ZM1034.15 10.6468V52.1511H1032.05V10.6468H1034.15Z" fill="#6D6D6D"/>
<path d="M1046.12 38.953H1048.23C1048.18 41.8036 1047.94 44.2646 1047.53 46.336C1047.13 48.3884 1046.54 49.9657 1045.76 51.0679C1044.99 52.1701 1044.02 52.7213 1042.86 52.7213C1042.03 52.7213 1041.28 52.3127 1040.61 51.4955C1039.94 50.6783 1039.36 49.5096 1038.88 47.9893C1038.41 46.45 1038.04 44.6066 1037.79 42.4592C1037.54 40.3118 1037.41 37.8983 1037.41 35.2187V27.5507C1037.41 24.8901 1037.54 22.4862 1037.79 20.3387C1038.05 18.1913 1038.42 16.3574 1038.9 14.8371C1039.39 13.2978 1039.98 12.1196 1040.68 11.3024C1041.38 10.4852 1042.17 10.0767 1043.06 10.0767C1044.14 10.0767 1045.06 10.6183 1045.8 11.7015C1046.56 12.7657 1047.14 14.3335 1047.54 16.4049C1047.96 18.4573 1048.19 20.9754 1048.23 23.959H1046.12C1046.07 21.7735 1045.93 19.9967 1045.71 18.6284C1045.49 17.2411 1045.16 16.2244 1044.73 15.5783C1044.3 14.9131 1043.74 14.5806 1043.06 14.5806C1042.45 14.5806 1041.92 14.8846 1041.47 15.4928C1041.02 16.1009 1040.66 16.9751 1040.37 18.1153C1040.08 19.2365 1039.87 20.5953 1039.73 22.1916C1039.59 23.7689 1039.52 25.5363 1039.52 27.4937V35.2187C1039.52 37.0431 1039.58 38.7439 1039.69 40.3213C1039.81 41.8986 1040 43.2859 1040.26 44.4831C1040.53 45.6613 1040.88 46.583 1041.31 47.2482C1041.73 47.9133 1042.25 48.2459 1042.86 48.2459C1043.63 48.2459 1044.24 47.9323 1044.69 47.3052C1045.14 46.678 1045.48 45.6803 1045.69 44.3121C1045.91 42.9438 1046.06 41.1574 1046.12 38.953Z" fill="#6D6D6D"/>
<path d="M1055.34 38.3829L1058.88 10.6468H1061.3L1056.51 45.2242C1056.35 46.1934 1056.19 47.1341 1056.01 48.0463C1055.85 48.9395 1055.64 49.7377 1055.4 50.4408C1055.15 51.1439 1054.85 51.7046 1054.48 52.1226C1054.11 52.5407 1053.66 52.7498 1053.11 52.7498C1052.94 52.7498 1052.74 52.7213 1052.52 52.6642C1052.31 52.6262 1052.17 52.5787 1052.11 52.5217L1052.16 48.1318C1052.23 48.1698 1052.37 48.2078 1052.58 48.2459C1052.8 48.2649 1052.96 48.2744 1053.05 48.2744C1053.39 48.2744 1053.66 48.0558 1053.84 47.6187C1054.03 47.1816 1054.18 46.6305 1054.29 45.9654C1054.39 45.2813 1054.5 44.5876 1054.59 43.8845L1055.34 38.3829ZM1052.68 10.6468L1056.28 36.5015L1056.77 41.604L1055 41.9461L1050.34 10.6468H1052.68Z" fill="#6D6D6D"/>
<path d="M1072.18 10.6468V15.1507H1065.95V10.6468H1072.18ZM1074.03 10.6468V52.1511H1071.92V10.6468H1074.03ZM1065.24 10.6468H1067.33L1067.04 30.9714C1067 33.898 1066.93 36.511 1066.82 38.8105C1066.71 41.0909 1066.56 43.0768 1066.36 44.7682C1066.16 46.4405 1065.9 47.8278 1065.58 48.93C1065.26 50.0132 1064.87 50.8209 1064.4 51.353C1063.95 51.8851 1063.4 52.1511 1062.77 52.1511H1062.22V47.6757L1062.62 47.5902C1062.97 47.5142 1063.27 47.2767 1063.52 46.8776C1063.78 46.4595 1064 45.8324 1064.16 44.9962C1064.34 44.16 1064.48 43.0768 1064.59 41.7465C1064.7 40.4163 1064.79 38.7915 1064.85 36.8721C1064.91 34.9337 1064.96 32.6722 1064.99 30.0877L1065.24 10.6468Z" fill="#6D6D6D"/>
<path d="M1079.35 27.5507H1083.14C1084.17 27.5507 1085.04 28.0638 1085.75 29.09C1086.47 30.0972 1087.01 31.513 1087.38 33.3373C1087.75 35.1617 1087.94 37.2996 1087.94 39.7511C1087.94 41.5755 1087.83 43.2478 1087.62 44.7682C1087.41 46.2695 1087.1 47.5807 1086.69 48.7019C1086.29 49.8042 1085.79 50.6593 1085.19 51.2675C1084.6 51.8566 1083.91 52.1511 1083.14 52.1511H1077.69V10.6468H1079.8V47.6757H1083.14C1083.78 47.6757 1084.3 47.3052 1084.69 46.564C1085.08 45.8039 1085.37 44.8157 1085.56 43.5994C1085.74 42.3832 1085.83 41.0814 1085.83 39.6941C1085.83 38.3069 1085.74 37.0336 1085.56 35.8744C1085.37 34.7151 1085.08 33.7934 1084.69 33.1093C1084.3 32.4062 1083.78 32.0546 1083.14 32.0546H1079.35V27.5507Z" fill="#6D6D6D"/>
<path d="M1092.97 10.6468V52.1511H1090.89V10.6468H1092.97ZM1097.36 10.6468V15.1507H1086.52V10.6468H1097.36Z" fill="#6D6D6D"/>
<path d="M1102.02 42.6302L1108.51 10.6468H1110.61V52.1511H1108.51V20.1392L1102.02 52.1511H1099.92V10.6468H1102.02V42.6302Z" fill="#6D6D6D"/>
<path d="M1119.67 35.8744H1116.03V31.399H1119.67C1120.35 31.399 1120.91 31.0569 1121.33 30.3728C1121.75 29.6886 1122.06 28.7384 1122.25 27.5222C1122.45 26.3059 1122.55 24.9187 1122.55 23.3603C1122.55 21.9351 1122.45 20.5953 1122.25 19.341C1122.06 18.0868 1121.75 17.0796 1121.33 16.3194C1120.91 15.5403 1120.35 15.1507 1119.67 15.1507H1116.46V52.1511H1114.36V10.6468H1119.67C1120.74 10.6468 1121.65 11.1884 1122.39 12.2716C1123.13 13.3548 1123.69 14.8561 1124.07 16.7755C1124.46 18.6759 1124.66 20.8518 1124.66 23.3033C1124.66 25.9639 1124.46 28.2348 1124.07 30.1162C1123.69 31.9976 1123.13 33.4324 1122.39 34.4206C1121.65 35.3898 1120.74 35.8744 1119.67 35.8744Z" fill="#6D6D6D"/>
<path d="M1131.62 38.3829L1135.15 10.6468H1137.58L1132.78 45.2242C1132.63 46.1934 1132.47 47.1341 1132.29 48.0463C1132.12 48.9395 1131.92 49.7377 1131.67 50.4408C1131.43 51.1439 1131.13 51.7046 1130.76 52.1226C1130.39 52.5407 1129.93 52.7498 1129.39 52.7498C1129.22 52.7498 1129.02 52.7213 1128.8 52.6642C1128.59 52.6262 1128.45 52.5787 1128.39 52.5217L1128.44 48.1318C1128.5 48.1698 1128.65 48.2078 1128.86 48.2459C1129.08 48.2649 1129.24 48.2744 1129.33 48.2744C1129.67 48.2744 1129.93 48.0558 1130.12 47.6187C1130.31 47.1816 1130.46 46.6305 1130.56 45.9654C1130.67 45.2813 1130.77 44.5876 1130.87 43.8845L1131.62 38.3829ZM1128.96 10.6468L1132.56 36.5015L1133.05 41.604L1131.27 41.9461L1126.62 10.6468H1128.96Z" fill="#6D6D6D"/>
<path d="M1142.4 42.6302L1148.89 10.6468H1151V52.1511H1148.89V20.1392L1142.4 52.1511H1140.31V10.6468H1142.4V42.6302ZM1147.39 0.356201H1149.11C1149.11 1.8385 1148.97 3.15927 1148.7 4.3185C1148.42 5.45873 1148.03 6.35191 1147.52 6.99804C1147 7.64417 1146.4 7.96724 1145.7 7.96724C1144.64 7.96724 1143.8 7.26409 1143.18 5.85781C1142.57 4.43252 1142.26 2.59865 1142.26 0.356201H1143.98C1143.98 1.47743 1144.11 2.46563 1144.37 3.3208C1144.63 4.17597 1145.07 4.60356 1145.7 4.60356C1146.31 4.60356 1146.74 4.17597 1147 3.3208C1147.26 2.46563 1147.39 1.47743 1147.39 0.356201Z" fill="#6D6D6D"/>
<path d="M1160.1 10.6468V52.1511H1158.01V10.6468H1160.1ZM1164.48 10.6468V15.1507H1153.64V10.6468H1164.48Z" fill="#6D6D6D"/>
<path d="M1175.9 47.6757V52.1511H1168.67V47.6757H1175.9ZM1169.05 10.6468V52.1511H1166.94V10.6468H1169.05ZM1174.93 28.4914V32.9668H1168.67V28.4914H1174.93ZM1175.79 10.6468V15.1507H1168.67V10.6468H1175.79Z" fill="#6D6D6D"/>
<path d="M1186.94 38.953H1189.04C1188.99 41.8036 1188.76 44.2646 1188.35 46.336C1187.94 48.3884 1187.35 49.9657 1186.57 51.0679C1185.8 52.1701 1184.83 52.7213 1183.68 52.7213C1182.84 52.7213 1182.09 52.3127 1181.42 51.4955C1180.75 50.6783 1180.17 49.5096 1179.69 47.9893C1179.22 46.45 1178.86 44.6066 1178.6 42.4592C1178.35 40.3118 1178.23 37.8983 1178.23 35.2187V27.5507C1178.23 24.8901 1178.35 22.4862 1178.6 20.3387C1178.86 18.1913 1179.23 16.3574 1179.71 14.8371C1180.2 13.2978 1180.79 12.1196 1181.49 11.3024C1182.19 10.4852 1182.98 10.0767 1183.87 10.0767C1184.95 10.0767 1185.87 10.6183 1186.62 11.7015C1187.37 12.7657 1187.95 14.3335 1188.36 16.4049C1188.77 18.4573 1189 20.9754 1189.04 23.959H1186.94C1186.88 21.7735 1186.75 19.9967 1186.53 18.6284C1186.3 17.2411 1185.98 16.2244 1185.54 15.5783C1185.11 14.9131 1184.56 14.5806 1183.87 14.5806C1183.26 14.5806 1182.73 14.8846 1182.28 15.4928C1181.84 16.1009 1181.47 16.9751 1181.18 18.1153C1180.9 19.2365 1180.68 20.5953 1180.54 22.1916C1180.4 23.7689 1180.33 25.5363 1180.33 27.4937V35.2187C1180.33 37.0431 1180.39 38.7439 1180.5 40.3213C1180.63 41.8986 1180.82 43.2859 1181.08 44.4831C1181.34 45.6613 1181.69 46.583 1182.12 47.2482C1182.55 47.9133 1183.06 48.2459 1183.68 48.2459C1184.45 48.2459 1185.06 47.9323 1185.51 47.3052C1185.96 46.678 1186.29 45.6803 1186.5 44.3121C1186.72 42.9438 1186.87 41.1574 1186.94 38.953Z" fill="#6D6D6D"/>
<path d="M1193.5 27.5507H1197.28C1198.31 27.5507 1199.18 28.0638 1199.89 29.09C1200.61 30.0972 1201.15 31.513 1201.52 33.3373C1201.89 35.1617 1202.08 37.2996 1202.08 39.7511C1202.08 41.5755 1201.97 43.2478 1201.76 44.7682C1201.55 46.2695 1201.25 47.5807 1200.83 48.7019C1200.43 49.8042 1199.93 50.6593 1199.33 51.2675C1198.74 51.8566 1198.06 52.1511 1197.28 52.1511H1191.84V10.6468H1193.94V47.6757H1197.28C1197.93 47.6757 1198.44 47.3052 1198.83 46.564C1199.23 45.8039 1199.52 44.8157 1199.7 43.5994C1199.88 42.3832 1199.97 41.0814 1199.97 39.6941C1199.97 38.3069 1199.88 37.0336 1199.7 35.8744C1199.52 34.7151 1199.23 33.7934 1198.83 33.1093C1198.44 32.4062 1197.93 32.0546 1197.28 32.0546H1193.5V27.5507Z" fill="#6D6D6D"/>
<path d="M1218.55 38.953H1220.66C1220.6 41.8036 1220.37 44.2646 1219.96 46.336C1219.56 48.3884 1218.96 49.9657 1218.19 51.0679C1217.42 52.1701 1216.45 52.7213 1215.29 52.7213C1214.46 52.7213 1213.71 52.3127 1213.03 51.4955C1212.36 50.6783 1211.79 49.5096 1211.31 47.9893C1210.83 46.45 1210.47 44.6066 1210.22 42.4592C1209.97 40.3118 1209.84 37.8983 1209.84 35.2187V27.5507C1209.84 24.8901 1209.97 22.4862 1210.22 20.3387C1210.48 18.1913 1210.85 16.3574 1211.33 14.8371C1211.82 13.2978 1212.41 12.1196 1213.1 11.3024C1213.81 10.4852 1214.6 10.0767 1215.48 10.0767C1216.57 10.0767 1217.48 10.6183 1218.23 11.7015C1218.99 12.7657 1219.57 14.3335 1219.97 16.4049C1220.38 18.4573 1220.61 20.9754 1220.66 23.959H1218.55C1218.5 21.7735 1218.36 19.9967 1218.14 18.6284C1217.92 17.2411 1217.59 16.2244 1217.16 15.5783C1216.73 14.9131 1216.17 14.5806 1215.48 14.5806C1214.87 14.5806 1214.34 14.8846 1213.89 15.4928C1213.45 16.1009 1213.08 16.9751 1212.79 18.1153C1212.51 19.2365 1212.3 20.5953 1212.15 22.1916C1212.02 23.7689 1211.95 25.5363 1211.95 27.4937V35.2187C1211.95 37.0431 1212 38.7439 1212.12 40.3213C1212.24 41.8986 1212.43 43.2859 1212.69 44.4831C1212.96 45.6613 1213.31 46.583 1213.73 47.2482C1214.16 47.9133 1214.68 48.2459 1215.29 48.2459C1216.06 48.2459 1216.67 47.9323 1217.12 47.3052C1217.57 46.678 1217.9 45.6803 1218.12 44.3121C1218.34 42.9438 1218.48 41.1574 1218.55 38.953Z" fill="#6D6D6D"/>
<path d="M1234.35 27.8072V35.0192C1234.35 37.9458 1234.22 40.5208 1233.96 42.7442C1233.71 44.9487 1233.34 46.7921 1232.85 48.2744C1232.36 49.7567 1231.77 50.8684 1231.09 51.6095C1230.4 52.3507 1229.62 52.7213 1228.76 52.7213C1227.93 52.7213 1227.17 52.3507 1226.48 51.6095C1225.8 50.8684 1225.21 49.7567 1224.71 48.2744C1224.21 46.7921 1223.83 44.9487 1223.55 42.7442C1223.29 40.5208 1223.15 37.9458 1223.15 35.0192V27.8072C1223.15 24.8806 1223.29 22.3151 1223.55 20.1107C1223.82 17.8872 1224.2 16.0344 1224.7 14.5521C1225.19 13.0698 1225.79 11.958 1226.47 11.2169C1227.16 10.4567 1227.92 10.0767 1228.75 10.0767C1229.61 10.0767 1230.39 10.4567 1231.07 11.2169C1231.77 11.958 1232.36 13.0698 1232.84 14.5521C1233.33 16.0344 1233.7 17.8872 1233.96 20.1107C1234.22 22.3151 1234.35 24.8806 1234.35 27.8072ZM1232.26 35.0192V27.7502C1232.26 25.4698 1232.19 23.5124 1232.04 21.878C1231.88 20.2247 1231.66 18.8754 1231.36 17.8302C1231.06 16.785 1230.7 16.0154 1230.26 15.5213C1229.83 15.0082 1229.32 14.7516 1228.75 14.7516C1228.21 14.7516 1227.72 15.0082 1227.29 15.5213C1226.86 16.0154 1226.49 16.785 1226.19 17.8302C1225.88 18.8754 1225.64 20.2247 1225.48 21.878C1225.32 23.5124 1225.24 25.4698 1225.24 27.7502V35.0192C1225.24 37.3187 1225.32 39.2951 1225.48 40.9484C1225.64 42.5827 1225.88 43.932 1226.19 44.9962C1226.5 46.0414 1226.87 46.8206 1227.31 47.3337C1227.74 47.8278 1228.23 48.0748 1228.76 48.0748C1229.33 48.0748 1229.84 47.8278 1230.27 47.3337C1230.72 46.8206 1231.08 46.0414 1231.37 44.9962C1231.67 43.932 1231.89 42.5827 1232.04 40.9484C1232.19 39.2951 1232.26 37.3187 1232.26 35.0192Z" fill="#6D6D6D"/>
<path d="M1251.33 38.953H1253.44C1253.39 41.8036 1253.15 44.2646 1252.74 46.336C1252.34 48.3884 1251.75 49.9657 1250.97 51.0679C1250.2 52.1701 1249.23 52.7213 1248.07 52.7213C1247.24 52.7213 1246.49 52.3127 1245.82 51.4955C1245.15 50.6783 1244.57 49.5096 1244.09 47.9893C1243.62 46.45 1243.25 44.6066 1243 42.4592C1242.75 40.3118 1242.62 37.8983 1242.62 35.2187V27.5507C1242.62 24.8901 1242.75 22.4862 1243 20.3387C1243.26 18.1913 1243.63 16.3574 1244.11 14.8371C1244.6 13.2978 1245.19 12.1196 1245.89 11.3024C1246.59 10.4852 1247.38 10.0767 1248.27 10.0767C1249.35 10.0767 1250.27 10.6183 1251.01 11.7015C1251.77 12.7657 1252.35 14.3335 1252.75 16.4049C1253.17 18.4573 1253.39 20.9754 1253.44 23.959H1251.33C1251.28 21.7735 1251.14 19.9967 1250.92 18.6284C1250.7 17.2411 1250.37 16.2244 1249.94 15.5783C1249.51 14.9131 1248.95 14.5806 1248.27 14.5806C1247.66 14.5806 1247.13 14.8846 1246.68 15.4928C1246.23 16.1009 1245.87 16.9751 1245.58 18.1153C1245.29 19.2365 1245.08 20.5953 1244.94 22.1916C1244.8 23.7689 1244.73 25.5363 1244.73 27.4937V35.2187C1244.73 37.0431 1244.79 38.7439 1244.9 40.3213C1245.02 41.8986 1245.21 43.2859 1245.47 44.4831C1245.74 45.6613 1246.09 46.583 1246.52 47.2482C1246.94 47.9133 1247.46 48.2459 1248.07 48.2459C1248.84 48.2459 1249.45 47.9323 1249.9 47.3052C1250.35 46.678 1250.69 45.6803 1250.9 44.3121C1251.12 42.9438 1251.27 41.1574 1251.33 38.953Z" fill="#6D6D6D"/>
<path d="M1267.12 10.6468V52.1511H1265.01V15.1507H1258.5V52.1511H1256.39V10.6468H1267.12Z" fill="#6D6D6D"/>
<path d="M1279.81 47.6757V52.1511H1272.58V47.6757H1279.81ZM1272.96 10.6468V52.1511H1270.85V10.6468H1272.96ZM1278.84 28.4914V32.9668H1272.58V28.4914H1278.84ZM1279.7 10.6468V15.1507H1272.58V10.6468H1279.7Z" fill="#6D6D6D"/>
<path d="M1294.84 47.5332L1294.64 62.1567H1292.76V52.1511H1291.37V47.5332H1294.84ZM1282.61 52.1511V10.6468H1284.71V47.6757H1291.22V10.6468H1293.33V52.1511H1282.61Z" fill="#6D6D6D"/>
<path d="M1299.69 42.6302L1306.18 10.6468H1308.29V52.1511H1306.18V20.1392L1299.69 52.1511H1297.6V10.6468H1299.69V42.6302Z" fill="#6D6D6D"/>
<path d="M1317.64 14.324L1313.09 52.1511H1310.94L1316.3 10.6468H1317.65L1317.64 14.324ZM1321.33 52.1511L1316.77 14.324L1316.75 10.6468H1318.11L1323.48 52.1511H1321.33ZM1321.33 36.7865V41.2905H1313.29V36.7865H1321.33Z" fill="#6D6D6D"/>
<path d="M1334.85 10.6468V15.1507H1328.62V10.6468H1334.85ZM1336.7 10.6468V52.1511H1334.59V10.6468H1336.7ZM1327.91 10.6468H1330L1329.71 30.9714C1329.67 33.898 1329.6 36.511 1329.49 38.8105C1329.38 41.0909 1329.23 43.0768 1329.03 44.7682C1328.83 46.4405 1328.57 47.8278 1328.25 48.93C1327.93 50.0132 1327.54 50.8209 1327.07 51.353C1326.62 51.8851 1326.07 52.1511 1325.44 52.1511H1324.89V47.6757L1325.29 47.5902C1325.64 47.5142 1325.94 47.2767 1326.19 46.8776C1326.45 46.4595 1326.67 45.8324 1326.83 44.9962C1327.01 44.16 1327.15 43.0768 1327.26 41.7465C1327.37 40.4163 1327.46 38.7915 1327.52 36.8721C1327.58 34.9337 1327.63 32.6722 1327.66 30.0877L1327.91 10.6468Z" fill="#6D6D6D"/>
<path d="M1342.62 42.6302L1349.11 10.6468H1351.21V52.1511H1349.11V20.1392L1342.62 52.1511H1340.52V10.6468H1342.62V42.6302Z" fill="#6D6D6D"/>
<path d="M1363.3 38.953H1365.41C1365.35 41.8036 1365.12 44.2646 1364.71 46.336C1364.31 48.3884 1363.71 49.9657 1362.94 51.0679C1362.17 52.1701 1361.2 52.7213 1360.04 52.7213C1359.21 52.7213 1358.46 52.3127 1357.79 51.4955C1357.11 50.6783 1356.54 49.5096 1356.06 47.9893C1355.58 46.45 1355.22 44.6066 1354.97 42.4592C1354.72 40.3118 1354.59 37.8983 1354.59 35.2187V27.5507C1354.59 24.8901 1354.72 22.4862 1354.97 20.3387C1355.23 18.1913 1355.6 16.3574 1356.08 14.8371C1356.57 13.2978 1357.16 12.1196 1357.85 11.3024C1358.56 10.4852 1359.35 10.0767 1360.23 10.0767C1361.32 10.0767 1362.23 10.6183 1362.98 11.7015C1363.74 12.7657 1364.32 14.3335 1364.72 16.4049C1365.13 18.4573 1365.36 20.9754 1365.41 23.959H1363.3C1363.25 21.7735 1363.11 19.9967 1362.89 18.6284C1362.67 17.2411 1362.34 16.2244 1361.91 15.5783C1361.48 14.9131 1360.92 14.5806 1360.23 14.5806C1359.62 14.5806 1359.09 14.8846 1358.64 15.4928C1358.2 16.1009 1357.83 16.9751 1357.54 18.1153C1357.26 19.2365 1357.05 20.5953 1356.9 22.1916C1356.77 23.7689 1356.7 25.5363 1356.7 27.4937V35.2187C1356.7 37.0431 1356.75 38.7439 1356.87 40.3213C1356.99 41.8986 1357.18 43.2859 1357.44 44.4831C1357.71 45.6613 1358.06 46.583 1358.48 47.2482C1358.91 47.9133 1359.43 48.2459 1360.04 48.2459C1360.81 48.2459 1361.42 47.9323 1361.87 47.3052C1362.32 46.678 1362.65 45.6803 1362.87 44.3121C1363.09 42.9438 1363.23 41.1574 1363.3 38.953Z" fill="#6D6D6D"/>
<path d="M1373.27 10.6468V52.1511H1371.19V10.6468H1373.27ZM1377.66 10.6468V15.1507H1366.82V10.6468H1377.66Z" fill="#6D6D6D"/>
<path d="M1390.64 27.8072V35.0192C1390.64 37.9458 1390.51 40.5208 1390.25 42.7442C1389.99 44.9487 1389.62 46.7921 1389.14 48.2744C1388.65 49.7567 1388.06 50.8684 1387.37 51.6095C1386.69 52.3507 1385.91 52.7213 1385.05 52.7213C1384.22 52.7213 1383.46 52.3507 1382.77 51.6095C1382.09 50.8684 1381.49 49.7567 1381 48.2744C1380.5 46.7921 1380.12 44.9487 1379.84 42.7442C1379.57 40.5208 1379.44 37.9458 1379.44 35.0192V27.8072C1379.44 24.8806 1379.57 22.3151 1379.84 20.1107C1380.11 17.8872 1380.49 16.0344 1380.99 14.5521C1381.48 13.0698 1382.07 11.958 1382.76 11.2169C1383.45 10.4567 1384.21 10.0767 1385.04 10.0767C1385.9 10.0767 1386.68 10.4567 1387.36 11.2169C1388.06 11.958 1388.64 13.0698 1389.12 14.5521C1389.61 16.0344 1389.99 17.8872 1390.25 20.1107C1390.51 22.3151 1390.64 24.8806 1390.64 27.8072ZM1388.55 35.0192V27.7502C1388.55 25.4698 1388.48 23.5124 1388.32 21.878C1388.17 20.2247 1387.95 18.8754 1387.65 17.8302C1387.35 16.785 1386.98 16.0154 1386.55 15.5213C1386.11 15.0082 1385.61 14.7516 1385.04 14.7516C1384.5 14.7516 1384.01 15.0082 1383.57 15.5213C1383.15 16.0154 1382.78 16.785 1382.47 17.8302C1382.17 18.8754 1381.93 20.2247 1381.77 21.878C1381.6 23.5124 1381.52 25.4698 1381.52 27.7502V35.0192C1381.52 37.3187 1381.6 39.2951 1381.77 40.9484C1381.93 42.5827 1382.17 43.932 1382.47 44.9962C1382.79 46.0414 1383.16 46.8206 1383.6 47.3337C1384.03 47.8278 1384.52 48.0748 1385.05 48.0748C1385.62 48.0748 1386.13 47.8278 1386.56 47.3337C1387 46.8206 1387.37 46.0414 1387.66 44.9962C1387.96 43.932 1388.18 42.5827 1388.32 40.9484C1388.48 39.2951 1388.55 37.3187 1388.55 35.0192Z" fill="#6D6D6D"/>
<path d="M1394.56 10.6468H1396.6L1400.96 44.4831L1405.31 10.6468H1407.35L1401.75 52.1511H1400.15L1394.56 10.6468ZM1393.9 10.6468H1395.68L1395.99 35.9599V52.1511H1393.9V10.6468ZM1406.21 10.6468H1408V52.1511H1405.91V35.9599L1406.21 10.6468Z" fill="#6D6D6D"/>
</svg>
