<svg width="310" height="28" viewBox="0 0 310 28" fill="none" xmlns="http://www.w3.org/2000/svg">
<path d="M0.896308 17.123L3.67339 0.604985H4.5746V22.0401H3.67339V5.50738L0.896308 22.0401H0V0.604985H0.896308V17.123Z" fill="#6D6D6D"/>
<path d="M6.46027 0.604985H7.33209L9.19817 18.0799L11.0594 0.604985H11.9312L9.53613 22.0401H8.85043L6.46027 0.604985ZM6.1762 0.604985H6.94026L7.0725 13.678V22.0401H6.1762V0.604985ZM11.4463 0.604985H12.2104V22.0401H11.314V13.678L11.4463 0.604985Z" fill="#6D6D6D"/>
<path d="M17.5931 19.7288V22.0401H14.4977V19.7288H17.5931ZM14.6593 0.604985V22.0401H13.7581V0.604985H14.6593ZM17.1768 9.82091V12.1322H14.4977V9.82091H17.1768ZM17.5441 0.604985V2.93105H14.4977V0.604985H17.5441Z" fill="#6D6D6D"/>
<path d="M19.6845 0.604985V22.0401H18.7833V0.604985H19.6845ZM21.0461 10.4245V12.6622H19.611V10.4245H21.0461ZM25.2827 9.46758V13.1922C25.2827 14.7037 25.2272 16.0336 25.1162 17.1819C25.0085 18.3204 24.8501 19.2724 24.6411 20.0379C24.4321 20.8035 24.1807 21.3776 23.8868 21.7604C23.593 22.1432 23.2616 22.3345 22.8926 22.3345C22.5367 22.3345 22.2118 22.1432 21.9179 21.7604C21.624 21.3776 21.371 20.8035 21.1587 20.0379C20.9465 19.2724 20.7816 18.3204 20.6641 17.1819C20.5498 16.0336 20.4926 14.7037 20.4926 13.1922V9.46758C20.4926 7.95613 20.5498 6.63116 20.6641 5.49266C20.7783 4.34435 20.9416 3.38743 21.1538 2.62189C21.3661 1.85635 21.6191 1.28219 21.913 0.899423C22.2069 0.506839 22.5318 0.310547 22.8877 0.310547C23.2567 0.310547 23.5881 0.506839 23.8819 0.899423C24.1791 1.28219 24.4305 1.85635 24.6362 2.62189C24.8452 3.38743 25.0052 4.34435 25.1162 5.49266C25.2272 6.63116 25.2827 7.95613 25.2827 9.46758ZM24.3913 13.1922V9.43814C24.3913 8.26038 24.3587 7.24948 24.2934 6.40542C24.2281 5.55155 24.1317 4.85471 24.0044 4.31491C23.877 3.77511 23.7203 3.37761 23.5342 3.12243C23.3481 2.85744 23.1326 2.72494 22.8877 2.72494C22.6558 2.72494 22.4469 2.85744 22.2608 3.12243C22.0779 3.37761 21.9212 3.77511 21.7906 4.31491C21.66 4.85471 21.5587 5.55155 21.4869 6.40542C21.4183 7.24948 21.384 8.26038 21.384 9.43814V13.1922C21.384 14.3798 21.4183 15.4005 21.4869 16.2544C21.5587 17.0984 21.66 17.7953 21.7906 18.3449C21.9244 18.8847 22.0844 19.2871 22.2706 19.5521C22.4567 19.8073 22.664 19.9349 22.8926 19.9349C23.1375 19.9349 23.353 19.8073 23.5391 19.5521C23.7285 19.2871 23.8852 18.8847 24.0093 18.3449C24.1366 17.7953 24.2313 17.0984 24.2934 16.2544C24.3587 15.4005 24.3913 14.3798 24.3913 13.1922Z" fill="#6D6D6D"/>
<path d="M28.5692 0.604985V22.0401H27.6778V0.604985H28.5692ZM30.4451 0.604985V2.93105H25.8068V0.604985H30.4451Z" fill="#6D6D6D"/>
<path d="M34.9315 15.2239H35.8327C35.8099 16.696 35.7103 17.967 35.5339 19.0368C35.3609 20.0968 35.1078 20.9114 34.7748 21.4807C34.445 22.0499 34.0319 22.3345 33.5356 22.3345C33.1797 22.3345 32.8581 22.1235 32.5707 21.7015C32.2834 21.2795 32.0369 20.6759 31.8312 19.8907C31.6287 19.0957 31.4736 18.1437 31.3659 17.0346C31.2581 15.9256 31.2042 14.6791 31.2042 13.2953V9.33508C31.2042 7.96104 31.2581 6.71949 31.3659 5.61044C31.4769 4.50139 31.6353 3.55428 31.841 2.76911C32.0499 1.97412 32.303 1.36562 32.6001 0.943589C32.9005 0.521561 33.2401 0.310547 33.6189 0.310547C34.0825 0.310547 34.4744 0.590263 34.7944 1.1497C35.1176 1.69931 35.3658 2.50902 35.5388 3.57881C35.7152 4.63879 35.8131 5.93923 35.8327 7.48012H34.9315C34.9087 6.35144 34.8499 5.43377 34.7552 4.72712C34.6605 4.01066 34.5201 3.48557 34.334 3.15188C34.1511 2.80837 33.9128 2.63661 33.6189 2.63661C33.3577 2.63661 33.1307 2.79364 32.9381 3.10771C32.7487 3.42178 32.592 3.87325 32.4679 4.46213C32.3471 5.04119 32.2556 5.74293 32.1936 6.56736C32.1348 7.38197 32.1054 8.29473 32.1054 9.30564V13.2953C32.1054 14.2375 32.1299 15.1159 32.1789 15.9305C32.2312 16.7451 32.3128 17.4616 32.4238 18.0799C32.5381 18.6884 32.6867 19.1644 32.8695 19.5079C33.0524 19.8514 33.2744 20.0232 33.5356 20.0232C33.8654 20.0232 34.1266 19.8613 34.3193 19.5374C34.5119 19.2135 34.654 18.6982 34.7454 17.9916C34.8401 17.2849 34.9021 16.3623 34.9315 15.2239Z" fill="#6D6D6D"/>
<path d="M40.3583 13.6928H38.8106L38.3551 13.1186C37.911 12.6279 37.5698 11.8771 37.3315 10.8662C37.0964 9.84544 36.9788 8.57936 36.9788 7.06791C36.9788 5.68405 37.0653 4.5112 37.2384 3.54937C37.4115 2.58754 37.658 1.85635 37.978 1.3558C38.3012 0.855258 38.6816 0.604985 39.1192 0.604985H41.0685V22.0401H40.1673V2.93105H39.1192C38.7045 2.93105 38.3943 3.304 38.1886 4.04991C37.9829 4.79582 37.88 5.80182 37.88 7.06791C37.88 7.89233 37.9257 8.62843 38.0172 9.2762C38.1119 9.92396 38.2523 10.4343 38.4384 10.8073C38.6245 11.1802 38.858 11.3667 39.1388 11.3667H40.3632L40.3583 13.6928ZM39.1535 12.2206L37.7037 22.0401H36.7437L38.2425 12.2206H39.1535Z" fill="#6D6D6D"/>
<path d="M49.63 0.604985V22.0401H48.7288V2.93105H45.9419V22.0401H45.0407V0.604985H49.63Z" fill="#6D6D6D"/>
<path d="M53.4993 13.6339H51.9418V11.3225H53.4993C53.7932 11.3225 54.0299 11.1459 54.2095 10.7926C54.3923 10.4392 54.5246 9.9485 54.6062 9.32036C54.6911 8.69223 54.7335 7.97576 54.7335 7.17096C54.7335 6.43486 54.6911 5.74293 54.6062 5.09517C54.5246 4.44741 54.3923 3.92723 54.2095 3.53465C54.0299 3.13225 53.7932 2.93105 53.4993 2.93105H52.1279V22.0401H51.2267V0.604985H53.4993C53.9597 0.604985 54.3482 0.884702 54.665 1.44413C54.9817 2.00357 55.2217 2.77892 55.385 3.7702C55.5515 4.75166 55.6348 5.87543 55.6348 7.14152C55.6348 8.51556 55.5515 9.68841 55.385 10.6601C55.2217 11.6317 54.9817 12.3727 54.665 12.8831C54.3482 13.3836 53.9597 13.6339 53.4993 13.6339Z" fill="#6D6D6D"/>
<path d="M61.4289 9.46758V13.1922C61.4289 14.7037 61.3734 16.0336 61.2624 17.1819C61.1546 18.3204 60.9963 19.2724 60.7873 20.0379C60.5783 20.8035 60.3269 21.3776 60.033 21.7604C59.7391 22.1432 59.4077 22.3345 59.0388 22.3345C58.6828 22.3345 58.358 22.1432 58.0641 21.7604C57.7702 21.3776 57.5172 20.8035 57.3049 20.0379C57.0927 19.2724 56.9278 18.3204 56.8102 17.1819C56.696 16.0336 56.6388 14.7037 56.6388 13.1922V9.46758C56.6388 7.95613 56.696 6.63116 56.8102 5.49266C56.9245 4.34435 57.0878 3.38743 57.3 2.62189C57.5123 1.85635 57.7653 1.28219 58.0592 0.899423C58.3531 0.506839 58.6779 0.310547 59.0339 0.310547C59.4028 0.310547 59.7343 0.506839 60.0281 0.899423C60.3253 1.28219 60.5767 1.85635 60.7824 2.62189C60.9914 3.38743 61.1514 4.34435 61.2624 5.49266C61.3734 6.63116 61.4289 7.95613 61.4289 9.46758ZM60.5375 13.1922V9.43814C60.5375 8.26038 60.5049 7.24948 60.4395 6.40542C60.3742 5.55155 60.2779 4.85471 60.1506 4.31491C60.0232 3.77511 59.8665 3.37761 59.6804 3.12243C59.4943 2.85744 59.2788 2.72494 59.0339 2.72494C58.802 2.72494 58.5931 2.85744 58.4069 3.12243C58.2241 3.37761 58.0673 3.77511 57.9367 4.31491C57.8061 4.85471 57.7049 5.55155 57.6331 6.40542C57.5645 7.24948 57.5302 8.26038 57.5302 9.43814V13.1922C57.5302 14.3798 57.5645 15.4005 57.6331 16.2544C57.7049 17.0984 57.8061 17.7953 57.9367 18.3449C58.0706 18.8847 58.2306 19.2871 58.4167 19.5521C58.6028 19.8073 58.8102 19.9349 59.0388 19.9349C59.2836 19.9349 59.4992 19.8073 59.6853 19.5521C59.8747 19.2871 60.0314 18.8847 60.1555 18.3449C60.2828 17.7953 60.3775 17.0984 60.4395 16.2544C60.5049 15.4005 60.5375 14.3798 60.5375 13.1922Z" fill="#6D6D6D"/>
<path d="M64.9799 0.604985V22.0401H64.0884V0.604985H64.9799ZM66.8557 0.604985V2.93105H62.2175V0.604985H66.8557Z" fill="#6D6D6D"/>
<path d="M68.8492 17.123L71.6263 0.604985H72.5275V22.0401H71.6263V5.50738L68.8492 22.0401H67.9529V0.604985H68.8492V17.123Z" fill="#6D6D6D"/>
<path d="M76.289 12.0145H74.8392L74.8294 9.73258H76.1764C76.3788 9.73258 76.5584 9.59517 76.7151 9.32036C76.8718 9.04555 76.9943 8.65297 77.0825 8.14261C77.1739 7.62243 77.2196 7.00411 77.2196 6.28765C77.2196 5.50248 77.1804 4.86453 77.1021 4.3738C77.027 3.87325 76.911 3.51011 76.7543 3.28437C76.6008 3.04882 76.4049 2.93105 76.1666 2.93105H75.0303V22.0401H74.1291V0.604985H76.1666C76.4735 0.604985 76.7478 0.717853 76.9894 0.943589C77.231 1.15951 77.4351 1.50302 77.6016 1.97412C77.7714 2.43541 77.9004 3.02429 77.9886 3.74075C78.0767 4.45722 78.1208 5.316 78.1208 6.31709C78.1208 7.2004 78.0539 8.00029 77.92 8.71676C77.7894 9.42341 77.6065 10.0025 77.3714 10.4539C77.1363 10.9054 76.8653 11.195 76.5584 11.3225L76.289 12.0145ZM76.2547 22.0401H74.467L74.9911 19.7288H76.2547C76.4898 19.7288 76.689 19.5717 76.8523 19.2577C77.0155 18.9436 77.1396 18.5019 77.2245 17.9327C77.3127 17.3536 77.3567 16.6715 77.3567 15.8863C77.3567 15.0914 77.3208 14.4043 77.249 13.8253C77.1771 13.2462 77.0629 12.7996 76.9061 12.4856C76.7494 12.1715 76.5437 12.0145 76.289 12.0145H75.1282L75.138 9.73258H76.7053L76.9061 10.557C77.2 10.6453 77.4465 10.9398 77.6457 11.4403C77.8482 11.931 78 12.5592 78.1012 13.3247C78.2057 14.0903 78.2579 14.9343 78.2579 15.8569C78.2579 17.1917 78.1747 18.3204 78.0082 19.2429C77.8449 20.1557 77.6131 20.8525 77.3127 21.3334C77.0123 21.8045 76.6596 22.0401 76.2547 22.0401Z" fill="#6D6D6D"/>
<path d="M84.2431 9.46758V13.1922C84.2431 14.7037 84.1876 16.0336 84.0766 17.1819C83.9688 18.3204 83.8105 19.2724 83.6015 20.0379C83.3925 20.8035 83.1411 21.3776 82.8472 21.7604C82.5534 22.1432 82.2219 22.3345 81.853 22.3345C81.4971 22.3345 81.1722 22.1432 80.8783 21.7604C80.5844 21.3776 80.3314 20.8035 80.1191 20.0379C79.9069 19.2724 79.742 18.3204 79.6245 17.1819C79.5102 16.0336 79.453 14.7037 79.453 13.1922V9.46758C79.453 7.95613 79.5102 6.63116 79.6245 5.49266C79.7387 4.34435 79.902 3.38743 80.1142 2.62189C80.3265 1.85635 80.5795 1.28219 80.8734 0.899423C81.1673 0.506839 81.4922 0.310547 81.8481 0.310547C82.217 0.310547 82.5485 0.506839 82.8423 0.899423C83.1395 1.28219 83.3909 1.85635 83.5966 2.62189C83.8056 3.38743 83.9656 4.34435 84.0766 5.49266C84.1876 6.63116 84.2431 7.95613 84.2431 9.46758ZM83.3517 13.1922V9.43814C83.3517 8.26038 83.3191 7.24948 83.2538 6.40542C83.1885 5.55155 83.0921 4.85471 82.9648 4.31491C82.8374 3.77511 82.6807 3.37761 82.4946 3.12243C82.3085 2.85744 82.093 2.72494 81.8481 2.72494C81.6162 2.72494 81.4073 2.85744 81.2211 3.12243C81.0383 3.37761 80.8816 3.77511 80.751 4.31491C80.6203 4.85471 80.5191 5.55155 80.4473 6.40542C80.3787 7.24948 80.3444 8.26038 80.3444 9.43814V13.1922C80.3444 14.3798 80.3787 15.4005 80.4473 16.2544C80.5191 17.0984 80.6203 17.7953 80.751 18.3449C80.8848 18.8847 81.0448 19.2871 81.2309 19.5521C81.4171 19.8073 81.6244 19.9349 81.853 19.9349C82.0979 19.9349 82.3134 19.8073 82.4995 19.5521C82.6889 19.2871 82.8456 18.8847 82.9697 18.3449C83.097 17.7953 83.1917 17.0984 83.2538 16.2544C83.3191 15.4005 83.3517 14.3798 83.3517 13.1922Z" fill="#6D6D6D"/>
<path d="M90.2724 0.604985V22.0401H89.3712V2.93105H86.5843V22.0401H85.6831V0.604985H90.2724Z" fill="#6D6D6D"/>
<path d="M96.5074 9.46758V13.1922C96.5074 14.7037 96.4518 16.0336 96.3408 17.1819C96.2331 18.3204 96.0747 19.2724 95.8657 20.0379C95.6568 20.8035 95.4053 21.3776 95.1115 21.7604C94.8176 22.1432 94.4862 22.3345 94.1172 22.3345C93.7613 22.3345 93.4364 22.1432 93.1425 21.7604C92.8487 21.3776 92.5956 20.8035 92.3834 20.0379C92.1711 19.2724 92.0062 18.3204 91.8887 17.1819C91.7744 16.0336 91.7173 14.7037 91.7173 13.1922V9.46758C91.7173 7.95613 91.7744 6.63116 91.8887 5.49266C92.003 4.34435 92.1662 3.38743 92.3785 2.62189C92.5907 1.85635 92.8438 1.28219 93.1376 0.899423C93.4315 0.506839 93.7564 0.310547 94.1123 0.310547C94.4813 0.310547 94.8127 0.506839 95.1066 0.899423C95.4037 1.28219 95.6551 1.85635 95.8608 2.62189C96.0698 3.38743 96.2298 4.34435 96.3408 5.49266C96.4518 6.63116 96.5074 7.95613 96.5074 9.46758ZM95.6159 13.1922V9.43814C95.6159 8.26038 95.5833 7.24948 95.518 6.40542C95.4527 5.55155 95.3564 4.85471 95.229 4.31491C95.1017 3.77511 94.9449 3.37761 94.7588 3.12243C94.5727 2.85744 94.3572 2.72494 94.1123 2.72494C93.8805 2.72494 93.6715 2.85744 93.4854 3.12243C93.3025 3.37761 93.1458 3.77511 93.0152 4.31491C92.8846 4.85471 92.7834 5.55155 92.7115 6.40542C92.643 7.24948 92.6087 8.26038 92.6087 9.43814V13.1922C92.6087 14.3798 92.643 15.4005 92.7115 16.2544C92.7834 17.0984 92.8846 17.7953 93.0152 18.3449C93.1491 18.8847 93.3091 19.2871 93.4952 19.5521C93.6813 19.8073 93.8886 19.9349 94.1172 19.9349C94.3621 19.9349 94.5776 19.8073 94.7637 19.5521C94.9531 19.2871 95.1098 18.8847 95.2339 18.3449C95.3613 17.7953 95.4559 17.0984 95.518 16.2544C95.5833 15.4005 95.6159 14.3798 95.6159 13.1922Z" fill="#6D6D6D"/>
<path d="M98.8485 0.604985V22.0401H97.9473V0.604985H98.8485ZM102.517 0.604985L99.9408 12.3972H98.491L98.3392 10.0417H99.3971L101.4 0.604985H102.517ZM101.586 22.0401L99.4412 12.0292L99.9456 9.54119L102.684 22.0401H101.586Z" fill="#6D6D6D"/>
<path d="M105.838 2.50411L103.888 22.0401H102.968L105.265 0.604985H105.843L105.838 2.50411ZM107.415 22.0401L105.466 2.50411L105.456 0.604985H106.039L108.336 22.0401H107.415ZM107.415 14.105V16.431H103.977V14.105H107.415Z" fill="#6D6D6D"/>
<path d="M111.181 11.7495H110.486V9.93868H111.152C111.429 9.93868 111.653 9.78655 111.823 9.4823C111.993 9.17805 112.117 8.75602 112.195 8.21622C112.274 7.67641 112.313 7.05319 112.313 6.34653C112.313 5.66932 112.269 5.051 112.18 4.49157C112.096 3.92232 111.963 3.47085 111.784 3.13715C111.604 2.79364 111.371 2.62189 111.083 2.62189C110.871 2.62189 110.678 2.77892 110.505 3.09299C110.332 3.39724 110.195 3.82418 110.094 4.3738C109.996 4.9136 109.947 5.53683 109.947 6.24348H109.046C109.046 5.33072 109.098 4.5112 109.203 3.78492C109.31 3.04882 109.457 2.4256 109.643 1.91524C109.833 1.39506 110.05 0.99757 110.295 0.72276C110.543 0.447951 110.806 0.310547 111.083 0.310547C111.407 0.310547 111.699 0.443044 111.96 0.708038C112.221 0.963218 112.445 1.34599 112.631 1.85635C112.82 2.36671 112.964 2.99975 113.062 3.75548C113.163 4.5112 113.214 5.38961 113.214 6.3907C113.214 7.1268 113.165 7.81873 113.067 8.46649C112.972 9.11425 112.834 9.6835 112.651 10.1742C112.471 10.665 112.257 11.0526 112.009 11.3373C111.761 11.6121 111.485 11.7495 111.181 11.7495ZM110.486 10.4981H111.181C111.514 10.4981 111.812 10.6208 112.073 10.8662C112.337 11.1115 112.561 11.4698 112.744 11.9409C112.927 12.412 113.065 12.9959 113.16 13.6928C113.258 14.3798 113.307 15.1699 113.307 16.063C113.307 17.0641 113.251 17.9523 113.14 18.7277C113.033 19.503 112.879 20.1606 112.68 20.7004C112.481 21.2402 112.246 21.6475 111.975 21.9223C111.704 22.1971 111.407 22.3345 111.083 22.3345C110.822 22.3345 110.566 22.2168 110.314 21.9812C110.063 21.7358 109.834 21.3629 109.629 20.8623C109.426 20.352 109.263 19.7042 109.139 18.9191C109.018 18.1339 108.958 17.1917 108.958 16.0924H109.859C109.859 16.8089 109.91 17.4665 110.011 18.0652C110.115 18.6639 110.259 19.1448 110.442 19.5079C110.625 19.8613 110.838 20.0379 111.083 20.0379C111.364 20.0379 111.603 19.8711 111.798 19.5374C111.998 19.1939 112.148 18.7277 112.249 18.1388C112.354 17.5401 112.406 16.8678 112.406 16.1219C112.406 15.4643 112.378 14.8951 112.323 14.4141C112.27 13.9234 112.19 13.521 112.083 13.2069C111.978 12.8929 111.847 12.6622 111.691 12.515C111.537 12.358 111.358 12.2795 111.152 12.2795H110.486V10.4981Z" fill="#6D6D6D"/>
<path d="M116.819 2.50411L114.869 22.0401H113.949L116.246 0.604985H116.824L116.819 2.50411ZM118.396 22.0401L116.447 2.50411L116.437 0.604985H117.02L119.317 22.0401H118.396ZM118.396 14.105V16.431H114.958V14.105H118.396Z" fill="#6D6D6D"/>
<path d="M124.166 9.82091V12.1322H121.075V9.82091H124.166ZM121.197 0.604985V22.0401H120.296V0.604985H121.197ZM124.964 0.604985V22.0401H124.063V0.604985H124.964Z" fill="#6D6D6D"/>
<path d="M127.457 17.123L130.234 0.604985H131.135V22.0401H130.234V5.50738L127.457 22.0401H126.561V0.604985H127.457V17.123Z" fill="#6D6D6D"/>
<path d="M136.043 13.6928H134.495L134.04 13.1186C133.596 12.6279 133.254 11.8771 133.016 10.8662C132.781 9.84544 132.663 8.57936 132.663 7.06791C132.663 5.68405 132.75 4.5112 132.923 3.54937C133.096 2.58754 133.342 1.85635 133.662 1.3558C133.986 0.855258 134.366 0.604985 134.804 0.604985H136.753V22.0401H135.852V2.93105H134.804C134.389 2.93105 134.079 3.304 133.873 4.04991C133.667 4.79582 133.565 5.80182 133.565 7.06791C133.565 7.89233 133.61 8.62843 133.702 9.2762C133.796 9.92396 133.937 10.4343 134.123 10.8073C134.309 11.1802 134.542 11.3667 134.823 11.3667H136.048L136.043 13.6928ZM134.838 12.2206L133.388 22.0401H132.428L133.927 12.2206H134.838Z" fill="#6D6D6D"/>
<path d="M138.315 20.5974C138.315 20.1361 138.363 19.7484 138.458 19.4343C138.555 19.1104 138.696 18.9485 138.879 18.9485C139.062 18.9485 139.2 19.1104 139.295 19.4343C139.393 19.7484 139.442 20.1361 139.442 20.5974C139.442 21.0488 139.393 21.4316 139.295 21.7457C139.2 22.0597 139.062 22.2168 138.879 22.2168C138.696 22.2168 138.555 22.0597 138.458 21.7457C138.363 21.4316 138.315 21.0488 138.315 20.5974Z" fill="#6D6D6D"/>
<path d="M147.959 0.604985V22.0401H147.058V2.93105H144.271V22.0401H143.37V0.604985H147.959Z" fill="#6D6D6D"/>
<path d="M153.391 19.7288V22.0401H150.296V19.7288H153.391ZM150.457 0.604985V22.0401H149.556V0.604985H150.457ZM152.975 9.82091V12.1322H150.296V9.82091H152.975ZM153.342 0.604985V2.93105H150.296V0.604985H153.342Z" fill="#6D6D6D"/>
<path d="M156.815 13.6339H155.257V11.3225H156.815C157.109 11.3225 157.345 11.1459 157.525 10.7926C157.708 10.4392 157.84 9.9485 157.922 9.32036C158.006 8.69223 158.049 7.97576 158.049 7.17096C158.049 6.43486 158.006 5.74293 157.922 5.09517C157.84 4.44741 157.708 3.92723 157.525 3.53465C157.345 3.13225 157.109 2.93105 156.815 2.93105H155.443V22.0401H154.542V0.604985H156.815C157.275 0.604985 157.664 0.884702 157.98 1.44413C158.297 2.00357 158.537 2.77892 158.7 3.7702C158.867 4.75166 158.95 5.87543 158.95 7.14152C158.95 8.51556 158.867 9.68841 158.7 10.6601C158.537 11.6317 158.297 12.3727 157.98 12.8831C157.664 13.3836 157.275 13.6339 156.815 13.6339Z" fill="#6D6D6D"/>
<path d="M163.941 19.7288V22.0401H160.846V19.7288H163.941ZM161.007 0.604985V22.0401H160.106V0.604985H161.007ZM163.525 9.82091V12.1322H160.846V9.82091H163.525ZM163.892 0.604985V2.93105H160.846V0.604985H163.892Z" fill="#6D6D6D"/>
<path d="M169.833 19.7288V22.0401H165.361V19.7288H169.833ZM165.499 19.7288V27.3105H164.602L164.597 19.7288H165.499ZM170.617 19.7288L170.607 27.2958H169.716V19.7288H170.617ZM168.991 0.604985V2.93105H166.405V0.604985H168.991ZM169.779 0.604985V22.0401H168.878V0.604985H169.779ZM166.096 0.604985H166.997L166.87 9.23203C166.854 10.5276 166.821 11.7249 166.772 12.8242C166.723 13.9136 166.659 14.9098 166.581 15.8127C166.506 16.7157 166.419 17.5254 166.321 18.2418C166.223 18.9485 166.117 19.5619 166.003 20.0821C165.889 20.5924 165.768 21.0145 165.641 21.3482C165.513 21.6721 165.383 21.9027 165.249 22.0401H164.872V19.7288H165.121C165.193 19.4539 165.272 19.0565 165.357 18.5363C165.445 18.0161 165.53 17.3438 165.611 16.5194C165.696 15.6851 165.77 14.6693 165.832 13.4719C165.897 12.2746 165.941 10.8613 165.964 9.23203L166.096 0.604985Z" fill="#6D6D6D"/>
<path d="M178.649 0.604985V22.0401H177.748V2.93105H174.961V22.0401H174.06V0.604985H178.649Z" fill="#6D6D6D"/>
<path d="M182.519 13.6339H180.961V11.3225H182.519C182.812 11.3225 183.049 11.1459 183.229 10.7926C183.412 10.4392 183.544 9.9485 183.626 9.32036C183.71 8.69223 183.753 7.97576 183.753 7.17096C183.753 6.43486 183.71 5.74293 183.626 5.09517C183.544 4.44741 183.412 3.92723 183.229 3.53465C183.049 3.13225 182.812 2.93105 182.519 2.93105H181.147V22.0401H180.246V0.604985H182.519C182.979 0.604985 183.368 0.884702 183.684 1.44413C184.001 2.00357 184.241 2.77892 184.404 3.7702C184.571 4.75166 184.654 5.87543 184.654 7.14152C184.654 8.51556 184.571 9.68841 184.404 10.6601C184.241 11.6317 184.001 12.3727 183.684 12.8831C183.368 13.3836 182.979 13.6339 182.519 13.6339Z" fill="#6D6D6D"/>
<path d="M186.75 17.123L189.527 0.604985H190.429V22.0401H189.527V5.50738L186.75 22.0401H185.854V0.604985H186.75V17.123Z" fill="#6D6D6D"/>
<path d="M192.314 0.604985H193.186L195.052 18.0799L196.913 0.604985H197.785L195.39 22.0401H194.704L192.314 0.604985ZM192.03 0.604985H192.794L192.927 13.678V22.0401H192.03V0.604985ZM197.3 0.604985H198.064V22.0401H197.168V13.678L197.3 0.604985Z" fill="#6D6D6D"/>
<path d="M203.447 19.7288V22.0401H200.352V19.7288H203.447ZM200.513 0.604985V22.0401H199.612V0.604985H200.513ZM203.031 9.82091V12.1322H200.352V9.82091H203.031ZM203.398 0.604985V2.93105H200.352V0.604985H203.398Z" fill="#6D6D6D"/>
<path d="M208.467 9.82091V12.1322H205.377V9.82091H208.467ZM205.499 0.604985V22.0401H204.598V0.604985H205.499ZM209.266 0.604985V22.0401H208.365V0.604985H209.266Z" fill="#6D6D6D"/>
<path d="M214.653 19.7288V22.0401H211.558V19.7288H214.653ZM211.72 0.604985V22.0401H210.818V0.604985H211.72ZM214.237 9.82091V12.1322H211.558V9.82091H214.237ZM214.604 0.604985V2.93105H211.558V0.604985H214.604Z" fill="#6D6D6D"/>
<path d="M219.674 9.82091V12.1322H216.583V9.82091H219.674ZM216.706 0.604985V22.0401H215.804V0.604985H216.706ZM220.472 0.604985V22.0401H219.571V0.604985H220.472Z" fill="#6D6D6D"/>
<path d="M222.965 17.123L225.742 0.604985H226.643V22.0401H225.742V5.50738L222.965 22.0401H222.069V0.604985H222.965V17.123Z" fill="#6D6D6D"/>
<path d="M232.08 19.7288V22.0401H228.985V19.7288H232.08ZM229.146 0.604985V22.0401H228.245V0.604985H229.146ZM231.664 9.82091V12.1322H228.985V9.82091H231.664ZM232.031 0.604985V2.93105H228.985V0.604985H232.031Z" fill="#6D6D6D"/>
<path d="M233.515 0.604985H234.387L236.253 18.0799L238.114 0.604985H238.986L236.591 22.0401H235.905L233.515 0.604985ZM233.231 0.604985H233.995L234.127 13.678V22.0401H233.231V0.604985ZM238.501 0.604985H239.265V22.0401H238.369V13.678L238.501 0.604985Z" fill="#6D6D6D"/>
<path d="M247.753 9.46758V13.1922C247.753 14.7037 247.698 16.0336 247.587 17.1819C247.479 18.3204 247.321 19.2724 247.112 20.0379C246.903 20.8035 246.651 21.3776 246.357 21.7604C246.063 22.1432 245.732 22.3345 245.363 22.3345C245.007 22.3345 244.682 22.1432 244.388 21.7604C244.094 21.3776 243.841 20.8035 243.629 20.0379C243.417 19.2724 243.252 18.3204 243.134 17.1819C243.02 16.0336 242.963 14.7037 242.963 13.1922V9.46758C242.963 7.95613 243.02 6.63116 243.134 5.49266C243.249 4.34435 243.412 3.38743 243.624 2.62189C243.837 1.85635 244.09 1.28219 244.383 0.899423C244.677 0.506839 245.002 0.310547 245.358 0.310547C245.727 0.310547 246.058 0.506839 246.352 0.899423C246.649 1.28219 246.901 1.85635 247.107 2.62189C247.316 3.38743 247.476 4.34435 247.587 5.49266C247.698 6.63116 247.753 7.95613 247.753 9.46758ZM246.862 13.1922V9.43814C246.862 8.26038 246.829 7.24948 246.764 6.40542C246.698 5.55155 246.602 4.85471 246.475 4.31491C246.347 3.77511 246.191 3.37761 246.005 3.12243C245.819 2.85744 245.603 2.72494 245.358 2.72494C245.126 2.72494 244.917 2.85744 244.731 3.12243C244.548 3.37761 244.392 3.77511 244.261 4.31491C244.13 4.85471 244.029 5.55155 243.957 6.40542C243.889 7.24948 243.854 8.26038 243.854 9.43814V13.1922C243.854 14.3798 243.889 15.4005 243.957 16.2544C244.029 17.0984 244.13 17.7953 244.261 18.3449C244.395 18.8847 244.555 19.2871 244.741 19.5521C244.927 19.8073 245.134 19.9349 245.363 19.9349C245.608 19.9349 245.823 19.8073 246.01 19.5521C246.199 19.2871 246.356 18.8847 246.48 18.3449C246.607 17.7953 246.702 17.0984 246.764 16.2544C246.829 15.4005 246.862 14.3798 246.862 13.1922Z" fill="#6D6D6D"/>
<path d="M251.015 11.7495H250.32V9.93868H250.986C251.263 9.93868 251.487 9.78655 251.657 9.4823C251.827 9.17805 251.951 8.75602 252.029 8.21622C252.107 7.67641 252.147 7.05319 252.147 6.34653C252.147 5.66932 252.102 5.051 252.014 4.49157C251.929 3.92232 251.797 3.47085 251.618 3.13715C251.438 2.79364 251.205 2.62189 250.917 2.62189C250.705 2.62189 250.512 2.77892 250.339 3.09299C250.166 3.39724 250.029 3.82418 249.928 4.3738C249.83 4.9136 249.781 5.53683 249.781 6.24348H248.88C248.88 5.33072 248.932 4.5112 249.036 3.78492C249.144 3.04882 249.291 2.4256 249.477 1.91524C249.667 1.39506 249.884 0.99757 250.129 0.72276C250.377 0.447951 250.64 0.310547 250.917 0.310547C251.24 0.310547 251.533 0.443044 251.794 0.708038C252.055 0.963218 252.279 1.34599 252.465 1.85635C252.654 2.36671 252.798 2.99975 252.896 3.75548C252.997 4.5112 253.048 5.38961 253.048 6.3907C253.048 7.1268 252.999 7.81873 252.901 8.46649C252.806 9.11425 252.667 9.6835 252.484 10.1742C252.305 10.665 252.091 11.0526 251.843 11.3373C251.595 11.6121 251.319 11.7495 251.015 11.7495ZM250.32 10.4981H251.015C251.348 10.4981 251.645 10.6208 251.907 10.8662C252.171 11.1115 252.395 11.4698 252.578 11.9409C252.76 12.412 252.899 12.9959 252.994 13.6928C253.092 14.3798 253.141 15.1699 253.141 16.063C253.141 17.0641 253.085 17.9523 252.974 18.7277C252.867 19.503 252.713 20.1606 252.514 20.7004C252.315 21.2402 252.08 21.6475 251.809 21.9223C251.538 22.1971 251.24 22.3345 250.917 22.3345C250.656 22.3345 250.4 22.2168 250.148 21.9812C249.897 21.7358 249.668 21.3629 249.462 20.8623C249.26 20.352 249.097 19.7042 248.973 18.9191C248.852 18.1339 248.792 17.1917 248.792 16.0924H249.693C249.693 16.8089 249.743 17.4665 249.845 18.0652C249.949 18.6639 250.093 19.1448 250.276 19.5079C250.458 19.8613 250.672 20.0379 250.917 20.0379C251.198 20.0379 251.436 19.8711 251.632 19.5374C251.831 19.1939 251.982 18.7277 252.083 18.1388C252.187 17.5401 252.24 16.8678 252.24 16.1219C252.24 15.4643 252.212 14.8951 252.156 14.4141C252.104 13.9234 252.024 13.521 251.916 13.2069C251.812 12.8929 251.681 12.6622 251.524 12.515C251.371 12.358 251.191 12.2795 250.986 12.2795H250.32V10.4981Z" fill="#6D6D6D"/>
<path d="M258.21 9.82091V12.1322H255.12V9.82091H258.21ZM255.242 0.604985V22.0401H254.341V0.604985H255.242ZM259.008 0.604985V22.0401H258.107V0.604985H259.008Z" fill="#6D6D6D"/>
<path d="M262.961 2.50411L261.012 22.0401H260.091L262.388 0.604985H262.966L262.961 2.50411ZM264.538 22.0401L262.589 2.50411L262.579 0.604985H263.162L265.459 22.0401H264.538ZM264.538 14.105V16.431H261.1V14.105H264.538Z" fill="#6D6D6D"/>
<path d="M267.384 0.604985V22.0401H266.483V0.604985H267.384ZM271.052 0.604985L268.476 12.3972H267.026L266.874 10.0417H267.932L269.936 0.604985H271.052ZM270.122 22.0401L267.976 12.0292L268.481 9.54119L271.219 22.0401H270.122Z" fill="#6D6D6D"/>
<path d="M276.543 9.46758V13.1922C276.543 14.7037 276.487 16.0336 276.376 17.1819C276.268 18.3204 276.11 19.2724 275.901 20.0379C275.692 20.8035 275.441 21.3776 275.147 21.7604C274.853 22.1432 274.522 22.3345 274.153 22.3345C273.797 22.3345 273.472 22.1432 273.178 21.7604C272.884 21.3776 272.631 20.8035 272.419 20.0379C272.207 19.2724 272.042 18.3204 271.924 17.1819C271.81 16.0336 271.753 14.7037 271.753 13.1922V9.46758C271.753 7.95613 271.81 6.63116 271.924 5.49266C272.038 4.34435 272.202 3.38743 272.414 2.62189C272.626 1.85635 272.879 1.28219 273.173 0.899423C273.467 0.506839 273.792 0.310547 274.148 0.310547C274.517 0.310547 274.848 0.506839 275.142 0.899423C275.439 1.28219 275.691 1.85635 275.896 2.62189C276.105 3.38743 276.265 4.34435 276.376 5.49266C276.487 6.63116 276.543 7.95613 276.543 9.46758ZM275.651 13.1922V9.43814C275.651 8.26038 275.619 7.24948 275.553 6.40542C275.488 5.55155 275.392 4.85471 275.264 4.31491C275.137 3.77511 274.98 3.37761 274.794 3.12243C274.608 2.85744 274.393 2.72494 274.148 2.72494C273.916 2.72494 273.707 2.85744 273.521 3.12243C273.338 3.37761 273.181 3.77511 273.051 4.31491C272.92 4.85471 272.819 5.55155 272.747 6.40542C272.678 7.24948 272.644 8.26038 272.644 9.43814V13.1922C272.644 14.3798 272.678 15.4005 272.747 16.2544C272.819 17.0984 272.92 17.7953 273.051 18.3449C273.184 18.8847 273.344 19.2871 273.531 19.5521C273.717 19.8073 273.924 19.9349 274.153 19.9349C274.397 19.9349 274.613 19.8073 274.799 19.5521C274.988 19.2871 275.145 18.8847 275.269 18.3449C275.397 17.7953 275.491 17.0984 275.553 16.2544C275.619 15.4005 275.651 14.3798 275.651 13.1922Z" fill="#6D6D6D"/>
<path d="M278.223 0.604985H279.095L280.961 18.0799L282.822 0.604985H283.694L281.299 22.0401H280.613L278.223 0.604985ZM277.939 0.604985H278.703L278.835 13.678V22.0401H277.939V0.604985ZM283.209 0.604985H283.973V22.0401H283.076V13.678L283.209 0.604985Z" fill="#6D6D6D"/>
<path d="M286.206 9.33508H287.827C288.268 9.33508 288.64 9.60008 288.944 10.1301C289.251 10.6502 289.483 11.3814 289.64 12.3236C289.8 13.2658 289.88 14.37 289.88 15.6361C289.88 16.5783 289.834 17.442 289.742 18.2271C289.654 19.0025 289.522 19.6797 289.346 20.2587C289.173 20.828 288.959 21.2697 288.704 21.5837C288.449 21.888 288.157 22.0401 287.827 22.0401H285.496V0.604985H286.397V19.7288H287.827C288.102 19.7288 288.322 19.5374 288.489 19.1546C288.658 18.762 288.783 18.2517 288.861 17.6235C288.939 16.9954 288.978 16.3231 288.978 15.6066C288.978 14.8902 288.939 14.2326 288.861 13.6339C288.783 13.0352 288.658 12.5592 288.489 12.2059C288.322 11.8427 288.102 11.6611 287.827 11.6611H286.206V9.33508Z" fill="#6D6D6D"/>
<path d="M292.035 0.604985V22.0401H291.143V0.604985H292.035ZM293.911 0.604985V2.93105H289.272V0.604985H293.911Z" fill="#6D6D6D"/>
<path d="M298.799 19.7288V22.0401H295.703V19.7288H298.799ZM295.865 0.604985V22.0401H294.964V0.604985H295.865ZM298.382 9.82091V12.1322H295.703V9.82091H298.382ZM298.75 0.604985V2.93105H295.703V0.604985H298.75Z" fill="#6D6D6D"/>
<path d="M303.52 15.2239H304.421C304.398 16.696 304.299 17.967 304.123 19.0368C303.95 20.0968 303.696 20.9114 303.363 21.4807C303.034 22.0499 302.621 22.3345 302.124 22.3345C301.768 22.3345 301.447 22.1235 301.159 21.7015C300.872 21.2795 300.626 20.6759 300.42 19.8907C300.217 19.0957 300.062 18.1437 299.954 17.0346C299.847 15.9256 299.793 14.6791 299.793 13.2953V9.33508C299.793 7.96104 299.847 6.71949 299.954 5.61044C300.065 4.50139 300.224 3.55428 300.43 2.76911C300.639 1.97412 300.892 1.36562 301.189 0.943589C301.489 0.521561 301.829 0.310547 302.208 0.310547C302.671 0.310547 303.063 0.590263 303.383 1.1497C303.706 1.69931 303.954 2.50902 304.127 3.57881C304.304 4.63879 304.402 5.93923 304.421 7.48012H303.52C303.497 6.35144 303.439 5.43377 303.344 4.72712C303.249 4.01066 303.109 3.48557 302.923 3.15188C302.74 2.80837 302.501 2.63661 302.208 2.63661C301.946 2.63661 301.719 2.79364 301.527 3.10771C301.337 3.42178 301.181 3.87325 301.057 4.46213C300.936 5.04119 300.844 5.74293 300.782 6.56736C300.723 7.38197 300.694 8.29473 300.694 9.30564V13.2953C300.694 14.2375 300.719 15.1159 300.768 15.9305C300.82 16.7451 300.901 17.4616 301.012 18.0799C301.127 18.6884 301.275 19.1644 301.458 19.5079C301.641 19.8514 301.863 20.0232 302.124 20.0232C302.454 20.0232 302.715 19.8613 302.908 19.5374C303.101 19.2135 303.243 18.6982 303.334 17.9916C303.429 17.2849 303.491 16.3623 303.52 15.2239Z" fill="#6D6D6D"/>
<path d="M306.327 9.33508H307.948C308.389 9.33508 308.761 9.60008 309.064 10.1301C309.371 10.6502 309.603 11.3814 309.76 12.3236C309.92 13.2658 310 14.37 310 15.6361C310 16.5783 309.954 17.442 309.863 18.2271C309.775 19.0025 309.642 19.6797 309.466 20.2587C309.293 20.828 309.079 21.2697 308.825 21.5837C308.57 21.888 308.278 22.0401 307.948 22.0401H305.616V0.604985H306.518V19.7288H307.948C308.222 19.7288 308.442 19.5374 308.609 19.1546C308.779 18.762 308.903 18.2517 308.981 17.6235C309.06 16.9954 309.099 16.3231 309.099 15.6066C309.099 14.8902 309.06 14.2326 308.981 13.6339C308.903 13.0352 308.779 12.5592 308.609 12.2059C308.442 11.8427 308.222 11.6611 307.948 11.6611H306.327V9.33508Z" fill="#6D6D6D"/>
</svg>
