<svg width="122" height="19" viewBox="0 0 122 19" fill="none" xmlns="http://www.w3.org/2000/svg">
<g clip-path="url(#clip0_1_704)">
<path d="M2.90091 10.9484C2.91984 11.7697 2.85439 12.5908 2.70561 13.3985C2.63055 13.7473 2.46633 14.0703 2.22927 14.3353C2.08342 14.4783 1.90992 14.5895 1.71959 14.662C1.38406 14.7833 1.02337 14.8164 0.671641 14.758C0.553102 14.747 0.437207 14.7161 0.328677 14.6668L-0.00476074 14.5226V17.1841L0.171485 17.2321C0.346005 17.2807 0.524597 17.3128 0.704985 17.3282L1.23848 17.3763C1.74851 17.376 2.25571 17.2999 2.74372 17.1505C3.2367 17.0033 3.69407 16.7546 4.08699 16.4202C4.62914 15.9676 5.03638 15.3723 5.26355 14.7004C5.54481 13.701 5.67331 12.6643 5.64462 11.6258V4.41974H10.1174V17.2417H12.8612V1.7583H2.90091V10.9484Z" fill="#1697D2"/>
<path d="M15.9669 17.2417H24.6506V14.5995H18.7154V10.1318H24.4696V7.49433H18.7154V4.40053H24.6506V1.7583H15.9669V17.2417Z" fill="#1697D2"/>
<path d="M27.1133 17.2369H29.8665V4.40053H35.0396V1.7583H27.1133V17.2369Z" fill="#1697D2"/>
<path d="M48.4913 1.7583H44.8235L39.4123 7.38864V1.7583H36.6591V17.2417H39.4123V10.8956L39.5981 10.7034L44.7235 17.1505L44.7949 17.2417H48.4675L41.4987 8.79142L48.4913 1.7583Z" fill="#1697D2"/>
<path d="M69.9027 10.9484C69.9192 11.7695 69.8554 12.5901 69.7122 13.3985C69.6371 13.7473 69.4729 14.0703 69.2359 14.3353C69.0924 14.479 68.9203 14.5903 68.7309 14.662C68.3938 14.7833 68.0315 14.8164 67.6782 14.758C67.5599 14.7458 67.4442 14.715 67.3353 14.6668L67.0018 14.5226V17.1841L67.1781 17.2321C67.3529 17.2792 67.5314 17.3113 67.7116 17.3282L68.2451 17.3763C68.7551 17.376 69.2623 17.2999 69.7503 17.1505C70.2433 17.0033 70.7007 16.7546 71.0936 16.4202C71.6372 15.9689 72.0448 15.3732 72.2701 14.7004C72.5548 13.7017 72.6834 12.6644 72.6512 11.6258V4.41974H77.1288V17.2417H79.8773V1.7583H69.9027V10.9484Z" fill="#1697D2"/>
<path d="M81.1396 17.2417H84.1215L85.7411 13.6194H91.7906L93.3625 17.2417H96.3349L88.923 0.547607L81.1396 17.2417ZM88.823 6.72561L90.6521 10.9628H86.9272L88.823 6.72561Z" fill="#1697D2"/>
<path d="M105.762 1.7583L100.35 7.38864V1.7583H97.5972V17.2417H100.35V10.8908L100.536 10.7034L105.666 17.1505L105.738 17.2417H109.401L102.437 8.79142L109.425 1.7583H105.762Z" fill="#1697D2"/>
<path d="M117.803 4.08344C118.492 4.08146 119.175 4.22037 119.809 4.49178C120.468 4.78342 121.073 5.18453 121.6 5.67838L122 6.0483V2.68546L121.886 2.6134C121.31 2.2524 120.688 1.97276 120.038 1.7823C119.323 1.58018 118.584 1.48151 117.842 1.48926C116.826 1.47737 115.816 1.63982 114.855 1.96966C113.944 2.30291 113.112 2.82681 112.416 3.50696C111.613 4.27303 110.987 5.20789 110.582 6.24526C110.172 7.30283 109.965 8.42936 109.972 9.56486C109.946 10.636 110.129 11.702 110.511 12.7019C110.943 13.7227 111.594 14.6347 112.416 15.3729C113.123 16.0794 113.968 16.6292 114.898 16.9871C116.491 17.5929 118.233 17.6753 119.876 17.2225C120.583 17.0207 121.259 16.7217 121.886 16.3338L122 16.2617V12.8652L121.595 13.2592C121.072 13.7718 120.467 14.191 119.804 14.4986C119.207 14.777 118.557 14.9196 117.899 14.9166C117.199 14.9485 116.501 14.8282 115.852 14.5638C115.202 14.2993 114.617 13.897 114.136 13.3841C113.177 12.3424 112.663 10.9616 112.707 9.54084C112.674 8.82745 112.78 8.1145 113.021 7.44272C113.261 6.77093 113.63 6.15345 114.107 5.62554C114.577 5.11562 115.151 4.71391 115.788 4.44779C116.426 4.18166 117.114 4.05739 117.803 4.08344Z" fill="#1697D2"/>
<path d="M65.2251 13.4513C64.48 14.5822 63.4813 15.5203 62.3099 16.1896C61.0345 16.9371 59.5884 17.3377 58.1133 17.3521H57.637L56.7653 17.2945L56.3509 17.1984L55.9603 17.0927C55.6092 17.0169 55.2673 16.9025 54.9409 16.7516L54.5789 16.5739C54.2655 16.4292 53.9644 16.2589 53.6786 16.0647C53.55 15.9542 53.4404 15.8677 53.3261 15.7812C53.0512 15.5804 52.7931 15.357 52.5545 15.1135C51.8187 14.3662 51.2416 13.4757 50.8583 12.4961C50.4751 11.5165 50.2937 10.4685 50.3252 9.41587C50.3806 8.30078 50.7078 7.21667 51.2779 6.25961C51.3341 6.13393 51.4062 6.01607 51.4922 5.90892C52 5.0279 52.7017 4.27629 53.5432 3.71208C54.3846 3.14787 55.3433 2.78613 56.3454 2.65476C57.3474 2.52339 58.3659 2.62591 59.3224 2.9544C60.2789 3.28289 61.1478 3.82858 61.8621 4.54937C62.4779 5.21443 62.9573 5.99562 63.2728 6.84807C63.5883 7.70053 63.7338 8.60745 63.7008 9.51675C63.7389 10.932 63.3628 12.3272 62.6195 13.5281C63.0633 13.1895 63.4691 12.8029 63.8294 12.3752C64.3324 11.7661 64.7448 11.0864 65.0536 10.3575C65.6888 8.93991 65.8346 7.34853 65.4676 5.83761C65.1006 4.32668 64.2421 2.98341 63.0292 2.02244C61.204 0.598876 58.9306 -0.112109 56.627 0.0202914C54.3235 0.152692 52.1449 1.11957 50.4919 2.74305C49.6235 3.63254 48.9422 4.68971 48.4887 5.85119C48.0353 7.01267 47.8191 8.25454 47.853 9.50234C47.817 10.7533 48.0322 11.9986 48.4857 13.1635C48.9392 14.3284 49.6216 15.3888 50.4919 16.2808C52.2792 18.0289 54.671 19.0064 57.1607 19.0064C59.6503 19.0064 62.0421 18.0289 63.8294 16.2808C65.2179 14.8783 66.1086 13.0529 66.3635 11.0877H66.3064C66.0646 11.9254 65.7002 12.7221 65.2251 13.4513Z" fill="#1697D2"/>
<path d="M64.6535 12.2648C64.1264 13.0322 63.4386 13.6735 62.6386 14.1431C61.723 14.6854 60.6803 14.9707 59.6186 14.9694H59.1422H58.9041L58.7135 14.9166C58.458 14.8601 58.2066 14.7863 57.9609 14.6956C57.7037 14.5659 57.4322 14.4746 57.1892 14.3209C56.9463 14.1672 56.7129 14.0038 56.4938 13.8069C56.2747 13.6099 56.0699 13.3937 55.9031 13.1583C55.7307 12.9126 55.5717 12.6576 55.4268 12.3945C55.3054 12.1219 55.2035 11.841 55.1219 11.5538L55.041 11.1118L54.9933 10.886V10.8332V10.7227C54.9685 10.4006 54.9926 10.0766 55.0648 9.76185C55.0887 9.6355 55.1189 9.51043 55.1553 9.38714L55.3268 8.9836C55.3783 8.84813 55.4506 8.72168 55.5411 8.60888C55.6269 8.49358 55.6983 8.35907 55.7936 8.25338C55.9864 8.03631 56.2038 7.84282 56.4414 7.67689C56.5652 7.60003 56.6748 7.49914 56.7986 7.43669L57.1988 7.26375C57.3279 7.20061 57.4662 7.15845 57.6084 7.13884L57.8228 7.0956L57.9276 7.06678H57.9847H58.0133C58.3004 7.04231 58.5894 7.06174 58.8707 7.12443L59.0422 7.15325L59.228 7.23012C59.3548 7.27568 59.4762 7.33529 59.59 7.40787C60.0588 7.6767 60.4308 8.08888 60.6522 8.58486C60.7636 8.82986 60.8436 9.08815 60.8904 9.35351V9.79067C60.8904 9.92038 60.8428 9.99244 60.8332 10.0981C60.6971 10.5521 60.4078 10.9437 60.0154 11.2052C59.6231 11.4666 59.1524 11.5814 58.685 11.5297C58.4733 11.4925 58.2714 11.4124 58.0913 11.2944C57.9112 11.1763 57.7566 11.0227 57.637 10.8428C57.5798 10.7515 57.5417 10.6506 57.4941 10.5545L57.4036 10.2423V10.0885C57.3991 10.0246 57.3991 9.96034 57.4036 9.89636C57.4322 9.8195 57.4036 9.75224 57.456 9.65136C57.5119 9.46623 57.6081 9.296 57.7374 9.15306C57.8668 9.01012 58.0261 8.89807 58.2039 8.82506L58.4754 8.73859C58.5705 8.73137 58.666 8.73137 58.7612 8.73859C58.9306 8.75019 59.0945 8.80471 59.2375 8.89712C59.3688 8.97548 59.4805 9.08323 59.564 9.21205C59.6474 9.34086 59.7004 9.4873 59.7188 9.64005C59.7372 9.7928 59.7206 9.94778 59.6702 10.093C59.6197 10.2382 59.5369 10.3698 59.428 10.4777C59.337 10.5597 59.2308 10.6227 59.1156 10.6631C59.0003 10.7035 58.8782 10.7205 58.7564 10.7131C58.565 10.6951 58.3852 10.6121 58.2467 10.4777C58.1361 10.3493 58.0577 10.1961 58.0181 10.0309C58.026 10.2107 58.082 10.3849 58.18 10.5353C58.3473 10.7469 58.5883 10.8861 58.8539 10.9245C59.1195 10.9629 59.3896 10.8976 59.609 10.7419C59.7811 10.6284 59.9237 10.4749 60.0248 10.2943C60.1259 10.1138 60.1826 9.91142 60.1902 9.7042C60.1984 9.30361 60.064 8.91331 59.8115 8.60399C59.559 8.29467 59.205 8.08678 58.8136 8.01798C58.6741 7.98959 58.5319 7.97671 58.3896 7.97955C58.2515 8.00357 58.0991 8.02279 57.9514 8.05641C57.6392 8.14816 57.3514 8.30927 57.109 8.52791C56.8667 8.74655 56.676 9.01716 56.551 9.31988C56.426 9.67255 56.3771 10.0481 56.4074 10.4213C56.4378 10.7946 56.5468 11.157 56.7272 11.4844C56.9075 11.8118 57.155 12.0966 57.4532 12.3198C57.7514 12.543 58.0934 12.6995 58.4563 12.7788C59.2387 12.9461 60.0548 12.8107 60.7427 12.3993C61.4767 11.9665 62.0213 11.2697 62.267 10.4488C62.322 10.2175 62.3649 9.98334 62.3956 9.74744V9.15654C62.3478 8.73233 62.242 8.31685 62.0813 7.9219C61.7571 7.10243 61.1724 6.4147 60.4188 5.96665C60.2332 5.84864 60.0351 5.75195 59.8282 5.67841L59.5233 5.5487L59.1661 5.47184C58.7685 5.38757 58.362 5.35368 57.9562 5.37095C57.7847 5.37095 57.899 5.37095 57.8514 5.37095H57.7942H57.718L57.5608 5.39978L57.2464 5.46223C57.0328 5.49198 56.8243 5.55181 56.6272 5.63998L56.0317 5.89459C55.8428 5.99846 55.6613 6.11565 55.4887 6.24529C55.1352 6.49232 54.8149 6.78461 54.536 7.11482C54.3931 7.27816 54.2931 7.47032 54.1645 7.64807C54.0412 7.82343 53.9374 8.01192 53.8549 8.21014C53.4972 8.97438 53.3335 9.81632 53.3785 10.6602C53.4326 11.4794 53.6543 12.2784 54.0298 13.0068C54.4053 13.7353 54.9264 14.3774 55.5602 14.8926C55.8645 15.125 56.1826 15.3384 56.5128 15.5315C56.8446 15.7014 57.1885 15.8459 57.5417 15.9639C57.9046 16.0709 58.276 16.1464 58.6516 16.1897L58.9279 16.2281H59.1661H59.6424C60.9182 16.1596 62.1472 15.7209 63.1816 14.9646C63.9269 14.4238 64.5559 13.7363 65.0307 12.9437C65.5055 12.1511 65.8163 11.2697 65.9444 10.3527C66.003 9.85488 66.003 9.35176 65.9444 8.85389C65.9015 8.5128 65.8777 8.33505 65.8777 8.33505C65.8777 8.33505 65.8777 8.5176 65.8777 8.85869C65.842 9.34576 65.7607 9.82832 65.6347 10.2999C65.4138 11.0035 65.0825 11.6669 64.6535 12.2648Z" fill="#1697D2"/>
</g>
<defs>
<clipPath id="clip0_1_704">
<rect width="122" height="19" fill="white"/>
</clipPath>
</defs>
</svg>
