<svg width="25" height="26" viewBox="0 0 25 26" fill="none" xmlns="http://www.w3.org/2000/svg">
<g clip-path="url(#clip0_1_870)">
<g clip-path="url(#clip1_1_870)">
<path d="M6.2659 2.90301L6.39396 2.77993L6.29851 2.62984C6.04159 2.22485 5.42834 1.5459 4.20898 1.5459C3.41756 1.5459 2.84089 1.7468 2.44557 2.16053C1.58176 3.06501 1.67085 4.91684 1.7488 6.55109C1.79493 7.51751 1.83868 8.42993 1.68596 9.14541L1.59131 9.58851L1.99696 9.38522C3.02065 8.87224 3.26802 7.71524 3.48437 6.25648C3.62277 5.32659 3.74208 4.52376 4.31318 4.22677C4.5351 4.11083 4.78486 4.09019 5.07597 4.16245L5.21119 4.1958L6.13227 3.04595C6.16886 3.00068 6.21102 2.95463 6.2659 2.90222V2.90301Z" fill="url(#paint0_linear_1_870)"/>
<path d="M5.89037 9.8823L5.87048 10.1968L6.17194 10.1039C6.78281 9.91566 7.33562 9.60358 7.81604 9.17476C7.83434 9.15809 7.85263 9.14221 7.87013 9.12553C8.51759 8.52837 8.9662 7.76604 9.16584 6.92429L9.16982 6.91079C9.17141 6.90365 9.1738 6.89571 9.17618 6.88935L9.18096 6.87426C9.18334 6.86791 9.18573 6.86156 9.18891 6.85441C9.1913 6.84885 9.19448 6.8425 9.19607 6.83853L9.20323 6.82424C9.2072 6.81709 9.21118 6.80994 9.21436 6.80518L9.22311 6.79168C9.22709 6.78533 9.23186 6.77897 9.23584 6.77421L9.24618 6.76071C9.25095 6.75515 9.25572 6.75039 9.2597 6.74562C9.26368 6.74086 9.26845 6.73689 9.27243 6.73292L9.28515 6.7218C9.28993 6.71703 9.29549 6.71306 9.29868 6.71068L9.31299 6.69956C9.31856 6.69559 9.32413 6.69162 9.32811 6.68924L9.34322 6.68051C9.34958 6.67733 9.35515 6.67336 9.35913 6.67177L9.37583 6.66383C9.38219 6.66065 9.38776 6.65827 9.39492 6.65589C9.39969 6.6543 9.40446 6.65271 9.41083 6.65033C9.41639 6.64874 9.42196 6.64636 9.42753 6.64477C9.4323 6.64318 9.43787 6.64239 9.44582 6.64001L9.46173 6.63683C9.4681 6.63524 9.47526 6.63445 9.48082 6.63365L9.49753 6.63127C9.50389 6.63127 9.50946 6.63048 9.51662 6.63048C9.52298 6.63048 9.52855 6.63048 9.53173 6.63048H9.55161C9.55877 6.63127 9.56593 6.63207 9.5707 6.63286L9.58661 6.63524C9.59457 6.63683 9.60252 6.63762 9.60729 6.63921L9.6232 6.64318C9.63036 6.64477 9.63831 6.64715 9.64388 6.64954L9.65979 6.65509C9.66615 6.65748 9.67172 6.65986 9.67808 6.66224C9.68365 6.66462 9.69001 6.66701 9.6932 6.66939L9.7091 6.67733C9.71706 6.68209 9.72501 6.68606 9.73535 6.69242C12.3427 8.40608 15.5569 8.87539 18.554 7.97885L18.7648 7.91612L18.6996 7.70648C17.8214 4.87632 15.6158 3.3183 12.4867 3.3183C10.5745 3.3183 8.95983 3.92181 7.81843 5.06293C6.68418 6.19769 6.01684 7.8645 5.88878 9.8831L5.89037 9.8823ZM7.76354 9.116V9.06756H7.81684C7.79934 9.08344 7.78104 9.10012 7.76354 9.116Z" fill="url(#paint1_linear_1_870)"/>
<path d="M23.2279 6.55109C23.3058 4.91684 23.3941 3.06501 22.5311 2.16132C22.1358 1.7476 21.5591 1.54669 20.7677 1.54669C19.5467 1.54669 18.9335 2.22564 18.6774 2.62984L18.5819 2.77992L18.71 2.90301C18.7656 2.95621 18.8086 3.00227 18.8444 3.04754L19.7663 4.19739L19.9015 4.16404C20.1926 4.09177 20.4416 4.11242 20.6643 4.22836C21.2354 4.52535 21.3547 5.32818 21.4931 6.25807C21.7094 7.71683 21.9568 8.87303 22.9805 9.38602L23.3861 9.58931L23.2915 9.1462C23.1388 8.42992 23.1825 7.51751 23.2287 6.55109H23.2279Z" fill="url(#paint2_linear_1_870)"/>
<path d="M20.9857 21.6325L20.9188 21.5714C19.6518 20.2429 18.3887 19.7704 17.466 19.4258C17.2465 19.344 17.0389 19.2661 16.8527 19.1851L16.7986 19.1621L16.7605 19.2066C16.7501 19.2185 15.6851 20.4104 12.731 20.4493C9.76568 20.4875 8.08658 19.1955 8.06988 19.182L8.03807 19.1566L7.93387 19.1859C7.27448 19.3725 6.04717 19.7204 4.06263 21.5666L3.99184 21.631V25.8953H3.80811V25.9747H21.5488V25.8953H20.9857V21.631V21.6325Z" fill="url(#paint3_linear_1_870)"/>
<path d="M13.2034 15.4958C12.4979 15.9834 12.4454 15.9842 11.7884 15.5093C11.6699 15.4243 11.5609 15.3815 11.4583 15.3815C11.3422 15.3815 11.2364 15.4355 11.1369 15.545C10.9516 15.7483 10.9628 15.9818 11.1672 16.2018C11.5068 16.5686 11.9483 16.7616 12.4788 16.7775C13.026 16.768 13.4802 16.5678 13.823 16.1835C14.0227 15.9596 14.0211 15.7325 13.8183 15.5276C13.6353 15.3426 13.4396 15.333 13.2034 15.4966V15.4958Z" fill="#0C67BD"/>
<path d="M9.29633 11.5046C9.29156 11.5046 9.28678 11.5046 9.28122 11.5046C9.00442 11.5046 8.84454 11.6468 8.765 11.9628C8.73318 12.0907 8.73557 12.2312 8.73795 12.3337C8.73875 12.3734 8.73955 12.4067 8.73795 12.4313V12.6315C8.73955 12.7379 8.74034 12.8133 8.73795 12.888C8.72921 13.123 8.78488 13.3088 8.89783 13.4256C8.99248 13.5232 9.12532 13.5756 9.29951 13.5717C9.70914 13.5717 9.81096 13.2056 9.82448 12.8991C9.838 12.5878 9.85152 12.2686 9.80618 11.9708C9.75925 11.6627 9.59222 11.5102 9.29633 11.5054V11.5046Z" fill="#0C67BD"/>
<path d="M16.4248 12.7299L16.4168 12.5918C16.4168 12.5409 16.4184 12.4893 16.4192 12.4385C16.4216 12.3297 16.4248 12.2273 16.4144 12.1272C16.3723 11.6889 16.2148 11.507 15.8751 11.507C15.8672 11.507 15.8592 11.507 15.8505 11.507C15.6278 11.5126 15.3685 11.5848 15.3382 12.1026C15.3176 12.4536 15.312 12.745 15.351 13.0301C15.3732 13.1961 15.4711 13.5812 15.8696 13.5709C16.3102 13.5598 16.4049 13.2016 16.4216 12.9896C16.4287 12.9054 16.4263 12.8197 16.4248 12.7291H16.4224L16.4248 12.7299Z" fill="#0C67BD"/>
<path d="M7.76282 9.11601C7.78111 9.10012 7.79861 9.08424 7.81611 9.06757H7.76282V9.11601Z" fill="url(#paint4_linear_1_870)"/>
<path d="M24.685 9.97682L24.6786 9.94188C24.6707 9.90614 24.6547 9.86803 24.6325 9.83309L24.6174 9.81006C24.5943 9.7775 24.5633 9.74732 24.5275 9.72271L24.51 9.71238C24.4996 9.70603 24.4957 9.70365 24.4917 9.70127L24.4861 9.69888C24.475 9.69333 24.4662 9.68856 24.4575 9.68539C23.8824 9.45192 23.8943 8.25442 23.9739 6.58841C24.059 4.80486 24.156 2.78309 23.0711 1.64753C22.535 1.08611 21.7595 0.801026 20.7668 0.801026C20.1917 0.801026 19.6668 0.923317 19.2062 1.16393C19.168 1.18378 19.1299 1.20443 19.0941 1.22587C18.4697 1.58718 18.1181 2.09302 17.9646 2.36222L17.8962 2.48292L17.7578 2.47181C17.3617 2.43925 16.9576 2.56233 16.6514 2.8093L16.0055 3.32943L15.8822 3.27226C14.8808 2.80771 13.7386 2.57266 12.4882 2.57266C11.2379 2.57266 10.0949 2.8085 9.09346 3.27305L8.97017 3.33023L8.3243 2.81009C8.01807 2.56392 7.6148 2.44084 7.2179 2.4726L7.07949 2.48372L7.01109 2.36302C6.74383 1.89212 5.9357 0.800232 4.20888 0.800232C3.21622 0.800232 2.4407 1.08452 1.9046 1.64674C0.820459 2.7823 0.916703 4.80328 1.00181 6.58682C1.08135 8.25283 1.09328 9.45033 0.519001 9.6838C0.509456 9.68777 0.500707 9.69253 0.491162 9.6965L0.474459 9.70524L0.443438 9.72509C0.411622 9.74732 0.380601 9.7775 0.355148 9.81323L0.341626 9.83468C0.320946 9.86803 0.305037 9.90535 0.296288 9.94585L0.291516 9.96888C0.289925 9.9792 0.288334 9.98476 0.288334 9.99111C0.287539 10.0086 0.286743 10.0181 0.286743 10.0284V10.0348C0.286743 10.0459 0.287539 10.0554 0.288334 10.065L0.29072 10.0832C0.291516 10.0912 0.292311 10.0959 0.293106 10.1015C0.293902 10.1055 0.295493 10.111 0.297083 10.1158L0.303447 10.1404C0.305037 10.1452 0.308219 10.1539 0.311401 10.1618L0.317764 10.1785C0.320946 10.1865 0.3289 10.2015 0.337649 10.2166L0.344012 10.227C0.351966 10.2397 0.360716 10.2532 0.371056 10.2651C0.383782 10.2802 0.394123 10.2905 0.405258 10.3008L0.417985 10.3127C0.42753 10.3207 0.439461 10.331 0.452983 10.3397C0.468891 10.3493 0.482413 10.3572 0.49673 10.3643L0.50707 10.3699C0.519797 10.3755 0.534909 10.3818 0.550817 10.3866C0.567521 10.3913 0.582634 10.3945 0.598542 10.3969L0.612859 10.3993C0.625585 10.4009 0.640698 10.4025 0.655811 10.4025H0.666946C3.62267 10.3985 3.9973 7.87564 4.22161 6.36844C4.28444 5.94598 4.37035 5.36867 4.49682 5.09233L4.87941 4.25853L4.91281 5.17491C4.9144 5.21462 4.916 5.25353 4.91997 5.29323C4.9669 5.7014 5.17848 6.08098 5.50062 6.33588L5.8665 6.62493L5.80446 6.77661C5.4004 7.76685 5.17212 8.90399 5.12678 10.1571L5.12121 10.3119L4.97326 10.3572C4.78634 10.4144 4.60579 10.4954 4.43796 10.5962C3.70141 11.0393 3.24406 11.8406 3.24406 12.6871C3.24406 13.8457 4.06571 14.8494 5.19757 15.0741L5.32404 15.0995L5.36301 15.2226C5.72969 16.3947 6.39067 17.4675 7.27437 18.3268L7.50981 18.5555L7.20676 18.6833C3.97662 20.0396 1.52757 22.5815 0.310605 25.8397C0.303447 25.858 0.297879 25.8778 0.294697 25.8969H1.0909C1.52598 24.7939 2.12015 23.7711 2.85669 22.8547L3.24485 22.3727V25.8969H3.808V21.203L8.16999 18.7397C10.0273 19.7029 10.9452 20.038 12.6783 20.0412C16.2418 20.0484 17.0244 18.6094 17.0244 18.6094L21.5495 21.203V25.8969H21.7332V22.3727L22.1206 22.8547C22.8571 23.7703 23.4513 24.7939 23.8864 25.8969H24.6826C24.6786 25.877 24.673 25.858 24.6667 25.8397C23.4505 22.5823 21.0015 20.0396 17.7705 18.6817L17.4675 18.5539L17.7029 18.3252C18.5866 17.4659 19.2476 16.3931 19.6143 15.221L19.6532 15.098L19.7805 15.0725C20.9124 14.8478 21.734 13.8441 21.734 12.6855C21.734 11.627 21.0229 10.6685 20.004 10.3556L19.8561 10.3103L19.8473 10.0904C19.8187 9.40983 19.7336 8.75232 19.5944 8.1369L19.5912 8.12022C19.5872 8.08369 19.5809 8.0559 19.5713 8.02969L19.5665 8.01302C19.4608 7.57309 19.3279 7.15777 19.172 6.77661L19.11 6.62493L19.4759 6.33588C19.7988 6.08098 20.0104 5.7014 20.0565 5.29323C20.0613 5.25432 20.0621 5.21621 20.0637 5.1773L20.0971 4.25694L20.4797 5.09392C20.6053 5.36947 20.6912 5.94678 20.7541 6.36765C20.9251 7.51829 21.1836 9.25657 22.597 10.0173C23.0703 10.2722 23.6462 10.4017 24.3087 10.4025H24.3183C24.335 10.4025 24.3501 10.4009 24.3644 10.3993L24.3795 10.3969C24.3923 10.3945 24.4082 10.3913 24.4225 10.3874C24.44 10.3818 24.4559 10.3762 24.4702 10.3691L24.4774 10.3659C24.4925 10.3588 24.506 10.3516 24.5187 10.3429C24.5362 10.3318 24.549 10.3215 24.5609 10.3111L24.572 10.3008C24.5816 10.2913 24.5919 10.2818 24.6015 10.2706C24.6158 10.254 24.6245 10.2405 24.6333 10.2262L24.6396 10.215C24.6476 10.2015 24.6555 10.1865 24.6619 10.1706L24.6635 10.165C24.6675 10.1539 24.6707 10.146 24.6738 10.1372L24.6794 10.1166C24.681 10.1102 24.6826 10.1055 24.6834 10.1007C24.6842 10.0959 24.685 10.0912 24.6858 10.0864L24.6889 10.0602C24.6889 10.0554 24.6889 10.0459 24.6897 10.0364V10.0237C24.6897 10.0197 24.6897 10.0094 24.6882 9.99985L24.6858 9.97761L24.685 9.97682ZM12.4882 3.31752C15.6166 3.31752 17.823 4.87554 18.7011 7.7057L18.7664 7.91534L18.5556 7.97808C15.5585 8.87461 12.3443 8.4053 9.73694 6.69164C9.7266 6.68529 9.71865 6.68052 9.71069 6.67655L9.69478 6.66861C9.69478 6.66861 9.68524 6.66385 9.67967 6.66146C9.67331 6.65908 9.66774 6.6567 9.66138 6.65432L9.64547 6.64876C9.6399 6.64717 9.63195 6.64479 9.62479 6.6424L9.60888 6.63843C9.60411 6.63764 9.59615 6.63605 9.5882 6.63446L9.57229 6.63208C9.56752 6.63208 9.56036 6.63129 9.5532 6.63049H9.53332C9.53332 6.63049 9.52457 6.63049 9.5182 6.63049C9.51184 6.63049 9.50548 6.63049 9.49911 6.63129L9.48241 6.63367C9.47605 6.63446 9.46968 6.63526 9.46332 6.63685L9.44741 6.64002C9.43946 6.64161 9.43469 6.6432 9.42912 6.64479C9.42355 6.64638 9.41798 6.64876 9.41242 6.65035C9.40526 6.65273 9.40048 6.65432 9.39651 6.6559C9.39014 6.65829 9.38378 6.66146 9.37742 6.66385L9.36071 6.67179C9.36071 6.67179 9.35117 6.67735 9.34481 6.68052L9.32969 6.68926C9.32969 6.68926 9.32094 6.69561 9.31458 6.69958L9.30026 6.7107C9.30026 6.7107 9.29231 6.71784 9.28674 6.72181L9.27402 6.73293C9.27402 6.73293 9.26606 6.74087 9.26129 6.74564C9.25652 6.7504 9.25174 6.75517 9.24777 6.76073L9.23743 6.77423C9.23345 6.77899 9.22868 6.78534 9.2247 6.79169L9.21595 6.8052C9.21277 6.80996 9.20879 6.81711 9.20481 6.82425L9.19766 6.83855C9.19527 6.84252 9.19288 6.84808 9.1905 6.85443C9.18732 6.86158 9.18493 6.86793 9.18254 6.87428L9.17777 6.88937C9.17538 6.89572 9.17379 6.90366 9.17141 6.91081L9.16743 6.92431C8.96778 7.76526 8.51918 8.52839 7.87172 9.12555C7.85342 9.14222 7.83592 9.1589 7.81763 9.17478C7.33721 9.60359 6.7844 9.91567 6.17353 10.1039L5.87207 10.1968L5.89196 9.88232C6.02002 7.86373 6.68736 6.19692 7.82161 5.06215C8.96301 3.92103 10.5777 3.31752 12.4898 3.31752H12.4882ZM5.21109 4.19738L5.07587 4.16403C4.78475 4.09176 4.535 4.11241 4.31308 4.22835C3.74198 4.52534 3.62267 5.32817 3.48427 6.25806C3.26792 7.71682 3.02055 8.87302 1.99686 9.3868L1.59121 9.59009L1.68586 9.14699C1.83858 8.43071 1.79483 7.51829 1.7487 6.55267C1.67075 4.91842 1.58246 3.06659 2.44547 2.16211C2.84079 1.74838 3.41745 1.54748 4.20888 1.54748C5.42824 1.54748 6.04149 2.22643 6.29841 2.63142L6.39386 2.7815L6.2658 2.90459C6.21091 2.95779 6.16876 3.00306 6.13217 3.04832L5.21109 4.19817V4.19738ZM5.66288 5.20827C5.64936 5.08836 5.66368 4.96368 5.70504 4.84695C5.71617 4.82075 5.72094 4.80963 5.72492 4.79772C5.75912 4.72069 5.79333 4.66351 5.83469 4.61269L6.7152 3.51366C6.78281 3.42869 6.86712 3.35961 6.96416 3.3072L6.98405 3.29767C7.0087 3.28814 7.0262 3.28099 7.04211 3.27226L7.06279 3.26273C7.13358 3.23652 7.19562 3.22143 7.25846 3.21508C7.47004 3.19126 7.68798 3.25479 7.85422 3.38978L8.26544 3.72092L8.03398 3.88768C7.76195 4.08303 7.50504 4.30141 7.27039 4.53487C6.91803 4.88586 6.60225 5.28768 6.33102 5.73078L6.20296 5.94042L5.96354 5.75143C5.79571 5.61881 5.68595 5.42108 5.66129 5.20906L5.66288 5.20827ZM19.1108 10.6319C19.1108 10.6383 19.1108 10.6447 19.1116 10.651L19.1132 10.6701C19.1132 10.6772 19.1148 10.6836 19.1156 10.6891L19.1187 10.7066C19.1203 10.7129 19.1211 10.7177 19.1219 10.7217L19.1529 10.8043L19.1967 10.871L19.2452 10.9186C19.2508 10.9234 19.2555 10.9266 19.2595 10.9297L19.2754 10.9416C19.2802 10.9448 19.2834 10.9472 19.2874 10.9488L19.3049 10.9591C19.3096 10.9615 19.312 10.9631 19.3144 10.9639L19.3868 10.9917C19.4003 10.9956 19.4059 10.9964 19.4106 10.998L19.4226 10.9996C19.4385 11.002 19.4433 11.0028 19.4472 11.0036C20.3095 11.0814 20.9848 11.8215 20.9848 12.6871C20.9848 13.5526 20.2506 14.3459 19.3478 14.3745C19.1824 14.3801 19.0384 14.4952 18.9978 14.6548C18.6224 16.1247 17.7459 17.4366 16.5289 18.3482C16.4915 18.372 16.4708 18.3871 16.4517 18.4038L16.439 18.4141C15.2801 19.2519 13.9144 19.6934 12.4874 19.6934C11.0605 19.6934 9.69637 19.2527 8.54224 18.4197L8.52872 18.4085C8.50645 18.3879 8.48657 18.3736 8.46429 18.3601L8.45157 18.3514C7.22983 17.4358 6.3525 16.1239 5.97786 14.6541C5.93729 14.4944 5.79333 14.3785 5.62788 14.3737C4.7251 14.3451 3.99094 13.5876 3.99094 12.6863C3.99094 11.8596 4.61374 11.141 5.42267 11.0155V11.0107L5.55311 11.0004C7.38811 10.7654 8.9646 9.54483 9.66297 7.81608L9.75603 7.58579L9.97238 7.70808C11.6626 8.661 13.5875 9.16446 15.5402 9.16446C16.6076 9.16446 17.6703 9.01199 18.6988 8.71182L18.9358 8.64274L18.9748 8.88573C19.0646 9.4416 19.11 10.0284 19.11 10.6312L19.1108 10.6319ZM19.3144 5.20906C19.2905 5.42108 19.18 5.61881 19.0121 5.75143L18.7727 5.94042L18.6447 5.73078C18.3742 5.28768 18.0577 4.88586 17.7053 4.53487C17.4707 4.30141 17.2129 4.08303 16.9417 3.88768L16.7102 3.72092L17.1215 3.38978C17.2877 3.25558 17.5057 3.19205 17.718 3.21508C17.7793 3.22143 17.8421 3.23652 17.9034 3.25876L17.9248 3.26829C17.9479 3.2802 17.9646 3.28734 17.9853 3.29529L18.0068 3.30402C18.111 3.35961 18.1945 3.42949 18.2621 3.51366L19.1434 4.61269C19.1816 4.66034 19.215 4.71513 19.2436 4.77469L19.25 4.79057C19.2563 4.80804 19.2611 4.82075 19.2667 4.83266L19.273 4.84854C19.3144 4.96845 19.3287 5.09233 19.3152 5.20985L19.3144 5.20906ZM22.9804 9.3868C21.9567 8.87382 21.7102 7.71682 21.493 6.25886C21.3546 5.32897 21.2353 4.52614 20.6642 4.22914C20.4415 4.11321 20.1925 4.09256 19.9014 4.16482L19.7662 4.19817L18.8443 3.04832C18.8085 3.00306 18.7656 2.957 18.7099 2.9038L18.5818 2.78071L18.6773 2.63063C18.9342 2.22643 19.5467 1.54748 20.7676 1.54748C21.559 1.54748 22.1357 1.74838 22.531 2.16211C23.3948 3.06659 23.3057 4.91842 23.2278 6.55188C23.1817 7.51829 23.1379 8.43071 23.2906 9.14699L23.3853 9.59009L22.9796 9.3868H22.9804Z" fill="#0C67BD"/>
<path d="M17.0237 18.6102C17.0237 18.6102 16.2418 20.0491 12.6776 20.042C10.9444 20.0388 10.0265 19.7037 8.16925 18.7405L3.80725 21.2038V25.8977H3.99099V21.6334L4.06178 21.569C6.04631 19.722 7.27362 19.3749 7.93301 19.1883L8.03721 19.159L8.06903 19.1844C8.08573 19.1979 9.76483 20.4899 12.7301 20.4517C15.6842 20.412 16.7493 19.2209 16.7596 19.209L16.7978 19.1645L16.8519 19.1875C17.038 19.2677 17.2456 19.3456 17.4651 19.4281C18.3878 19.7728 19.6517 20.2453 20.918 21.5738L20.9848 21.6349V25.8992H21.5479V21.2053L17.0229 18.6118L17.0237 18.6102Z" fill="#0C67BD"/>
</g>
</g>
<defs>
<linearGradient id="paint0_linear_1_870" x1="3.99263" y1="1.5459" x2="3.99263" y2="9.58851" gradientUnits="userSpaceOnUse">
<stop stop-color="#0EB6E6"/>
<stop offset="1" stop-color="#0FDFFB"/>
</linearGradient>
<linearGradient id="paint1_linear_1_870" x1="12.3176" y1="3.3183" x2="12.3176" y2="10.1968" gradientUnits="userSpaceOnUse">
<stop stop-color="#0EB6E6"/>
<stop offset="1" stop-color="#0FDFFB"/>
</linearGradient>
<linearGradient id="paint2_linear_1_870" x1="20.984" y1="1.54669" x2="20.984" y2="9.58931" gradientUnits="userSpaceOnUse">
<stop stop-color="#0EB6E6"/>
<stop offset="1" stop-color="#0FDFFB"/>
</linearGradient>
<linearGradient id="paint3_linear_1_870" x1="12.6785" y1="19.1566" x2="12.6785" y2="25.9747" gradientUnits="userSpaceOnUse">
<stop stop-color="#0EB6E6"/>
<stop offset="1" stop-color="#0FDFFB"/>
</linearGradient>
<linearGradient id="paint4_linear_1_870" x1="7.78946" y1="9.06757" x2="7.78946" y2="9.11601" gradientUnits="userSpaceOnUse">
<stop stop-color="#0EB6E6"/>
<stop offset="1" stop-color="#0FDFFB"/>
</linearGradient>
<clipPath id="clip0_1_870">
<rect width="24.4014" height="25.1761" fill="white" transform="translate(0.287598 0.800232)"/>
</clipPath>
<clipPath id="clip1_1_870">
<rect width="24.4014" height="25.1761" fill="white" transform="translate(0.287598 0.800232)"/>
</clipPath>
</defs>
</svg>
