<svg width="1547" height="129" viewBox="0 0 1547 129" fill="none" xmlns="http://www.w3.org/2000/svg">
<path d="M0.982693 71.0415C95.3219 0.890386 225.533 -27.7678 327.354 37.8849C339.403 45.655 351.522 54.589 359.004 68.6507C367.051 83.782 363.986 102.017 347.591 105.708C335.728 108.382 321.153 101.598 314.36 89.6227C306.137 75.1206 315.27 58.4374 324.863 48.7588C346.39 27.0424 378.207 20.4467 405.59 19.5344C434.033 18.6012 462.503 24.1063 489.851 33.1033C546.516 51.7473 599.012 85.271 656.844 99.448C714.949 113.698 775.077 110.469 832.21 92.0135C888.019 73.9881 940.762 44.4491 997.198 28.9508C1058.4 12.1418 1122.45 13.0646 1184.92 14.3439C1216.48 14.994 1247.97 17.8567 1278.21 29.2549C1306.28 39.8353 1332.46 56.0046 1359.06 70.7794C1386.04 85.7743 1413.71 98.9447 1441.93 110.259C1466.18 119.98 1491.94 130.602 1517.93 128.798C1528.16 128.085 1537.98 125.065 1546.69 118.553C1547.41 118.019 1546.74 116.655 1546.02 117.19C1521.03 135.855 1487.95 125.852 1461.78 116.236C1429.55 104.387 1397.92 90.1679 1367.22 73.5372C1339.99 58.7729 1313.46 41.922 1285.09 30.3035C1254.59 17.8147 1222.97 13.8301 1190.87 12.9073C1125.98 11.0408 1059.03 10.1076 995.484 27.7974C934.597 44.7427 877.931 77.8574 817.079 94.96C751.51 113.384 682.893 109.934 618.71 85.8687C560.667 64.1103 505.963 29.9994 444.969 20.5411C416.791 16.1684 387.482 16.4306 360.064 26.1196C341.099 32.8202 312.214 47.4586 309.944 74.7955C308.186 95.9247 329.598 109.242 345.038 107.659C352.873 106.851 361.247 101.755 364.153 92.5797C367.351 82.5132 362.74 71.5553 357.67 63.6489C342.865 40.5693 315.977 27.8288 293.576 18.6117C266.749 7.60141 238.412 1.81315 210.066 0.355604C150.901 -2.68533 91.6031 13.9244 38.4711 44.5225C25.3625 52.0724 12.6514 60.5031 0.311365 69.6783C-0.412962 70.2131 0.258366 71.5763 0.982693 71.0415Z" fill="#BABFDE"/>
</svg>
