<svg width="310" height="32" viewBox="0 0 310 32" fill="none" xmlns="http://www.w3.org/2000/svg">
<path d="M3.99592 19.6713H4.96206C4.93756 21.1011 4.83081 22.3356 4.64178 23.3747C4.45625 24.4042 4.18496 25.1954 3.8279 25.7483C3.47434 26.3012 3.03151 26.5776 2.49943 26.5776C2.11786 26.5776 1.77305 26.3727 1.465 25.9628C1.15695 25.5529 0.892655 24.9666 0.672119 24.204C0.455083 23.4319 0.288833 22.5072 0.173315 21.43C0.0577957 20.3528 0 19.1422 0 17.7981V13.9517C0 12.6171 0.0577957 11.4113 0.173315 10.3341C0.292334 9.25689 0.462111 8.33699 0.682646 7.57438C0.906683 6.80224 1.17797 6.21122 1.49652 5.80132C1.81858 5.39142 2.18262 5.18647 2.58869 5.18647C3.08577 5.18647 3.50584 5.45815 3.8489 6.00151C4.19546 6.53533 4.46151 7.32177 4.64704 8.36082C4.83607 9.39034 4.94106 10.6534 4.96206 12.15H3.99592C3.97142 11.0538 3.90839 10.1625 3.80687 9.47614C3.70536 8.78026 3.55483 8.27026 3.3553 7.94616C3.15927 7.61251 2.90374 7.44569 2.58869 7.44569C2.30864 7.44569 2.06537 7.59822 1.85883 7.90326C1.6558 8.2083 1.48776 8.6468 1.35474 9.21876C1.22522 9.78118 1.1272 10.4628 1.06069 11.2635C0.99768 12.0547 0.966193 12.9412 0.966193 13.9231V17.7981C0.966193 18.7132 0.992446 19.5664 1.04496 20.3576C1.10096 21.1488 1.18846 21.8447 1.30747 22.4452C1.42999 23.0363 1.5893 23.4986 1.78534 23.8322C1.98137 24.1659 2.21938 24.3327 2.49943 24.3327C2.85298 24.3327 3.13303 24.1754 3.33957 23.8608C3.5461 23.5462 3.69836 23.0458 3.79637 22.3594C3.89789 21.6731 3.96442 20.777 3.99592 19.6713Z" fill="#6D6D6D"/>
<path d="M9.7456 21.5158L12.7228 5.47245H13.689V26.2916H12.7228V10.234L9.7456 26.2916H8.78469V5.47245H9.7456V21.5158Z" fill="#6D6D6D"/>
<path d="M19.5542 14.4236V16.6685H16.2409V14.4236H19.5542ZM16.3722 5.47245V26.2916H15.406V5.47245H16.3722ZM20.4101 5.47245V26.2916H19.444V5.47245H20.4101Z" fill="#6D6D6D"/>
<path d="M25.9025 19.6713H26.8687C26.8441 21.1011 26.7374 22.3356 26.5483 23.3747C26.3628 24.4042 26.0915 25.1954 25.7345 25.7483C25.3809 26.3012 24.9381 26.5776 24.406 26.5776C24.0245 26.5776 23.6796 26.3727 23.3716 25.9628C23.0635 25.5529 22.7992 24.9666 22.5787 24.204C22.3617 23.4319 22.1954 22.5072 22.0799 21.43C21.9643 20.3528 21.9066 19.1422 21.9066 17.7981V13.9517C21.9066 12.6171 21.9643 11.4113 22.0799 10.3341C22.1989 9.25689 22.3687 8.33699 22.5892 7.57438C22.8132 6.80224 23.0845 6.21122 23.4031 5.80132C23.7251 5.39142 24.0892 5.18647 24.4953 5.18647C24.9924 5.18647 25.4124 5.45815 25.7555 6.00151C26.102 6.53533 26.3681 7.32177 26.5536 8.36082C26.7426 9.39034 26.8476 10.6534 26.8687 12.15H25.9025C25.878 11.0538 25.815 10.1625 25.7135 9.47614C25.6119 8.78026 25.4614 8.27026 25.2619 7.94616C25.0659 7.61251 24.8103 7.44569 24.4953 7.44569C24.2152 7.44569 23.9719 7.59822 23.7654 7.90326C23.5624 8.2083 23.3943 8.6468 23.2613 9.21876C23.1318 9.78118 23.0338 10.4628 22.9673 11.2635C22.9042 12.0547 22.8728 12.9412 22.8728 13.9231V17.7981C22.8728 18.7132 22.899 19.5664 22.9515 20.3576C23.0075 21.1488 23.095 21.8447 23.2141 22.4452C23.3366 23.0363 23.4958 23.4986 23.6919 23.8322C23.8879 24.1659 24.126 24.3327 24.406 24.3327C24.7596 24.3327 25.0396 24.1754 25.2461 23.8608C25.4527 23.5462 25.6049 23.0458 25.703 22.3594C25.8045 21.6731 25.871 20.777 25.9025 19.6713Z" fill="#6D6D6D"/>
<path d="M30.476 5.47245V26.2916H29.5203V5.47245H30.476ZM32.4871 5.47245V7.73167H27.5145V5.47245H32.4871Z" fill="#6D6D6D"/>
<path d="M36.0524 18.127H34.3826V15.882H36.0524C36.3674 15.882 36.6212 15.7105 36.8138 15.3673C37.0098 15.0241 37.1516 14.5475 37.2391 13.9374C37.3301 13.3273 37.3756 12.6314 37.3756 11.8498C37.3756 11.1348 37.3301 10.4628 37.2391 9.83361C37.1516 9.20446 37.0098 8.69923 36.8138 8.31793C36.6212 7.92709 36.3674 7.73167 36.0524 7.73167H34.5822V26.2916H33.616V5.47245H36.0524C36.546 5.47245 36.9625 5.74413 37.3021 6.28748C37.6416 6.83084 37.899 7.58392 38.074 8.54671C38.2525 9.49997 38.3418 10.5915 38.3418 11.8212C38.3418 13.1557 38.2525 14.2949 38.074 15.2386C37.899 16.1823 37.6416 16.902 37.3021 17.3977C36.9625 17.8839 36.546 18.127 36.0524 18.127Z" fill="#6D6D6D"/>
<path d="M41.5343 19.3853L43.1568 5.47245H44.27L42.0698 22.817C41.9998 23.3032 41.9246 23.775 41.8441 24.2326C41.7671 24.6806 41.6726 25.081 41.5605 25.4337C41.4485 25.7864 41.3085 26.0676 41.1405 26.2773C40.9724 26.4871 40.7624 26.5919 40.5104 26.5919C40.4334 26.5919 40.3441 26.5776 40.2426 26.549C40.1446 26.5299 40.0816 26.5061 40.0535 26.4775L40.0745 24.2755C40.1061 24.2946 40.1708 24.3136 40.2688 24.3327C40.3703 24.3422 40.4421 24.347 40.4841 24.347C40.6416 24.347 40.7624 24.2374 40.8464 24.0181C40.9339 23.7989 41.0022 23.5224 41.0512 23.1888C41.1002 22.8456 41.1475 22.4977 41.193 22.145L41.5343 19.3853ZM40.3161 5.47245L41.9649 18.4415L42.1906 21.001L41.3768 21.1726L39.2397 5.47245H40.3161Z" fill="#6D6D6D"/>
<path d="M46.4858 5.47245V26.2916H45.5197V5.47245H46.4858ZM50.4187 5.47245L47.6568 16.9259H46.1025L45.9397 14.638H47.0739L49.2215 5.47245H50.4187ZM49.4211 26.2916L47.1212 16.5684L47.662 14.1519L50.5973 26.2916H49.4211Z" fill="#6D6D6D"/>
<path d="M57.1608 23.9752L57.0663 31.3105H56.2052V26.2916H55.5698V23.9752H57.1608ZM51.5477 26.2916V5.47245H52.5138V24.0467H55.5016V5.47245H56.4677V26.2916H51.5477Z" fill="#6D6D6D"/>
<path d="M59.3872 21.5158L62.3644 5.47245H63.3306V26.2916H62.3644V10.234L59.3872 26.2916H58.4263V5.47245H59.3872V21.5158Z" fill="#6D6D6D"/>
<path d="M69.159 24.0467V26.2916H65.8405V24.0467H69.159ZM66.0138 5.47245V26.2916H65.0476V5.47245H66.0138ZM68.7127 14.4236V16.6685H65.8405V14.4236H68.7127ZM69.1065 5.47245V7.73167H65.8405V5.47245H69.1065Z" fill="#6D6D6D"/>
<path d="M71.4012 21.5158L74.3784 5.47245H75.3445V26.2916H74.3784V10.234L71.4012 26.2916H70.4403V5.47245H71.4012V21.5158ZM73.6905 0.310547H74.4782C74.4782 1.05409 74.4152 1.7166 74.2891 2.29809C74.1631 2.87005 73.9828 3.31808 73.7483 3.64219C73.5137 3.9663 73.2355 4.12835 72.9134 4.12835C72.4268 4.12835 72.0418 3.77565 71.7582 3.07023C71.4782 2.35529 71.3381 1.43539 71.3381 0.310547H72.1258C72.1258 0.87297 72.1853 1.36867 72.3043 1.79763C72.4233 2.2266 72.6264 2.44108 72.9134 2.44108C73.1934 2.44108 73.393 2.2266 73.512 1.79763C73.631 1.36867 73.6905 0.87297 73.6905 0.310547Z" fill="#6D6D6D"/>
<path d="M80.5376 21.5158L83.5149 5.47245H84.481V26.2916H83.5149V10.234L80.5376 26.2916H79.5767V5.47245H80.5376V21.5158Z" fill="#6D6D6D"/>
<path d="M90.362 5.47245V7.73167H87.5055V5.47245H90.362ZM91.2126 5.47245V26.2916H90.2465V5.47245H91.2126ZM87.18 5.47245H88.1409L88.0044 15.6676C87.9869 17.1356 87.9536 18.4463 87.9046 19.5998C87.8556 20.7437 87.7856 21.7398 87.6945 22.5882C87.6035 23.4271 87.4845 24.123 87.3375 24.6759C87.1905 25.2192 87.0102 25.6244 86.7966 25.8913C86.5866 26.1582 86.3363 26.2916 86.0458 26.2916H85.7937V24.0467L85.9775 24.0038C86.1386 23.9657 86.2768 23.8465 86.3923 23.6463C86.5114 23.4366 86.6094 23.122 86.6864 22.7026C86.7669 22.2832 86.8317 21.7398 86.8807 21.0725C86.9332 20.4053 86.9735 19.5902 87.0015 18.6274C87.0295 17.6551 87.0505 16.5207 87.0645 15.2243L87.18 5.47245Z" fill="#6D6D6D"/>
<path d="M93.9273 21.5158L96.9045 5.47245H97.8707V26.2916H96.9045V10.234L93.9273 26.2916H92.9664V5.47245H93.9273V21.5158Z" fill="#6D6D6D"/>
<path d="M107.023 5.47245V26.2916H106.057V7.73167H103.069V26.2916H102.103V5.47245H107.023Z" fill="#6D6D6D"/>
<path d="M111.171 18.127H109.501V15.882H111.171C111.486 15.882 111.74 15.7105 111.932 15.3673C112.129 15.0241 112.27 14.5475 112.358 13.9374C112.449 13.3273 112.494 12.6314 112.494 11.8498C112.494 11.1348 112.449 10.4628 112.358 9.83361C112.27 9.20446 112.129 8.69923 111.932 8.31793C111.74 7.92709 111.486 7.73167 111.171 7.73167H109.701V26.2916H108.735V5.47245H111.171C111.665 5.47245 112.081 5.74413 112.421 6.28748C112.76 6.83084 113.018 7.58392 113.193 8.54671C113.371 9.49997 113.46 10.5915 113.46 11.8212C113.46 13.1557 113.371 14.2949 113.193 15.2386C113.018 16.1823 112.76 16.902 112.421 17.3977C112.081 17.8839 111.665 18.127 111.171 18.127Z" fill="#6D6D6D"/>
<path d="M119.672 14.0804V17.698C119.672 19.166 119.613 20.4577 119.494 21.573C119.378 22.6788 119.208 23.6034 118.984 24.347C118.76 25.0905 118.491 25.6482 118.176 26.02C117.861 26.3917 117.505 26.5776 117.11 26.5776C116.728 26.5776 116.38 26.3917 116.065 26.02C115.75 25.6482 115.479 25.0905 115.251 24.347C115.023 23.6034 114.847 22.6788 114.721 21.573C114.598 20.4577 114.537 19.166 114.537 17.698V14.0804C114.537 12.6124 114.598 11.3255 114.721 10.2197C114.843 9.10437 115.018 8.17494 115.246 7.4314C115.473 6.68785 115.745 6.1302 116.06 5.75842C116.375 5.37712 116.723 5.18647 117.105 5.18647C117.5 5.18647 117.855 5.37712 118.17 5.75842C118.489 6.1302 118.759 6.68785 118.979 7.4314C119.203 8.17494 119.375 9.10437 119.494 10.2197C119.613 11.3255 119.672 12.6124 119.672 14.0804ZM118.717 17.698V14.0518C118.717 12.9079 118.682 11.926 118.612 11.1062C118.542 10.2769 118.438 9.60006 118.302 9.07577C118.165 8.55147 117.997 8.16541 117.798 7.91756C117.598 7.66018 117.367 7.53149 117.105 7.53149C116.856 7.53149 116.632 7.66018 116.432 7.91756C116.236 8.16541 116.068 8.55147 115.928 9.07577C115.788 9.60006 115.68 10.2769 115.603 11.1062C115.529 11.926 115.493 12.9079 115.493 14.0518V17.698C115.493 18.8514 115.529 19.8428 115.603 20.6722C115.68 21.492 115.788 22.1688 115.928 22.7026C116.072 23.2269 116.243 23.6177 116.443 23.8751C116.642 24.123 116.865 24.2469 117.11 24.2469C117.372 24.2469 117.603 24.123 117.803 23.8751C118.006 23.6177 118.174 23.2269 118.307 22.7026C118.444 22.1688 118.545 21.492 118.612 20.6722C118.682 19.8428 118.717 18.8514 118.717 17.698Z" fill="#6D6D6D"/>
<path d="M122.182 5.47245V26.2916H121.216V5.47245H122.182ZM126.115 5.47245L123.353 16.9259H121.799L121.636 14.638H122.77L124.918 5.47245H126.115ZM125.117 26.2916L122.818 16.5684L123.358 14.1519L126.294 26.2916H125.117Z" fill="#6D6D6D"/>
<path d="M132.001 14.0804V17.698C132.001 19.166 131.942 20.4577 131.823 21.573C131.707 22.6788 131.537 23.6034 131.313 24.347C131.089 25.0905 130.82 25.6482 130.505 26.02C130.19 26.3917 129.834 26.5776 129.439 26.5776C129.057 26.5776 128.709 26.3917 128.394 26.02C128.079 25.6482 127.808 25.0905 127.58 24.347C127.353 23.6034 127.176 22.6788 127.05 21.573C126.927 20.4577 126.866 19.166 126.866 17.698V14.0804C126.866 12.6124 126.927 11.3255 127.05 10.2197C127.172 9.10437 127.347 8.17494 127.575 7.4314C127.802 6.68785 128.074 6.1302 128.389 5.75842C128.704 5.37712 129.052 5.18647 129.434 5.18647C129.829 5.18647 130.184 5.37712 130.5 5.75842C130.818 6.1302 131.088 6.68785 131.308 7.4314C131.532 8.17494 131.704 9.10437 131.823 10.2197C131.942 11.3255 132.001 12.6124 132.001 14.0804ZM131.046 17.698V14.0518C131.046 12.9079 131.011 11.926 130.941 11.1062C130.871 10.2769 130.767 9.60006 130.631 9.07577C130.494 8.55147 130.326 8.16541 130.127 7.91756C129.927 7.66018 129.696 7.53149 129.434 7.53149C129.185 7.53149 128.961 7.66018 128.761 7.91756C128.565 8.16541 128.397 8.55147 128.257 9.07577C128.117 9.60006 128.009 10.2769 127.932 11.1062C127.858 11.926 127.822 12.9079 127.822 14.0518V17.698C127.822 18.8514 127.858 19.8428 127.932 20.6722C128.009 21.492 128.117 22.1688 128.257 22.7026C128.401 23.2269 128.572 23.6177 128.772 23.8751C128.971 24.123 129.194 24.2469 129.439 24.2469C129.701 24.2469 129.932 24.123 130.132 23.8751C130.335 23.6177 130.503 23.2269 130.636 22.7026C130.773 22.1688 130.874 21.492 130.941 20.6722C131.011 19.8428 131.046 18.8514 131.046 17.698Z" fill="#6D6D6D"/>
<path d="M137.646 14.4236V16.6685H134.333V14.4236H137.646ZM134.464 5.47245V26.2916H133.498V5.47245H134.464ZM138.502 5.47245V26.2916H137.536V5.47245H138.502Z" fill="#6D6D6D"/>
<path d="M143.994 19.6713H144.96C144.936 21.1011 144.829 22.3356 144.64 23.3747C144.455 24.4042 144.183 25.1954 143.826 25.7483C143.473 26.3012 143.03 26.5776 142.498 26.5776C142.116 26.5776 141.771 26.3727 141.463 25.9628C141.155 25.5529 140.891 24.9666 140.67 24.204C140.453 23.4319 140.287 22.5072 140.172 21.43C140.056 20.3528 139.998 19.1422 139.998 17.7981V13.9517C139.998 12.6171 140.056 11.4113 140.172 10.3341C140.291 9.25689 140.46 8.33699 140.681 7.57438C140.905 6.80224 141.176 6.21122 141.495 5.80132C141.817 5.39142 142.181 5.18647 142.587 5.18647C143.084 5.18647 143.504 5.45815 143.847 6.00151C144.194 6.53533 144.46 7.32177 144.645 8.36082C144.834 9.39034 144.939 10.6534 144.96 12.15H143.994C143.97 11.0538 143.907 10.1625 143.805 9.47614C143.704 8.78026 143.553 8.27026 143.354 7.94616C143.158 7.61251 142.902 7.44569 142.587 7.44569C142.307 7.44569 142.064 7.59822 141.857 7.90326C141.654 8.2083 141.486 8.6468 141.353 9.21876C141.224 9.78118 141.126 10.4628 141.059 11.2635C140.996 12.0547 140.964 12.9412 140.964 13.9231V17.7981C140.964 18.7132 140.991 19.5664 141.043 20.3576C141.099 21.1488 141.187 21.8447 141.306 22.4452C141.428 23.0363 141.588 23.4986 141.784 23.8322C141.98 24.1659 142.218 24.3327 142.498 24.3327C142.851 24.3327 143.131 24.1754 143.338 23.8608C143.544 23.5462 143.697 23.0458 143.795 22.3594C143.896 21.6731 143.963 20.777 143.994 19.6713Z" fill="#6D6D6D"/>
<path d="M148.221 19.3853L149.844 5.47245H150.957L148.757 22.817C148.687 23.3032 148.611 23.775 148.531 24.2326C148.454 24.6806 148.359 25.081 148.247 25.4337C148.135 25.7864 147.995 26.0676 147.827 26.2773C147.659 26.4871 147.449 26.5919 147.197 26.5919C147.12 26.5919 147.031 26.5776 146.929 26.549C146.831 26.5299 146.768 26.5061 146.74 26.4775L146.761 24.2755C146.793 24.2946 146.858 24.3136 146.956 24.3327C147.057 24.3422 147.129 24.347 147.171 24.347C147.328 24.347 147.449 24.2374 147.533 24.0181C147.621 23.7989 147.689 23.5224 147.738 23.1888C147.787 22.8456 147.834 22.4977 147.88 22.145L148.221 19.3853ZM147.003 5.47245L148.652 18.4415L148.878 21.001L148.064 21.1726L145.927 5.47245H147.003Z" fill="#6D6D6D"/>
<path d="M155.945 5.47245V7.73167H153.089V5.47245H155.945ZM156.796 5.47245V26.2916H155.83V5.47245H156.796ZM152.763 5.47245H153.724L153.588 15.6676C153.57 17.1356 153.537 18.4463 153.488 19.5998C153.439 20.7437 153.369 21.7398 153.278 22.5882C153.187 23.4271 153.068 24.123 152.921 24.6759C152.774 25.2192 152.593 25.6244 152.38 25.8913C152.17 26.1582 151.919 26.2916 151.629 26.2916H151.377V24.0467L151.561 24.0038C151.722 23.9657 151.86 23.8465 151.976 23.6463C152.095 23.4366 152.193 23.122 152.27 22.7026C152.35 22.2832 152.415 21.7398 152.464 21.0725C152.516 20.4053 152.557 19.5902 152.585 18.6274C152.613 17.6551 152.634 16.5207 152.648 15.2243L152.763 5.47245Z" fill="#6D6D6D"/>
<path d="M159.237 13.9517H160.975C161.448 13.9517 161.847 14.2091 162.173 14.7238C162.502 15.2291 162.75 15.9392 162.918 16.8544C163.09 17.7695 163.176 18.8419 163.176 20.0716C163.176 20.9867 163.127 21.8256 163.029 22.5882C162.934 23.3413 162.792 23.999 162.603 24.5615C162.418 25.1144 162.188 25.5433 161.915 25.8484C161.642 26.1439 161.329 26.2916 160.975 26.2916H158.476V5.47245H159.442V24.0467H160.975C161.27 24.0467 161.506 23.8608 161.684 23.4891C161.866 23.1077 161.999 22.6121 162.083 22.002C162.167 21.3919 162.209 20.7389 162.209 20.043C162.209 19.3471 162.167 18.7085 162.083 18.127C161.999 17.5455 161.866 17.0831 161.684 16.74C161.506 16.3873 161.27 16.2109 160.975 16.2109H159.237V13.9517Z" fill="#6D6D6D"/>
<path d="M165.486 5.47245V26.2916H164.53V5.47245H165.486ZM167.497 5.47245V7.73167H162.524V5.47245H167.497Z" fill="#6D6D6D"/>
<path d="M169.634 21.5158L172.611 5.47245H173.577V26.2916H172.611V10.234L169.634 26.2916H168.673V5.47245H169.634V21.5158Z" fill="#6D6D6D"/>
<path d="M177.731 18.127H176.061V15.882H177.731C178.046 15.882 178.3 15.7105 178.492 15.3673C178.688 15.0241 178.83 14.5475 178.918 13.9374C179.009 13.3273 179.054 12.6314 179.054 11.8498C179.054 11.1348 179.009 10.4628 178.918 9.83361C178.83 9.20446 178.688 8.69923 178.492 8.31793C178.3 7.92709 178.046 7.73167 177.731 7.73167H176.261V26.2916H175.295V5.47245H177.731C178.225 5.47245 178.641 5.74413 178.981 6.28748C179.32 6.83084 179.577 7.58392 179.753 8.54671C179.931 9.49997 180.02 10.5915 180.02 11.8212C180.02 13.1557 179.931 14.2949 179.753 15.2386C179.577 16.1823 179.32 16.902 178.981 17.3977C178.641 17.8839 178.225 18.127 177.731 18.127Z" fill="#6D6D6D"/>
<path d="M183.213 19.3853L184.835 5.47245H185.949L183.748 22.817C183.678 23.3032 183.603 23.775 183.523 24.2326C183.446 24.6806 183.351 25.081 183.239 25.4337C183.127 25.7864 182.987 26.0676 182.819 26.2773C182.651 26.4871 182.441 26.5919 182.189 26.5919C182.112 26.5919 182.023 26.5776 181.921 26.549C181.823 26.5299 181.76 26.5061 181.732 26.4775L181.753 24.2755C181.785 24.2946 181.849 24.3136 181.947 24.3327C182.049 24.3422 182.121 24.347 182.163 24.347C182.32 24.347 182.441 24.2374 182.525 24.0181C182.613 23.7989 182.681 23.5224 182.73 23.1888C182.779 22.8456 182.826 22.4977 182.872 22.145L183.213 19.3853ZM181.995 5.47245L183.643 18.4415L183.869 21.001L183.055 21.1726L180.918 5.47245H181.995Z" fill="#6D6D6D"/>
<path d="M188.159 21.5158L191.136 5.47245H192.103V26.2916H191.136V10.234L188.159 26.2916H187.198V5.47245H188.159V21.5158ZM190.449 0.310547H191.236C191.236 1.05409 191.173 1.7166 191.047 2.29809C190.921 2.87005 190.741 3.31808 190.506 3.64219C190.272 3.9663 189.993 4.12835 189.671 4.12835C189.185 4.12835 188.8 3.77565 188.516 3.07023C188.236 2.35529 188.096 1.43539 188.096 0.310547H188.884C188.884 0.87297 188.943 1.36867 189.062 1.79763C189.181 2.2266 189.384 2.44108 189.671 2.44108C189.951 2.44108 190.151 2.2266 190.27 1.79763C190.389 1.36867 190.449 0.87297 190.449 0.310547Z" fill="#6D6D6D"/>
<path d="M196.277 5.47245V26.2916H195.321V5.47245H196.277ZM198.288 5.47245V7.73167H193.315V5.47245H198.288Z" fill="#6D6D6D"/>
<path d="M203.528 24.0467V26.2916H200.21V24.0467H203.528ZM200.383 5.47245V26.2916H199.417V5.47245H200.383ZM203.082 14.4236V16.6685H200.21V14.4236H203.082ZM203.476 5.47245V7.73167H200.21V5.47245H203.476Z" fill="#6D6D6D"/>
<path d="M208.59 19.6713H209.556C209.532 21.1011 209.425 22.3356 209.236 23.3747C209.051 24.4042 208.779 25.1954 208.422 25.7483C208.069 26.3012 207.626 26.5776 207.094 26.5776C206.712 26.5776 206.367 26.3727 206.059 25.9628C205.751 25.5529 205.487 24.9666 205.266 24.204C205.049 23.4319 204.883 22.5072 204.768 21.43C204.652 20.3528 204.594 19.1422 204.594 17.7981V13.9517C204.594 12.6171 204.652 11.4113 204.768 10.3341C204.887 9.25689 205.056 8.33699 205.277 7.57438C205.501 6.80224 205.772 6.21122 206.091 5.80132C206.413 5.39142 206.777 5.18647 207.183 5.18647C207.68 5.18647 208.1 5.45815 208.443 6.00151C208.79 6.53533 209.056 7.32177 209.241 8.36082C209.43 9.39034 209.535 10.6534 209.556 12.15H208.59C208.566 11.0538 208.503 10.1625 208.401 9.47614C208.3 8.78026 208.149 8.27026 207.95 7.94616C207.754 7.61251 207.498 7.44569 207.183 7.44569C206.903 7.44569 206.66 7.59822 206.453 7.90326C206.25 8.2083 206.082 8.6468 205.949 9.21876C205.82 9.78118 205.722 10.4628 205.655 11.2635C205.592 12.0547 205.561 12.9412 205.561 13.9231V17.7981C205.561 18.7132 205.587 19.5664 205.639 20.3576C205.695 21.1488 205.783 21.8447 205.902 22.4452C206.024 23.0363 206.184 23.4986 206.38 23.8322C206.576 24.1659 206.814 24.3327 207.094 24.3327C207.447 24.3327 207.727 24.1754 207.934 23.8608C208.14 23.5462 208.293 23.0458 208.391 22.3594C208.492 21.6731 208.559 20.777 208.59 19.6713Z" fill="#6D6D6D"/>
<path d="M211.599 13.9517H213.337C213.81 13.9517 214.209 14.2091 214.534 14.7238C214.863 15.2291 215.112 15.9392 215.28 16.8544C215.451 17.7695 215.537 18.8419 215.537 20.0716C215.537 20.9867 215.488 21.8256 215.39 22.5882C215.296 23.3413 215.154 23.999 214.965 24.5615C214.779 25.1144 214.55 25.5433 214.277 25.8484C214.004 26.1439 213.691 26.2916 213.337 26.2916H210.838V5.47245H211.804V24.0467H213.337C213.631 24.0467 213.867 23.8608 214.046 23.4891C214.228 23.1077 214.361 22.6121 214.445 22.002C214.529 21.3919 214.571 20.7389 214.571 20.043C214.571 19.3471 214.529 18.7085 214.445 18.127C214.361 17.5455 214.228 17.0831 214.046 16.74C213.867 16.3873 213.631 16.2109 213.337 16.2109H211.599V13.9517Z" fill="#6D6D6D"/>
<path d="M223.093 19.6713H224.059C224.035 21.1011 223.928 22.3356 223.739 23.3747C223.553 24.4042 223.282 25.1954 222.925 25.7483C222.571 26.3012 222.129 26.5776 221.597 26.5776C221.215 26.5776 220.87 26.3727 220.562 25.9628C220.254 25.5529 219.99 24.9666 219.769 24.204C219.552 23.4319 219.386 22.5072 219.27 21.43C219.155 20.3528 219.097 19.1422 219.097 17.7981V13.9517C219.097 12.6171 219.155 11.4113 219.27 10.3341C219.39 9.25689 219.559 8.33699 219.78 7.57438C220.004 6.80224 220.275 6.21122 220.594 5.80132C220.916 5.39142 221.28 5.18647 221.686 5.18647C222.183 5.18647 222.603 5.45815 222.946 6.00151C223.293 6.53533 223.559 7.32177 223.744 8.36082C223.933 9.39034 224.038 10.6534 224.059 12.15H223.093C223.069 11.0538 223.006 10.1625 222.904 9.47614C222.803 8.78026 222.652 8.27026 222.452 7.94616C222.256 7.61251 222.001 7.44569 221.686 7.44569C221.406 7.44569 221.163 7.59822 220.956 7.90326C220.753 8.2083 220.585 8.6468 220.452 9.21876C220.322 9.78118 220.224 10.4628 220.158 11.2635C220.095 12.0547 220.063 12.9412 220.063 13.9231V17.7981C220.063 18.7132 220.09 19.5664 220.142 20.3576C220.198 21.1488 220.286 21.8447 220.405 22.4452C220.527 23.0363 220.686 23.4986 220.882 23.8322C221.078 24.1659 221.317 24.3327 221.597 24.3327C221.95 24.3327 222.23 24.1754 222.437 23.8608C222.643 23.5462 222.796 23.0458 222.894 22.3594C222.995 21.6731 223.062 20.777 223.093 19.6713Z" fill="#6D6D6D"/>
<path d="M230.339 14.0804V17.698C230.339 19.166 230.28 20.4577 230.161 21.573C230.045 22.6788 229.875 23.6034 229.651 24.347C229.427 25.0905 229.158 25.6482 228.843 26.02C228.528 26.3917 228.172 26.5776 227.777 26.5776C227.395 26.5776 227.047 26.3917 226.732 26.02C226.417 25.6482 226.146 25.0905 225.918 24.347C225.691 23.6034 225.514 22.6788 225.388 21.573C225.265 20.4577 225.204 19.166 225.204 17.698V14.0804C225.204 12.6124 225.265 11.3255 225.388 10.2197C225.51 9.10437 225.685 8.17494 225.913 7.4314C226.14 6.68785 226.412 6.1302 226.727 5.75842C227.042 5.37712 227.39 5.18647 227.772 5.18647C228.167 5.18647 228.523 5.37712 228.838 5.75842C229.156 6.1302 229.426 6.68785 229.646 7.4314C229.87 8.17494 230.042 9.10437 230.161 10.2197C230.28 11.3255 230.339 12.6124 230.339 14.0804ZM229.384 17.698V14.0518C229.384 12.9079 229.349 11.926 229.279 11.1062C229.209 10.2769 229.105 9.60006 228.969 9.07577C228.832 8.55147 228.664 8.16541 228.465 7.91756C228.265 7.66018 228.034 7.53149 227.772 7.53149C227.523 7.53149 227.299 7.66018 227.099 7.91756C226.903 8.16541 226.735 8.55147 226.595 9.07577C226.455 9.60006 226.347 10.2769 226.27 11.1062C226.196 11.926 226.16 12.9079 226.16 14.0518V17.698C226.16 18.8514 226.196 19.8428 226.27 20.6722C226.347 21.492 226.455 22.1688 226.595 22.7026C226.739 23.2269 226.91 23.6177 227.11 23.8751C227.31 24.123 227.532 24.2469 227.777 24.2469C228.039 24.2469 228.27 24.123 228.47 23.8751C228.673 23.6177 228.841 23.2269 228.974 22.7026C229.111 22.1688 229.212 21.492 229.279 20.6722C229.349 19.8428 229.384 18.8514 229.384 17.698Z" fill="#6D6D6D"/>
<path d="M238.132 19.6713H239.098C239.073 21.1011 238.966 22.3356 238.777 23.3747C238.592 24.4042 238.321 25.1954 237.964 25.7483C237.61 26.3012 237.167 26.5776 236.635 26.5776C236.253 26.5776 235.909 26.3727 235.601 25.9628C235.293 25.5529 235.028 24.9666 234.808 24.204C234.591 23.4319 234.424 22.5072 234.309 21.43C234.193 20.3528 234.136 19.1422 234.136 17.7981V13.9517C234.136 12.6171 234.193 11.4113 234.309 10.3341C234.428 9.25689 234.598 8.33699 234.818 7.57438C235.042 6.80224 235.314 6.21122 235.632 5.80132C235.954 5.39142 236.318 5.18647 236.724 5.18647C237.221 5.18647 237.641 5.45815 237.985 6.00151C238.331 6.53533 238.597 7.32177 238.783 8.36082C238.972 9.39034 239.077 10.6534 239.098 12.15H238.132C238.107 11.0538 238.044 10.1625 237.943 9.47614C237.841 8.78026 237.691 8.27026 237.491 7.94616C237.295 7.61251 237.039 7.44569 236.724 7.44569C236.444 7.44569 236.201 7.59822 235.994 7.90326C235.791 8.2083 235.623 8.6468 235.49 9.21876C235.361 9.78118 235.263 10.4628 235.196 11.2635C235.133 12.0547 235.102 12.9412 235.102 13.9231V17.7981C235.102 18.7132 235.128 19.5664 235.181 20.3576C235.237 21.1488 235.324 21.8447 235.443 22.4452C235.566 23.0363 235.725 23.4986 235.921 23.8322C236.117 24.1659 236.355 24.3327 236.635 24.3327C236.989 24.3327 237.269 24.1754 237.475 23.8608C237.682 23.5462 237.834 23.0458 237.932 22.3594C238.034 21.6731 238.1 20.777 238.132 19.6713Z" fill="#6D6D6D"/>
<path d="M245.372 5.47245V26.2916H244.406V7.73167H241.419V26.2916H240.452V5.47245H245.372Z" fill="#6D6D6D"/>
<path d="M251.196 24.0467V26.2916H247.877V24.0467H251.196ZM248.05 5.47245V26.2916H247.084V5.47245H248.05ZM250.749 14.4236V16.6685H247.877V14.4236H250.749ZM251.143 5.47245V7.73167H247.877V5.47245H251.143Z" fill="#6D6D6D"/>
<path d="M258.09 23.9752L257.996 31.3105H257.134V26.2916H256.499V23.9752H258.09ZM252.477 26.2916V5.47245H253.443V24.0467H256.431V5.47245H257.397V26.2916H252.477Z" fill="#6D6D6D"/>
<path d="M260.316 21.5158L263.294 5.47245H264.26V26.2916H263.294V10.234L260.316 26.2916H259.355V5.47245H260.316V21.5158Z" fill="#6D6D6D"/>
<path d="M268.55 7.317L266.46 26.2916H265.473L267.935 5.47245H268.555L268.55 7.317ZM270.241 26.2916L268.151 7.317L268.14 5.47245H268.765L271.228 26.2916H270.241ZM270.241 18.5845V20.8438H266.554V18.5845H270.241Z" fill="#6D6D6D"/>
<path d="M276.442 5.47245V7.73167H273.585V5.47245H276.442ZM277.292 5.47245V26.2916H276.326V5.47245H277.292ZM273.26 5.47245H274.221L274.084 15.6676C274.067 17.1356 274.033 18.4463 273.984 19.5998C273.935 20.7437 273.865 21.7398 273.774 22.5882C273.683 23.4271 273.564 24.123 273.417 24.6759C273.27 25.2192 273.09 25.6244 272.876 25.8913C272.666 26.1582 272.416 26.2916 272.126 26.2916H271.874V24.0467L272.057 24.0038C272.218 23.9657 272.357 23.8465 272.472 23.6463C272.591 23.4366 272.689 23.122 272.766 22.7026C272.847 22.2832 272.911 21.7398 272.96 21.0725C273.013 20.4053 273.053 19.5902 273.081 18.6274C273.109 17.6551 273.13 16.5207 273.144 15.2243L273.26 5.47245Z" fill="#6D6D6D"/>
<path d="M280.007 21.5158L282.984 5.47245H283.951V26.2916H282.984V10.234L280.007 26.2916H279.046V5.47245H280.007V21.5158Z" fill="#6D6D6D"/>
<path d="M289.495 19.6713H290.462C290.437 21.1011 290.33 22.3356 290.141 23.3747C289.956 24.4042 289.684 25.1954 289.327 25.7483C288.974 26.3012 288.531 26.5776 287.999 26.5776C287.617 26.5776 287.273 26.3727 286.965 25.9628C286.656 25.5529 286.392 24.9666 286.172 24.204C285.955 23.4319 285.788 22.5072 285.673 21.43C285.557 20.3528 285.5 19.1422 285.5 17.7981V13.9517C285.5 12.6171 285.557 11.4113 285.673 10.3341C285.792 9.25689 285.962 8.33699 286.182 7.57438C286.406 6.80224 286.677 6.21122 286.996 5.80132C287.318 5.39142 287.682 5.18647 288.088 5.18647C288.585 5.18647 289.005 5.45815 289.348 6.00151C289.695 6.53533 289.961 7.32177 290.146 8.36082C290.336 9.39034 290.441 10.6534 290.462 12.15H289.495C289.471 11.0538 289.408 10.1625 289.306 9.47614C289.205 8.78026 289.054 8.27026 288.855 7.94616C288.659 7.61251 288.403 7.44569 288.088 7.44569C287.808 7.44569 287.565 7.59822 287.358 7.90326C287.155 8.2083 286.987 8.6468 286.854 9.21876C286.725 9.78118 286.627 10.4628 286.56 11.2635C286.497 12.0547 286.466 12.9412 286.466 13.9231V17.7981C286.466 18.7132 286.492 19.5664 286.544 20.3576C286.6 21.1488 286.688 21.8447 286.807 22.4452C286.93 23.0363 287.089 23.4986 287.285 23.8322C287.481 24.1659 287.719 24.3327 287.999 24.3327C288.352 24.3327 288.633 24.1754 288.839 23.8608C289.046 23.5462 289.198 23.0458 289.296 22.3594C289.397 21.6731 289.464 20.777 289.495 19.6713Z" fill="#6D6D6D"/>
<path d="M294.069 5.47245V26.2916H293.113V5.47245H294.069ZM296.08 5.47245V7.73167H291.107V5.47245H296.08Z" fill="#6D6D6D"/>
<path d="M302.034 14.0804V17.698C302.034 19.166 301.975 20.4577 301.856 21.573C301.74 22.6788 301.571 23.6034 301.347 24.347C301.123 25.0905 300.853 25.6482 300.538 26.02C300.223 26.3917 299.868 26.5776 299.472 26.5776C299.09 26.5776 298.742 26.3917 298.427 26.02C298.112 25.6482 297.841 25.0905 297.613 24.347C297.386 23.6034 297.209 22.6788 297.083 21.573C296.96 20.4577 296.899 19.166 296.899 17.698V14.0804C296.899 12.6124 296.96 11.3255 297.083 10.2197C297.205 9.10437 297.38 8.17494 297.608 7.4314C297.836 6.68785 298.107 6.1302 298.422 5.75842C298.737 5.37712 299.085 5.18647 299.467 5.18647C299.862 5.18647 300.218 5.37712 300.533 5.75842C300.851 6.1302 301.121 6.68785 301.341 7.4314C301.565 8.17494 301.737 9.10437 301.856 10.2197C301.975 11.3255 302.034 12.6124 302.034 14.0804ZM301.079 17.698V14.0518C301.079 12.9079 301.044 11.926 300.974 11.1062C300.904 10.2769 300.801 9.60006 300.664 9.07577C300.527 8.55147 300.359 8.16541 300.16 7.91756C299.96 7.66018 299.729 7.53149 299.467 7.53149C299.218 7.53149 298.994 7.66018 298.795 7.91756C298.599 8.16541 298.431 8.55147 298.291 9.07577C298.151 9.60006 298.042 10.2769 297.965 11.1062C297.892 11.926 297.855 12.9079 297.855 14.0518V17.698C297.855 18.8514 297.892 19.8428 297.965 20.6722C298.042 21.492 298.151 22.1688 298.291 22.7026C298.434 23.2269 298.606 23.6177 298.805 23.8751C299.005 24.123 299.227 24.2469 299.472 24.2469C299.735 24.2469 299.966 24.123 300.165 23.8751C300.368 23.6177 300.536 23.2269 300.669 22.7026C300.806 22.1688 300.907 21.492 300.974 20.6722C301.044 19.8428 301.079 18.8514 301.079 17.698Z" fill="#6D6D6D"/>
<path d="M303.835 5.47245H304.77L306.771 22.4452L308.766 5.47245H309.701L307.133 26.2916H306.398L303.835 5.47245ZM303.531 5.47245H304.35L304.492 18.1699V26.2916H303.531V5.47245ZM309.181 5.47245H310V26.2916H309.039V18.1699L309.181 5.47245Z" fill="#6D6D6D"/>
</svg>
