<svg width="40" height="41" viewBox="0 0 40 41" fill="none" xmlns="http://www.w3.org/2000/svg">
<g clip-path="url(#clip0_1_790)">
<g clip-path="url(#clip1_1_790)">
<path d="M23.1306 23.8841C22.5821 23.573 22.2634 23.0693 22.2486 22.4915C22.2412 21.8915 22.5747 21.3285 23.138 20.9878L23.2344 20.9285C23.5753 20.7211 23.9237 20.5137 24.2276 20.2174C25.3986 19.0915 25.5172 17.6544 25.4876 16.3952C25.4728 15.9433 25.2875 15.7507 24.8576 15.7507H24.8353C24.0571 15.7655 23.264 15.7581 22.5006 15.7507H22.4117C22.1226 15.7507 21.8335 15.7507 21.5445 15.7507H20.655C19.8397 15.7507 19.017 15.7507 18.2017 15.7507C17.9571 15.7507 17.5791 15.7507 17.5495 16.2693C17.4012 18.5285 18.135 20.0248 19.862 20.9878C20.4327 21.3063 20.7736 21.847 20.7736 22.4322C20.7736 23.0174 20.4327 23.5655 19.8546 23.8915C18.1795 24.8396 17.4161 26.2989 17.5421 28.3581C17.5643 28.7655 17.7496 28.9507 18.135 28.9507C19.3135 28.9507 20.4179 28.9507 21.4703 28.9507C22.6711 28.9507 23.7977 28.9507 24.8724 28.9507C25.3764 28.9507 25.4653 28.6322 25.4727 28.3211C25.5617 26.2767 24.7909 24.8174 23.1158 23.8693L23.1306 23.8841Z" fill="url(#paint0_linear_1_790)"/>
<path d="M23.9385 21.81C23.9829 21.7878 24.0126 21.7729 24.0496 21.7507C24.8205 21.3137 25.4357 20.6767 25.9174 19.8174C26.4363 18.8915 26.6586 17.8026 26.6067 16.4915C26.5993 16.2989 26.6067 16.01 26.8143 15.8026C26.9032 15.7137 27.0144 15.647 27.1552 15.6026C27.5258 15.4841 27.7556 15.1878 27.8445 14.6989C27.926 14.2692 27.9409 13.81 27.8816 13.2841C27.7852 12.3804 27.3553 11.9878 26.4437 11.9878C25.3171 11.9878 24.1756 11.9878 23.0639 11.9878H19.9657C18.7353 11.9878 17.6236 11.9878 16.5192 11.9878C15.6891 11.9878 15.2592 12.3729 15.1554 13.1952C15.0961 13.6767 15.1035 14.1729 15.1702 14.6618C15.2295 15.047 15.4 15.3359 15.6817 15.5137C15.7632 15.5655 15.8373 15.6026 15.9188 15.6322C16.282 15.7581 16.4377 16.0026 16.408 16.3878C16.4006 16.5581 16.408 16.7359 16.408 16.9063V17.0322C16.4451 19.21 17.3123 20.7729 19.0541 21.8026C19.3135 21.9581 19.6174 22.1729 19.6099 22.4544C19.6099 22.7359 19.3061 22.9433 19.0541 23.0915C18.3944 23.4692 17.8533 23.9581 17.4012 24.5804C16.6823 25.5729 16.3636 26.7581 16.4154 28.2026C16.4303 28.5285 16.371 28.8841 15.8744 29.0767C15.8151 29.0989 15.7484 29.1359 15.6817 29.1729C15.4 29.3507 15.2221 29.6396 15.1628 30.0248C15.0961 30.4692 15.1035 30.9211 15.1258 31.3063C15.1777 32.2618 15.6446 32.7063 16.6081 32.7137C17.6606 32.7137 18.7057 32.7137 19.7582 32.7137H24.1534C24.9094 32.7137 25.6728 32.7137 26.4289 32.7137C27.3405 32.7137 27.7704 32.3211 27.8667 31.41C27.9112 30.9729 27.9112 30.5285 27.8445 30.0915C27.7704 29.5655 27.5258 29.2248 27.0959 29.0544C26.9773 29.01 26.881 28.9507 26.7994 28.8766C26.6438 28.7285 26.5771 28.5211 26.5993 28.247C26.6141 28.0618 26.5993 27.8841 26.5993 27.7063C26.5104 25.6174 25.6728 24.1211 24.0422 23.1359C24.0052 23.1137 23.9681 23.0989 23.9311 23.0767C23.7161 22.9581 23.4196 22.7952 23.4345 22.41C23.4419 22.047 23.7235 21.9063 23.9311 21.8026L23.9385 21.81ZM24.8798 28.9581C23.8051 28.9581 22.6785 28.9581 21.4777 28.9581C20.4252 28.9581 19.3209 28.9581 18.1424 28.9581C17.757 28.9581 17.5717 28.7729 17.5494 28.3655C17.4309 26.3137 18.1869 24.847 19.8619 23.8989C20.4401 23.5729 20.781 23.0248 20.781 22.4322C20.781 21.847 20.4401 21.3063 19.8694 20.9878C18.1424 20.0248 17.4086 18.5285 17.5569 16.2692C17.5939 15.7507 17.9645 15.7507 18.2091 15.7507C19.0318 15.7507 19.8471 15.7507 20.6624 15.7507H21.5519C21.8409 15.7507 22.13 15.7507 22.419 15.7507H22.508C23.2714 15.7507 24.0645 15.7507 24.8427 15.7507H24.8649C25.2948 15.7507 25.4801 15.9433 25.495 16.3952C25.532 17.6544 25.406 19.0915 24.2349 20.2174C23.9311 20.5063 23.5827 20.7211 23.2418 20.9285L23.1454 20.9878C22.5747 21.3359 22.2412 21.8989 22.256 22.4915C22.2634 23.0692 22.5821 23.5729 23.138 23.8841C24.8131 24.8322 25.5839 26.2841 25.495 28.3359C25.4801 28.647 25.3986 28.9655 24.8946 28.9655L24.8798 28.9581ZM16.9491 14.61C16.7934 14.61 16.5637 14.5952 16.4154 14.447C16.2968 14.3285 16.245 14.1581 16.2524 13.8915C16.2524 13.6841 16.2746 13.447 16.4303 13.2915C16.5488 13.1729 16.7193 13.1211 16.9861 13.1211H17.001C19.773 13.1359 22.7081 13.1359 25.9693 13.1211C26.251 13.1211 26.4363 13.1729 26.5623 13.2989C26.6809 13.4174 26.7401 13.6026 26.7401 13.8692C26.7401 14.1359 26.6883 14.3137 26.5697 14.4322C26.414 14.5878 26.1768 14.61 25.9619 14.6026C24.902 14.5878 23.8199 14.5952 22.7748 14.5952H22.6562C21.8557 14.5952 21.0478 14.5952 20.2474 14.5952C19.1801 14.5952 18.0831 14.5952 16.9936 14.6026H16.9565L16.9491 14.61ZM26.5549 30.2692C26.6734 30.3878 26.7253 30.5655 26.7327 30.8322C26.7327 31.0989 26.6734 31.2841 26.5549 31.4026C26.3992 31.5581 26.162 31.5729 25.9545 31.5729C24.8724 31.5581 23.7754 31.5581 22.7081 31.5655C21.8335 31.5655 21.0182 31.5655 20.2103 31.5655C19.1578 31.5655 18.0609 31.5655 16.9861 31.5804H16.9491C16.7045 31.5804 16.534 31.5285 16.4228 31.4174C16.2672 31.2692 16.245 31.0396 16.245 30.81C16.245 30.5507 16.2968 30.3729 16.408 30.2618C16.5563 30.1137 16.7786 30.0915 16.9787 30.0915C19.9583 30.1063 22.9749 30.1063 25.9471 30.0915C26.1472 30.0915 26.3918 30.1063 26.5474 30.2692H26.5549Z" fill="#0C67BD"/>
<path d="M37.176 16.0989C36.8869 16.0915 36.2495 16.3952 36.1606 16.5285C36.1383 16.8026 36.4422 17.4618 36.5682 17.5581C36.7906 17.5655 37.4799 17.284 37.6059 17.1581C37.6059 16.8989 37.3094 16.21 37.1686 16.0989H37.176Z" fill="#0C67BD"/>
<path d="M37.3243 21.2766H37.3687C37.769 21.3359 38.0951 21.3507 38.2878 21.0322C38.2285 20.8618 38.2433 20.684 38.2508 20.5211C38.273 20.1952 38.2656 20.0618 37.9765 20.0026C37.9246 19.9877 37.8802 19.9803 37.8357 19.9803C37.4947 19.9433 37.1834 20.0396 37.0574 20.1655C37.0352 20.1877 37.013 20.2174 37.0204 20.247C37.05 20.3877 37.0426 20.5433 37.0278 20.6989C36.9981 21.0989 37.013 21.2396 37.3243 21.2766Z" fill="#0C67BD"/>
<path d="M30.5795 6.43221C30.409 6.53592 29.905 7.09147 29.8235 7.26925C29.9198 7.44703 30.4683 7.95073 30.6536 8.03221C30.8241 7.93592 31.3281 7.37295 31.417 7.18777C31.3133 7.0174 30.7648 6.51369 30.5869 6.4248L30.5795 6.43221Z" fill="#0C67BD"/>
<path d="M35.2268 14.0174C35.4046 13.9803 36.0791 13.5877 36.2051 13.4396C36.1755 13.2544 35.7826 12.5803 35.6344 12.4618C35.4491 12.4915 34.7895 12.8692 34.6635 13.0248C34.7005 13.1952 35.0859 13.8766 35.2342 14.01L35.2268 14.0174Z" fill="#0C67BD"/>
<path d="M34.1075 10.084C34.026 9.89146 33.5665 9.30627 33.4034 9.19516C33.2107 9.26923 32.6326 9.74331 32.5288 9.90627C32.5955 10.0915 33.0625 10.684 33.2255 10.8026C33.4108 10.7211 33.9889 10.2544 34.1075 10.084Z" fill="#0C67BD"/>
<path d="M28.6079 34.7137C26.6586 35.8026 24.5462 36.4174 22.3301 36.5359C19.9731 36.6618 17.794 36.2841 15.8521 35.4174C11.0492 33.2692 8.12895 29.6841 7.158 24.7581C5.94986 18.5804 7.92142 13.4767 13.0282 9.58777C15.2592 7.89147 17.8755 6.97295 20.8032 6.87666C20.9515 6.87666 21.0626 6.86184 21.1664 6.85443C21.6185 6.80258 21.8261 6.78777 21.8928 6.83221H21.9002C21.9521 6.89888 21.9669 7.09888 21.9891 7.5211C21.9891 7.66925 22.0039 7.90628 22.1966 8.00258C22.3819 8.09888 22.5969 7.95814 22.671 7.89888C23.6864 7.20999 24.7463 6.49888 25.821 5.77295C25.9322 5.69888 26.1027 5.58777 26.1027 5.38777C26.1027 5.18777 25.91 5.06184 25.8359 5.00999C24.9613 4.43221 24.0793 3.8248 23.2269 3.24703L22.6932 2.88406C22.5895 2.8174 22.4561 2.7211 22.3078 2.7211C22.2634 2.7211 22.2115 2.72851 22.167 2.75814C21.9743 2.86184 21.9817 3.14332 21.9891 3.24703C21.9891 3.32851 21.9891 3.40999 21.9965 3.47666V3.49147C22.0039 3.69888 22.0114 3.84703 21.9965 3.89888V3.9211L21.9743 3.92851C21.8928 3.97295 21.6111 3.98036 21.2257 3.98036C16.786 4.03221 12.8577 5.63221 9.5372 8.75073C6.56505 11.5433 4.76397 14.9433 4.18584 18.8692C3.36313 24.4767 4.81585 29.4396 8.50695 33.6174C10.9306 36.3581 13.9991 38.1804 17.6235 39.0322C19.054 39.373 20.3363 39.5063 21.5518 39.4544C28.2077 39.2322 33.2922 36.247 36.6794 30.573C38.0432 28.2915 38.8214 25.7063 38.9919 22.8989H36.1383C35.9753 25.0248 35.3601 27.0618 34.315 28.9581C32.9438 31.4248 31.0242 33.3655 28.6005 34.7137H28.6079Z" fill="url(#paint1_linear_1_790)"/>
<path d="M38.9993 22.8989C38.8289 25.7063 38.0506 28.2915 36.6868 30.5729C33.2996 36.247 28.2077 39.2322 21.5592 39.4544C20.3511 39.5063 19.0614 39.3655 17.631 39.0322C14.0066 38.1803 10.9381 36.3581 8.51438 33.6174C4.82328 29.4322 3.37055 24.4692 4.20068 18.8618C4.77881 14.9359 6.57989 11.5359 9.55204 8.7433C12.8726 5.63219 16.8008 4.02479 21.2405 3.97293C21.6259 3.97293 21.9076 3.96553 21.9891 3.92108H22.004V3.89145C22.0262 3.83219 22.0188 3.68404 22.004 3.48405V3.46923C22.004 3.40256 22.004 3.32108 21.9965 3.2396C21.9965 3.1359 21.9891 2.85441 22.1744 2.75071C22.2189 2.72108 22.2708 2.71367 22.3153 2.71367C22.4561 2.71367 22.5969 2.80997 22.7007 2.87664L23.2343 3.2396C24.0867 3.82479 24.9687 4.42479 25.8433 5.00256C25.9174 5.05442 26.1101 5.18034 26.1101 5.38034C26.1101 5.58034 25.9396 5.69145 25.8285 5.76553C24.7463 6.48405 23.6864 7.20256 22.6784 7.89145C22.5969 7.9433 22.3894 8.09145 22.2041 7.99516C22.0188 7.89886 22.004 7.65442 21.9965 7.51367C21.9743 7.09886 21.9595 6.89145 21.9076 6.83219H21.9002C21.8335 6.78034 21.6334 6.79516 21.1738 6.84701C21.0701 6.86182 20.9589 6.86923 20.8106 6.86923C17.883 6.97293 15.2666 7.88404 13.0356 9.58034C7.92884 13.4692 5.95729 18.5803 7.16542 24.7507C8.12896 29.6766 11.0566 33.2618 15.8595 35.41C17.8014 36.2766 19.9805 36.6544 22.3375 36.5285C24.5462 36.41 26.6586 35.7952 28.6153 34.7063C31.039 33.3507 32.9587 31.4174 34.3299 28.9507C35.3824 27.0544 35.9975 25.0174 36.1532 22.8915H35.1303C35.0414 23.7877 34.8932 24.7729 34.5819 25.7655C33.5664 28.9877 31.6468 31.5359 28.8822 33.3433C26.5029 34.8989 23.805 35.6248 20.8551 35.4989C18.2758 35.3877 15.904 34.5877 13.799 33.1211C10.9751 31.1433 9.11474 28.447 8.2772 25.1137C7.62496 22.5063 7.69908 19.9285 8.50697 17.4396C9.63357 13.9729 11.8127 11.3211 14.9701 9.55812C16.6155 8.6396 18.3721 8.09145 20.2029 7.92849C20.4845 7.90627 20.6772 7.95071 20.8106 8.08404C20.9441 8.20997 20.9959 8.40256 20.9885 8.66923C20.9663 9.05441 20.9811 9.44701 20.9885 9.82479V9.86182C20.9885 9.91367 20.9885 9.97293 20.9885 10.0248C20.9885 10.084 20.9811 10.1507 20.9885 10.1952V10.2766L21.0626 10.2322C21.0923 10.21 21.1442 10.1729 21.1664 10.1581C21.2035 10.1285 21.2479 10.0915 21.2924 10.0618C21.6778 9.81738 22.0558 9.55071 22.4338 9.29886L22.4635 9.27664C22.5969 9.18775 22.7303 9.09145 22.8637 9.00256L24.2646 8.06182C25.5098 7.21738 26.7624 6.38034 28.0076 5.52849C28.0743 5.48404 28.1336 5.4396 28.1706 5.40997L28.2225 5.37293L28.1706 5.3359C28.1261 5.29886 28.0669 5.26182 27.9927 5.20997C27.6888 5.00256 27.385 4.80256 27.0811 4.59516L25.7544 3.69886C24.2349 2.66923 22.7155 1.64701 21.1961 0.617378C21.1664 0.602563 21.1442 0.580341 21.1145 0.558119C21.0923 0.543304 21.0775 0.528489 21.0701 0.521082L20.9959 0.461823V0.558119C20.9959 0.558119 20.9959 0.602563 20.9959 0.6396C20.9959 0.66923 20.9959 0.69886 20.9959 0.728489C20.9959 0.824785 20.9959 0.928489 20.9959 1.02479C20.9959 1.38775 20.9811 1.76553 20.9959 2.12849C21.0256 2.67664 20.8032 2.92108 20.2548 2.95812C17.3123 3.1433 14.681 3.9359 12.4427 5.32108C5.49776 9.61738 2.35513 15.8915 3.11114 23.9655C3.46691 27.7655 4.99375 31.2026 7.64719 34.1729C11.3902 38.3581 16.0596 40.4766 21.537 40.4766C21.6778 40.4766 21.8187 40.4766 21.9669 40.4766C26.5697 40.3877 30.6684 38.6989 34.152 35.4544C36.546 33.2248 38.2581 30.4692 39.2513 27.2692C39.7257 25.7211 39.9851 24.2989 40.0444 22.9063H38.9993V22.8989Z" fill="#0C67BD"/>
</g>
</g>
<defs>
<linearGradient id="paint0_linear_1_790" x1="21.5148" y1="15.6989" x2="21.5148" y2="29.01" gradientUnits="userSpaceOnUse">
<stop stop-color="#12E4FD"/>
<stop offset="1" stop-color="#24BEFD"/>
</linearGradient>
<linearGradient id="paint1_linear_1_790" x1="21.4851" y1="2.66184" x2="21.4851" y2="39.5063" gradientUnits="userSpaceOnUse">
<stop stop-color="#12E4FD"/>
<stop offset="1" stop-color="#24BEFD"/>
</linearGradient>
<clipPath id="clip0_1_790">
<rect width="40" height="40" fill="white" transform="translate(0 0.469238)"/>
</clipPath>
<clipPath id="clip1_1_790">
<rect width="37.037" height="40" fill="white" transform="translate(3 0.469238)"/>
</clipPath>
</defs>
</svg>
