<svg width="40" height="41" viewBox="0 0 40 41" fill="none" xmlns="http://www.w3.org/2000/svg">
<g clip-path="url(#clip0_1_942)">
<path d="M22.6297 32.4394C22.4588 31.9196 22.3282 31.3849 22.2811 30.8383C22.2359 30.3224 22.2212 29.7868 22.2811 29.2719C22.34 28.7769 22.4824 28.2888 22.723 27.8523C22.939 27.4605 23.0854 27.0359 23.2651 26.6262C23.4399 26.2264 23.6559 25.8366 23.977 25.537C24.3158 25.2206 24.745 25.036 25.184 24.9091C25.9529 24.6869 26.8102 24.5906 27.6184 24.6878C27.5958 24.664 27.5742 24.6383 27.5516 24.6144C27.1313 24.179 26.6236 23.8427 26.1935 23.4171C25.728 22.9558 25.403 22.3814 25.1594 21.7743C25.0416 21.4797 24.9669 21.1643 25.0445 20.8498C25.1044 20.6087 25.2507 20.3954 25.509 20.3627C25.7565 20.332 26.003 20.448 26.2239 20.5452C26.5136 20.6742 26.8082 20.7893 27.0999 20.9143C27.6734 21.1603 28.2165 21.4638 28.7026 21.8596C29.1298 22.2078 29.5599 22.6275 29.8182 23.1235C30.0578 23.5837 30.2316 24.0768 30.4437 24.55C30.539 24.7623 30.6372 24.9745 30.7639 25.17C30.8081 25.2384 30.8562 25.3029 30.9141 25.3594C30.9583 25.4021 30.9907 25.419 31.03 25.4209C31.252 25.4299 31.4788 25.3565 31.689 25.295C31.9227 25.2275 32.1535 25.1462 32.3882 25.0837C32.6877 25.0043 32.9862 24.917 33.2867 24.8396C33.5116 24.7821 33.7355 24.7513 33.9604 24.7573C34.312 23.4617 34.5005 22.0987 34.5005 20.6911C34.5005 12.2144 27.698 5.34277 19.3065 5.34277C10.915 5.34277 4.11243 12.2154 4.11243 20.6921C4.11243 29.1687 10.915 36.0403 19.3065 36.0403C20.81 36.0403 22.2624 35.8181 23.6343 35.4074C23.4183 34.3857 22.9538 33.4284 22.6287 32.4394H22.6297Z" fill="url(#paint0_linear_1_942)"/>
<path d="M38.4728 29.386C38.3167 27.9952 37.8806 26.8703 37.1422 25.9507C37.6361 24.2444 37.8865 22.4757 37.8865 20.6911C37.8865 10.3425 29.552 1.92334 19.3074 1.92334C9.06281 1.92334 0.727295 10.3425 0.727295 20.6921C0.727295 31.0416 9.06183 39.4608 19.3074 39.4608C21.2774 39.4608 23.2189 39.1483 25.0778 38.5333C26.11 39.4935 27.7333 40.3566 29.6748 39.1384C30.0371 38.9112 30.3857 38.9092 30.7403 39.1314C30.7972 39.1671 30.8571 39.1969 30.92 39.2277C30.9632 39.2485 31.0054 39.2693 31.0467 39.2931C31.5828 39.5917 32.1269 39.7425 32.6631 39.7425C33.2582 39.7425 33.871 39.556 34.4848 39.188C35.3264 38.6831 36.0374 37.944 36.658 36.9282C38.1713 34.4551 38.7645 31.988 38.4718 29.386H38.4728ZM29.442 24.5539C29.4361 24.5609 29.4165 24.5817 29.3497 24.5817C29.3114 24.5817 29.2741 24.5748 29.2476 24.5698C27.8649 24.3178 26.4389 22.8894 26.1983 21.5134C26.1954 21.4956 26.1915 21.4767 26.1856 21.449L26.1748 21.3934C26.1777 21.3379 26.1934 21.2992 26.22 21.2803C26.2573 21.2535 26.3093 21.2615 26.3997 21.2883C26.4154 21.2932 26.4301 21.2972 26.4448 21.3002C26.9967 21.4271 27.5143 21.6831 27.9837 22.062C28.7281 22.6632 29.2161 23.43 29.4342 24.3407L29.4381 24.3585C29.4685 24.4845 29.4695 24.5262 29.443 24.5549L29.442 24.5539ZM36.1768 25.0003C35.3057 24.3208 34.3993 24.0272 33.4114 24.1016C32.7092 24.1542 32.0778 24.4756 31.521 24.7593C31.4925 24.7742 31.463 24.789 31.4336 24.8049C31.303 24.8753 31.1783 24.9428 31.0025 24.9666C31.081 24.54 31.2136 24.1204 31.4218 23.6462C31.9766 22.3785 32.8457 21.323 34.0026 20.5075C34.1823 20.3806 34.2972 20.2109 34.3267 20.0284C34.3522 19.8677 34.3129 19.71 34.2108 19.5721C33.9987 19.2834 33.6186 19.2437 33.2857 19.4759C32.6739 19.9024 32.1564 20.3607 31.7056 20.8776C31.1674 21.4936 30.7128 22.1959 30.315 23.0223C30.2826 22.9647 30.2512 22.9102 30.2198 22.8526C30.1618 22.7495 30.1078 22.6523 30.0499 22.56C29.0276 20.9053 27.5349 20.0135 25.6121 19.9074C25.3518 19.8935 25.1574 19.9471 25.0307 20.0691C24.9021 20.1931 24.8372 20.3945 24.8382 20.6692C24.8441 21.8339 25.2261 22.9102 25.9754 23.8675C26.1041 24.0311 26.0835 24.0887 26.0776 24.1065C26.053 24.176 25.9332 24.2028 25.8448 24.2226C25.4726 24.3069 25.1004 24.4577 24.74 24.672C23.268 25.544 22.3772 26.9377 22.0159 28.9326C21.7802 30.2351 21.8263 31.6041 22.1524 33.0009C22.5786 34.8271 23.2503 36.3201 24.2038 37.5581C22.6159 38.0293 20.968 38.2694 19.3045 38.2694C9.70899 38.2694 1.90279 30.3839 1.90279 20.6911C1.90279 10.9982 9.71194 3.11375 19.3074 3.11375C28.9029 3.11375 36.7091 10.9992 36.7091 20.6921C36.7091 22.1444 36.5303 23.5927 36.1778 25.0003H36.1768ZM23.9966 27.1222C24.6241 26.1292 25.4117 25.5598 26.4046 25.3823C26.5097 25.3634 26.6187 25.3535 26.7267 25.3535C27.1784 25.3535 27.586 25.5162 27.9238 25.6749C28.0544 25.7364 28.184 25.7989 28.3156 25.8634C28.5307 25.9685 28.7526 26.0767 28.9775 26.1749C29.8545 26.5548 30.7452 26.535 31.6261 26.1153C31.7586 26.0519 31.8912 25.9864 32.0257 25.9199C32.2938 25.788 32.5698 25.6511 32.8497 25.534C33.4674 25.2731 34.0939 25.288 34.7116 25.5777C36.004 26.1848 36.7916 27.274 37.1196 28.9088C37.5467 31.0377 37.1991 33.1794 36.058 35.4561C35.5287 36.5116 34.9424 37.2704 34.2147 37.8438C33.2975 38.566 32.3852 38.6553 31.5043 38.1097C30.6342 37.571 29.7906 37.57 28.9255 38.1067C28.0416 38.6553 27.1293 38.568 26.215 37.8478C25.4176 37.2189 24.795 36.3776 24.1979 35.1227C23.5046 33.6635 23.1432 32.1398 23.1226 30.5992C23.1432 29.5893 23.2621 28.2819 23.9947 27.1212L23.9966 27.1222Z" fill="#0C67BD"/>
<path d="M19.3074 7.40918C18.9214 7.40918 18.6072 7.72662 18.6072 8.11648V9.58167C18.6072 9.97153 18.9214 10.289 19.3074 10.289C19.6933 10.289 20.0076 9.97153 20.0076 9.58167V8.11648C20.0076 7.72662 19.6933 7.40918 19.3074 7.40918Z" fill="#0C67BD"/>
<path d="M19.3074 31C18.9214 31 18.6072 31.3174 18.6072 31.7073V33.1725C18.6072 33.5623 18.9214 33.8798 19.3074 33.8798C19.6933 33.8798 20.0076 33.5623 20.0076 33.1725V31.7073C20.0076 31.3174 19.6933 31 19.3074 31Z" fill="#0C67BD"/>
<path d="M25.8566 9.22948C25.6946 9.13524 25.506 9.11044 25.3253 9.15905C25.1446 9.20766 24.9934 9.32472 24.9001 9.4884L24.1753 10.7572C23.9829 11.0945 24.0978 11.528 24.4317 11.7234C24.5416 11.7879 24.6614 11.8176 24.7803 11.8176C25.0228 11.8176 25.2585 11.6906 25.3882 11.4645L26.1129 10.1957C26.3054 9.85841 26.1905 9.42491 25.8566 9.22948Z" fill="#0C67BD"/>
<path d="M14.1821 29.6608C13.8482 29.4664 13.4191 29.5824 13.2256 29.9197L12.5009 31.1885C12.4076 31.3522 12.383 31.5426 12.4311 31.7252C12.4793 31.9077 12.5951 32.0604 12.7572 32.1547C12.8652 32.2172 12.985 32.2499 13.1058 32.2499C13.1667 32.2499 13.2276 32.242 13.2885 32.2251C13.4692 32.1765 13.6204 32.0595 13.7137 31.8958L14.4384 30.627C14.6309 30.2897 14.516 29.8562 14.1821 29.6608Z" fill="#0C67BD"/>
<path d="M29.719 13.8502L28.461 14.5783C28.1261 14.7718 28.0102 15.2053 28.2017 15.5435C28.3313 15.7717 28.567 15.8987 28.8106 15.8987C28.9284 15.8987 29.0482 15.8689 29.1572 15.8054L30.4152 15.0773C30.7501 14.8839 30.866 14.4504 30.6745 14.1121C30.483 13.7738 30.0538 13.6558 29.719 13.8502Z" fill="#0C67BD"/>
<path d="M9.45664 25.5787L8.19865 26.3068C7.86378 26.5003 7.7479 26.9338 7.93939 27.2721C8.06902 27.5002 8.30471 27.6272 8.54825 27.6272C8.6661 27.6272 8.78591 27.5974 8.89491 27.534L10.1529 26.8058C10.4878 26.6124 10.6037 26.1789 10.4122 25.8406C10.2207 25.5023 9.79151 25.3843 9.45664 25.5787Z" fill="#0C67BD"/>
<path d="M13.1658 11.5051C13.2964 11.7293 13.5301 11.8543 13.7707 11.8543C13.8905 11.8543 14.0123 11.8235 14.1233 11.7571C14.2843 11.6618 14.3992 11.5081 14.4464 11.3255C14.4935 11.143 14.468 10.9525 14.3727 10.7899L13.6391 9.52604C13.4437 9.18975 13.0146 9.07666 12.6817 9.27308C12.3488 9.47049 12.2368 9.904 12.4322 10.2403L13.1658 11.5041V11.5051Z" fill="#0C67BD"/>
<path d="M9.05593 20.692C9.05593 20.3022 8.74168 19.9847 8.35574 19.9847H6.90527C6.51933 19.9847 6.20508 20.3022 6.20508 20.692C6.20508 21.0819 6.51933 21.3993 6.90527 21.3993H8.35574C8.74168 21.3993 9.05593 21.0819 9.05593 20.692Z" fill="#0C67BD"/>
<path d="M8.11814 14.872L9.37417 15.6041C9.48416 15.6686 9.60396 15.6983 9.72279 15.6983C9.96535 15.6983 10.201 15.5714 10.3307 15.3452C10.5231 15.0079 10.4083 14.5744 10.0744 14.379L8.81833 13.6469C8.48444 13.4524 8.05529 13.5685 7.86183 13.9058C7.76854 14.0695 7.74399 14.2599 7.79211 14.4425C7.84023 14.625 7.95611 14.7778 8.11814 14.872Z" fill="#0C67BD"/>
<path d="M19.3074 11.3484C18.9215 11.3484 18.6072 11.6658 18.6072 12.0557V19.9858H11.0151C10.6292 19.9858 10.3149 20.3032 10.3149 20.6931C10.3149 21.0829 10.6292 21.4004 11.0151 21.4004H19.3074C19.6934 21.4004 20.0076 21.0829 20.0076 20.6931V12.0567C20.0076 11.6668 19.6934 11.3494 19.3074 11.3494V11.3484Z" fill="#0C67BD"/>
</g>
<defs>
<linearGradient id="paint0_linear_1_942" x1="19.3065" y1="5.34277" x2="19.3065" y2="36.0403" gradientUnits="userSpaceOnUse">
<stop stop-color="#12E5FD"/>
<stop offset="1" stop-color="#24BDFD"/>
</linearGradient>
<clipPath id="clip0_1_942">
<rect width="37.8182" height="37.8182" fill="white" transform="translate(0.727295 1.92334)"/>
</clipPath>
</defs>
</svg>
