<svg width="28" height="32" viewBox="0 0 28 32" fill="none" xmlns="http://www.w3.org/2000/svg">
<g clip-path="url(#clip0_1_855)">
<g clip-path="url(#clip1_1_855)">
<path d="M10.5745 17.417C9.51135 16.5058 8.68863 15.1891 8.41412 13.7652C7.69215 13.3996 7.22009 12.5828 7.22009 11.6613C7.22009 10.6741 7.76038 9.81096 8.56724 9.49417C10.2635 8.46382 11.4258 6.76951 11.678 4.9568C11.6812 4.9336 11.6868 4.9104 11.6947 4.88801C11.6987 4.87761 11.7042 4.86801 11.709 4.85761C11.7138 4.84641 11.7185 4.83521 11.7249 4.82481C11.732 4.81201 11.7415 4.80081 11.7502 4.78961C11.7558 4.78241 11.7598 4.77521 11.7661 4.76881C11.782 4.75121 11.7994 4.73441 11.8185 4.72081C11.8201 4.72001 11.8216 4.71921 11.8224 4.71841C11.8399 4.70561 11.8581 4.69442 11.878 4.68482C11.8867 4.68082 11.8954 4.67842 11.9042 4.67522C11.9169 4.67042 11.9295 4.66482 11.9438 4.66082C11.9549 4.65762 11.966 4.65682 11.9779 4.65522C11.9898 4.65362 12.001 4.65042 12.0129 4.65042C12.0311 4.64962 12.0486 4.65042 12.0668 4.65282C12.0724 4.65282 12.0771 4.65282 12.0827 4.65282C12.1057 4.65602 12.1287 4.66162 12.1509 4.66962C12.1604 4.67282 12.1691 4.67842 12.1787 4.68242C12.1906 4.68802 12.2025 4.69202 12.2136 4.69922C12.2255 4.70642 12.235 4.71441 12.2461 4.72241C12.254 4.72881 12.2628 4.73361 12.2699 4.74001C12.2874 4.75601 12.3032 4.77361 12.3175 4.79201C13.9146 6.9439 16.0725 8.55022 18.5732 9.45737C18.6145 9.45737 18.6565 9.46297 18.6978 9.47737C19.53 9.77976 20.0886 10.6581 20.0886 11.6629C20.0886 12.5836 19.6157 13.4012 18.8946 13.7668C18.6248 15.1659 17.8251 16.4618 16.7889 17.3706V18.1849C18.3313 19.9912 21.3262 19.4857 22.4663 19.2089C21.8618 18.2489 21.5754 17.6042 21.5754 16.6538C21.5754 14.9683 21.7126 14.2043 21.8451 13.466C21.9832 12.6988 22.1252 11.9052 22.1252 9.99895C22.1252 7.71826 21.1755 5.50157 19.4507 3.75766C17.975 2.26574 16.3026 1.48578 15.4124 1.48578C13.5734 1.48578 12.8657 1.96815 12.8586 1.97295C12.8586 1.97295 12.8586 1.97295 12.8578 1.97295C12.8546 1.97535 12.8507 1.97695 12.8475 1.97935C12.7435 2.05055 12.6166 2.05855 12.5087 2.01215C11.6495 1.69537 10.3269 2.04975 9.04882 2.9409C7.23993 4.20244 5.30728 6.71911 5.30728 9.99895C5.30728 11.906 5.45008 12.6988 5.58734 13.466C5.71983 14.2043 5.85708 14.9683 5.85708 16.6538C5.85708 17.5978 5.57385 18.2409 4.97644 19.1921C6.13238 19.4257 9.09007 19.8048 10.5745 17.9865V17.4178V17.417Z" fill="url(#paint0_linear_1_855)"/>
<path d="M14.2097 14.4715C13.6107 14.8899 13.5655 14.8907 13.0078 14.4835C12.907 14.4107 12.8142 14.3739 12.7269 14.3739C12.6285 14.3739 12.5381 14.4203 12.454 14.5139C12.2969 14.6883 12.3056 14.8883 12.4794 15.0771C12.7682 15.3915 13.1434 15.5579 13.5933 15.5707C14.0582 15.5619 14.4438 15.3907 14.7349 15.0611C14.9047 14.8691 14.9031 14.6747 14.731 14.4979C14.5755 14.3395 14.4096 14.3307 14.2089 14.4715H14.2097Z" fill="#0C67BD"/>
<path d="M10.8108 10.6477C10.8068 10.6477 10.8021 10.6477 10.7981 10.6477C10.5625 10.6477 10.4276 10.7693 10.3602 11.0405C10.3332 11.1501 10.3356 11.2709 10.3372 11.3589C10.3372 11.3933 10.338 11.4213 10.3372 11.4429V11.6141C10.3388 11.7053 10.3388 11.7701 10.3372 11.8341C10.33 12.0356 10.3768 12.1948 10.4728 12.2948C10.553 12.378 10.6656 12.4236 10.814 12.4204C11.1623 12.4204 11.2488 12.106 11.2599 11.8429C11.2718 11.5757 11.2829 11.3021 11.2448 11.0461C11.2051 10.7821 11.0631 10.6509 10.8116 10.6469L10.8108 10.6477Z" fill="#0C67BD"/>
<path d="M16.8658 11.6988L16.8595 11.5804C16.8595 11.5364 16.8603 11.4932 16.8619 11.4492C16.8642 11.3564 16.8666 11.2685 16.8579 11.1821C16.8222 10.8061 16.6889 10.6501 16.4001 10.6501C16.393 10.6501 16.3866 10.6501 16.3795 10.6501C16.1907 10.6549 15.9701 10.7173 15.9447 11.1613C15.9273 11.462 15.9225 11.7124 15.9558 11.9564C15.9749 12.0988 16.0574 12.4292 16.3969 12.4204C16.7706 12.4108 16.8515 12.1036 16.8658 11.922C16.8714 11.85 16.8698 11.7764 16.8682 11.6988H16.8666H16.8658Z" fill="#0C67BD"/>
<path d="M22.6503 22.4343C21.9776 21.9927 19.3769 20.852 17.8695 20.204C17.4546 20.0256 17.1332 19.7025 16.9523 19.3065C17.9258 20.0096 19.1254 20.2192 20.2091 20.2192C21.7403 20.2192 23.0407 19.8008 23.1422 19.7672C23.2477 19.7321 23.3318 19.6497 23.3683 19.5441C23.4048 19.4385 23.3906 19.3209 23.3295 19.2273C22.548 18.0329 22.2886 17.4938 22.2886 16.653C22.2886 15.0323 22.4139 14.3331 22.5472 13.594C22.6908 12.7956 22.8392 11.97 22.8392 9.99815C22.8392 7.52547 21.8157 5.12879 19.9561 3.24889C18.5097 1.78656 16.6413 0.765015 15.4124 0.765015C13.7955 0.765015 12.945 1.1058 12.6071 1.28659C11.5289 0.968204 10.0643 1.35618 8.64257 2.34813C6.68453 3.71366 4.59321 6.43993 4.59321 9.99895C4.59321 11.9708 4.74157 12.7964 4.88517 13.5948C5.01766 14.3347 5.14381 15.0331 5.14381 16.6538C5.14381 17.4946 4.88358 18.0337 4.1029 19.2281C4.04023 19.3241 4.02674 19.4433 4.06641 19.5513C4.10608 19.6585 4.19335 19.7409 4.30283 19.7728C4.39804 19.8 5.53891 20.1224 6.92889 20.1224C8.10308 20.1224 9.45419 19.892 10.5038 19.0617C10.3571 19.5673 9.99289 19.9912 9.49466 20.2048C8.46565 20.6472 6.92731 21.3192 5.84039 21.8415C5.83959 21.8415 5.8388 21.8423 5.83801 21.8423C5.33422 22.0847 4.92722 22.2943 4.71459 22.4343C4.4988 22.5271 3.45631 23.0151 2.4154 24.2038C1.37926 25.3854 0.147947 27.5173 0.125732 30.9763H0.84056C0.858014 28.43 1.57681 26.2645 2.92316 24.7102C3.95375 23.5199 5.00179 23.0927 5.01131 23.0887C5.0367 23.0791 5.0605 23.0663 5.08272 23.0503C5.21362 22.9599 5.48416 22.8143 5.8745 22.6223C7.70798 25.019 10.5998 26.4405 13.6733 26.4405H13.6821C14.8832 26.4397 16.0574 26.2197 17.1507 25.8077C17.2007 25.7997 17.2491 25.7813 17.2927 25.7525C18.931 25.107 20.3813 24.0286 21.4635 22.6095C21.8673 22.8079 22.1473 22.9583 22.2806 23.0503C22.3021 23.0655 22.3266 23.0783 22.3512 23.0879C22.3616 23.0919 23.4096 23.5199 24.4402 24.7094C25.7873 26.2645 26.5053 28.43 26.5228 30.9755H27.2376C27.2154 27.5165 25.9841 25.3846 24.9495 24.203C23.9086 23.0143 22.8661 22.5263 22.6503 22.4335V22.4343ZM4.97641 19.1913C5.57381 18.2401 5.85705 17.5978 5.85705 16.653C5.85705 14.9675 5.71979 14.2035 5.5873 13.4652C5.44925 12.698 5.30724 11.9044 5.30724 9.99815C5.30724 6.71831 7.23989 4.20164 9.04878 2.9401C10.3261 2.04895 11.6495 1.69537 12.5087 2.01135C12.6166 2.05775 12.7435 2.04975 12.8474 1.97855C12.8506 1.97615 12.8546 1.97455 12.8578 1.97215C12.8578 1.97215 12.8578 1.97215 12.8586 1.97215C12.8657 1.96735 13.5734 1.48498 15.4124 1.48498C16.3026 1.48498 17.975 2.26574 19.4507 3.75686C21.1755 5.50077 22.1251 7.71666 22.1251 9.99815C22.1251 11.9052 21.9823 12.698 21.8451 13.4652C21.7126 14.2035 21.5753 14.9675 21.5753 16.653C21.5753 17.6026 21.8625 18.2473 22.4663 19.2081C21.3262 19.4849 18.3312 19.9912 16.7889 18.1841V17.3698C17.8251 16.461 18.6248 15.1651 18.8945 13.766C19.6165 13.4004 20.0885 12.5836 20.0885 11.6621C20.0885 10.6573 19.53 9.77896 18.6978 9.47657C18.6565 9.46137 18.6145 9.45577 18.5732 9.45657C16.0725 8.54942 13.9145 6.9431 12.3175 4.79121C12.3032 4.77201 12.2873 4.75441 12.2699 4.73921C12.2619 4.73201 12.254 4.72721 12.2461 4.72161C12.2358 4.71361 12.2254 4.70481 12.2135 4.69841C12.2024 4.69202 12.1905 4.68722 12.1786 4.68162C12.1691 4.67762 12.1604 4.67202 12.1509 4.66882C12.1286 4.66082 12.1056 4.65522 12.0826 4.65202C12.0771 4.65202 12.0723 4.65202 12.0668 4.65202C12.0485 4.65042 12.0311 4.64882 12.0128 4.64962C12.0009 4.64962 11.9898 4.65282 11.9779 4.65442C11.9668 4.65602 11.9557 4.65682 11.9438 4.66002C11.9303 4.66322 11.9176 4.66882 11.9041 4.67442C11.8954 4.67762 11.8867 4.68002 11.8779 4.68402C11.8581 4.69362 11.8399 4.70481 11.8224 4.71761C11.8208 4.71841 11.8192 4.71921 11.8184 4.72001C11.7994 4.73441 11.7819 4.75041 11.7661 4.76801C11.7605 4.77441 11.7558 4.78241 11.7502 4.78881C11.7415 4.80001 11.732 4.81201 11.7248 4.82401C11.7185 4.83441 11.7145 4.84641 11.709 4.85681C11.7042 4.86721 11.6986 4.87681 11.6947 4.88721C11.6867 4.9096 11.6812 4.9328 11.678 4.956C11.4257 6.76871 10.2634 8.46382 8.5672 9.49337C7.75955 9.81016 7.22006 10.6741 7.22006 11.6605C7.22006 12.5812 7.69291 13.3988 8.41408 13.7644C8.68859 15.1883 9.51132 16.505 10.5744 17.4162V17.9849C9.09004 19.8032 6.13235 19.4241 4.97641 19.1905V19.1913ZM16.5755 16.5946C16.4644 16.7058 16.3494 16.8098 16.2328 16.9082C16.2288 16.9106 16.2256 16.9138 16.2224 16.917C15.4283 17.5818 14.523 17.9561 13.6821 17.9561H13.6273C12.6586 17.9561 11.6034 17.4594 10.7331 16.5946C9.86199 15.7283 9.26061 14.5851 9.08448 13.458C9.08448 13.4532 9.0821 13.4492 9.08131 13.4444C9.07893 13.4316 9.07576 13.4196 9.07179 13.4068C9.06862 13.3964 9.06544 13.3852 9.06068 13.3756C9.05592 13.3652 9.05116 13.3548 9.04561 13.3444C9.04005 13.334 9.0345 13.3236 9.02815 13.314C9.02181 13.3044 9.01467 13.2956 9.00753 13.2868C9.00038 13.278 8.99324 13.2692 8.98531 13.2612C8.97738 13.2532 8.96865 13.2452 8.95913 13.238C8.9504 13.2308 8.94088 13.2236 8.93136 13.2164C8.92263 13.21 8.91311 13.2052 8.9028 13.1996C8.89169 13.1932 8.87979 13.1876 8.86789 13.1828C8.86393 13.1812 8.85996 13.178 8.8552 13.1764C8.31253 12.9748 7.93409 12.3524 7.93409 11.6621C7.93409 10.9717 8.31174 10.3501 8.85282 10.1541C8.8552 10.1541 8.85678 10.1525 8.85837 10.1517C8.87741 10.1445 8.89645 10.1357 8.9147 10.1245C8.9147 10.1245 8.91629 10.1237 8.91708 10.1229C8.91708 10.1229 8.91787 10.1229 8.91867 10.1221C10.5633 9.12939 11.7581 7.56467 12.2262 5.83436C13.9217 7.88145 16.1288 9.39978 18.6533 10.2477C19.0865 10.5077 19.3753 11.0573 19.3753 11.6613C19.3753 12.3516 18.9969 12.974 18.4542 13.1756C18.4494 13.1772 18.4455 13.1804 18.4407 13.182C18.4296 13.1868 18.4185 13.1924 18.4082 13.198C18.3979 13.2036 18.3876 13.2092 18.378 13.2164C18.3693 13.2228 18.3606 13.2292 18.3526 13.2364C18.3431 13.2444 18.3336 13.2524 18.3249 13.2612C18.3169 13.2692 18.3106 13.2772 18.3035 13.286C18.2955 13.2956 18.2884 13.3044 18.282 13.3148C18.2757 13.3244 18.2701 13.334 18.2646 13.3444C18.259 13.3548 18.2535 13.3652 18.2487 13.3764C18.2447 13.3868 18.2408 13.3972 18.2376 13.4076C18.2336 13.4196 18.2305 13.4324 18.2281 13.4452C18.2273 13.45 18.2249 13.454 18.2249 13.4588C18.0488 14.5859 17.4474 15.7291 16.5763 16.5954L16.5755 16.5946ZM6.53617 22.3055C7.04155 22.0687 7.658 21.7903 8.36648 21.4776C8.47279 22.6119 8.77189 23.6735 9.23681 24.583C8.20067 24.0134 7.27956 23.2431 6.53617 22.3055ZM16.8849 25.1398C15.8742 25.5182 14.7904 25.7197 13.6813 25.7205H13.6733C12.5444 25.7205 11.4424 25.5134 10.4166 25.1262C9.63984 24.0982 9.16223 22.7063 9.0583 21.1752C9.28917 21.0752 9.52718 20.972 9.77313 20.8664C10.6934 20.4712 11.2885 19.5641 11.2885 18.5553V17.9449C12.0239 18.4065 12.83 18.6769 13.6265 18.6769H13.6813C14.4977 18.6769 15.3243 18.3937 16.0741 17.9105V18.5553C16.0741 19.5641 16.6691 20.4712 17.5894 20.8664C17.8163 20.964 18.0369 21.0592 18.2503 21.152C18.1511 22.6943 17.6711 24.0982 16.8849 25.1398ZM18.0623 24.6014C18.5367 23.6791 18.839 22.6031 18.9429 21.4544C19.6625 21.7711 20.2877 22.0535 20.8002 22.2935C20.0473 23.2463 19.1127 24.027 18.0623 24.6014Z" fill="#0C67BD"/>
<path d="M22.3513 23.0887C22.3267 23.0791 22.3021 23.0663 22.2806 23.0511C22.1466 22.9591 21.8673 22.8087 21.4635 22.6103C20.3813 24.0302 18.931 25.1078 17.2927 25.7533C17.2491 25.7821 17.2015 25.8005 17.1507 25.8085C16.0574 26.2197 14.8833 26.4405 13.6821 26.4413H13.6734C10.5998 26.4413 7.708 25.0198 5.87452 22.6231C5.48418 22.8151 5.21364 22.9607 5.08273 23.0511C5.06052 23.0663 5.03672 23.0791 5.01133 23.0895C5.00181 23.0935 3.95377 23.5206 2.92318 24.711C1.57603 26.2661 0.85803 28.4316 0.840576 30.9771H26.5236C26.5061 28.4308 25.7873 26.2653 24.441 24.711C23.4104 23.5206 22.3624 23.0935 22.352 23.0895L22.3513 23.0887Z" fill="url(#paint1_linear_1_855)"/>
</g>
</g>
<defs>
<linearGradient id="paint0_linear_1_855" x1="13.7214" y1="1.48578" x2="13.7214" y2="19.4909" gradientUnits="userSpaceOnUse">
<stop stop-color="#0EB7E6"/>
<stop offset="1" stop-color="#0EDBF9"/>
</linearGradient>
<linearGradient id="paint1_linear_1_855" x1="13.6821" y1="22.6103" x2="13.6821" y2="30.9771" gradientUnits="userSpaceOnUse">
<stop stop-color="#0EB7E6"/>
<stop offset="1" stop-color="#0EDBF9"/>
</linearGradient>
<clipPath id="clip0_1_855">
<rect width="27.1127" height="30.5986" fill="white" transform="translate(0.125732 0.765015)"/>
</clipPath>
<clipPath id="clip1_1_855">
<rect width="27.1127" height="30.2113" fill="white" transform="translate(0.125732 0.765015)"/>
</clipPath>
</defs>
</svg>
