<svg width="1440" height="129" viewBox="0 0 1440 129" fill="none" xmlns="http://www.w3.org/2000/svg">
<path d="M-95.0173 71.0415C-0.67807 0.890386 129.533 -27.7678 231.354 37.8849C243.403 45.655 255.522 54.589 263.004 68.6507C271.051 83.782 267.986 102.017 251.591 105.708C239.728 108.382 225.153 101.598 218.36 89.6227C210.137 75.1206 219.27 58.4374 228.863 48.7588C250.39 27.0424 282.207 20.4467 309.59 19.5344C338.033 18.6012 366.503 24.1063 393.851 33.1033C450.516 51.7473 503.012 85.271 560.844 99.448C618.949 113.698 679.077 110.469 736.21 92.0135C792.019 73.9881 844.762 44.4491 901.198 28.9508C962.404 12.1418 1026.45 13.0646 1088.92 14.3439C1120.48 14.994 1151.97 17.8567 1182.21 29.2549C1210.28 39.8353 1236.46 56.0046 1263.06 70.7794C1290.04 85.7743 1317.71 98.9447 1345.93 110.259C1370.18 119.98 1395.94 130.602 1421.93 128.798C1432.16 128.085 1441.98 125.065 1450.69 118.553C1451.41 118.019 1450.74 116.655 1450.02 117.19C1425.03 135.855 1391.95 125.852 1365.78 116.236C1333.55 104.387 1301.92 90.1679 1271.22 73.5372C1243.99 58.7729 1217.46 41.922 1189.09 30.3035C1158.59 17.8147 1126.97 13.8301 1094.87 12.9073C1029.98 11.0408 963.031 10.1076 899.484 27.7974C838.597 44.7427 781.931 77.8574 721.079 94.96C655.51 113.384 586.893 109.934 522.71 85.8687C464.667 64.1103 409.963 29.9994 348.969 20.5411C320.791 16.1684 291.482 16.4306 264.064 26.1196C245.099 32.8202 216.214 47.4586 213.944 74.7955C212.186 95.9247 233.598 109.242 249.038 107.659C256.873 106.851 265.247 101.755 268.153 92.5797C271.351 82.5132 266.74 71.5553 261.67 63.6489C246.865 40.5693 219.977 27.8288 197.576 18.6117C170.749 7.60141 142.412 1.81315 114.066 0.355604C54.9008 -2.68533 -4.39687 13.9244 -57.5289 44.5225C-70.6375 52.0724 -83.3486 60.5031 -95.6886 69.6783C-96.413 70.2131 -95.7416 71.5763 -95.0173 71.0415Z" fill="#BABFDE"/>
</svg>
