<svg width="18" height="15" viewBox="0 0 18 15" fill="none" xmlns="http://www.w3.org/2000/svg">
<g clip-path="url(#clip0_1_716)">
<path d="M11.0774 12.2664C9.95059 12.2644 8.82374 12.2644 7.6969 12.2567C7.55389 12.2557 7.51802 12.3017 7.55288 12.4335C7.76057 13.2101 7.54884 13.8897 7.00664 14.4395C6.70598 14.7445 6.31335 14.9193 5.85857 14.977C5.19105 15.0613 4.63975 14.8549 4.19154 14.394C3.59477 13.7798 3.49673 12.7922 3.70391 12.3456C3.78426 12.1724 4.0167 11.8827 3.9788 11.711C3.94343 11.5501 3.75141 11.43 3.62711 11.2976C3.19304 10.8357 3.1223 10.2558 3.04903 9.67129C3.0086 9.34837 2.31986 1.70045 2.29611 1.43986C2.28499 1.3203 2.20667 1.36067 2.15058 1.35913C1.96564 1.35402 1.78069 1.35913 1.59575 1.35607C1.21525 1.34942 0.954 1.11592 0.927218 0.782779C0.887804 0.300952 1.15309 0.0536515 1.52854 0.0255492C2.00505 -0.00970648 2.48762 -0.00561887 2.96515 0.0204397C3.34009 0.0408777 3.57708 0.309638 3.59931 0.725042C3.63519 1.38621 3.70796 2.04381 3.76405 2.70242C3.75798 2.7387 3.7696 2.75556 3.80801 2.74279C4.53162 2.74483 5.25573 2.74892 5.97934 2.74943C9.40485 2.74994 12.8309 2.7525 16.2564 2.74483C16.5611 2.74432 16.8077 2.78826 16.98 3.07337C17.1144 3.29615 17.0881 3.52454 17.0245 3.7417C16.6713 4.94805 16.4272 6.18302 16.0937 7.395C15.9436 7.94019 15.8218 8.49661 15.6904 9.04895C15.6222 9.33508 15.406 9.47764 15.1634 9.53538C14.985 9.57778 14.794 9.61917 14.5985 9.60282C14.3746 9.58443 5.25068 10.1792 4.46997 10.1608C4.58973 10.4674 4.60438 10.5987 5.26836 10.8378C5.50738 10.9236 5.7383 10.9282 5.97732 10.9282C8.24971 10.9287 10.5226 10.9216 12.795 10.9339C13.3564 10.9369 13.9082 11.0233 14.3529 11.4351C14.7369 11.7902 14.98 12.2061 15.0224 12.7452C15.078 13.4462 14.8678 14.0261 14.3458 14.4942C13.6611 15.1078 12.6121 15.1829 11.8667 14.6142C11.2078 14.1109 10.9607 13.4447 11.032 12.6363C11.0416 12.525 11.0911 12.4171 11.1219 12.3078C11.1275 12.2715 11.1158 12.2547 11.0774 12.2674V12.2664ZM14.0886 8.26719C14.7475 8.20588 14.8163 7.10478 14.9163 6.6996C15.1068 5.92704 15.2837 5.1509 15.4772 4.37885C15.5525 4.0779 15.5656 4.08097 15.2776 4.08097C11.6085 4.08097 7.93894 4.08097 4.26986 4.08097C4.19407 4.08097 4.11776 4.08915 4.04298 4.08097C3.92979 4.06922 3.90654 4.11674 3.9025 4.22506C3.89593 4.40389 3.94242 4.57455 3.95606 4.74929C4.00154 5.32411 4.05005 5.89894 4.10564 6.47324C4.17689 7.21361 4.21984 7.95705 4.30675 8.69691C4.31989 8.80982 4.34667 8.83997 4.45279 8.83588C4.68523 8.82669 4.91869 8.79552 5.14759 8.79194C5.95559 8.78019 13.3589 8.33566 14.0886 8.2677V8.26719ZM6.28303 12.9838C6.2704 12.5551 5.99904 12.2465 5.64179 12.2547C5.2335 12.2639 4.90706 12.6006 4.91768 13.0027C4.92424 13.2674 5.13799 13.6792 5.54022 13.6797C5.97631 13.6603 6.29415 13.3624 6.28303 12.9838ZM12.989 12.3047C12.5974 12.3252 12.3064 12.6174 12.3468 12.993C12.3943 13.4375 12.6955 13.6736 13.0982 13.6787C13.4206 13.6828 13.7253 13.2709 13.7061 12.9031C13.6859 12.5244 13.3973 12.2838 12.9895 12.3047H12.989Z" fill="#333333"/>
</g>
<defs>
<clipPath id="clip0_1_716">
<rect width="16.1538" height="15" fill="white" transform="translate(0.923096)"/>
</clipPath>
</defs>
</svg>
