<svg width="40" height="41" viewBox="0 0 40 41" fill="none" xmlns="http://www.w3.org/2000/svg">
<g clip-path="url(#clip0_1_830)">
<path d="M28.1856 39.4156C32.785 39.4156 36.5135 35.6871 36.5135 31.0877C36.5135 26.4884 32.785 22.7599 28.1856 22.7599C23.5863 22.7599 19.8578 26.4884 19.8578 31.0877C19.8578 35.6871 23.5863 39.4156 28.1856 39.4156Z" fill="url(#paint0_linear_1_830)"/>
<path d="M14.669 28.8C14.2824 28.8 13.9354 28.5299 13.8535 28.1369C13.76 27.6862 14.0494 27.2445 14.5 27.1511C16.0363 26.831 17.4355 26.0744 18.5429 24.9632C18.8681 24.6367 19.3956 24.6367 19.722 24.9606C20.0485 25.2845 20.0485 25.8132 19.7246 26.1397C18.3855 27.4827 16.6969 28.3967 14.8405 28.7834C14.7829 28.7949 14.7266 28.8013 14.6703 28.8013L14.669 28.8Z" fill="#0C67BD"/>
<path d="M8.00152 36.3008C7.54064 36.3008 7.16809 35.927 7.16809 35.4674C7.16809 35.0078 7.54192 34.634 8.00152 34.634C10.9716 34.634 13.7177 32.9018 14.9954 30.221C15.1938 29.805 15.6905 29.6296 16.1066 29.8267C16.5227 30.0252 16.6981 30.5219 16.5009 30.938C14.948 34.1961 11.6117 36.3008 8.00152 36.3008Z" fill="#0C67BD"/>
<path d="M21.1123 7.39214C20.7974 7.05673 20.27 7.0388 19.9345 7.35374C14.8136 12.152 8.4471 24.5369 4.93928 33.734C4.76005 33.2642 4.66788 32.729 4.66788 32.1325C4.66788 31.6716 4.29405 31.299 3.83445 31.299C3.37485 31.299 3.00103 31.6729 3.00103 32.1337C3.00103 33.5561 3.41582 34.7902 4.20316 35.735C3.73203 37.069 3.33645 38.307 3.03047 39.4131C2.90757 39.8573 3.16746 40.3157 3.61169 40.4386C3.68595 40.459 3.76148 40.4693 3.83445 40.4693C4.19932 40.4693 4.53473 40.2273 4.63715 39.8573C5.8124 35.6095 8.47142 29.0919 11.4108 23.2554C14.8738 16.3806 18.3048 11.165 21.0739 8.57123C21.4094 8.25629 21.4273 7.72884 21.1123 7.39342V7.39214Z" fill="#0C67BD"/>
<path d="M18.0039 23.7982C17.6992 23.7982 17.406 23.6305 17.2588 23.3398C17.0514 22.9289 17.2166 22.427 17.6275 22.2197C21.0316 20.5016 22.39 17.0347 23.8289 13.3643C25.4804 9.14985 27.1806 4.81117 32.1081 3.13792C27.5198 1.36225 23.3937 1.91787 19.5504 4.81629C15.8006 7.64431 13.2287 12.038 11.5273 14.9467C11.4223 15.1272 11.3199 15.3013 11.2213 15.469C10.9883 15.8659 10.4762 15.9978 10.0806 15.7648C9.68374 15.5318 9.55188 15.021 9.78488 14.6241C9.88218 14.4577 9.98459 14.2848 10.0896 14.1056C11.8588 11.083 14.5319 6.51515 18.548 3.48614C23.4884 -0.239308 29.0446 -0.515837 35.0642 2.66424C35.3842 2.83323 35.5583 3.19041 35.4956 3.54759C35.4316 3.90477 35.1461 4.17874 34.7864 4.22739C28.8884 5.02497 27.1857 9.37133 25.3831 13.9737C23.8942 17.7747 22.3541 21.7037 18.3816 23.7098C18.2612 23.77 18.1332 23.7994 18.0065 23.7994L18.0039 23.7982Z" fill="#0C67BD"/>
<path d="M9.66839 18.3803C10.1287 18.3803 10.5018 18.0072 10.5018 17.5469C10.5018 17.0866 10.1287 16.7134 9.66839 16.7134C9.2081 16.7134 8.83496 17.0866 8.83496 17.5469C8.83496 18.0072 9.2081 18.3803 9.66839 18.3803Z" fill="#0C67BD"/>
<path d="M4.66783 29.6334C4.66783 30.0943 4.29528 30.4668 3.8344 30.4668C3.37352 30.4668 3.00098 30.093 3.00098 29.6334C3.00098 29.1738 3.37352 28.8 3.8344 28.8C4.29528 28.8 4.66783 29.1725 4.66783 29.6334Z" fill="#0C67BD"/>
<path d="M23.0044 7.1284C23.4647 7.1284 23.8379 6.75526 23.8379 6.29497C23.8379 5.83468 23.4647 5.46155 23.0044 5.46155C22.5442 5.46155 22.171 5.83468 22.171 6.29497C22.171 6.75526 22.5442 7.1284 23.0044 7.1284Z" fill="#0C67BD"/>
<path d="M6.33472 25.4996C5.99546 25.4996 5.67669 25.2909 5.55251 24.9542C4.83558 23.0044 5.70869 20.3185 7.49973 18.9666C7.86715 18.6888 8.38948 18.7618 8.66729 19.1292C8.9451 19.4966 8.87213 20.0189 8.5047 20.2968C7.30001 21.2057 6.65222 23.1132 7.11822 24.3794C7.27697 24.8121 7.05549 25.2909 6.62405 25.4497C6.52932 25.4842 6.43202 25.5009 6.336 25.5009L6.33472 25.4996Z" fill="#0C67BD"/>
<path d="M4.6679 27.9653C5.12819 27.9653 5.50132 27.5921 5.50132 27.1318C5.50132 26.6715 5.12819 26.2984 4.6679 26.2984C4.20761 26.2984 3.83447 26.6715 3.83447 27.1318C3.83447 27.5921 4.20761 27.9653 4.6679 27.9653Z" fill="#0C67BD"/>
<path d="M37.2841 29.9138C37.0895 28.3276 36.452 26.9923 35.6595 25.9093L36.9743 24.4332C37.2803 24.0901 37.2495 23.5626 36.9064 23.2567C36.5621 22.9507 36.0359 22.9801 35.7299 23.3245L34.5585 24.6393C33.4076 23.5063 32.1991 22.8111 31.573 22.5615C30.714 22.2197 29.8166 22.0596 29.7782 22.0532C29.7218 22.043 28.3917 21.8151 27.0167 21.9931C22.0034 22.6409 18.452 27.2471 19.0998 32.2592C19.6964 36.8757 23.6485 40.2529 28.1856 40.2529C28.576 40.2529 28.9703 40.2273 29.3672 40.1761C34.7723 39.4771 37.8244 34.3063 37.2854 29.9151L37.2841 29.9138ZM29.1534 38.522C28.8282 38.5643 28.5056 38.5848 28.1868 38.5848C24.4755 38.5848 21.2416 35.822 20.7539 32.0454C20.2239 27.9435 23.13 24.1758 27.2305 23.6458C27.5352 23.6062 27.8425 23.5921 28.1267 23.5921C28.8833 23.5921 29.4837 23.6932 29.4914 23.6945C29.4991 23.6958 30.2557 23.8302 30.9572 24.1093C31.5871 24.3602 32.5575 24.967 33.455 25.8785L27.1153 32.9953L24.8749 30.7549C24.5497 30.4297 24.0223 30.4297 23.6958 30.7549C23.3706 31.0801 23.3706 31.6088 23.6958 31.934L26.561 34.7991C26.7171 34.9553 26.9297 35.0437 27.1499 35.0437C27.1575 35.0437 27.1652 35.0437 27.1742 35.0437C27.4033 35.0373 27.6197 34.9361 27.7721 34.7646L34.5188 27.1895C35.0706 28.0255 35.4931 29.0087 35.6288 30.1186C36.0717 33.7161 33.574 37.9523 29.1521 38.5233L29.1534 38.522Z" fill="#0C67BD"/>
<path d="M26.1615 5.8866C26.1615 5.8866 19.8577 9.63509 13.3926 21.8382C10.6299 27.0525 8.51111 33.0248 8.51111 33.0248L13.5449 30.4682C13.5449 30.4682 12.1277 29.0996 13.1532 26.7594C14.2209 24.3231 16.3563 24.8454 16.3563 24.8454C15.2784 23.7457 14.8751 22.1506 18.7964 19.6324C20.0152 18.8501 21.8472 16.2602 22.5884 13.5142C23.7803 9.10124 26.1615 5.88788 26.1615 5.88788V5.8866Z" fill="url(#paint1_linear_1_830)"/>
</g>
<defs>
<linearGradient id="paint0_linear_1_830" x1="28.1856" y1="22.7599" x2="28.1856" y2="39.4156" gradientUnits="userSpaceOnUse">
<stop stop-color="#15E3FE"/>
<stop offset="1" stop-color="#26BBFD"/>
</linearGradient>
<linearGradient id="paint1_linear_1_830" x1="17.3363" y1="5.8866" x2="17.3363" y2="33.0248" gradientUnits="userSpaceOnUse">
<stop stop-color="#15E3FE"/>
<stop offset="1" stop-color="#26BBFD"/>
</linearGradient>
<clipPath id="clip0_1_830">
<rect width="40" height="40" fill="white" transform="translate(0 0.469238)"/>
</clipPath>
</defs>
</svg>
