<svg width="40" height="41" viewBox="0 0 40 41" fill="none" xmlns="http://www.w3.org/2000/svg">
<g clip-path="url(#clip0_1_809)">
<path d="M2.74072 40.9692C2.74072 37.7767 2.91109 35.1026 3.19257 32.8137H3.25924C3.25924 32.8137 12.0148 35.0433 20.5185 35.0433C29.0222 35.0433 37.7778 32.8211 37.7778 32.8211H37.8444C38.1259 35.1026 38.2963 37.7767 38.2963 40.9692H2.74072Z" fill="url(#paint0_linear_1_809)"/>
<path d="M34.5926 6.89516C29.8963 6.89516 23.2963 4.67294 20.5185 4.67294C17.7408 4.67294 11.1408 6.89516 6.44448 6.89516C6.03707 4.97665 5.70374 2.97665 5.70374 0.969238H35.3334C35.3334 2.97665 35 4.97665 34.5926 6.89516Z" fill="url(#paint1_linear_1_809)"/>
<path d="M39.037 40.9692H37.5555C37.5555 37.9915 37.4074 35.3544 37.1111 32.9026C36.437 27.4063 35.1185 24.1989 34.0592 21.6211C33.1555 19.4211 32.3704 17.5174 32.3704 15.0433C32.3704 13.2359 32.8518 11.1692 33.363 8.97665C33.5333 8.25072 33.7037 7.50257 33.8667 6.73961C34.2074 5.15442 34.5926 3.05813 34.5926 0.969238H36.0741C36.0741 3.19887 35.6667 5.39146 35.3185 7.05072C35.1555 7.82109 34.9778 8.57665 34.8074 9.30998C34.3185 11.4137 33.8518 13.4063 33.8518 15.0433C33.8518 17.2285 34.5481 18.9174 35.4296 21.0581C36.5259 23.7174 37.8889 27.0285 38.5852 32.7248C38.8963 35.2285 39.0444 37.9322 39.0444 40.9692H39.037Z" fill="#0C67BD"/>
<path d="M3.48148 40.9692H2C2 37.9248 2.14815 35.2285 2.45926 32.7248C3.15556 27.0285 4.51852 23.7174 5.61481 21.0581C6.4963 18.9174 7.19259 17.2285 7.19259 15.0433C7.19259 13.4063 6.72593 11.4211 6.23704 9.30998C6.06667 8.56924 5.88889 7.82109 5.72593 7.05072C5.37037 5.39146 4.97037 3.19887 4.97037 0.969238H6.45185C6.45185 3.05813 6.83704 5.15442 7.17778 6.73961C7.34074 7.50257 7.51111 8.24331 7.68148 8.97665C8.19259 11.1692 8.67407 13.2359 8.67407 15.0433C8.67407 17.5174 7.88889 19.4211 6.98518 21.6211C5.92593 24.1989 4.60741 27.4063 3.93333 32.9026C3.62963 35.347 3.48889 37.9915 3.48889 40.9692H3.48148Z" fill="#0C67BD"/>
<path d="M34.5925 7.63589C31.8591 7.63589 28.5777 6.92478 25.6814 6.29515C23.6073 5.8433 21.6443 5.41367 20.5184 5.41367C19.3925 5.41367 17.4295 5.8433 15.3554 6.29515C12.4592 6.92478 9.17767 7.63589 6.44434 7.63589V6.15441C9.02211 6.15441 12.2221 5.45812 15.0443 4.8433C17.2962 4.35441 19.2369 3.93219 20.5184 3.93219C21.7999 3.93219 23.748 4.35441 25.9925 4.8433C28.8147 5.45812 32.0147 6.15441 34.5925 6.15441V7.63589Z" fill="#0C67BD"/>
<path d="M20.5185 35.7841C12.0222 35.7841 3.16299 33.5618 3.0741 33.5396L3.43706 32.1026C3.52595 32.1248 12.2074 34.3026 20.5111 34.3026C28.8148 34.3026 37.5037 32.1248 37.5852 32.1026L37.9482 33.5396C37.8593 33.5618 29.0074 35.7841 20.5037 35.7841H20.5185Z" fill="#0C67BD"/>
<path d="M20.5185 29.8581C20.3259 29.8581 20.1407 29.7841 19.9926 29.6433L14.5889 24.2396C14.3005 23.9512 14.3005 23.4836 14.5889 23.1952C14.8773 22.9068 15.3449 22.9068 15.6333 23.1952L19.0969 26.6587C19.8779 27.4398 21.1443 27.4398 21.9253 26.6587L25.3889 23.1952C25.6773 22.9068 26.1449 22.9068 26.4333 23.1952C26.7217 23.4836 26.7217 23.9512 26.4333 24.2396L21.0296 29.6433C20.8815 29.7915 20.6963 29.8581 20.5037 29.8581H20.5185Z" fill="#0C67BD"/>
<path d="M21.2593 28.3766V12.0803C21.2593 11.6712 20.9277 11.3396 20.5186 11.3396C20.1095 11.3396 19.7778 11.6712 19.7778 12.0803V28.3766C19.7778 28.7857 20.1095 29.1174 20.5186 29.1174C20.9277 29.1174 21.2593 28.7857 21.2593 28.3766Z" fill="#0C67BD"/>
</g>
<defs>
<linearGradient id="paint0_linear_1_809" x1="20.5185" y1="32.8137" x2="20.5185" y2="40.9692" gradientUnits="userSpaceOnUse">
<stop stop-color="#12E5FD"/>
<stop offset="1" stop-color="#26BCFE"/>
</linearGradient>
<linearGradient id="paint1_linear_1_809" x1="20.5185" y1="0.969238" x2="20.5185" y2="6.89516" gradientUnits="userSpaceOnUse">
<stop stop-color="#12E5FD"/>
<stop offset="1" stop-color="#26BCFE"/>
</linearGradient>
<clipPath id="clip0_1_809">
<rect width="40" height="40" fill="white" transform="translate(0 0.469238)"/>
</clipPath>
</defs>
</svg>
