<svg xmlns="http://www.w3.org/2000/svg" width="310" height="56" fill="none">
  <path fill="#6D6D6D" d="M.896 17.123 3.673.605h.902V22.04h-.902V5.507L.896 22.04H0V.605h.896v16.518ZM6.46.605h.872L9.198 18.08 11.06.605h.872L9.536 22.04H8.85L6.46.605Zm-.284 0h.764l.132 13.073v8.362h-.896V.605Zm5.27 0h.764V22.04h-.896v-8.362L11.446.605ZM17.593 19.729v2.311h-3.095V19.73h3.095ZM14.66.605V22.04h-.9V.605h.9Zm2.518 9.216v2.311h-2.68V9.821h2.68Zm.367-9.216v2.326h-3.046V.605h3.046ZM19.684.605V22.04h-.9V.605h.9Zm1.362 9.82v2.237h-1.435v-2.238h1.435Zm4.237-.957v3.724a42 42 0 0 1-.167 3.99c-.107 1.138-.266 2.09-.475 2.856-.209.765-.46 1.34-.754 1.722-.294.383-.625.574-.994.574-.356 0-.681-.19-.975-.574-.294-.382-.547-.957-.76-1.722-.212-.766-.376-1.718-.494-2.856-.114-1.148-.171-2.478-.171-3.99V9.468c0-1.512.057-2.837.171-3.975.114-1.149.278-2.106.49-2.871.212-.766.465-1.34.759-1.723.294-.392.619-.588.975-.588.369 0 .7.196.994.588.297.383.548.957.754 1.723.21.765.37 1.722.48 2.87.111 1.14.167 2.464.167 3.976Zm-.892 3.724V9.438c0-1.178-.032-2.189-.098-3.033-.065-.853-.161-1.55-.289-2.09-.127-.54-.284-.937-.47-1.193-.186-.265-.401-.397-.646-.397-.232 0-.441.132-.627.397-.183.256-.34.653-.47 1.193-.131.54-.232 1.237-.304 2.09a38.184 38.184 0 0 0-.103 3.033v3.754c0 1.188.034 2.208.103 3.062.072.844.173 1.541.304 2.09.133.54.293.943.48 1.208.186.255.393.383.622.383.244 0 .46-.128.646-.383.19-.265.346-.667.47-1.207.128-.55.222-1.247.284-2.09a40.95 40.95 0 0 0 .098-3.063ZM28.57.605V22.04h-.892V.605h.891Zm1.875 0v2.326h-4.638V.605h4.638ZM34.931 15.224h.902c-.023 1.472-.123 2.743-.3 3.813-.172 1.06-.425 1.874-.758 2.444-.33.569-.743.853-1.24.853-.355 0-.677-.21-.964-.633-.288-.422-.534-1.025-.74-1.81-.202-.795-.357-1.747-.465-2.856a38.96 38.96 0 0 1-.162-3.74v-3.96c0-1.374.054-2.616.162-3.725.11-1.109.27-2.056.475-2.84.209-.796.462-1.404.76-1.826.3-.422.64-.633 1.018-.633.464 0 .855.28 1.175.839.324.55.572 1.359.745 2.429.176 1.06.274 2.36.294 3.901h-.901c-.023-1.129-.082-2.046-.177-2.753-.095-.716-.235-1.241-.421-1.575-.183-.344-.421-.515-.715-.515-.261 0-.488.157-.68.47-.19.315-.347.766-.471 1.355-.12.58-.212 1.28-.274 2.105a38.343 38.343 0 0 0-.089 2.739v3.99c0 .942.025 1.82.074 2.635a19.3 19.3 0 0 0 .245 2.149c.114.608.263 1.084.446 1.428.182.343.404.515.666.515.33 0 .59-.162.783-.486.193-.323.335-.839.426-1.545.095-.707.157-1.63.187-2.768ZM40.358 13.693h-1.547l-.456-.574c-.444-.491-.785-1.242-1.023-2.253-.236-1.02-.353-2.287-.353-3.798 0-1.384.086-2.557.26-3.519.172-.961.419-1.693.739-2.193.323-.5.704-.751 1.141-.751h1.95V22.04h-.902V2.931H39.12c-.414 0-.725.373-.93 1.119-.206.746-.309 1.752-.309 3.018 0 .824.046 1.56.137 2.208.095.648.235 1.158.421 1.531s.42.56.7.56h1.225l-.005 2.326Zm-1.204-1.472-1.45 9.82h-.96l1.498-9.82h.912ZM49.63.605V22.04h-.901V2.931h-2.787v19.11h-.901V.604h4.589ZM53.5 13.634h-1.558v-2.312h1.557c.294 0 .53-.176.71-.53.183-.353.316-.844.397-1.472.085-.628.127-1.344.127-2.149 0-.736-.042-1.428-.127-2.076-.081-.648-.214-1.168-.397-1.56-.18-.403-.416-.604-.71-.604h-1.371v19.11h-.901V.604h2.272c.46 0 .85.28 1.166.84.317.559.557 1.334.72 2.325.166.982.25 2.105.25 3.372 0 1.374-.084 2.546-.25 3.518-.163.972-.403 1.713-.72 2.223-.317.5-.705.75-1.166.75ZM61.429 9.468v3.724a42 42 0 0 1-.167 3.99c-.107 1.138-.266 2.09-.475 2.856-.209.765-.46 1.34-.754 1.722-.294.383-.625.574-.994.574-.356 0-.681-.19-.975-.574-.294-.382-.547-.957-.76-1.722-.211-.766-.376-1.718-.494-2.856a40.829 40.829 0 0 1-.171-3.99V9.468c0-1.512.057-2.837.171-3.975.114-1.149.278-2.106.49-2.871.212-.766.465-1.34.76-1.723.293-.392.618-.588.974-.588.369 0 .7.196.994.588.297.383.549.957.754 1.723.21.765.37 1.722.48 2.87.111 1.14.167 2.464.167 3.976Zm-.892 3.724V9.438a40.05 40.05 0 0 0-.097-3.033c-.066-.853-.162-1.55-.29-2.09-.127-.54-.283-.937-.47-1.193-.186-.265-.401-.397-.646-.397-.232 0-.44.132-.627.397-.183.256-.34.653-.47 1.193-.13.54-.232 1.237-.304 2.09a38.184 38.184 0 0 0-.103 3.033v3.754c0 1.188.035 2.208.103 3.062.072.844.173 1.541.304 2.09.134.54.294.943.48 1.208.186.255.393.383.622.383.245 0 .46-.128.646-.383.19-.265.346-.667.47-1.207.128-.55.222-1.247.285-2.09.065-.854.098-1.875.098-3.063ZM64.98.605V22.04h-.892V.605h.892Zm1.876 0v2.326h-4.638V.605h4.638ZM68.85 17.123 71.625.605h.901V22.04h-.9V5.507L68.848 22.04h-.896V.605h.896v16.518ZM76.289 12.014h-1.45l-.01-2.281h1.347c.203 0 .382-.138.54-.413.156-.274.278-.667.367-1.177.09-.52.137-1.139.137-1.855 0-.786-.04-1.423-.118-1.914-.075-.5-.191-.864-.348-1.09-.153-.235-.35-.353-.587-.353H75.03v19.11h-.9V.604h2.037c.306 0 .58.113.822.339.242.216.446.559.613 1.03.17.461.298 1.05.387 1.767.088.716.132 1.575.132 2.576 0 .883-.067 1.683-.201 2.4-.13.706-.314 1.285-.549 1.737-.235.451-.506.741-.813.868l-.269.693Zm-.034 10.026h-1.788l.524-2.311h1.264c.235 0 .434-.157.597-.471.163-.314.288-.756.373-1.325.088-.58.132-1.261.132-2.047 0-.795-.036-1.482-.108-2.06-.072-.58-.186-1.026-.343-1.34-.157-.315-.362-.472-.617-.472h-1.16l.009-2.281h1.567l.201.824c.294.088.54.383.74.883.202.491.354 1.12.455 1.885.105.765.157 1.61.157 2.532 0 1.335-.083 2.463-.25 3.386-.163.913-.395 1.61-.695 2.09-.3.472-.653.707-1.058.707ZM84.243 9.468v3.724a42 42 0 0 1-.166 3.99c-.108 1.138-.266 2.09-.475 2.856-.21.765-.46 1.34-.755 1.722-.294.383-.625.574-.994.574-.356 0-.68-.19-.975-.574-.294-.382-.547-.957-.759-1.722-.212-.766-.377-1.718-.495-2.856-.114-1.148-.171-2.478-.171-3.99V9.468c0-1.512.057-2.837.171-3.975.115-1.149.278-2.106.49-2.871.212-.766.465-1.34.76-1.723.293-.392.618-.588.974-.588.369 0 .7.196.994.588.297.383.549.957.755 1.723.209.765.369 1.722.48 2.87.11 1.14.166 2.464.166 3.976Zm-.891 3.724V9.438c0-1.178-.033-2.189-.098-3.033-.066-.853-.162-1.55-.29-2.09-.127-.54-.283-.937-.47-1.193-.186-.265-.401-.397-.646-.397-.232 0-.44.132-.627.397-.183.256-.34.653-.47 1.193-.13.54-.232 1.237-.304 2.09a38.184 38.184 0 0 0-.103 3.033v3.754c0 1.188.035 2.208.103 3.062.072.844.173 1.541.304 2.09.134.54.294.943.48 1.208.186.255.393.383.622.383.245 0 .46-.128.647-.383.189-.265.346-.667.47-1.207.127-.55.222-1.247.284-2.09a40.95 40.95 0 0 0 .098-3.063ZM90.272.605V22.04h-.9V2.931h-2.788v19.11h-.9V.604h4.588ZM96.507 9.468v3.724c0 1.512-.055 2.842-.166 3.99-.108 1.138-.266 2.09-.475 2.856-.21.765-.46 1.34-.754 1.722-.294.383-.626.574-.995.574-.356 0-.68-.19-.975-.574-.293-.382-.546-.957-.759-1.722-.212-.766-.377-1.718-.494-2.856-.115-1.148-.172-2.478-.172-3.99V9.468c0-1.512.057-2.837.172-3.975.114-1.149.277-2.106.49-2.871.212-.766.465-1.34.759-1.723.293-.392.618-.588.974-.588.37 0 .7.196.995.588.297.383.548.957.754 1.723.209.765.369 1.722.48 2.87.11 1.14.166 2.464.166 3.976Zm-.891 3.724V9.438c0-1.178-.033-2.189-.098-3.033-.065-.853-.162-1.55-.289-2.09-.127-.54-.284-.937-.47-1.193-.186-.265-.402-.397-.647-.397-.231 0-.44.132-.627.397-.183.256-.34.653-.47 1.193-.13.54-.232 1.237-.303 2.09a38.237 38.237 0 0 0-.103 3.033v3.754c0 1.188.034 2.208.103 3.062.071.844.173 1.541.303 2.09.134.54.294.943.48 1.208.186.255.394.383.622.383.245 0 .46-.128.647-.383.19-.265.346-.667.47-1.207.127-.55.222-1.247.284-2.09a40.95 40.95 0 0 0 .098-3.063ZM98.849.605V22.04h-.902V.605h.901Zm3.668 0-2.576 11.792h-1.45l-.152-2.355h1.058L101.4.605h1.117Zm-.931 21.435-2.145-10.01.505-2.489 2.738 12.5h-1.098ZM105.838 2.504l-1.95 19.536h-.92L105.265.605h.578l-.005 1.9Zm1.577 19.536-1.949-19.536-.01-1.899h.583l2.297 21.435h-.921Zm0-7.935v2.326h-3.438v-2.326h3.438ZM111.181 11.75h-.695V9.938h.666c.277 0 .501-.152.671-.457.17-.304.294-.726.372-1.266.079-.54.118-1.163.118-1.87 0-.677-.044-1.295-.133-1.854-.084-.57-.217-1.021-.396-1.355-.18-.343-.413-.515-.701-.515-.212 0-.405.157-.578.471-.173.304-.31.731-.411 1.28-.098.54-.147 1.164-.147 1.87h-.901c0-.912.052-1.732.157-2.458.107-.736.254-1.36.44-1.87.19-.52.407-.917.652-1.192.248-.275.511-.412.788-.412.324 0 .616.132.877.397.261.255.485.638.671 1.148.189.51.333 1.144.431 1.9.101.755.152 1.634.152 2.635 0 .736-.049 1.428-.147 2.075a8.391 8.391 0 0 1-.416 1.708c-.18.491-.394.879-.642 1.163-.248.275-.524.412-.828.412Zm-.695-1.252h.695c.333 0 .631.123.892.368.264.245.488.604.671 1.075.183.471.321 1.055.416 1.752.098.687.147 1.477.147 2.37 0 1.001-.056 1.89-.167 2.665-.107.775-.261 1.433-.46 1.972-.199.54-.434.948-.705 1.222-.271.275-.568.412-.892.412-.261 0-.517-.117-.769-.353-.251-.245-.48-.618-.685-1.119-.203-.51-.366-1.158-.49-1.943-.121-.785-.181-1.727-.181-2.827h.901c0 .717.051 1.375.152 1.973.104.599.248 1.08.431 1.443.183.353.396.53.641.53.281 0 .52-.167.715-.5.2-.344.35-.81.451-1.4a11.74 11.74 0 0 0 .157-2.016c0-.658-.028-1.227-.083-1.708-.053-.49-.133-.893-.24-1.207-.105-.314-.236-.545-.392-.692a.73.73 0 0 0-.539-.236h-.666V10.5ZM116.819 2.504l-1.95 19.536h-.92L116.246.605h.578l-.005 1.9Zm1.577 19.536-1.949-19.536-.01-1.899h.583l2.297 21.435h-.921Zm0-7.935v2.326h-3.438v-2.326h3.438ZM124.166 9.82v2.312h-3.091V9.821h3.091ZM121.197.606V22.04h-.901V.605h.901Zm3.767 0V22.04h-.901V.605h.901ZM127.457 17.123 130.234.605h.901V22.04h-.901V5.507l-2.777 16.533h-.896V.605h.896v16.518ZM136.043 13.693h-1.548l-.455-.574c-.444-.491-.786-1.242-1.024-2.253-.235-1.02-.353-2.287-.353-3.798 0-1.384.087-2.557.26-3.519.173-.961.419-1.693.739-2.193.324-.5.704-.751 1.142-.751h1.949V22.04h-.901V2.931h-1.048c-.415 0-.725.373-.931 1.119-.206.746-.308 1.752-.308 3.018 0 .824.045 1.56.137 2.208.094.648.235 1.158.421 1.531s.419.56.7.56h1.225l-.005 2.326Zm-1.205-1.472-1.45 9.82h-.96l1.499-9.82h.911ZM138.315 20.597c0-.46.048-.849.143-1.163.097-.324.238-.486.421-.486s.321.162.416.486c.098.314.147.702.147 1.163 0 .452-.049.835-.147 1.149-.095.314-.233.47-.416.47-.183 0-.324-.156-.421-.47-.095-.314-.143-.697-.143-1.149ZM147.959.605V22.04h-.901V2.931h-2.787v19.11h-.901V.604h4.589ZM153.391 19.729v2.311h-3.095V19.73h3.095ZM150.457.605V22.04h-.901V.605h.901Zm2.518 9.216v2.311h-2.679V9.821h2.679Zm.367-9.216v2.326h-3.046V.605h3.046ZM156.815 13.634h-1.558v-2.312h1.558c.294 0 .53-.176.71-.53.183-.353.315-.844.397-1.472.084-.628.127-1.344.127-2.149 0-.736-.043-1.428-.127-2.076-.082-.648-.214-1.168-.397-1.56-.18-.403-.416-.604-.71-.604h-1.372v19.11h-.901V.604h2.273c.46 0 .849.28 1.165.84.317.559.557 1.334.72 2.325.167.982.25 2.105.25 3.372 0 1.374-.083 2.546-.25 3.518-.163.972-.403 1.713-.72 2.223-.316.5-.705.75-1.165.75ZM163.941 19.729v2.311h-3.095V19.73h3.095ZM161.007.605V22.04h-.901V.605h.901Zm2.518 9.216v2.311h-2.679V9.821h2.679Zm.367-9.216v2.326h-3.046V.605h3.046ZM169.833 19.729v2.311h-4.472V19.73h4.472Zm-4.334 0v7.582h-.897l-.005-7.582h.902Zm5.118 0-.01 7.567h-.891v-7.567h.901ZM168.991.605v2.326h-2.586V.605h2.586Zm.788 0V22.04h-.901V.605h.901Zm-3.683 0h.901l-.127 8.627a112.09 112.09 0 0 1-.098 3.592 73.052 73.052 0 0 1-.191 2.989 46.42 46.42 0 0 1-.26 2.429c-.098.706-.204 1.32-.318 1.84-.114.51-.235.933-.362 1.266-.128.324-.258.555-.392.692h-.377V19.73h.249c.072-.275.151-.672.236-1.193.088-.52.173-1.192.254-2.017.085-.834.159-1.85.221-3.047.065-1.197.109-2.61.132-4.24l.132-8.627ZM178.649.605V22.04h-.901V2.931h-2.787v19.11h-.901V.604h4.589ZM182.519 13.634h-1.558v-2.312h1.558c.293 0 .53-.176.71-.53.183-.353.315-.844.397-1.472.084-.628.127-1.344.127-2.149 0-.736-.043-1.428-.127-2.076-.082-.648-.214-1.168-.397-1.56-.18-.403-.417-.604-.71-.604h-1.372v19.11h-.901V.604h2.273c.46 0 .849.28 1.165.84.317.559.557 1.334.72 2.325.167.982.25 2.105.25 3.372 0 1.374-.083 2.546-.25 3.518-.163.972-.403 1.713-.72 2.223-.316.5-.705.75-1.165.75ZM186.75 17.123 189.527.605h.902V22.04h-.902V5.507L186.75 22.04h-.896V.605h.896v16.518ZM192.314.605h.872l1.866 17.475L196.913.605h.872L195.39 22.04h-.686L192.314.605Zm-.284 0h.764l.133 13.073v8.362h-.897V.605Zm5.27 0h.764V22.04h-.896v-8.362L197.3.605ZM203.447 19.729v2.311h-3.095V19.73h3.095ZM200.513.605V22.04h-.901V.605h.901Zm2.518 9.216v2.311h-2.679V9.821h2.679Zm.367-9.216v2.326h-3.046V.605h3.046ZM208.467 9.82v2.312h-3.09V9.821h3.09ZM205.499.606V22.04h-.901V.605h.901Zm3.767 0V22.04h-.901V.605h.901ZM214.653 19.729v2.311h-3.095V19.73h3.095ZM211.72.605V22.04h-.902V.605h.902Zm2.517 9.216v2.311h-2.679V9.821h2.679Zm.367-9.216v2.326h-3.046V.605h3.046ZM219.674 9.82v2.312h-3.091V9.821h3.091ZM216.706.606V22.04h-.902V.605h.902Zm3.766 0V22.04h-.901V.605h.901ZM222.965 17.123 225.742.605h.901V22.04h-.901V5.507l-2.777 16.533h-.896V.605h.896v16.518ZM232.08 19.729v2.311h-3.095V19.73h3.095ZM229.146.605V22.04h-.901V.605h.901Zm2.518 9.216v2.311h-2.679V9.821h2.679Zm.367-9.216v2.326h-3.046V.605h3.046ZM233.515.605h.872l1.866 17.475L238.114.605h.872l-2.395 21.435h-.686L233.515.605Zm-.284 0h.764l.132 13.073v8.362h-.896V.605Zm5.27 0h.764V22.04h-.896v-8.362l.132-13.073ZM247.753 9.468v3.724c0 1.512-.055 2.842-.166 3.99-.108 1.138-.266 2.09-.475 2.856-.209.765-.461 1.34-.755 1.722-.294.383-.625.574-.994.574-.356 0-.681-.19-.975-.574-.294-.382-.547-.957-.759-1.722-.212-.766-.377-1.718-.495-2.856-.114-1.148-.171-2.478-.171-3.99V9.468c0-1.512.057-2.837.171-3.975.115-1.149.278-2.106.49-2.871.213-.766.466-1.34.759-1.723.294-.392.619-.588.975-.588.369 0 .7.196.994.588.297.383.549.957.755 1.723.209.765.369 1.722.48 2.87.111 1.14.166 2.464.166 3.976Zm-.891 3.724V9.438a40.26 40.26 0 0 0-.098-3.033c-.066-.853-.162-1.55-.289-2.09-.128-.54-.284-.937-.47-1.193-.186-.265-.402-.397-.647-.397-.232 0-.441.132-.627.397-.183.256-.339.653-.47 1.193-.131.54-.232 1.237-.304 2.09a38.467 38.467 0 0 0-.103 3.033v3.754c0 1.188.035 2.208.103 3.062.072.844.173 1.541.304 2.09.134.54.294.943.48 1.208.186.255.393.383.622.383.245 0 .46-.128.647-.383.189-.265.346-.667.47-1.207.127-.55.222-1.247.284-2.09.065-.854.098-1.875.098-3.063ZM251.015 11.75h-.695V9.938h.666c.277 0 .501-.152.671-.457.17-.304.294-.726.372-1.266.078-.54.118-1.163.118-1.87 0-.677-.045-1.295-.133-1.854-.085-.57-.217-1.021-.396-1.355-.18-.343-.413-.515-.701-.515-.212 0-.405.157-.578.471-.173.304-.31.731-.411 1.28-.098.54-.147 1.164-.147 1.87h-.901c0-.912.052-1.732.156-2.458.108-.736.255-1.36.441-1.87.19-.52.407-.917.652-1.192.248-.275.511-.412.788-.412.323 0 .616.132.877.397.261.255.485.638.671 1.148.189.51.333 1.144.431 1.9.101.755.152 1.634.152 2.635 0 .736-.049 1.428-.147 2.075a8.388 8.388 0 0 1-.417 1.708c-.179.491-.393.879-.641 1.163-.248.275-.524.412-.828.412Zm-.695-1.252h.695c.333 0 .63.123.892.368.264.245.488.604.671 1.075.182.471.321 1.055.416 1.752.098.687.147 1.477.147 2.37 0 1.001-.056 1.89-.167 2.665-.107.775-.261 1.433-.46 1.972-.199.54-.434.948-.705 1.222-.271.275-.569.412-.892.412-.261 0-.517-.117-.769-.353-.251-.245-.48-.618-.686-1.119-.202-.51-.365-1.158-.489-1.943-.121-.785-.181-1.727-.181-2.827h.901c0 .717.05 1.375.152 1.973.104.599.248 1.08.431 1.443.182.353.396.53.641.53.281 0 .519-.167.715-.5.199-.344.35-.81.451-1.4.104-.598.157-1.27.157-2.016 0-.658-.028-1.227-.084-1.708-.052-.49-.132-.893-.24-1.207-.104-.314-.235-.545-.392-.692a.729.729 0 0 0-.538-.236h-.666V10.5ZM258.21 9.82v2.312h-3.09V9.821h3.09ZM255.242.606V22.04h-.901V.605h.901Zm3.766 0V22.04h-.901V.605h.901ZM262.961 2.504l-1.949 19.536h-.921L262.388.605h.578l-.005 1.9Zm1.577 19.536-1.949-19.536-.01-1.899h.583l2.297 21.435h-.921Zm0-7.935v2.326H261.1v-2.326h3.438ZM267.384.605V22.04h-.901V.605h.901Zm3.668 0-2.576 11.792h-1.45l-.152-2.355h1.058l2.004-9.437h1.116Zm-.93 21.435-2.146-10.01.505-2.489 2.738 12.5h-1.097ZM276.543 9.468v3.724c0 1.512-.056 2.842-.167 3.99-.108 1.138-.266 2.09-.475 2.856-.209.765-.46 1.34-.754 1.722-.294.383-.625.574-.994.574-.356 0-.681-.19-.975-.574-.294-.382-.547-.957-.759-1.722-.212-.766-.377-1.718-.495-2.856-.114-1.148-.171-2.478-.171-3.99V9.468c0-1.512.057-2.837.171-3.975.114-1.149.278-2.106.49-2.871.212-.766.465-1.34.759-1.723.294-.392.619-.588.975-.588.369 0 .7.196.994.588.297.383.549.957.754 1.723.209.765.369 1.722.48 2.87.111 1.14.167 2.464.167 3.976Zm-.892 3.724V9.438c0-1.178-.032-2.189-.098-3.033-.065-.853-.161-1.55-.289-2.09-.127-.54-.284-.937-.47-1.193-.186-.265-.401-.397-.646-.397-.232 0-.441.132-.627.397-.183.256-.34.653-.47 1.193-.131.54-.232 1.237-.304 2.09a37.989 37.989 0 0 0-.103 3.033v3.754c0 1.188.034 2.208.103 3.062.072.844.173 1.541.304 2.09.133.54.293.943.48 1.208.186.255.393.383.622.383.244 0 .46-.128.646-.383.189-.265.346-.667.47-1.207.128-.55.222-1.247.284-2.09.066-.854.098-1.875.098-3.063ZM278.223.605h.872l1.866 17.475L282.822.605h.872l-2.395 21.435h-.686L278.223.605Zm-.284 0h.764l.132 13.073v8.362h-.896V.605Zm5.27 0h.764V22.04h-.897v-8.362l.133-13.073ZM286.206 9.335h1.621c.441 0 .813.265 1.117.795.307.52.539 1.251.696 2.194.16.942.24 2.046.24 3.312 0 .942-.046 1.806-.138 2.591-.088.776-.22 1.453-.396 2.032-.173.569-.387 1.01-.642 1.325-.255.304-.547.456-.877.456h-2.331V.605h.901v19.124h1.43c.275 0 .495-.192.662-.574.169-.393.294-.903.372-1.532.078-.628.117-1.3.117-2.016 0-.717-.039-1.374-.117-1.973-.078-.599-.203-1.075-.372-1.428-.167-.363-.387-.545-.662-.545h-1.621V9.335ZM292.035.605V22.04h-.892V.605h.892Zm1.876 0v2.326h-4.639V.605h4.639ZM298.799 19.729v2.311h-3.096V19.73h3.096ZM295.865.605V22.04h-.901V.605h.901Zm2.517 9.216v2.311h-2.679V9.821h2.679Zm.368-9.216v2.326h-3.047V.605h3.047ZM303.52 15.224h.901c-.023 1.472-.122 2.743-.298 3.813-.173 1.06-.427 1.874-.76 2.444-.329.569-.742.853-1.239.853-.356 0-.677-.21-.965-.633-.287-.422-.533-1.025-.739-1.81-.203-.795-.358-1.747-.466-2.856a39.238 39.238 0 0 1-.161-3.74v-3.96c0-1.374.054-2.616.161-3.725.111-1.109.27-2.056.476-2.84.209-.796.462-1.404.759-1.826.3-.422.64-.633 1.019-.633.463 0 .855.28 1.175.839.323.55.571 1.359.744 2.429.177 1.06.275 2.36.294 3.901h-.901c-.023-1.129-.081-2.046-.176-2.753-.095-.716-.235-1.241-.421-1.575-.183-.344-.422-.515-.715-.515-.262 0-.489.157-.681.47-.19.315-.346.766-.47 1.355-.121.58-.213 1.28-.275 2.105a38.234 38.234 0 0 0-.088 2.739v3.99c0 .942.025 1.82.074 2.635.052.814.133 1.53.244 2.149.115.608.263 1.084.446 1.428.183.343.405.515.666.515.33 0 .591-.162.784-.486.193-.323.335-.839.426-1.545.095-.707.157-1.63.186-2.768ZM306.327 9.335h1.621c.441 0 .813.265 1.116.795.307.52.539 1.251.696 2.194.16.942.24 2.046.24 3.312 0 .942-.046 1.806-.137 2.591a11.492 11.492 0 0 1-.397 2.032c-.173.569-.387 1.01-.641 1.325-.255.304-.547.456-.877.456h-2.332V.605h.902v19.124h1.43c.274 0 .494-.192.661-.574.17-.393.294-.903.372-1.532.079-.628.118-1.3.118-2.016 0-.717-.039-1.374-.118-1.973-.078-.599-.202-1.075-.372-1.428-.167-.363-.387-.545-.661-.545h-1.621V9.335ZM3.996 43.671h.966c-.024 1.43-.131 2.665-.32 3.704-.186 1.03-.457 1.82-.814 2.373-.354.553-.796.83-1.329.83-.381 0-.726-.205-1.034-.615-.308-.41-.572-.996-.793-1.759-.217-.772-.383-1.697-.499-2.774A34.324 34.324 0 0 1 0 41.798v-3.846c0-1.335.058-2.54.173-3.618.12-1.077.29-1.997.51-2.76.224-.772.495-1.363.814-1.773.322-.41.686-.614 1.092-.614.497 0 .917.271 1.26.814.346.534.613 1.32.798 2.36.19 1.03.294 2.292.315 3.789h-.966c-.025-1.096-.088-1.987-.19-2.674-.1-.696-.251-1.206-.45-1.53-.197-.334-.452-.5-.767-.5-.28 0-.524.152-.73.457-.203.305-.371.744-.504 1.316a14.69 14.69 0 0 0-.294 2.044 33.768 33.768 0 0 0-.095 2.66v3.875c0 .915.026 1.768.079 2.56.056.79.143 1.487.262 2.087.123.591.282 1.054.478 1.387.196.334.434.5.714.5.354 0 .634-.157.84-.471.207-.315.36-.815.457-1.502.102-.686.168-1.582.2-2.688ZM9.746 45.516l2.977-16.044h.966v20.82h-.966V34.234L9.746 50.292h-.961v-20.82h.96v16.044ZM19.554 38.424v2.245h-3.313v-2.245h3.313Zm-3.182-8.952v20.82h-.966v-20.82h.966Zm4.038 0v20.82h-.966v-20.82h.966ZM25.902 43.671h.967c-.025 1.43-.132 2.665-.32 3.704-.186 1.03-.457 1.82-.814 2.373-.354.553-.797.83-1.329.83-.381 0-.726-.205-1.034-.615-.308-.41-.573-.996-.793-1.759-.217-.772-.384-1.697-.5-2.774a34.303 34.303 0 0 1-.172-3.632v-3.846c0-1.335.057-2.54.173-3.618.119-1.077.289-1.997.51-2.76.223-.772.494-1.363.813-1.773.322-.41.686-.614 1.092-.614.497 0 .917.271 1.26.814.347.534.613 1.32.799 2.36.189 1.03.294 2.292.315 3.789h-.966c-.025-1.096-.088-1.987-.19-2.674-.101-.696-.252-1.206-.451-1.53-.196-.334-.452-.5-.767-.5-.28 0-.523.152-.73.457-.203.305-.37.744-.504 1.316-.13.562-.227 1.244-.294 2.044a33.725 33.725 0 0 0-.094 2.66v3.875c0 .915.026 1.768.078 2.56.056.79.144 1.487.263 2.087.123.591.282 1.054.478 1.387.196.334.434.5.714.5.354 0 .634-.157.84-.471.207-.315.359-.815.457-1.502.102-.686.168-1.582.2-2.688ZM30.476 29.472v20.82h-.956v-20.82h.956Zm2.011 0v2.26h-4.973v-2.26h4.973ZM36.052 42.127h-1.67v-2.245h1.67c.315 0 .57-.171.762-.515.196-.343.338-.82.425-1.43.091-.61.137-1.306.137-2.087a14.1 14.1 0 0 0-.137-2.016c-.087-.63-.23-1.135-.425-1.516-.193-.39-.447-.586-.762-.586h-1.47v18.56h-.966v-20.82h2.436c.494 0 .91.272 1.25.816.34.543.597 1.296.772 2.259.178.953.268 2.045.268 3.274 0 1.335-.09 2.474-.268 3.418-.175.943-.432 1.663-.772 2.159-.34.486-.756.729-1.25.729ZM41.534 43.385l1.623-13.913h1.113l-2.2 17.345c-.07.486-.145.958-.226 1.416a9.043 9.043 0 0 1-.284 1.2c-.111.353-.252.635-.42.844a.776.776 0 0 1-.63.315c-.077 0-.166-.014-.267-.043-.098-.02-.161-.043-.19-.072l.022-2.201c.031.019.096.038.194.057.101.01.173.014.215.014.158 0 .278-.11.362-.329.088-.22.156-.496.205-.83.05-.342.096-.69.142-1.043l.341-2.76Zm-1.218-13.913 1.649 12.97L42.19 45l-.814.172-2.137-15.7h1.076ZM46.486 29.472v20.82h-.966v-20.82h.966Zm3.933 0-2.762 11.454h-1.554l-.163-2.288h1.134l2.148-9.166h1.197Zm-.998 20.82-2.3-9.724.541-2.416 2.935 12.14h-1.176ZM57.16 47.975l-.094 7.335h-.86v-5.018h-.636v-2.317h1.59Zm-5.612 2.317v-20.82h.966v18.575h2.988V29.472h.966v20.82h-4.92ZM59.387 45.516l2.977-16.044h.967v20.82h-.967V34.234l-2.977 16.058h-.96v-20.82h.96v16.044ZM69.159 48.047v2.245H65.84v-2.245h3.319Zm-3.145-18.575v20.82h-.966v-20.82h.966Zm2.699 8.952v2.245H65.84v-2.245h2.872Zm.394-8.952v2.26H65.84v-2.26h3.266ZM71.401 45.516l2.977-16.044h.966v20.82h-.966V34.234l-2.977 16.058h-.96v-20.82h.96v16.044Zm2.29-21.205h.787c0 .743-.063 1.406-.189 1.987-.126.572-.306 1.02-.54 1.344-.235.324-.513.486-.836.486-.486 0-.871-.352-1.155-1.058-.28-.715-.42-1.635-.42-2.76h.788c0 .563.06 1.059.178 1.488.12.429.322.643.61.643.28 0 .479-.214.598-.643.119-.43.178-.925.178-1.487ZM80.538 45.516l2.977-16.044h.966v20.82h-.966V34.234l-2.977 16.058h-.961v-20.82h.96v16.044ZM90.362 29.472v2.26h-2.856v-2.26h2.856Zm.85 0v20.82h-.966v-20.82h.967Zm-4.032 0h.96l-.136 10.196c-.017 1.468-.05 2.778-.1 3.932a47.454 47.454 0 0 1-.21 2.988c-.09.84-.21 1.535-.356 2.088-.147.543-.328.948-.541 1.215-.21.267-.46.4-.751.4h-.252v-2.244l.184-.043c.16-.038.299-.157.414-.358.12-.21.217-.524.294-.943.08-.42.146-.963.195-1.63.052-.668.093-1.483.12-2.446.028-.972.05-2.106.063-3.403l.116-9.752ZM93.927 45.516l2.977-16.044h.967v20.82h-.966V34.234l-2.978 16.058h-.96v-20.82h.96v16.044ZM107.023 29.472v20.82h-.966v-18.56h-2.988v18.56h-.966v-20.82h4.92ZM111.171 42.127h-1.67v-2.245h1.67c.315 0 .569-.171.761-.515.197-.343.338-.82.426-1.43.091-.61.136-1.306.136-2.087 0-.715-.045-1.387-.136-2.016-.088-.63-.229-1.135-.426-1.516-.192-.39-.446-.586-.761-.586h-1.47v18.56h-.966v-20.82h2.436c.494 0 .91.272 1.25.816.339.543.597 1.296.772 2.259.178.953.267 2.045.267 3.274 0 1.335-.089 2.474-.267 3.418-.175.943-.433 1.663-.772 2.159-.34.486-.756.729-1.25.729ZM119.672 38.08v3.618c0 1.468-.059 2.76-.178 3.875-.116 1.106-.286 2.03-.51 2.774-.224.743-.493 1.301-.808 1.673-.315.372-.671.558-1.066.558-.382 0-.73-.186-1.045-.558-.315-.372-.586-.93-.814-1.673-.228-.744-.404-1.668-.53-2.774-.123-1.115-.184-2.407-.184-3.875V38.08c0-1.468.061-2.755.184-3.86.122-1.116.297-2.045.525-2.789.227-.743.499-1.3.814-1.673.315-.38.663-.572 1.045-.572.395 0 .75.191 1.065.572.319.372.589.93.809 1.673.224.744.396 1.673.515 2.789.119 1.105.178 2.392.178 3.86Zm-.955 3.618v-3.646a35.31 35.31 0 0 0-.105-2.946c-.07-.83-.174-1.506-.31-2.03-.137-.525-.305-.91-.504-1.158-.2-.258-.431-.386-.693-.386-.249 0-.473.128-.673.386-.196.247-.364.633-.504 1.158-.14.524-.248 1.2-.325 2.03-.074.82-.11 1.802-.11 2.946v3.646c0 1.153.036 2.145.11 2.974.077.82.185 1.497.325 2.03.144.525.315.916.515 1.173.199.248.422.372.667.372.262 0 .493-.124.693-.372.203-.257.371-.648.504-1.172.137-.534.238-1.211.305-2.03.07-.83.105-1.822.105-2.975ZM122.182 29.472v20.82h-.966v-20.82h.966Zm3.933 0-2.762 11.454h-1.554l-.163-2.288h1.134l2.148-9.166h1.197Zm-.998 20.82-2.299-9.724.54-2.416 2.936 12.14h-1.177ZM132.001 38.08v3.618c0 1.468-.059 2.76-.178 3.875-.116 1.106-.286 2.03-.51 2.774-.224.743-.493 1.301-.808 1.673-.315.372-.671.558-1.066.558-.382 0-.73-.186-1.045-.558-.315-.372-.586-.93-.814-1.673-.227-.744-.404-1.668-.53-2.774-.123-1.115-.184-2.407-.184-3.875V38.08c0-1.468.061-2.755.184-3.86.122-1.116.297-2.045.525-2.789.227-.743.499-1.3.814-1.673.315-.38.663-.572 1.045-.572.395 0 .75.191 1.066.572.318.372.588.93.808 1.673.224.744.396 1.673.515 2.789.119 1.105.178 2.392.178 3.86Zm-.955 3.618v-3.646a35.31 35.31 0 0 0-.105-2.946c-.07-.83-.174-1.506-.31-2.03-.137-.525-.305-.91-.504-1.158-.2-.258-.431-.386-.693-.386-.249 0-.473.128-.673.386-.196.247-.364.633-.504 1.158-.14.524-.248 1.2-.325 2.03-.074.82-.11 1.802-.11 2.946v3.646c0 1.153.036 2.145.11 2.974.077.82.185 1.497.325 2.03.144.525.315.916.515 1.173.199.248.422.372.667.372.262 0 .493-.124.693-.372.203-.257.371-.648.504-1.172.137-.534.238-1.211.305-2.03.07-.83.105-1.822.105-2.975ZM137.646 38.424v2.245h-3.313v-2.245h3.313Zm-3.182-8.952v20.82h-.966v-20.82h.966Zm4.038 0v20.82h-.966v-20.82h.966ZM143.994 43.671h.966c-.024 1.43-.131 2.665-.32 3.704-.185 1.03-.457 1.82-.814 2.373-.353.553-.796.83-1.328.83-.382 0-.727-.205-1.035-.615-.308-.41-.572-.996-.793-1.759-.217-.772-.383-1.697-.498-2.774a34.183 34.183 0 0 1-.174-3.632v-3.846c0-1.335.058-2.54.174-3.618.119-1.077.288-1.997.509-2.76.224-.772.495-1.363.814-1.773.322-.41.686-.614 1.092-.614.497 0 .917.271 1.26.814.347.534.613 1.32.798 2.36.189 1.03.294 2.292.315 3.789h-.966c-.024-1.096-.087-1.987-.189-2.674-.101-.696-.252-1.206-.451-1.53-.196-.334-.452-.5-.767-.5-.28 0-.523.152-.73.457-.203.305-.371.744-.504 1.316a14.845 14.845 0 0 0-.294 2.044 33.757 33.757 0 0 0-.095 2.66v3.875c0 .915.027 1.768.079 2.56.056.79.144 1.487.263 2.087.122.591.282 1.054.478 1.387.196.334.434.5.714.5.353 0 .633-.157.84-.471.206-.315.359-.815.457-1.502.101-.686.168-1.582.199-2.688ZM148.221 43.385l1.623-13.913h1.113l-2.2 17.345c-.07.486-.146.958-.226 1.416a9.055 9.055 0 0 1-.284 1.2c-.112.353-.252.635-.42.844a.776.776 0 0 1-.63.315c-.077 0-.166-.014-.268-.043-.098-.02-.161-.043-.189-.072l.021-2.201c.032.019.097.038.195.057.101.01.173.014.215.014.157 0 .278-.11.362-.329.088-.22.156-.496.205-.83.049-.342.096-.69.142-1.043l.341-2.76Zm-1.218-13.913 1.649 12.97.226 2.559-.814.172-2.137-15.7h1.076ZM155.945 29.472v2.26h-2.856v-2.26h2.856Zm.851 0v20.82h-.966v-20.82h.966Zm-4.033 0h.961l-.136 10.196a131.825 131.825 0 0 1-.1 3.932 47.537 47.537 0 0 1-.21 2.988c-.091.84-.21 1.535-.357 2.088-.147.543-.328.948-.541 1.215-.21.267-.461.4-.751.4h-.252v-2.244l.184-.043c.161-.038.299-.157.415-.358.119-.21.217-.524.294-.943.08-.42.145-.963.194-1.63.052-.668.093-1.483.121-2.446.028-.972.049-2.106.063-3.403l.115-9.752ZM159.237 37.952h1.738c.473 0 .872.257 1.198.772.329.505.577 1.215.745 2.13.172.916.258 1.988.258 3.218 0 .915-.049 1.754-.147 2.516-.095.753-.237 1.411-.426 1.974-.185.552-.415.981-.688 1.286-.273.296-.586.444-.94.444h-2.499v-20.82h.966v18.575h1.533c.295 0 .531-.186.709-.558.182-.381.315-.877.399-1.487.084-.61.126-1.263.126-1.959 0-.696-.042-1.334-.126-1.916-.084-.582-.217-1.044-.399-1.387-.178-.353-.414-.53-.709-.53h-1.738v-2.258ZM165.486 29.472v20.82h-.956v-20.82h.956Zm2.011 0v2.26h-4.973v-2.26h4.973ZM169.634 45.516l2.977-16.044h.966v20.82h-.966V34.234l-2.977 16.058h-.961v-20.82h.961v16.044ZM177.731 42.127h-1.67v-2.245h1.67c.315 0 .569-.171.761-.515.196-.343.338-.82.426-1.43.091-.61.136-1.306.136-2.087 0-.715-.045-1.387-.136-2.016-.088-.63-.23-1.135-.426-1.516-.192-.39-.446-.586-.761-.586h-1.47v18.56h-.966v-20.82h2.436c.494 0 .91.272 1.25.816.339.543.596 1.296.772 2.259.178.953.267 2.045.267 3.274 0 1.335-.089 2.474-.267 3.418-.176.943-.433 1.663-.772 2.159-.34.486-.756.729-1.25.729ZM183.213 43.385l1.622-13.913h1.114l-2.201 17.345c-.07.486-.145.958-.225 1.416a9.055 9.055 0 0 1-.284 1.2c-.112.353-.252.635-.42.844a.776.776 0 0 1-.63.315c-.077 0-.166-.014-.268-.043-.098-.02-.161-.043-.189-.072l.021-2.201c.032.019.096.038.194.057.102.01.174.014.216.014.157 0 .278-.11.362-.329.088-.22.156-.496.205-.83.049-.342.096-.69.142-1.043l.341-2.76Zm-1.218-13.913 1.648 12.97.226 2.559-.814.172-2.137-15.7h1.077ZM188.159 45.516l2.977-16.044h.967v20.82h-.967V34.234l-2.977 16.058h-.961v-20.82h.961v16.044Zm2.29-21.205h.787c0 .743-.063 1.406-.189 1.987-.126.572-.306 1.02-.541 1.344-.234.324-.513.486-.835.486-.486 0-.871-.352-1.155-1.058-.28-.715-.42-1.635-.42-2.76h.788c0 .563.059 1.059.178 1.488.119.429.322.643.609.643.28 0 .48-.214.599-.643.119-.43.179-.925.179-1.487ZM196.277 29.472v20.82h-.956v-20.82h.956Zm2.011 0v2.26h-4.973v-2.26h4.973ZM203.528 48.047v2.245h-3.318v-2.245h3.318Zm-3.145-18.575v20.82h-.966v-20.82h.966Zm2.699 8.952v2.245h-2.872v-2.245h2.872Zm.394-8.952v2.26h-3.266v-2.26h3.266ZM208.59 43.671h.966c-.024 1.43-.131 2.665-.32 3.704-.185 1.03-.457 1.82-.814 2.373-.353.553-.796.83-1.328.83-.382 0-.727-.205-1.035-.615-.308-.41-.572-.996-.793-1.759-.217-.772-.383-1.697-.498-2.774a34.183 34.183 0 0 1-.174-3.632v-3.846c0-1.335.058-2.54.174-3.618.119-1.077.288-1.997.509-2.76.224-.772.495-1.363.814-1.773.322-.41.686-.614 1.092-.614.497 0 .917.271 1.26.814.347.534.613 1.32.798 2.36.189 1.03.294 2.292.315 3.789h-.966c-.024-1.096-.087-1.987-.189-2.674-.101-.696-.252-1.206-.451-1.53-.196-.334-.452-.5-.767-.5-.28 0-.523.152-.73.457-.203.305-.371.744-.504 1.316a14.845 14.845 0 0 0-.294 2.044 33.79 33.79 0 0 0-.094 2.66v3.875c0 .915.026 1.768.078 2.56.056.79.144 1.487.263 2.087.122.591.282 1.054.478 1.387.196.334.434.5.714.5.353 0 .633-.157.84-.471.206-.315.359-.815.457-1.502.101-.686.168-1.582.199-2.688ZM211.599 37.952h1.738c.473 0 .872.257 1.197.772.329.505.578 1.215.746 2.13.171.916.257 1.988.257 3.218 0 .915-.049 1.754-.147 2.516-.094.753-.236 1.411-.425 1.974-.186.552-.415.981-.688 1.286-.273.296-.586.444-.94.444h-2.499v-20.82h.966v18.575h1.533c.294 0 .53-.186.709-.558.182-.381.315-.877.399-1.487.084-.61.126-1.263.126-1.959 0-.696-.042-1.334-.126-1.916-.084-.582-.217-1.044-.399-1.387-.179-.353-.415-.53-.709-.53h-1.738v-2.258ZM223.093 43.671h.966c-.024 1.43-.131 2.665-.32 3.704-.186 1.03-.457 1.82-.814 2.373-.354.553-.796.83-1.328.83-.382 0-.727-.205-1.035-.615-.308-.41-.572-.996-.793-1.759-.217-.772-.383-1.697-.499-2.774a34.469 34.469 0 0 1-.173-3.632v-3.846c0-1.335.058-2.54.173-3.618.12-1.077.289-1.997.51-2.76.224-.772.495-1.363.814-1.773.322-.41.686-.614 1.092-.614.497 0 .917.271 1.26.814.347.534.613 1.32.798 2.36.189 1.03.294 2.292.315 3.789h-.966c-.024-1.096-.087-1.987-.189-2.674-.101-.696-.252-1.206-.452-1.53-.196-.334-.451-.5-.766-.5-.28 0-.523.152-.73.457-.203.305-.371.744-.504 1.316-.13.562-.228 1.244-.294 2.044a33.757 33.757 0 0 0-.095 2.66v3.875c0 .915.027 1.768.079 2.56.056.79.144 1.487.263 2.087.122.591.281 1.054.477 1.387.196.334.435.5.715.5.353 0 .633-.157.84-.471.206-.315.359-.815.457-1.502.101-.686.168-1.582.199-2.688ZM230.339 38.08v3.618c0 1.468-.059 2.76-.178 3.875-.116 1.106-.286 2.03-.51 2.774-.224.743-.493 1.301-.808 1.673-.315.372-.671.558-1.066.558-.382 0-.73-.186-1.045-.558-.315-.372-.586-.93-.814-1.673-.227-.744-.404-1.668-.53-2.774-.123-1.115-.184-2.407-.184-3.875V38.08c0-1.468.061-2.755.184-3.86.122-1.116.297-2.045.525-2.789.227-.743.499-1.3.814-1.673.315-.38.663-.572 1.045-.572.395 0 .751.191 1.066.572.318.372.588.93.808 1.673.224.744.396 1.673.515 2.789.119 1.105.178 2.392.178 3.86Zm-.955 3.618v-3.646a35.31 35.31 0 0 0-.105-2.946c-.07-.83-.174-1.506-.31-2.03-.137-.525-.305-.91-.504-1.158-.2-.258-.431-.386-.693-.386-.249 0-.473.128-.673.386-.196.247-.364.633-.504 1.158-.14.524-.248 1.2-.325 2.03-.074.82-.11 1.802-.11 2.946v3.646c0 1.153.036 2.145.11 2.974.077.82.185 1.497.325 2.03.144.525.315.916.515 1.173.2.248.422.372.667.372.262 0 .493-.124.693-.372.203-.257.371-.648.504-1.172.137-.534.238-1.211.305-2.03.07-.83.105-1.822.105-2.975ZM238.132 43.671h.966c-.025 1.43-.132 2.665-.321 3.704-.185 1.03-.456 1.82-.813 2.373-.354.553-.797.83-1.329.83-.382 0-.726-.205-1.034-.615-.308-.41-.573-.996-.793-1.759-.217-.772-.384-1.697-.499-2.774a34.202 34.202 0 0 1-.173-3.632v-3.846c0-1.335.057-2.54.173-3.618.119-1.077.289-1.997.509-2.76.224-.772.496-1.363.814-1.773.322-.41.686-.614 1.092-.614.497 0 .917.271 1.261.814.346.534.612 1.32.798 2.36.189 1.03.294 2.292.315 3.789h-.966c-.025-1.096-.088-1.987-.189-2.674-.102-.696-.252-1.206-.452-1.53-.196-.334-.452-.5-.767-.5-.28 0-.523.152-.73.457-.203.305-.371.744-.504 1.316a14.845 14.845 0 0 0-.294 2.044 33.79 33.79 0 0 0-.094 2.66v3.875c0 .915.026 1.768.079 2.56.056.79.143 1.487.262 2.087.123.591.282 1.054.478 1.387.196.334.434.5.714.5.354 0 .634-.157.84-.471.207-.315.359-.815.457-1.502.102-.686.168-1.582.2-2.688ZM245.372 29.472v20.82h-.966v-18.56h-2.987v18.56h-.967v-20.82h4.92ZM251.196 48.047v2.245h-3.319v-2.245h3.319Zm-3.146-18.575v20.82h-.966v-20.82h.966Zm2.699 8.952v2.245h-2.872v-2.245h2.872Zm.394-8.952v2.26h-3.266v-2.26h3.266ZM258.09 47.975l-.094 7.335h-.862v-5.018h-.635v-2.317h1.591Zm-5.613 2.317v-20.82h.966v18.575h2.988V29.472h.966v20.82h-4.92ZM260.316 45.516l2.978-16.044h.966v20.82h-.966V34.234l-2.978 16.058h-.961v-20.82h.961v16.044ZM268.55 31.317l-2.09 18.975h-.987l2.462-20.82h.62l-.005 1.845Zm1.691 18.975-2.09-18.975-.011-1.845h.625l2.463 20.82h-.987Zm0-7.708v2.26h-3.687v-2.26h3.687ZM276.442 29.472v2.26h-2.857v-2.26h2.857Zm.85 0v20.82h-.966v-20.82h.966Zm-4.032 0h.961l-.137 10.196a128.53 128.53 0 0 1-.1 3.932 47.537 47.537 0 0 1-.21 2.988c-.091.84-.21 1.535-.357 2.088-.147.543-.327.948-.541 1.215-.21.267-.46.4-.75.4h-.252v-2.244l.183-.043c.161-.038.3-.157.415-.358.119-.21.217-.524.294-.943.081-.42.145-.963.194-1.63.053-.668.093-1.483.121-2.446.028-.972.049-2.106.063-3.403l.116-9.752ZM280.007 45.516l2.977-16.044h.967v20.82h-.967V34.234l-2.977 16.058h-.961v-20.82h.961v16.044ZM289.495 43.671h.967c-.025 1.43-.132 2.665-.321 3.704-.185 1.03-.457 1.82-.814 2.373-.353.553-.796.83-1.328.83-.382 0-.726-.205-1.034-.615-.309-.41-.573-.996-.793-1.759-.217-.772-.384-1.697-.499-2.774a34.202 34.202 0 0 1-.173-3.632v-3.846c0-1.335.057-2.54.173-3.618.119-1.077.289-1.997.509-2.76.224-.772.495-1.363.814-1.773.322-.41.686-.614 1.092-.614.497 0 .917.271 1.26.814.347.534.613 1.32.798 2.36.19 1.03.295 2.292.316 3.789h-.967c-.024-1.096-.087-1.987-.189-2.674-.101-.696-.252-1.206-.451-1.53-.196-.334-.452-.5-.767-.5-.28 0-.523.152-.73.457-.203.305-.371.744-.504 1.316a14.845 14.845 0 0 0-.294 2.044 33.79 33.79 0 0 0-.094 2.66v3.875c0 .915.026 1.768.078 2.56.056.79.144 1.487.263 2.087.123.591.282 1.054.478 1.387.196.334.434.5.714.5.353 0 .634-.157.84-.471.207-.315.359-.815.457-1.502.101-.686.168-1.582.199-2.688ZM294.069 29.472v20.82h-.956v-20.82h.956Zm2.011 0v2.26h-4.973v-2.26h4.973ZM302.034 38.08v3.618c0 1.468-.059 2.76-.178 3.875-.116 1.106-.285 2.03-.509 2.774-.224.743-.494 1.301-.809 1.673-.315.372-.67.558-1.066.558-.382 0-.73-.186-1.045-.558-.315-.372-.586-.93-.814-1.673-.227-.744-.404-1.668-.53-2.774-.123-1.115-.184-2.407-.184-3.875V38.08c0-1.468.061-2.755.184-3.86.122-1.116.297-2.045.525-2.789.228-.743.499-1.3.814-1.673.315-.38.663-.572 1.045-.572.395 0 .751.191 1.066.572.318.372.588.93.808 1.673.224.744.396 1.673.515 2.789.119 1.105.178 2.392.178 3.86Zm-.955 3.618v-3.646a35.31 35.31 0 0 0-.105-2.946c-.07-.83-.173-1.506-.31-2.03-.137-.525-.305-.91-.504-1.158-.2-.258-.431-.386-.693-.386-.249 0-.473.128-.672.386-.196.247-.364.633-.504 1.158-.14.524-.249 1.2-.326 2.03-.073.82-.11 1.802-.11 2.946v3.646c0 1.153.037 2.145.11 2.974.077.82.186 1.497.326 2.03.143.525.315.916.514 1.173.2.248.422.372.667.372.263 0 .494-.124.693-.372.203-.257.371-.648.504-1.172.137-.534.238-1.211.305-2.03.07-.83.105-1.822.105-2.975ZM303.835 29.472h.935l2.001 16.973 1.995-16.973h.935l-2.568 20.82h-.735l-2.563-20.82Zm-.304 0h.819l.142 12.698v8.122h-.961v-20.82Zm5.65 0H310v20.82h-.961V42.17l.142-12.698Z"/>
</svg>
