<svg width="2145" height="145" viewBox="0 0 2145 145" fill="none" xmlns="http://www.w3.org/2000/svg">
<path d="M1.36256 79.8529C132.169 1.00082 312.714 -31.2118 453.894 42.5838C470.6 51.3176 487.404 61.3598 497.778 77.1655C508.936 94.1735 504.686 114.67 481.954 118.819C465.505 121.825 445.296 114.199 435.878 100.739C424.475 84.4378 437.139 65.6854 450.44 54.8064C480.288 30.3965 524.405 22.9827 562.373 21.9573C601.811 20.9083 641.286 27.0963 679.205 37.2091C757.774 58.1656 830.563 95.8472 910.749 111.783C991.315 127.801 1074.69 124.17 1153.91 103.426C1231.29 83.1649 1304.42 49.9622 1382.67 32.5416C1467.53 13.6478 1556.34 14.685 1642.96 16.123C1686.72 16.8537 1730.37 20.0715 1772.31 32.8835C1811.23 44.7761 1847.53 62.951 1884.41 79.5582C1921.82 96.413 1960.19 111.217 1999.32 123.935C2032.94 134.861 2068.66 146.801 2104.69 144.773C2118.87 143.972 2132.49 140.577 2144.57 133.258C2145.57 132.657 2144.64 131.124 2143.64 131.726C2108.99 152.706 2063.12 141.461 2026.84 130.653C1982.15 117.334 1938.29 101.352 1895.73 82.6581C1857.97 66.0626 1821.19 47.1216 1781.85 34.0621C1739.56 20.0243 1695.71 15.5454 1651.2 14.5082C1561.23 12.4102 1468.4 11.3612 1380.29 31.2451C1295.87 50.2922 1217.3 87.5141 1132.92 106.738C1042.01 127.447 946.868 123.569 857.876 96.5191C777.395 72.062 701.545 33.7203 616.974 23.0888C577.903 18.1738 537.265 18.4685 499.248 29.3593C472.952 36.8909 432.902 53.3449 429.754 84.0725C427.317 107.822 457.005 122.791 478.414 121.012C489.278 120.104 500.889 114.376 504.919 104.062C509.352 92.7474 502.959 80.4304 495.929 71.5434C475.401 45.6011 438.119 31.2805 407.059 20.9201C369.862 8.54422 330.571 2.03804 291.268 0.39971C209.232 -3.01839 127.013 15.6515 53.3422 50.0447C35.1665 58.531 17.5419 68.0074 0.431725 78.3206C-0.572595 78.9217 0.358238 80.454 1.36256 79.8529Z" fill="#BABFDE"/>
</svg>
