<svg width="1440" height="145" viewBox="0 0 1440 145" fill="none" xmlns="http://www.w3.org/2000/svg">
<path d="M-258.637 79.8529C-127.831 1.00082 52.7139 -31.2118 193.894 42.5838C210.6 51.3176 227.404 61.3598 237.778 77.1655C248.936 94.1735 244.686 114.67 221.954 118.819C205.505 121.825 185.296 114.199 175.878 100.739C164.475 84.4379 177.139 65.6854 190.44 54.8064C220.288 30.3965 264.405 22.9827 302.373 21.9573C341.811 20.9083 381.286 27.0963 419.205 37.2091C497.774 58.1656 570.563 95.8472 650.749 111.783C731.315 127.801 814.686 124.17 893.905 103.426C971.287 83.1649 1044.42 49.9622 1122.67 32.5416C1207.53 13.6478 1296.34 14.685 1382.96 16.123C1426.72 16.8537 1470.37 20.0715 1512.31 32.8835C1551.23 44.7761 1587.53 62.951 1624.41 79.5582C1661.82 96.413 1700.19 111.217 1739.32 123.935C1772.94 134.861 1808.66 146.801 1844.69 144.773C1858.87 143.972 1872.49 140.577 1884.57 133.258C1885.57 132.657 1884.64 131.124 1883.64 131.726C1848.99 152.706 1803.12 141.461 1766.84 130.653C1722.15 117.334 1678.29 101.352 1635.73 82.6581C1597.97 66.0626 1561.19 47.1216 1521.85 34.0621C1479.56 20.0243 1435.71 15.5454 1391.2 14.5082C1301.23 12.4102 1208.4 11.3612 1120.29 31.2451C1035.87 50.2922 957.3 87.5141 872.925 106.738C782.009 127.447 686.868 123.569 597.876 96.5191C517.395 72.062 441.545 33.7203 356.974 23.0888C317.903 18.1738 277.265 18.4685 239.248 29.3593C212.952 36.8909 172.902 53.3449 169.754 84.0725C167.317 107.822 197.005 122.791 218.414 121.012C229.278 120.104 240.889 114.376 244.919 104.062C249.352 92.7474 242.959 80.4304 235.929 71.5434C215.401 45.6011 178.119 31.2805 147.059 20.9201C109.862 8.54422 70.5712 2.03804 31.268 0.39971C-50.7678 -3.01839 -132.987 15.6515 -206.658 50.0447C-224.834 58.531 -242.458 68.0074 -259.568 78.3206C-260.573 78.9217 -259.642 80.454 -258.637 79.8529Z" fill="#BABFDE"/>
</svg>
