<svg width="21" height="32" viewBox="0 0 21 32" fill="none" xmlns="http://www.w3.org/2000/svg">
<g clip-path="url(#clip0_1_888)">
<path d="M6.78484 26.4121C6.78484 26.4121 6.318 30.3448 4.67963 31.5122H11.0022L6.78484 26.4121Z" fill="url(#paint0_linear_1_888)"/>
<path d="M9.09351 15.2394V23.7884L14.7448 31.4463L18.5955 31.2688C18.5955 31.2688 21.0044 28.4754 20.2014 25.7024C19.3985 22.9293 17.0898 22.5667 17.0898 22.5667L15.8849 23.2823L15.4406 23.9532L14.045 23.2823L14.2347 21.6097L15.7178 20.1902C15.7178 20.1902 15.3748 16.8693 13.2754 16.0937C11.1761 15.318 10.5697 15.7669 10.5697 15.7669L9.09351 15.2385V15.2394Z" fill="url(#paint1_linear_1_888)"/>
<path d="M9.51023 15.9589C9.51023 18.1473 9.54463 20.2911 9.49844 22.4329C9.46699 23.8456 10.0773 24.9393 10.957 25.9768C12.0577 27.2751 13.1035 28.619 14.1747 29.9434C14.3939 30.2149 14.6082 30.4903 14.8421 30.7501C15.0927 31.0294 14.9571 31.3048 14.7458 31.4473C14.5679 31.5665 14.2927 31.6063 14.0715 31.328C13.2637 30.3138 12.383 29.3549 11.6056 28.3194C10.7604 27.1937 9.66356 26.2425 9.06698 24.9461C8.70235 24.154 8.49989 23.3298 8.53036 22.4135C8.59915 20.3667 8.54903 18.315 8.51758 16.2663C8.50775 15.6225 7.99275 15.0194 7.48561 14.937C6.48509 14.7741 5.99171 14.9951 5.6487 15.7446C5.54649 15.9677 5.58777 16.1984 5.58678 16.4224C5.5799 18.0368 5.59366 19.6521 5.58777 21.2665C5.58089 23.3754 6.36813 25.1827 7.68217 26.8087C8.1215 27.3527 8.6424 27.8123 9.12202 28.3126C9.8385 29.0592 10.5599 29.7999 11.2803 30.5426C11.4828 30.7511 11.6076 30.9955 11.4916 31.2747C11.413 31.4647 11.2243 31.5239 11.0022 31.5122C10.8203 31.5035 10.7496 31.3755 10.6533 31.2776C9.54856 30.1616 8.4478 29.0417 7.34998 27.9189C7.13572 27.6998 7.09051 27.6154 6.98043 28.0256C6.65807 29.2288 6.12734 30.3468 5.24083 31.2679C5.01969 31.4977 4.76416 31.6577 4.49388 31.392C4.23834 31.1409 4.30026 30.8665 4.53811 30.596C5.36172 29.6574 5.89048 28.5879 6.14012 27.3546C6.2787 26.6681 6.05559 26.1562 5.73421 25.6045C5.18677 24.6649 4.86932 23.6575 4.72877 22.5667C4.44277 20.3512 4.68651 18.1347 4.60199 15.9211C4.59708 15.8038 4.62361 15.6816 4.65998 15.6176C4.99709 15.03 4.9047 14.3901 4.95188 13.7608C5.02461 12.799 4.99119 11.8246 5.23002 10.8773C5.25164 10.7919 5.24181 10.6649 5.1907 10.6038C5.12879 10.5311 5.02067 10.5864 4.92632 10.6242C2.84764 11.459 0.893778 10.2247 0.53996 8.25741C0.330617 7.09195 0.911469 5.37673 2.52036 4.94526C2.54984 4.9375 2.57343 4.89484 2.60095 4.89387C3.52972 4.8609 3.54643 4.09492 3.75479 3.49086C4.2236 2.13052 5.10422 1.2443 6.55585 0.871978C8.07236 0.4822 9.61048 0.589825 11.1054 0.737204C13.1536 0.937911 14.6131 2.57653 14.673 4.66698C14.6878 5.19445 14.6377 5.68991 14.5001 6.20477C14.3546 6.74871 14.5217 7.2975 14.8313 7.7823C14.9669 7.99465 15.1418 8.18566 15.2539 8.40866C15.3915 8.68209 15.5507 9.07381 15.132 9.25027C14.8804 9.35693 14.7969 9.45583 14.4322 9.63327C14.3349 9.68078 14.3811 9.82525 14.3713 9.92996C14.2602 11.2195 13.7138 12.2657 12.6297 13.0259C12.2022 13.3255 11.7304 13.341 11.2597 13.2479C11.0995 13.2159 10.9481 13.2179 10.7358 13.1898C11.0366 13.725 11.4955 14.0672 11.8739 14.4793C12.5934 15.2618 13.6342 15.6196 14.3654 16.4069C15.2883 17.3997 15.8387 18.5439 16.1276 19.8305C16.1807 20.0652 16.28 20.1767 16.4785 20.2853C17.1458 20.6489 17.5026 21.2122 17.5124 21.9743C17.5144 22.1488 17.5065 22.2914 17.7139 22.4077C19.3198 23.3065 20.3253 24.601 20.5749 26.4645C20.8236 28.3213 20.3646 29.9211 19.0653 31.2815C18.8491 31.5084 18.6142 31.7556 18.2692 31.4308C17.9252 31.107 18.1375 30.8442 18.3724 30.6202C19.1036 29.924 19.5272 29.0301 19.6471 28.0944C19.8987 26.1349 19.2815 24.4109 17.308 23.2658C17.0859 23.1369 16.9827 23.229 16.8736 23.3715C15.9212 24.6097 14.8342 24.407 13.931 23.6275C13.2794 23.0651 13.1261 22.081 13.7895 21.186C14.1 20.7672 14.3988 20.3221 14.9718 20.2067C15.2028 20.1602 15.1792 19.9886 15.1399 19.8354C14.8155 18.5507 14.2032 17.4443 13.1025 16.6386C12.9973 16.562 12.9157 16.4806 12.7663 16.4844C11.6577 16.5135 10.5727 16.3797 9.50729 15.9599L9.51023 15.9589ZM5.90424 14.0876C6.80451 13.7996 7.65662 13.7715 8.38981 14.2776C9.1633 14.8109 10.0036 15.1231 10.896 15.3587C11.0238 15.3927 11.1093 15.4315 11.1761 15.317C11.2449 15.1988 11.1073 15.159 11.0493 15.1047C10.4999 14.585 10.038 13.9965 9.66061 13.3488C9.46502 13.0133 9.2773 12.736 8.83208 12.6962C8.5107 12.6671 8.43797 12.3666 8.49202 12.1154C8.54903 11.8498 8.77705 11.6869 9.06796 11.7499C9.82277 11.9118 10.5756 12.0834 11.3226 12.2774C11.6096 12.352 11.8779 12.3462 12.101 12.1785C12.843 11.619 13.3384 10.8967 13.3796 9.95323C13.4032 9.42286 13.6342 9.04763 14.0548 8.7616C14.0735 8.74899 14.1777 8.77808 14.2131 8.72766C14.2819 8.6307 14.1688 8.59871 14.1266 8.54441C13.4425 7.66304 13.4848 6.62945 13.6135 5.6327C13.6971 4.98598 13.6617 4.37126 13.5615 3.74781C13.53 3.55001 13.4042 3.38905 13.186 3.64794C12.555 4.39841 11.7157 4.72225 10.7506 4.75328C10.5737 4.7591 10.5176 4.84927 10.4872 4.96659C10.3132 5.63367 9.91713 6.17277 9.51122 6.71768C8.951 7.47106 8.51168 7.53796 7.85908 7.17727C7.53377 6.99693 7.34211 7.14625 7.19862 7.40222C7.0109 7.7377 7.04628 8.07415 7.28708 8.37473C7.5436 8.6947 7.84631 8.92837 8.29644 8.93709C8.62274 8.94388 8.86353 9.15913 8.85764 9.46746C8.85076 9.8107 8.55984 9.89409 8.23747 9.90281C7.88758 9.91251 7.59077 9.78258 7.28413 9.65266C7.16815 9.60321 7.06594 9.4345 6.90279 9.55667C6.53521 9.833 6.06837 10.0356 6.20695 10.6465C6.25019 10.8365 6.21579 11.0518 6.17058 11.2632C5.97402 12.1814 5.99564 13.119 5.90325 14.0886L5.90424 14.0876ZM6.12341 7.80557C6.02119 6.72447 7.17012 5.66082 8.3505 6.34148C8.53232 6.4462 8.59031 6.35699 8.66304 6.26197C9.07484 5.72288 9.45323 5.14984 9.63899 4.50409C9.79722 3.95336 10.1039 3.77302 10.6454 3.78465C11.3442 3.80016 11.9545 3.56843 12.4341 3.04C12.8076 2.62889 12.7919 2.41558 12.3074 2.14991C11.7324 1.83479 11.1299 1.61663 10.4498 1.63311C9.46896 1.65638 8.48121 1.70389 7.50821 1.61566C7.03056 1.57203 6.6846 1.78728 6.31801 1.92787C5.6546 2.18384 5.17694 2.69967 4.83885 3.33088C4.43196 4.09201 4.35333 4.95205 4.39265 5.75293C4.44965 6.9087 5.13665 7.8812 5.7804 8.82947C5.85116 8.93419 5.94846 9.07284 6.12537 8.93128C6.23545 8.84304 6.33668 8.81977 6.26199 8.60937C6.17058 8.35146 6.06149 8.07027 6.12341 7.80557ZM3.6172 9.89409C4.01819 9.92899 4.41427 9.86791 4.78283 9.62357C4.99414 9.48298 5.01183 9.38602 4.86342 9.18434C4.17544 8.25256 3.64373 7.23448 3.49238 6.08745C3.42554 5.58422 3.14839 5.67925 2.91251 5.76263C1.78913 6.15629 1.37045 7.19957 1.51984 8.12942C1.66923 9.05732 2.57933 10.0327 3.61818 9.89409H3.6172ZM14.3644 22.2206C14.2907 22.6356 14.4902 22.9371 14.7969 23.132C15.1428 23.3511 15.536 23.3308 15.8682 23.068C16.1483 22.8469 16.2721 22.5124 16.4352 22.207C16.6102 21.8783 16.5365 21.601 16.2967 21.3431C16.0323 21.059 15.7011 20.9204 15.3473 21.1017C14.8794 21.3421 14.389 21.6 14.3634 22.2206H14.3644Z" fill="#0C67BD"/>
<path d="M6.12339 7.80651C6.06147 8.07121 6.17057 8.35239 6.26197 8.6103C6.33666 8.82071 6.23543 8.84398 6.12536 8.93221C5.94845 9.07377 5.85213 8.93512 5.78038 8.8304C5.13565 7.88311 4.44865 6.90963 4.39263 5.75387C4.35332 4.95395 4.43194 4.09392 4.83883 3.33181C5.17594 2.7006 5.6536 2.18478 6.31799 1.9288C6.68459 1.78724 7.03054 1.57296 7.5082 1.61659C8.4812 1.70483 9.46894 1.65732 10.4498 1.63405C11.1309 1.61853 11.7324 1.83669 12.3073 2.15084C12.7919 2.41651 12.8076 2.62982 12.4341 3.04093C11.9545 3.56936 11.3442 3.8011 10.6454 3.78559C10.1038 3.77298 9.7972 3.9543 9.63897 4.50503C9.45321 5.15175 9.07384 5.72381 8.66302 6.26291C8.59127 6.35696 8.5323 6.44713 8.35048 6.34242C7.1701 5.66176 6.02019 6.72541 6.12339 7.80651Z" fill="url(#paint2_linear_1_888)"/>
<path d="M3.61718 9.89407C2.57833 10.0327 1.66824 9.05731 1.51885 8.1294C1.36946 7.19956 1.78814 6.15627 2.91151 5.76262C3.14838 5.67923 3.42553 5.58421 3.49138 6.08743C3.64274 7.23447 4.17445 8.25254 4.86243 9.18433C5.01182 9.386 4.99314 9.48296 4.78184 9.62356C4.41328 9.86886 4.01818 9.92898 3.6162 9.89407H3.61718Z" fill="url(#paint3_linear_1_888)"/>
</g>
<defs>
<linearGradient id="paint0_linear_1_888" x1="7.84089" y1="26.4121" x2="7.84089" y2="31.5122" gradientUnits="userSpaceOnUse">
<stop stop-color="#0EB4E5"/>
<stop offset="1" stop-color="#10E3FD"/>
</linearGradient>
<linearGradient id="paint1_linear_1_888" x1="14.7294" y1="15.2385" x2="14.7294" y2="31.4463" gradientUnits="userSpaceOnUse">
<stop stop-color="#0EB4E5"/>
<stop offset="1" stop-color="#10E3FD"/>
</linearGradient>
<linearGradient id="paint2_linear_1_888" x1="8.53916" y1="1.61084" x2="8.53916" y2="8.99245" gradientUnits="userSpaceOnUse">
<stop stop-color="#0EB4E5"/>
<stop offset="1" stop-color="#10E3FD"/>
</linearGradient>
<linearGradient id="paint3_linear_1_888" x1="3.22482" y1="5.69592" x2="3.22482" y2="9.90731" gradientUnits="userSpaceOnUse">
<stop stop-color="#0EB4E5"/>
<stop offset="1" stop-color="#10E3FD"/>
</linearGradient>
<clipPath id="clip0_1_888">
<rect width="20.1408" height="31.3732" fill="white" transform="translate(0.498901 0.603027)"/>
</clipPath>
</defs>
</svg>
