<svg xmlns="http://www.w3.org/2000/svg" width="1408" height="63" fill="none">
  <path fill="#6D6D6D" d="m2.095 42.63 6.49-31.983h2.106V52.15H8.585V20.14l-6.49 32.012H0V10.647h2.095V42.63ZM15.098 10.647h2.037l4.361 33.836 4.35-33.836h2.037L22.286 52.15h-1.603l-5.585-41.504Zm-.664 0h1.785l.31 25.313V52.15h-2.095V10.647Zm12.316 0h1.786V52.15H26.44V35.96l.309-25.313ZM41.115 47.676v4.475h-7.234v-4.475h7.234Zm-6.856-37.03v41.505h-2.106V10.647h2.106Zm5.883 17.845v4.476h-6.26V28.49h6.26Zm.859-17.844v4.504h-7.12v-4.504h7.12ZM46.003 10.647V52.15h-2.106V10.647h2.106Zm3.182 19.013v4.333H45.83V29.66h3.354Zm9.9-1.853v7.212c0 2.927-.129 5.502-.388 7.725-.252 2.205-.622 4.048-1.11 5.53-.489 1.483-1.077 2.594-1.763 3.335-.687.742-1.462 1.112-2.324 1.112-.832 0-1.591-.37-2.278-1.111-.687-.742-1.278-1.853-1.774-3.336-.496-1.482-.881-3.325-1.156-5.53-.267-2.223-.4-4.798-.4-7.725v-7.212c0-2.926.133-5.492.4-7.696.267-2.224.649-4.077 1.145-5.559.496-1.482 1.087-2.594 1.774-3.335.687-.76 1.446-1.14 2.278-1.14.862 0 1.637.38 2.323 1.14.695.741 1.282 1.853 1.763 3.335.488 1.482.862 3.335 1.122 5.559.26 2.204.389 4.77.389 7.696Zm-2.082 7.212V27.75c0-2.28-.077-4.238-.23-5.872-.152-1.653-.377-3.003-.675-4.048-.297-1.045-.663-1.815-1.098-2.309-.435-.513-.939-.77-1.511-.77-.542 0-1.03.257-1.465.77-.428.494-.794 1.264-1.1 2.31-.305 1.044-.541 2.394-.709 4.047-.16 1.634-.24 3.592-.24 5.872v7.27c0 2.299.08 4.275.24 5.928.168 1.635.404 2.984.71 4.048.313 1.045.686 1.825 1.121 2.338.435.494.92.74 1.454.74.572 0 1.076-.246 1.511-.74.443-.513.809-1.293 1.099-2.338.297-1.064.519-2.413.664-4.048.152-1.653.229-3.63.229-5.929ZM66.766 10.647V52.15h-2.083V10.647h2.083Zm4.384 0v4.504H60.31v-4.504h10.84ZM81.635 38.953h2.106c-.053 2.85-.286 5.312-.698 7.383-.404 2.052-.996 3.63-1.774 4.732-.77 1.102-1.736 1.653-2.896 1.653-.832 0-1.584-.408-2.255-1.225-.671-.818-1.248-1.986-1.728-3.507-.474-1.539-.836-3.382-1.088-5.53-.252-2.147-.378-4.56-.378-7.24V27.55c0-2.66.126-5.065.378-7.212.26-2.148.63-3.982 1.11-5.502.489-1.54 1.08-2.717 1.775-3.535.702-.817 1.495-1.225 2.38-1.225 1.084 0 2 .541 2.748 1.624.755 1.065 1.335 2.633 1.74 4.704.411 2.052.64 4.57.686 7.554h-2.106c-.053-2.186-.19-3.962-.412-5.33-.221-1.388-.55-2.405-.984-3.05-.428-.666-.985-.998-1.672-.998-.61 0-1.14.304-1.59.912-.443.608-.81 1.482-1.1 2.622-.282 1.122-.495 2.48-.64 4.077a61.617 61.617 0 0 0-.206 5.302v7.725c0 1.824.057 3.525.171 5.102.122 1.578.313 2.965.573 4.162.267 1.178.614 2.1 1.041 2.765.428.665.947.998 1.557.998.77 0 1.381-.314 1.831-.94.45-.628.783-1.626.996-2.994.221-1.368.367-3.155.435-5.359ZM94.318 35.988H90.7l-1.065-1.111c-1.038-.95-1.835-2.404-2.392-4.362-.55-1.976-.824-4.428-.824-7.354 0-2.68.202-4.95.606-6.813.405-1.862.98-3.278 1.729-4.247.755-.97 1.644-1.454 2.667-1.454h4.555V52.15h-2.106v-37h-2.45c-.968 0-1.693.722-2.174 2.166-.48 1.444-.721 3.392-.721 5.844 0 1.596.107 3.021.32 4.276.222 1.254.55 2.242.985 2.964.435.722.98 1.084 1.636 1.084h2.862l-.011 4.503Zm-2.816-2.85L88.114 52.15H85.87l3.503-19.013h2.129ZM115.986 10.647V52.15h-2.107v-37h-6.513v37h-2.106V10.647h10.726ZM125.028 35.874h-3.64V31.4h3.64c.687 0 1.24-.342 1.66-1.026.427-.684.736-1.635.927-2.85.198-1.217.298-2.604.298-4.163 0-1.425-.1-2.765-.298-4.019-.191-1.254-.5-2.261-.927-3.022-.42-.779-.973-1.168-1.66-1.168h-3.205v37h-2.106V10.647h5.311c1.076 0 1.984.541 2.724 1.625.741 1.083 1.301 2.584 1.683 4.504.389 1.9.584 4.076.584 6.527 0 2.66-.195 4.932-.584 6.813-.382 1.882-.942 3.316-1.683 4.305-.74.969-1.648 1.453-2.724 1.453ZM143.56 27.807v7.212c0 2.927-.13 5.502-.389 7.725-.252 2.205-.622 4.048-1.111 5.53-.488 1.483-1.076 2.594-1.762 3.335-.687.742-1.462 1.112-2.324 1.112-.832 0-1.591-.37-2.278-1.111-.687-.742-1.278-1.853-1.774-3.336-.496-1.482-.881-3.325-1.156-5.53-.267-2.223-.401-4.798-.401-7.725v-7.212c0-2.926.134-5.492.401-7.696.267-2.224.648-4.077 1.144-5.559.496-1.482 1.088-2.594 1.775-3.335.686-.76 1.446-1.14 2.277-1.14.863 0 1.637.38 2.324 1.14.694.741 1.282 1.853 1.763 3.335.488 1.482.862 3.335 1.122 5.559.259 2.204.389 4.77.389 7.696Zm-2.084 7.212V27.75c0-2.28-.076-4.238-.228-5.872-.153-1.653-.378-3.003-.676-4.048-.297-1.045-.664-1.815-1.099-2.309-.435-.513-.938-.77-1.511-.77-.541 0-1.03.257-1.465.77-.427.494-.793 1.264-1.099 2.31-.305 1.044-.541 2.394-.709 4.047-.16 1.634-.241 3.592-.241 5.872v7.27c0 2.299.081 4.275.241 5.928.168 1.635.404 2.984.709 4.048.313 1.045.687 1.825 1.122 2.338.435.494.92.74 1.454.74.572 0 1.076-.246 1.511-.74.442-.513.809-1.293 1.099-2.338.297-1.064.519-2.413.664-4.048.152-1.653.228-3.63.228-5.929ZM151.858 10.647V52.15h-2.083V10.647h2.083Zm4.384 0v4.504h-10.839v-4.504h10.839ZM160.901 42.63l6.49-31.983h2.106V52.15h-2.106V20.14l-6.49 32.012h-2.095V10.647h2.095V42.63ZM178.288 32.739H174.9l-.023-4.419h3.148c.473 0 .892-.266 1.259-.798.366-.532.652-1.292.858-2.28.214-1.008.321-2.205.321-3.592 0-1.52-.092-2.756-.275-3.706-.176-.969-.446-1.672-.813-2.11-.358-.455-.816-.683-1.373-.683h-2.656v37h-2.106V10.647h4.762a3.06 3.06 0 0 1 1.923.655c.564.418 1.041 1.084 1.43 1.996.397.893.699 2.033.905 3.42.206 1.388.309 3.05.309 4.989 0 1.71-.157 3.26-.47 4.646-.305 1.369-.732 2.49-1.282 3.364-.549.874-1.182 1.435-1.9 1.682l-.629 1.34Zm-.08 19.412h-4.178l1.225-4.475h2.953c.549 0 1.015-.304 1.396-.912.382-.609.672-1.464.87-2.566.206-1.121.309-2.442.309-3.962 0-1.54-.084-2.87-.252-3.991-.168-1.121-.435-1.986-.801-2.594-.366-.608-.847-.912-1.442-.912h-2.713l.023-4.419h3.663l.469 1.597c.687.17 1.263.74 1.728 1.71.474.95.828 2.166 1.065 3.649.244 1.482.366 3.116.366 4.903 0 2.584-.194 4.77-.584 6.556-.381 1.767-.923 3.117-1.625 4.048-.702.912-1.526 1.368-2.472 1.368ZM196.877 27.807v7.212c0 2.927-.13 5.502-.39 7.725-.251 2.205-.621 4.048-1.11 5.53-.488 1.483-1.076 2.594-1.763 3.335-.686.742-1.461 1.112-2.323 1.112-.832 0-1.591-.37-2.278-1.111-.687-.742-1.278-1.853-1.774-3.336-.496-1.482-.882-3.325-1.156-5.53-.267-2.223-.401-4.798-.401-7.725v-7.212c0-2.926.134-5.492.401-7.696.267-2.224.648-4.077 1.144-5.559.496-1.482 1.088-2.594 1.775-3.335.686-.76 1.446-1.14 2.277-1.14.863 0 1.637.38 2.324 1.14.694.741 1.282 1.853 1.763 3.335.488 1.482.862 3.335 1.121 5.559.26 2.204.39 4.77.39 7.696Zm-2.084 7.212V27.75c0-2.28-.076-4.238-.229-5.872-.152-1.653-.377-3.003-.675-4.048-.297-1.045-.664-1.815-1.099-2.309-.435-.513-.938-.77-1.511-.77-.541 0-1.03.257-1.465.77-.427.494-.793 1.264-1.099 2.31-.305 1.044-.541 2.394-.709 4.047-.16 1.634-.241 3.592-.241 5.872v7.27c0 2.299.081 4.275.241 5.928.168 1.635.404 2.984.709 4.048.313 1.045.687 1.825 1.122 2.338.435.494.92.74 1.454.74.572 0 1.076-.246 1.511-.74.442-.513.809-1.293 1.099-2.338.297-1.064.519-2.413.663-4.048.153-1.653.229-3.63.229-5.929ZM210.967 10.647V52.15h-2.106v-37h-6.513v37h-2.106V10.647h10.725ZM225.538 27.807v7.212c0 2.927-.13 5.502-.389 7.725-.252 2.205-.622 4.048-1.11 5.53-.489 1.483-1.076 2.594-1.763 3.335-.687.742-1.461 1.112-2.324 1.112-.831 0-1.591-.37-2.277-1.111-.687-.742-1.279-1.853-1.775-3.336-.496-1.482-.881-3.325-1.156-5.53-.267-2.223-.4-4.798-.4-7.725v-7.212c0-2.926.133-5.492.4-7.696.267-2.224.649-4.077 1.145-5.559.496-1.482 1.087-2.594 1.774-3.335.687-.76 1.446-1.14 2.278-1.14.862 0 1.637.38 2.324 1.14.694.741 1.282 1.853 1.762 3.335.489 1.482.863 3.335 1.122 5.559.259 2.204.389 4.77.389 7.696Zm-2.083 7.212V27.75c0-2.28-.076-4.238-.229-5.872-.153-1.653-.378-3.003-.675-4.048-.298-1.045-.664-1.815-1.099-2.309-.435-.513-.939-.77-1.511-.77-.542 0-1.03.257-1.465.77-.427.494-.794 1.264-1.099 2.31-.305 1.044-.542 2.394-.71 4.047-.16 1.634-.24 3.592-.24 5.872v7.27c0 2.299.08 4.275.24 5.928.168 1.635.405 2.984.71 4.048.313 1.045.687 1.825 1.122 2.338.435.494.919.74 1.453.74.573 0 1.076-.246 1.511-.74.443-.513.809-1.293 1.099-2.338.298-1.064.519-2.413.664-4.048.153-1.653.229-3.63.229-5.929ZM231.01 10.647V52.15h-2.107V10.647h2.107Zm8.573 0-6.021 22.833h-3.388l-.355-4.561h2.473l4.681-18.272h2.61Zm-2.175 41.504-5.013-19.384 1.179-4.817 6.398 24.201h-2.564ZM247.343 14.324l-4.555 37.827h-2.152l5.368-41.504h1.351l-.012 3.677Zm3.686 37.827-4.555-37.827-.023-3.677h1.362l5.368 41.504h-2.152Zm0-15.365v4.505h-8.035v-4.505h8.035ZM259.831 32.226h-1.625v-3.507h1.557c.648 0 1.171-.294 1.568-.883.397-.59.687-1.406.87-2.452.183-1.045.274-2.252.274-3.62 0-1.311-.103-2.508-.309-3.592-.198-1.102-.507-1.976-.927-2.622-.419-.665-.965-.998-1.637-.998-.496 0-.946.304-1.35.912-.405.59-.725 1.416-.962 2.48-.229 1.046-.343 2.252-.343 3.62h-2.106c0-1.767.122-3.354.366-4.76.252-1.425.595-2.632 1.03-3.62.443-1.007.95-1.777 1.523-2.31.58-.531 1.194-.797 1.842-.797.756 0 1.439.256 2.049.77.611.493 1.134 1.235 1.568 2.223.443.988.779 2.214 1.008 3.677.236 1.463.355 3.164.355 5.102 0 1.426-.115 2.766-.344 4.02-.221 1.254-.545 2.356-.973 3.306-.419.95-.919 1.701-1.499 2.252-.58.533-1.225.799-1.935.799Zm-1.625-2.423h1.625c.779 0 1.473.237 2.084.712.618.475 1.14 1.169 1.568 2.081.427.912.751 2.043.973 3.392.229 1.33.343 2.86.343 4.59 0 1.938-.13 3.658-.389 5.16-.252 1.5-.611 2.774-1.076 3.82-.466 1.044-1.015 1.833-1.648 2.365-.634.532-1.328.798-2.084.798-.61 0-1.209-.228-1.797-.684-.587-.475-1.121-1.197-1.602-2.166-.473-.989-.855-2.243-1.145-3.763-.282-1.52-.423-3.345-.423-5.473h2.106c0 1.387.118 2.66.355 3.82.244 1.159.58 2.09 1.007 2.793.427.684.927 1.026 1.499 1.026.657 0 1.214-.323 1.672-.969.465-.665.816-1.568 1.053-2.708.244-1.16.366-2.46.366-3.905 0-1.273-.065-2.376-.195-3.307-.122-.95-.309-1.73-.56-2.337-.245-.608-.55-1.055-.916-1.34a1.889 1.889 0 0 0-1.259-.456h-1.557v-3.45ZM273.006 14.324l-4.556 37.827h-2.151l5.368-41.504h1.351l-.012 3.677Zm3.686 37.827-4.556-37.827-.023-3.677h1.362l5.369 41.504h-2.152Zm0-15.365v4.505h-8.036v-4.505h8.036ZM290.176 28.491v4.476h-7.223V28.49h7.223Zm-6.937-17.844V52.15h-2.106V10.647h2.106Zm8.802 0V52.15h-2.106V10.647h2.106ZM297.867 42.63l6.491-31.983h2.106V52.15h-2.106V20.14l-6.491 32.012h-2.094V10.647h2.094V42.63ZM317.933 35.988h-3.617l-1.065-1.111c-1.037-.95-1.835-2.404-2.392-4.362-.549-1.976-.824-4.428-.824-7.354 0-2.68.202-4.95.607-6.813.404-1.862.98-3.278 1.728-4.247.755-.97 1.644-1.454 2.667-1.454h4.556V52.15h-2.106v-37h-2.45c-.969 0-1.694.722-2.175 2.166-.481 1.444-.721 3.392-.721 5.844 0 1.596.107 3.021.321 4.276.221 1.254.549 2.242.984 2.964.435.722.981 1.084 1.637 1.084h2.861l-.011 4.503Zm-2.816-2.85-3.388 19.013h-2.243l3.502-19.013h2.129ZM323.244 49.358c0-.894.111-1.644.332-2.252.229-.628.557-.941.984-.941.428 0 .752.313.973.94.229.609.344 1.36.344 2.253 0 .874-.115 1.615-.344 2.223-.221.608-.545.912-.973.912-.427 0-.755-.304-.984-.912-.221-.608-.332-1.35-.332-2.223ZM345.782 10.647V52.15h-2.106v-37h-6.513v37h-2.106V10.647h10.725ZM358.476 47.676v4.475h-7.234v-4.475h7.234Zm-6.857-37.03v41.505h-2.106V10.647h2.106Zm5.884 17.845v4.476h-6.261V28.49h6.261Zm.858-17.844v4.504h-7.119v-4.504h7.119ZM366.477 35.874h-3.64V31.4h3.64c.687 0 1.24-.342 1.659-1.026.428-.684.737-1.635.928-2.85.198-1.217.297-2.604.297-4.163 0-1.425-.099-2.765-.297-4.019-.191-1.254-.5-2.261-.928-3.022-.419-.779-.972-1.168-1.659-1.168h-3.205v37h-2.106V10.647h5.311c1.076 0 1.984.541 2.724 1.625.74 1.083 1.301 2.584 1.683 4.504.389 1.9.583 4.076.583 6.527 0 2.66-.194 4.932-.583 6.813-.382 1.882-.943 3.316-1.683 4.305-.74.969-1.648 1.453-2.724 1.453ZM383.131 47.676v4.475h-7.234v-4.475h7.234Zm-6.856-37.03v41.505h-2.106V10.647h2.106Zm5.883 17.845v4.476h-6.261V28.49h6.261Zm.859-17.844v4.504h-7.12v-4.504h7.12ZM396.901 47.676v4.475h-10.45v-4.475h10.45Zm-10.13 0v14.68h-2.095l-.011-14.68h2.106Zm11.961 0-.022 14.652h-2.084V47.676h2.106Zm-3.8-37.03v4.505h-6.043v-4.504h6.043Zm1.843 0v41.505h-2.106V10.647h2.106Zm-8.607 0h2.106l-.298 16.705a180.16 180.16 0 0 1-.229 6.956c-.114 2.109-.263 4.038-.446 5.786a75.68 75.68 0 0 1-.607 4.704 39.615 39.615 0 0 1-.744 3.563c-.267.988-.549 1.805-.847 2.451-.298.627-.603 1.074-.916 1.34h-.881v-4.475h.584c.168-.532.351-1.302.549-2.31.206-1.006.405-2.308.595-3.904.199-1.616.37-3.583.515-5.901.153-2.319.256-5.055.309-8.21l.31-16.704ZM417.504 10.647V52.15h-2.106v-37h-6.513v37h-2.106V10.647h10.725ZM426.547 35.874h-3.64V31.4h3.64c.687 0 1.24-.342 1.66-1.026.427-.684.736-1.635.927-2.85.198-1.217.297-2.604.297-4.163 0-1.425-.099-2.765-.297-4.019-.191-1.254-.5-2.261-.927-3.022-.42-.779-.973-1.168-1.66-1.168h-3.205v37h-2.106V10.647h5.311c1.076 0 1.984.541 2.724 1.625.74 1.083 1.301 2.584 1.683 4.504.389 1.9.584 4.076.584 6.527 0 2.66-.195 4.932-.584 6.813-.382 1.882-.943 3.316-1.683 4.305-.74.969-1.648 1.453-2.724 1.453ZM436.437 42.63l6.49-31.983h2.106V52.15h-2.106V20.14l-6.49 32.012h-2.095V10.647h2.095V42.63ZM449.44 10.647h2.037l4.361 33.836 4.35-33.836h2.037l-5.597 41.504h-1.603l-5.585-41.504Zm-.664 0h1.785l.309 25.313V52.15h-2.094V10.647Zm12.316 0h1.786V52.15h-2.095V35.96l.309-25.313ZM475.457 47.676v4.475h-7.234v-4.475h7.234Zm-6.856-37.03v41.505h-2.106V10.647h2.106Zm5.883 17.845v4.476h-6.261V28.49h6.261Zm.859-17.844v4.504h-7.12v-4.504h7.12ZM487.19 28.491v4.476h-7.223V28.49h7.223Zm-6.937-17.844V52.15h-2.106V10.647h2.106Zm8.802 0V52.15h-2.106V10.647h2.106ZM501.646 47.676v4.475h-7.234v-4.475h7.234Zm-6.856-37.03v41.505h-2.106V10.647h2.106Zm5.883 17.845v4.476h-6.261V28.49h6.261Zm.859-17.844v4.504h-7.12v-4.504h7.12ZM513.379 28.491v4.476h-7.223V28.49h7.223Zm-6.937-17.844V52.15h-2.106V10.647h2.106Zm8.803 0V52.15h-2.107V10.647h2.107ZM521.071 42.63l6.49-31.983h2.106V52.15h-2.106V20.14l-6.49 32.012h-2.095V10.647h2.095V42.63ZM542.372 47.676v4.475h-7.234v-4.475h7.234Zm-6.856-37.03v41.505h-2.106V10.647h2.106Zm5.883 17.845v4.476h-6.261V28.49h6.261Zm.859-17.844v4.504h-7.12v-4.504h7.12ZM545.726 10.647h2.037l4.362 33.836 4.349-33.836h2.038l-5.598 41.504h-1.602l-5.586-41.504Zm-.664 0h1.786l.309 25.313V52.15h-2.095V10.647Zm12.316 0h1.786V52.15h-2.095V35.96l.309-25.313ZM579 27.807v7.212c0 2.927-.129 5.502-.389 7.725-.252 2.205-.622 4.048-1.11 5.53-.488 1.483-1.076 2.594-1.763 3.335-.686.742-1.461 1.112-2.323 1.112-.832 0-1.591-.37-2.278-1.111-.687-.742-1.278-1.853-1.774-3.336-.496-1.482-.882-3.325-1.156-5.53-.267-2.223-.401-4.798-.401-7.725v-7.212c0-2.926.134-5.492.401-7.696.267-2.224.648-4.077 1.144-5.559.496-1.482 1.088-2.594 1.774-3.335.687-.76 1.447-1.14 2.278-1.14.863 0 1.637.38 2.324 1.14.694.741 1.282 1.853 1.763 3.335.488 1.482.862 3.335 1.121 5.559.26 2.204.389 4.77.389 7.696Zm-2.083 7.212V27.75c0-2.28-.076-4.238-.229-5.872-.152-1.653-.377-3.003-.675-4.048-.298-1.045-.664-1.815-1.099-2.309-.435-.513-.938-.77-1.511-.77-.542 0-1.03.257-1.465.77-.427.494-.794 1.264-1.099 2.31-.305 1.044-.542 2.394-.709 4.047-.161 1.634-.241 3.592-.241 5.872v7.27c0 2.299.08 4.275.241 5.928.167 1.635.404 2.984.709 4.048.313 1.045.687 1.825 1.122 2.338.435.494.919.74 1.454.74.572 0 1.076-.246 1.511-.74.442-.513.808-1.293 1.098-2.338.298-1.064.519-2.413.664-4.048.153-1.653.229-3.63.229-5.929ZM586.624 32.226h-1.626v-3.507h1.557c.649 0 1.171-.294 1.568-.883.397-.59.687-1.406.87-2.452.183-1.045.275-2.252.275-3.62 0-1.311-.103-2.508-.309-3.592-.199-1.102-.508-1.976-.927-2.622-.42-.665-.966-.998-1.637-.998-.496 0-.946.304-1.351.912-.404.59-.725 1.416-.961 2.48-.229 1.046-.344 2.252-.344 3.62h-2.106c0-1.767.122-3.354.366-4.76.252-1.425.596-2.632 1.031-3.62.442-1.007.95-1.777 1.522-2.31.58-.531 1.194-.797 1.843-.797.755 0 1.438.256 2.049.77.61.493 1.133 1.235 1.568 2.223.442.988.778 2.214 1.007 3.677.237 1.463.355 3.164.355 5.102 0 1.426-.114 2.766-.343 4.02-.222 1.254-.546 2.356-.973 3.306-.42.95-.92 1.701-1.5 2.252-.58.533-1.225.799-1.934.799Zm-1.626-2.423h1.626c.778 0 1.472.237 2.083.712.618.475 1.141 1.169 1.568 2.081.427.912.752 2.043.973 3.392.229 1.33.343 2.86.343 4.59 0 1.938-.129 3.658-.389 5.16-.252 1.5-.61 2.774-1.076 3.82-.465 1.044-1.015 1.833-1.648 2.365-.633.532-1.328.798-2.083.798-.611 0-1.21-.228-1.797-.684-.588-.475-1.122-1.197-1.603-2.166-.473-.989-.854-2.243-1.144-3.763-.283-1.52-.424-3.345-.424-5.473h2.106c0 1.387.118 2.66.355 3.82.244 1.159.58 2.09 1.007 2.793.428.684.928 1.026 1.5 1.026.656 0 1.213-.323 1.671-.969.465-.665.816-1.568 1.053-2.708.244-1.16.366-2.46.366-3.905 0-1.273-.065-2.376-.194-3.307-.122-.95-.309-1.73-.561-2.337-.244-.608-.55-1.055-.916-1.34a1.885 1.885 0 0 0-1.259-.456h-1.557v-3.45ZM603.438 28.491v4.476h-7.222V28.49h7.222Zm-6.936-17.844V52.15h-2.106V10.647h2.106Zm8.802 0V52.15h-2.106V10.647h2.106ZM614.541 14.324l-4.555 37.827h-2.152l5.368-41.504h1.351l-.012 3.677Zm3.686 37.827-4.556-37.827-.023-3.677h1.363l5.368 41.504h-2.152Zm0-15.365v4.505h-8.035v-4.505h8.035ZM624.877 10.647V52.15h-2.106V10.647h2.106Zm8.574 0L627.43 33.48h-3.388l-.355-4.561h2.472l4.682-18.272h2.61Zm-2.175 41.504-5.014-19.384 1.179-4.817 6.399 24.201h-2.564ZM646.282 27.807v7.212c0 2.927-.13 5.502-.389 7.725-.252 2.205-.622 4.048-1.111 5.53-.488 1.483-1.075 2.594-1.762 3.335-.687.742-1.462 1.112-2.324 1.112-.832 0-1.591-.37-2.278-1.111-.686-.742-1.278-1.853-1.774-3.336-.496-1.482-.881-3.325-1.156-5.53-.267-2.223-.401-4.798-.401-7.725v-7.212c0-2.926.134-5.492.401-7.696.267-2.224.649-4.077 1.145-5.559.496-1.482 1.087-2.594 1.774-3.335.687-.76 1.446-1.14 2.278-1.14.862 0 1.637.38 2.323 1.14.695.741 1.282 1.853 1.763 3.335.488 1.482.862 3.335 1.122 5.559.259 2.204.389 4.77.389 7.696Zm-2.083 7.212V27.75c0-2.28-.077-4.238-.229-5.872-.153-1.653-.378-3.003-.676-4.048-.297-1.045-.663-1.815-1.098-2.309-.435-.513-.939-.77-1.511-.77-.542 0-1.031.257-1.465.77-.428.494-.794 1.264-1.099 2.31-.306 1.044-.542 2.394-.71 4.047-.16 1.634-.24 3.592-.24 5.872v7.27c0 2.299.08 4.275.24 5.928.168 1.635.404 2.984.71 4.048.313 1.045.687 1.825 1.121 2.338.435.494.92.74 1.454.74.572 0 1.076-.246 1.511-.74.443-.513.809-1.293 1.099-2.338.298-1.064.519-2.413.664-4.048.152-1.653.229-3.63.229-5.929ZM650.208 10.647h2.037l4.362 33.836 4.349-33.836h2.038l-5.598 41.504h-1.602l-5.586-41.504Zm-.664 0h1.786l.309 25.313V52.15h-2.095V10.647Zm12.316 0h1.786V52.15h-2.095V35.96l.309-25.313ZM668.866 27.55h3.788c1.03 0 1.9.514 2.61 1.54.717 1.007 1.259 2.423 1.625 4.247.374 1.825.561 3.963.561 6.414 0 1.825-.107 3.497-.32 5.017-.206 1.502-.515 2.813-.927 3.934-.405 1.102-.905 1.957-1.5 2.566-.595.589-1.278.883-2.049.883h-5.448V10.647h2.106v37.029h3.342c.641 0 1.156-.37 1.546-1.112.396-.76.686-1.748.869-2.965.184-1.216.275-2.518.275-3.905s-.091-2.66-.275-3.82c-.183-1.159-.473-2.08-.869-2.765-.39-.703-.905-1.054-1.546-1.054h-3.788V27.55ZM682.487 10.647V52.15h-2.084V10.647h2.084Zm4.384 0v4.504h-10.84v-4.504h10.84ZM698.294 47.676v4.475h-7.234v-4.475h7.234Zm-6.856-37.03v41.505h-2.106V10.647h2.106Zm5.883 17.845v4.476h-6.261V28.49h6.261Zm.859-17.844v4.504h-7.12v-4.504h7.12ZM709.328 38.953h2.106c-.053 2.85-.286 5.312-.698 7.383-.404 2.052-.996 3.63-1.774 4.732-.771 1.102-1.736 1.653-2.896 1.653-.832 0-1.583-.408-2.255-1.225-.671-.818-1.248-1.986-1.728-3.507-.473-1.539-.836-3.382-1.088-5.53-.251-2.147-.377-4.56-.377-7.24V27.55c0-2.66.126-5.065.377-7.212.26-2.148.63-3.982 1.111-5.502.488-1.54 1.079-2.717 1.774-3.535.702-.817 1.495-1.225 2.381-1.225 1.083 0 1.999.541 2.747 1.624.755 1.065 1.335 2.633 1.74 4.704.412 2.052.641 4.57.686 7.554h-2.106c-.053-2.186-.19-3.962-.412-5.33-.221-1.388-.549-2.405-.984-3.05-.427-.666-.985-.998-1.671-.998-.611 0-1.141.304-1.591.912-.443.608-.809 1.482-1.099 2.622-.283 1.122-.496 2.48-.641 4.077a61.335 61.335 0 0 0-.206 5.302v7.725c0 1.824.057 3.525.171 5.102.123 1.578.313 2.965.573 4.162.267 1.178.614 2.1 1.041 2.765.428.665.947.998 1.557.998.771 0 1.381-.314 1.831-.94.451-.628.783-1.626.996-2.994.222-1.368.367-3.155.435-5.359ZM715.887 27.55h3.789c1.03 0 1.9.514 2.609 1.54.718 1.007 1.26 2.423 1.626 4.247.374 1.825.561 3.963.561 6.414 0 1.825-.107 3.497-.321 5.017-.206 1.502-.515 2.813-.927 3.934-.404 1.102-.904 1.957-1.499 2.566-.596.589-1.279.883-2.049.883h-5.449V10.647h2.106v37.029h3.343c.641 0 1.156-.37 1.545-1.112.397-.76.687-1.748.87-2.965a26.27 26.27 0 0 0 .275-3.905c0-1.387-.092-2.66-.275-3.82-.183-1.159-.473-2.08-.87-2.765-.389-.703-.904-1.054-1.545-1.054h-3.789V27.55ZM740.943 38.953h2.106c-.053 2.85-.286 5.312-.698 7.383-.405 2.052-.996 3.63-1.774 4.732-.771 1.102-1.736 1.653-2.896 1.653-.832 0-1.584-.408-2.255-1.225-.672-.818-1.248-1.986-1.729-3.507-.473-1.539-.835-3.382-1.087-5.53-.252-2.147-.378-4.56-.378-7.24V27.55c0-2.66.126-5.065.378-7.212.26-2.148.63-3.982 1.11-5.502.489-1.54 1.08-2.717 1.775-3.535.702-.817 1.495-1.225 2.38-1.225 1.084 0 2 .541 2.747 1.624.756 1.065 1.336 2.633 1.74 4.704.412 2.052.641 4.57.687 7.554h-2.106c-.053-2.186-.191-3.962-.412-5.33-.221-1.388-.549-2.405-.984-3.05-.428-.666-.985-.998-1.672-.998-.61 0-1.14.304-1.591.912-.442.608-.809 1.482-1.099 2.622-.282 1.122-.496 2.48-.641 4.077a61.767 61.767 0 0 0-.205 5.302v7.725c0 1.824.057 3.525.171 5.102.122 1.578.313 2.965.572 4.162.268 1.178.615 2.1 1.042 2.765.427.665.946.998 1.557.998.77 0 1.381-.314 1.831-.94.45-.628.782-1.626.996-2.994.221-1.368.366-3.155.435-5.359ZM753.477 42.63l6.49-31.983h2.106V52.15h-2.106V20.14l-6.49 32.012h-2.095V10.647h2.095V42.63ZM774.858 28.491v4.476h-7.222V28.49h7.222Zm-6.936-17.844V52.15h-2.106V10.647h2.106Zm8.802 0V52.15h-2.106V10.647h2.106ZM788.697 38.953h2.106c-.053 2.85-.286 5.312-.698 7.383-.405 2.052-.996 3.63-1.774 4.732-.771 1.102-1.736 1.653-2.896 1.653-.832 0-1.584-.408-2.255-1.225-.672-.818-1.248-1.986-1.728-3.507-.474-1.539-.836-3.382-1.088-5.53-.252-2.147-.378-4.56-.378-7.24V27.55c0-2.66.126-5.065.378-7.212.26-2.148.63-3.982 1.11-5.502.489-1.54 1.08-2.717 1.775-3.535.702-.817 1.495-1.225 2.38-1.225 1.084 0 2 .541 2.748 1.624.755 1.065 1.335 2.633 1.739 4.704.412 2.052.641 4.57.687 7.554h-2.106c-.053-2.186-.191-3.962-.412-5.33-.221-1.388-.549-2.405-.984-3.05-.428-.666-.985-.998-1.672-.998-.61 0-1.14.304-1.591.912-.442.608-.809 1.482-1.098 2.622-.283 1.122-.496 2.48-.641 4.077a61.335 61.335 0 0 0-.206 5.302v7.725c0 1.824.057 3.525.171 5.102.122 1.578.313 2.965.573 4.162.267 1.178.614 2.1 1.041 2.765.427.665.946.998 1.557.998.771 0 1.381-.314 1.831-.94.45-.628.782-1.626.996-2.994.221-1.368.366-3.155.435-5.359ZM798.667 10.647V52.15h-2.083V10.647h2.083Zm4.384 0v4.504h-10.84v-4.504h10.84ZM810.823 35.874h-3.64V31.4h3.64c.687 0 1.24-.342 1.659-1.026.428-.684.737-1.635.928-2.85.198-1.217.297-2.604.297-4.163 0-1.425-.099-2.765-.297-4.019-.191-1.254-.5-2.261-.928-3.022-.419-.779-.972-1.168-1.659-1.168h-3.205v37h-2.106V10.647h5.311c1.076 0 1.984.541 2.724 1.625.74 1.083 1.301 2.584 1.683 4.504.389 1.9.583 4.076.583 6.527 0 2.66-.194 4.932-.583 6.813-.382 1.882-.943 3.316-1.683 4.305-.74.969-1.648 1.453-2.724 1.453ZM822.773 38.383l3.537-27.736h2.426l-4.796 34.577a81.81 81.81 0 0 1-.492 2.822 16.815 16.815 0 0 1-.618 2.395c-.244.703-.549 1.264-.916 1.682a1.75 1.75 0 0 1-1.373.627c-.168 0-.363-.029-.584-.086-.214-.038-.351-.085-.412-.142l.046-4.39c.068.038.209.076.423.114.221.019.378.028.469.028.344 0 .607-.218.79-.655.191-.437.34-.989.447-1.654.106-.684.21-1.377.309-2.08l.744-5.502Zm-2.656-27.736 3.594 25.855.492 5.102-1.774.342-4.658-31.3h2.346ZM833.567 10.647V52.15h-2.107V10.647h2.107Zm8.573 0-6.021 22.833h-3.388l-.355-4.561h2.473l4.681-18.272h2.61Zm-2.175 41.504-5.013-19.384 1.179-4.817 6.398 24.201h-2.564ZM856.837 47.533l-.206 14.624h-1.877V52.15h-1.385v-4.618h3.468Zm-12.236 4.618V10.647h2.106v37.029h6.513v-37.03h2.106v41.505h-10.725ZM861.69 42.63l6.49-31.983h2.106V52.15h-2.106V20.14l-6.49 32.012h-2.094V10.647h2.094V42.63ZM882.992 47.676v4.475h-7.234v-4.475h7.234Zm-6.857-37.03v41.505h-2.106V10.647h2.106Zm5.884 17.845v4.476h-6.261V28.49h6.261Zm.858-17.844v4.504h-7.119v-4.504h7.119ZM887.879 42.63l6.49-31.983h2.107V52.15h-2.107V20.14l-6.49 32.012h-2.094V10.647h2.094V42.63ZM892.87.356h1.717c0 1.482-.137 2.803-.412 3.963-.275 1.14-.668 2.033-1.179 2.679-.511.646-1.118.97-1.82.97-1.061 0-1.9-.704-2.518-2.11-.611-1.425-.916-3.26-.916-5.502h1.717c0 1.121.13 2.11.389 2.965.26.855.702 1.283 1.328 1.283.61 0 1.045-.428 1.305-1.283.259-.855.389-1.844.389-2.965ZM907.796 42.63l6.49-31.983h2.106V52.15h-2.106V20.14l-6.49 32.012h-2.095V10.647h2.095V42.63ZM929.212 10.647v4.504h-6.227v-4.504h6.227Zm1.854 0V52.15h-2.106V10.647h2.106Zm-8.79 0h2.094l-.297 20.324c-.039 2.927-.111 5.54-.218 7.84-.107 2.28-.259 4.266-.458 5.957-.198 1.672-.458 3.06-.778 4.162-.321 1.083-.714 1.89-1.179 2.423-.458.532-1.004.798-1.637.798h-.549v-4.475l.4-.086c.351-.076.653-.313.905-.712.259-.419.473-1.046.641-1.882.175-.836.316-1.92.423-3.25.115-1.33.202-2.955.263-4.874.061-1.938.107-4.2.138-6.784l.252-19.441ZM936.984 42.63l6.49-31.983h2.106V52.15h-2.106V20.14l-6.49 32.012h-2.095V10.647h2.095V42.63ZM965.531 10.647V52.15h-2.106v-37h-6.513v37h-2.106V10.647h10.725ZM974.574 35.874h-3.64V31.4h3.64c.687 0 1.24-.342 1.659-1.026.428-.684.737-1.635.928-2.85.198-1.217.297-2.604.297-4.163 0-1.425-.099-2.765-.297-4.019-.191-1.254-.5-2.261-.928-3.022-.419-.779-.972-1.168-1.659-1.168h-3.205v37h-2.106V10.647h5.311c1.076 0 1.984.541 2.724 1.625.74 1.083 1.301 2.584 1.683 4.504.389 1.9.583 4.076.583 6.527 0 2.66-.194 4.932-.583 6.813-.382 1.882-.943 3.316-1.683 4.305-.74.969-1.648 1.453-2.724 1.453ZM993.105 27.807v7.212c0 2.927-.129 5.502-.389 7.725-.252 2.205-.622 4.048-1.11 5.53-.489 1.483-1.076 2.594-1.763 3.335-.687.742-1.461 1.112-2.323 1.112-.832 0-1.592-.37-2.278-1.111-.687-.742-1.278-1.853-1.774-3.336-.496-1.482-.882-3.325-1.157-5.53-.267-2.223-.4-4.798-.4-7.725v-7.212c0-2.926.133-5.492.4-7.696.268-2.224.649-4.077 1.145-5.559.496-1.482 1.088-2.594 1.774-3.335.687-.76 1.446-1.14 2.278-1.14.862 0 1.637.38 2.324 1.14.694.741 1.282 1.853 1.762 3.335.489 1.482.863 3.335 1.122 5.559.26 2.204.389 4.77.389 7.696Zm-2.083 7.212V27.75c0-2.28-.076-4.238-.229-5.872-.152-1.653-.378-3.003-.675-4.048-.298-1.045-.664-1.815-1.099-2.309-.435-.513-.939-.77-1.511-.77-.542 0-1.03.257-1.465.77-.427.494-.794 1.264-1.099 2.31-.305 1.044-.542 2.394-.71 4.047-.16 1.634-.24 3.592-.24 5.872v7.27c0 2.299.08 4.275.24 5.928.168 1.635.405 2.984.71 4.048.313 1.045.687 1.825 1.122 2.338.435.494.919.74 1.454.74.572 0 1.075-.246 1.51-.74.443-.513.809-1.293 1.099-2.338.298-1.064.519-2.413.664-4.048.153-1.653.229-3.63.229-5.929ZM998.577 10.647V52.15h-2.106V10.647h2.106Zm8.573 0-6.02 22.833h-3.389l-.355-4.561h2.473l4.681-18.272h2.61Zm-2.17 41.504-5.018-19.384 1.178-4.817 6.4 24.201h-2.56ZM1019.98 27.807v7.212c0 2.927-.13 5.502-.39 7.725-.25 2.205-.62 4.048-1.11 5.53-.49 1.483-1.07 2.594-1.76 3.335-.69.742-1.46 1.112-2.32 1.112-.84 0-1.6-.37-2.28-1.111-.69-.742-1.28-1.853-1.78-3.336-.49-1.482-.88-3.325-1.15-5.53-.27-2.223-.4-4.798-.4-7.725v-7.212c0-2.926.13-5.492.4-7.696.26-2.224.65-4.077 1.14-5.559.5-1.482 1.09-2.594 1.78-3.335.68-.76 1.44-1.14 2.27-1.14.87 0 1.64.38 2.33 1.14.69.741 1.28 1.853 1.76 3.335.49 1.482.86 3.335 1.12 5.559.26 2.204.39 4.77.39 7.696Zm-2.08 7.212V27.75c0-2.28-.08-4.238-.23-5.872-.15-1.653-.38-3.003-.68-4.048-.29-1.045-.66-1.815-1.1-2.309-.43-.513-.93-.77-1.51-.77-.54 0-1.03.257-1.46.77-.43.494-.79 1.264-1.1 2.31-.31 1.044-.54 2.394-.71 4.047-.16 1.634-.24 3.592-.24 5.872v7.27c0 2.299.08 4.275.24 5.928.17 1.635.4 2.984.71 4.048.31 1.045.69 1.825 1.12 2.338.44.494.92.74 1.46.74.57 0 1.07-.246 1.51-.74.44-.513.81-1.293 1.1-2.338.29-1.064.51-2.413.66-4.048.15-1.653.23-3.63.23-5.929ZM1032.29 28.491v4.476h-7.23V28.49h7.23Zm-6.94-17.844V52.15h-2.11V10.647h2.11Zm8.8 0V52.15h-2.1V10.647h2.1ZM1046.12 38.953h2.11c-.05 2.85-.29 5.312-.7 7.383-.4 2.052-.99 3.63-1.77 4.732-.77 1.102-1.74 1.653-2.9 1.653-.83 0-1.58-.408-2.25-1.225-.67-.818-1.25-1.986-1.73-3.507-.47-1.539-.84-3.382-1.09-5.53-.25-2.147-.38-4.56-.38-7.24V27.55c0-2.66.13-5.065.38-7.212.26-2.148.63-3.982 1.11-5.502.49-1.54 1.08-2.717 1.78-3.535.7-.817 1.49-1.225 2.38-1.225 1.08 0 2 .541 2.74 1.624.76 1.065 1.34 2.633 1.74 4.704.42 2.052.65 4.57.69 7.554h-2.11c-.05-2.186-.19-3.962-.41-5.33-.22-1.388-.55-2.405-.98-3.05-.43-.666-.99-.998-1.67-.998-.61 0-1.14.304-1.59.912-.45.608-.81 1.482-1.1 2.622-.29 1.122-.5 2.48-.64 4.077a60.437 60.437 0 0 0-.21 5.302v7.725c0 1.824.06 3.525.17 5.102.12 1.578.31 2.965.57 4.162.27 1.178.62 2.1 1.05 2.765.42.665.94.998 1.55.998.77 0 1.38-.314 1.83-.94.45-.628.79-1.626 1-2.994.22-1.368.37-3.155.43-5.359ZM1055.34 38.383l3.54-27.736h2.42l-4.79 34.577c-.16.97-.32 1.91-.5 2.822-.16.894-.37 1.692-.61 2.395-.25.703-.55 1.264-.92 1.682-.37.418-.82.627-1.37.627-.17 0-.37-.029-.59-.086-.21-.038-.35-.085-.41-.142l.05-4.39c.07.038.21.076.42.114.22.019.38.028.47.028.34 0 .61-.218.79-.655.19-.437.34-.989.45-1.654.1-.684.21-1.377.3-2.08l.75-5.502Zm-2.66-27.736 3.6 25.855.49 5.102-1.77.342-4.66-31.3h2.34ZM1072.18 10.647v4.504h-6.23v-4.504h6.23Zm1.85 0V52.15h-2.11V10.647h2.11Zm-8.79 0h2.09l-.29 20.324c-.04 2.927-.11 5.54-.22 7.84-.11 2.28-.26 4.266-.46 5.957-.2 1.672-.46 3.06-.78 4.162-.32 1.083-.71 1.89-1.18 2.423-.45.532-1 .798-1.63.798h-.55v-4.475l.4-.086c.35-.076.65-.313.9-.712.26-.419.48-1.046.64-1.882.18-.836.32-1.92.43-3.25.11-1.33.2-2.955.26-4.874.06-1.938.11-4.2.14-6.784l.25-19.441ZM1079.35 27.55h3.79c1.03 0 1.9.514 2.61 1.54.72 1.007 1.26 2.423 1.63 4.247.37 1.825.56 3.963.56 6.414 0 1.825-.11 3.497-.32 5.017-.21 1.502-.52 2.813-.93 3.934-.4 1.102-.9 1.957-1.5 2.566-.59.589-1.28.883-2.05.883h-5.45V10.647h2.11v37.029h3.34c.64 0 1.16-.37 1.55-1.112.39-.76.68-1.748.87-2.965.18-1.216.27-2.518.27-3.905s-.09-2.66-.27-3.82c-.19-1.159-.48-2.08-.87-2.765-.39-.703-.91-1.054-1.55-1.054h-3.79V27.55ZM1092.97 10.647V52.15h-2.08V10.647h2.08Zm4.39 0v4.504h-10.84v-4.504h10.84ZM1102.02 42.63l6.49-31.983h2.1V52.15h-2.1V20.14l-6.49 32.012h-2.1V10.647h2.1V42.63ZM1119.67 35.874h-3.64V31.4h3.64c.68 0 1.24-.342 1.66-1.026.42-.684.73-1.635.92-2.85.2-1.217.3-2.604.3-4.163 0-1.425-.1-2.765-.3-4.019-.19-1.254-.5-2.261-.92-3.022-.42-.779-.98-1.168-1.66-1.168h-3.21v37h-2.1V10.647h5.31c1.07 0 1.98.541 2.72 1.625.74 1.083 1.3 2.584 1.68 4.504.39 1.9.59 4.076.59 6.527 0 2.66-.2 4.932-.59 6.813-.38 1.882-.94 3.316-1.68 4.305-.74.969-1.65 1.453-2.72 1.453ZM1131.62 38.383l3.53-27.736h2.43l-4.8 34.577c-.15.97-.31 1.91-.49 2.822-.17.894-.37 1.692-.62 2.395-.24.703-.54 1.264-.91 1.682-.37.418-.83.627-1.37.627-.17 0-.37-.029-.59-.086-.21-.038-.35-.085-.41-.142l.05-4.39c.06.038.21.076.42.114.22.019.38.028.47.028.34 0 .6-.218.79-.655.19-.437.34-.989.44-1.654.11-.684.21-1.377.31-2.08l.75-5.502Zm-2.66-27.736 3.6 25.855.49 5.102-1.78.342-4.65-31.3h2.34ZM1142.4 42.63l6.49-31.983h2.11V52.15h-2.11V20.14l-6.49 32.012h-2.09V10.647h2.09V42.63Zm4.99-42.274h1.72c0 1.482-.14 2.803-.41 3.963-.28 1.14-.67 2.033-1.18 2.679-.52.646-1.12.97-1.82.97-1.06 0-1.9-.704-2.52-2.11-.61-1.425-.92-3.26-.92-5.502h1.72c0 1.121.13 2.11.39 2.965s.7 1.283 1.33 1.283c.61 0 1.04-.428 1.3-1.283s.39-1.844.39-2.965ZM1160.1 10.647V52.15h-2.09V10.647h2.09Zm4.38 0v4.504h-10.84v-4.504h10.84ZM1175.9 47.676v4.475h-7.23v-4.475h7.23Zm-6.85-37.03v41.505h-2.11V10.647h2.11Zm5.88 17.845v4.476h-6.26V28.49h6.26Zm.86-17.844v4.504h-7.12v-4.504h7.12ZM1186.94 38.953h2.1c-.05 2.85-.28 5.312-.69 7.383-.41 2.052-1 3.63-1.78 4.732-.77 1.102-1.74 1.653-2.89 1.653-.84 0-1.59-.408-2.26-1.225-.67-.818-1.25-1.986-1.73-3.507-.47-1.539-.83-3.382-1.09-5.53-.25-2.147-.37-4.56-.37-7.24V27.55c0-2.66.12-5.065.37-7.212.26-2.148.63-3.982 1.11-5.502.49-1.54 1.08-2.717 1.78-3.535.7-.817 1.49-1.225 2.38-1.225 1.08 0 2 .541 2.75 1.624.75 1.065 1.33 2.633 1.74 4.704.41 2.052.64 4.57.68 7.554h-2.1c-.06-2.186-.19-3.962-.41-5.33-.23-1.388-.55-2.405-.99-3.05-.43-.666-.98-.998-1.67-.998-.61 0-1.14.304-1.59.912-.44.608-.81 1.482-1.1 2.622-.28 1.122-.5 2.48-.64 4.077a60.437 60.437 0 0 0-.21 5.302v7.725c0 1.824.06 3.525.17 5.102.13 1.578.32 2.965.58 4.162.26 1.178.61 2.1 1.04 2.765.43.665.94.998 1.56.998.77 0 1.38-.314 1.83-.94.45-.628.78-1.626.99-2.994.22-1.368.37-3.155.44-5.359ZM1193.5 27.55h3.78c1.03 0 1.9.514 2.61 1.54.72 1.007 1.26 2.423 1.63 4.247.37 1.825.56 3.963.56 6.414 0 1.825-.11 3.497-.32 5.017-.21 1.502-.51 2.813-.93 3.934-.4 1.102-.9 1.957-1.5 2.566-.59.589-1.27.883-2.05.883h-5.44V10.647h2.1v37.029h3.34c.65 0 1.16-.37 1.55-1.112.4-.76.69-1.748.87-2.965.18-1.216.27-2.518.27-3.905s-.09-2.66-.27-3.82c-.18-1.159-.47-2.08-.87-2.765-.39-.703-.9-1.054-1.55-1.054h-3.78V27.55ZM1218.55 38.953h2.11c-.06 2.85-.29 5.312-.7 7.383-.4 2.052-1 3.63-1.77 4.732-.77 1.102-1.74 1.653-2.9 1.653-.83 0-1.58-.408-2.26-1.225-.67-.818-1.24-1.986-1.72-3.507-.48-1.539-.84-3.382-1.09-5.53-.25-2.147-.38-4.56-.38-7.24V27.55c0-2.66.13-5.065.38-7.212.26-2.148.63-3.982 1.11-5.502.49-1.54 1.08-2.717 1.77-3.535.71-.817 1.5-1.225 2.38-1.225 1.09 0 2 .541 2.75 1.624.76 1.065 1.34 2.633 1.74 4.704.41 2.052.64 4.57.69 7.554h-2.11c-.05-2.186-.19-3.962-.41-5.33-.22-1.388-.55-2.405-.98-3.05-.43-.666-.99-.998-1.68-.998-.61 0-1.14.304-1.59.912-.44.608-.81 1.482-1.1 2.622-.28 1.122-.49 2.48-.64 4.077-.13 1.577-.2 3.344-.2 5.302v7.725c0 1.824.05 3.525.17 5.102.12 1.578.31 2.965.57 4.162.27 1.178.62 2.1 1.04 2.765.43.665.95.998 1.56.998.77 0 1.38-.314 1.83-.94.45-.628.78-1.626 1-2.994.22-1.368.36-3.155.43-5.359ZM1234.35 27.807v7.212c0 2.927-.13 5.502-.39 7.725-.25 2.205-.62 4.048-1.11 5.53-.49 1.483-1.08 2.594-1.76 3.335-.69.742-1.47 1.112-2.33 1.112-.83 0-1.59-.37-2.28-1.111-.68-.742-1.27-1.853-1.77-3.336-.5-1.482-.88-3.325-1.16-5.53-.26-2.223-.4-4.798-.4-7.725v-7.212c0-2.926.14-5.492.4-7.696.27-2.224.65-4.077 1.15-5.559.49-1.482 1.09-2.594 1.77-3.335.69-.76 1.45-1.14 2.28-1.14.86 0 1.64.38 2.32 1.14.7.741 1.29 1.853 1.77 3.335.49 1.482.86 3.335 1.12 5.559.26 2.204.39 4.77.39 7.696Zm-2.09 7.212V27.75c0-2.28-.07-4.238-.22-5.872-.16-1.653-.38-3.003-.68-4.048-.3-1.045-.66-1.815-1.1-2.309-.43-.513-.94-.77-1.51-.77-.54 0-1.03.257-1.46.77-.43.494-.8 1.264-1.1 2.31-.31 1.044-.55 2.394-.71 4.047-.16 1.634-.24 3.592-.24 5.872v7.27c0 2.299.08 4.275.24 5.928.16 1.635.4 2.984.71 4.048.31 1.045.68 1.825 1.12 2.338.43.494.92.74 1.45.74.57 0 1.08-.246 1.51-.74.45-.513.81-1.293 1.1-2.338.3-1.064.52-2.413.67-4.048.15-1.653.22-3.63.22-5.929ZM1251.33 38.953h2.11c-.05 2.85-.29 5.312-.7 7.383-.4 2.052-.99 3.63-1.77 4.732-.77 1.102-1.74 1.653-2.9 1.653-.83 0-1.58-.408-2.25-1.225-.67-.818-1.25-1.986-1.73-3.507-.47-1.539-.84-3.382-1.09-5.53-.25-2.147-.38-4.56-.38-7.24V27.55c0-2.66.13-5.065.38-7.212.26-2.148.63-3.982 1.11-5.502.49-1.54 1.08-2.717 1.78-3.535.7-.817 1.49-1.225 2.38-1.225 1.08 0 2 .541 2.74 1.624.76 1.065 1.34 2.633 1.74 4.704.42 2.052.64 4.57.69 7.554h-2.11c-.05-2.186-.19-3.962-.41-5.33-.22-1.388-.55-2.405-.98-3.05-.43-.666-.99-.998-1.67-.998-.61 0-1.14.304-1.59.912-.45.608-.81 1.482-1.1 2.622-.29 1.122-.5 2.48-.64 4.077a60.437 60.437 0 0 0-.21 5.302v7.725c0 1.824.06 3.525.17 5.102.12 1.578.31 2.965.57 4.162.27 1.178.62 2.1 1.05 2.765.42.665.94.998 1.55.998.77 0 1.38-.314 1.83-.94.45-.628.79-1.626 1-2.994.22-1.368.37-3.155.43-5.359ZM1267.12 10.647V52.15h-2.11v-37h-6.51v37h-2.11V10.647h10.73ZM1279.81 47.676v4.475h-7.23v-4.475h7.23Zm-6.85-37.03v41.505h-2.11V10.647h2.11Zm5.88 17.845v4.476h-6.26V28.49h6.26Zm.86-17.844v4.504h-7.12v-4.504h7.12ZM1294.84 47.533l-.2 14.624h-1.88V52.15h-1.39v-4.618h3.47Zm-12.23 4.618V10.647h2.1v37.029h6.51v-37.03h2.11v41.505h-10.72ZM1299.69 42.63l6.49-31.983h2.11V52.15h-2.11V20.14l-6.49 32.012h-2.09V10.647h2.09V42.63ZM1317.64 14.324l-4.55 37.827h-2.15l5.36-41.504h1.35l-.01 3.677Zm3.69 37.827-4.56-37.827-.02-3.677h1.36l5.37 41.504h-2.15Zm0-15.365v4.505h-8.04v-4.505h8.04ZM1334.85 10.647v4.504h-6.23v-4.504h6.23Zm1.85 0V52.15h-2.11V10.647h2.11Zm-8.79 0h2.09l-.29 20.324c-.04 2.927-.11 5.54-.22 7.84-.11 2.28-.26 4.266-.46 5.957-.2 1.672-.46 3.06-.78 4.162-.32 1.083-.71 1.89-1.18 2.423-.45.532-1 .798-1.63.798h-.55v-4.475l.4-.086c.35-.076.65-.313.9-.712.26-.419.48-1.046.64-1.882.18-.836.32-1.92.43-3.25.11-1.33.2-2.955.26-4.874.06-1.938.11-4.2.14-6.784l.25-19.441ZM1342.62 42.63l6.49-31.983h2.1V52.15h-2.1V20.14l-6.49 32.012h-2.1V10.647h2.1V42.63ZM1363.3 38.953h2.11c-.06 2.85-.29 5.312-.7 7.383-.4 2.052-1 3.63-1.77 4.732-.77 1.102-1.74 1.653-2.9 1.653-.83 0-1.58-.408-2.25-1.225-.68-.818-1.25-1.986-1.73-3.507-.48-1.539-.84-3.382-1.09-5.53-.25-2.147-.38-4.56-.38-7.24V27.55c0-2.66.13-5.065.38-7.212.26-2.148.63-3.982 1.11-5.502.49-1.54 1.08-2.717 1.77-3.535.71-.817 1.5-1.225 2.38-1.225 1.09 0 2 .541 2.75 1.624.76 1.065 1.34 2.633 1.74 4.704.41 2.052.64 4.57.69 7.554h-2.11c-.05-2.186-.19-3.962-.41-5.33-.22-1.388-.55-2.405-.98-3.05-.43-.666-.99-.998-1.68-.998-.61 0-1.14.304-1.59.912-.44.608-.81 1.482-1.1 2.622-.28 1.122-.49 2.48-.64 4.077-.13 1.577-.2 3.344-.2 5.302v7.725c0 1.824.05 3.525.17 5.102.12 1.578.31 2.965.57 4.162.27 1.178.62 2.1 1.04 2.765.43.665.95.998 1.56.998.77 0 1.38-.314 1.83-.94.45-.628.78-1.626 1-2.994.22-1.368.36-3.155.43-5.359ZM1373.27 10.647V52.15h-2.08V10.647h2.08Zm4.39 0v4.504h-10.84v-4.504h10.84ZM1390.64 27.807v7.212c0 2.927-.13 5.502-.39 7.725-.26 2.205-.63 4.048-1.11 5.53-.49 1.483-1.08 2.594-1.77 3.335-.68.742-1.46 1.112-2.32 1.112-.83 0-1.59-.37-2.28-1.111-.68-.742-1.28-1.853-1.77-3.336-.5-1.482-.88-3.325-1.16-5.53-.27-2.223-.4-4.798-.4-7.725v-7.212c0-2.926.13-5.492.4-7.696.27-2.224.65-4.077 1.15-5.559.49-1.482 1.08-2.594 1.77-3.335.69-.76 1.45-1.14 2.28-1.14.86 0 1.64.38 2.32 1.14.7.741 1.28 1.853 1.76 3.335.49 1.482.87 3.335 1.13 5.559.26 2.204.39 4.77.39 7.696Zm-2.09 7.212V27.75c0-2.28-.07-4.238-.23-5.872-.15-1.653-.37-3.003-.67-4.048-.3-1.045-.67-1.815-1.1-2.309-.44-.513-.94-.77-1.51-.77-.54 0-1.03.257-1.47.77-.42.494-.79 1.264-1.1 2.31-.3 1.044-.54 2.394-.7 4.047-.17 1.634-.25 3.592-.25 5.872v7.27c0 2.299.08 4.275.25 5.928.16 1.635.4 2.984.7 4.048.32 1.045.69 1.825 1.13 2.338.43.494.92.74 1.45.74.57 0 1.08-.246 1.51-.74.44-.513.81-1.293 1.1-2.338.3-1.064.52-2.413.66-4.048.16-1.653.23-3.63.23-5.929ZM1394.56 10.647h2.04l4.36 33.836 4.35-33.836h2.04l-5.6 41.504h-1.6l-5.59-41.504Zm-.66 0h1.78l.31 25.313V52.15h-2.09V10.647Zm12.31 0h1.79V52.15h-2.09V35.96l.3-25.313Z"/>
</svg>
