<svg width="40" height="41" viewBox="0 0 40 41" fill="none" xmlns="http://www.w3.org/2000/svg">
<g clip-path="url(#clip0_1_823)">
<path d="M27.3846 24.6272L32 31.5462L24.6154 27.3964L23.6923 30.6231L20.9231 27.8539L16.7651 32.4692L15.8421 26.9308L8 30.6231L12.1498 22.781L8 19.5462L13.5385 19.0805L9.84615 10.3154L16.7651 14.9308L18.1538 8.46924L20 14.4652L23.2349 11.6959L24.1579 14.9308L31.5425 8.92669L26.9272 20.0036L31.5425 21.8579L27.3846 24.6272Z" fill="url(#paint0_linear_1_823)"/>
<path fill-rule="evenodd" clip-rule="evenodd" d="M20 2.86923C10.2798 2.86923 2.40005 10.749 2.40005 20.4692C2.40005 30.1894 10.2798 38.0692 20 38.0692C29.7203 38.0692 37.6 30.1894 37.6 20.4692C37.6 10.749 29.7203 2.86923 20 2.86923ZM0.800049 20.4692C0.800049 9.86536 9.39618 1.26923 20 1.26923C30.6039 1.26923 39.2001 9.86536 39.2001 20.4692C39.2001 31.0731 30.6039 39.6692 20 39.6692C9.39618 39.6692 0.800049 31.0731 0.800049 20.4692Z" fill="#0C67BD"/>
<path fill-rule="evenodd" clip-rule="evenodd" d="M33.052 33.452L6.25203 8.25204L7.34807 7.08641L34.1481 32.2864L33.052 33.452Z" fill="#0C67BD"/>
</g>
<defs>
<linearGradient id="paint0_linear_1_823" x1="20" y1="8.46924" x2="20" y2="32.4692" gradientUnits="userSpaceOnUse">
<stop stop-color="#11E7FE"/>
<stop offset="1" stop-color="#25BBFE"/>
</linearGradient>
<clipPath id="clip0_1_823">
<rect width="40" height="40" fill="white" transform="translate(0 0.469238)"/>
</clipPath>
</defs>
</svg>
