<svg width="40" height="41" viewBox="0 0 40 41" fill="none" xmlns="http://www.w3.org/2000/svg">
<g clip-path="url(#clip0_1_773)">
<path d="M37.4305 26.2533C35.746 25.7634 34.1314 25.122 32.9129 24.6174C31.4957 24.0309 30.2035 23.8245 28.9617 23.9882C27.835 24.136 26.8248 24.56 25.8036 25.0193C25.5327 25.1415 25.4395 25.304 25.4689 25.6021C25.6014 26.8935 25.7227 28.2068 25.8404 29.4774L25.8539 29.6289C26.0819 32.0907 26.3173 34.6368 26.5466 37.1988C26.5821 37.5983 26.7562 37.7632 27.1448 37.7632C27.1509 37.7632 27.1571 37.7632 27.1632 37.7632C28.2727 37.7498 29.4005 37.751 30.4929 37.7534C30.8937 37.7534 31.2946 37.7547 31.6967 37.7547C32.1037 37.7547 32.5132 37.7547 32.9202 37.7547C34.0469 37.7534 35.2115 37.7522 36.3565 37.762C36.3602 37.762 36.3639 37.762 36.3676 37.762C36.7145 37.762 36.8898 37.6044 36.9192 37.2672L36.9781 36.5708C37.0394 35.8488 37.0995 35.1267 37.1644 34.4047C37.2233 33.751 37.2846 33.0962 37.3471 32.4426C37.4035 31.8415 37.4599 31.2404 37.515 30.6393C37.5653 30.0858 37.6143 29.5312 37.6634 28.9777C37.7247 28.2752 37.7872 27.574 37.8522 26.8727C37.8841 26.5331 37.7578 26.3486 37.4329 26.2533H37.4305ZM28.7925 36.0455C28.3781 36.0845 28.0876 35.8646 28.0336 35.4712C27.9515 34.8677 27.8939 34.2483 27.8387 33.6496L27.8203 33.4456C27.6585 31.7107 27.4942 29.9124 27.3177 27.9478C27.2944 27.6925 27.2723 27.3907 27.2784 27.0926C27.2846 26.7578 27.5383 26.4952 27.8816 26.4683C27.9012 26.4671 27.9208 26.4659 27.9392 26.4659C28.2665 26.4659 28.5461 26.6809 28.589 26.9753C28.6797 27.5923 28.7385 28.2264 28.7962 28.8397L28.8035 28.924C28.9506 30.5025 29.0941 32.0822 29.2387 33.6606L29.3417 34.7993C29.3491 34.8799 29.3515 34.9618 29.3552 35.0424L29.3589 35.1316C29.3846 35.9013 29.0487 36.0222 28.7949 36.0455H28.7925Z" fill="url(#paint0_linear_1_773)"/>
<path d="M2.75225 12.4514C5.57559 12.4514 8.3977 12.4514 11.2198 12.4514H35.404C35.4824 12.4514 35.5621 12.4514 35.6406 12.4489H35.6553C35.7533 12.4489 35.8514 12.4465 35.9495 12.4477C36.2499 12.4502 36.4791 12.3695 36.652 12.1985C36.8187 12.0323 36.9033 11.8051 36.9021 11.5229C36.8996 11.0696 36.9008 10.6151 36.9021 10.1619C36.9045 9.28587 36.9057 8.37935 36.8824 7.48382C36.8591 6.62372 36.2695 6.04584 35.3782 6.01041C34.8878 5.99087 34.3827 5.99331 33.9377 5.99575C33.6778 5.99697 33.4179 5.9982 33.1556 5.99575C32.8454 5.99575 32.6113 6.08127 32.436 6.25476C32.2619 6.42825 32.1748 6.66771 32.1773 6.96581V7.14418C32.1822 7.49848 32.1859 7.865 32.1675 8.21808C32.143 8.68234 31.8254 9.03298 31.4295 9.0342C31.0408 9.0342 30.7172 8.67745 30.6927 8.22297C30.6743 7.88211 30.6718 7.50703 30.6853 7.04278C30.6951 6.70436 30.6093 6.44779 30.4205 6.25965C30.2305 6.07028 29.9743 5.98231 29.6384 5.99209C29.2902 6.00064 28.9298 5.9982 28.5718 5.99575H28.5485C28.3854 5.99453 28.2224 5.99331 28.0593 5.99331C27.6168 5.99087 27.1767 5.99331 26.7353 5.99331H26.1677C24.5041 5.99697 22.7829 5.9982 21.0788 5.98598C20.928 5.98476 20.4683 5.97743 20.1655 6.29996C19.9669 6.5101 19.8848 6.79965 19.913 7.18572C19.9338 7.47893 19.9326 7.79903 19.9093 8.22175C19.8835 8.67745 19.5587 9.03542 19.1713 9.03542C18.7826 9.03542 18.459 8.67745 18.4345 8.22053C18.4161 7.87233 18.4136 7.49726 18.4284 7.04033C18.4382 6.71047 18.3548 6.46001 18.1721 6.27309C17.9882 6.08494 17.732 5.99331 17.3875 5.99331C14.4906 5.99942 11.5631 5.99942 8.68703 5.99331C8.35112 5.99331 8.09857 6.08494 7.91591 6.27186C7.73202 6.46001 7.64743 6.71413 7.65846 7.04766C7.67195 7.52292 7.67072 7.88699 7.6511 8.22663C7.62536 8.6799 7.30049 9.03542 6.91064 9.03542C6.51588 9.03298 6.19959 8.68112 6.1763 8.21686C6.15791 7.86378 6.15546 7.48871 6.17017 7.03667C6.17998 6.70558 6.09416 6.45268 5.90904 6.26576C5.72147 6.07639 5.45422 5.98598 5.11709 5.99331C4.79957 5.99942 4.47347 5.9982 4.14982 5.99575H4.13511C3.86785 5.99453 3.53685 5.99209 3.21933 5.99697C2.03384 6.0153 1.45275 6.6054 1.44294 7.80025C1.43558 8.68112 1.43804 9.56687 1.43926 10.4221V11.1625C1.44171 12.2327 1.66361 12.4502 2.75837 12.4502L2.75225 12.4514Z" fill="url(#paint1_linear_1_773)"/>
<path d="M17.1778 20.0396C17.3715 20.0554 17.5726 20.0518 17.7675 20.0469C17.8582 20.0444 17.9502 20.0432 18.0409 20.0432L18.1635 20.0457C18.2052 20.0457 18.2469 20.0469 18.2885 20.0481C18.4639 20.0518 18.6465 20.0542 18.8206 20.042C19.2362 20.0115 19.566 19.6205 19.5574 19.1709C19.5488 18.7286 19.2227 18.356 18.8316 18.3389C18.264 18.3145 17.7074 18.3145 17.1803 18.3401C16.7892 18.3597 16.4692 18.7384 16.468 19.1843C16.4668 19.6217 16.7855 20.0053 17.1778 20.0371V20.0396Z" fill="#0C67BD"/>
<path d="M17.1669 24.7933C17.3495 24.8104 17.5322 24.8055 17.7259 24.8019C17.7725 24.8019 17.8178 24.7994 17.8644 24.7994L17.987 24.7945C18.0826 24.7945 18.1783 24.797 18.2727 24.7994C18.486 24.8055 18.687 24.8104 18.8881 24.7896C19.2534 24.7518 19.5611 24.3633 19.5587 23.9405C19.5562 23.5068 19.2473 23.1244 18.8844 23.1036C18.3254 23.0719 17.743 23.0707 17.1521 23.1012C16.7893 23.1195 16.4754 23.4995 16.4681 23.9283C16.4595 24.3681 16.7733 24.7567 17.1669 24.7933Z" fill="#0C67BD"/>
<path d="M18.8647 27.8537C18.6821 27.8366 18.4994 27.8403 18.3057 27.8452C18.2567 27.8452 18.2064 27.8476 18.1574 27.8489V27.8513H18.0446C17.949 27.8513 17.8546 27.8489 17.7589 27.8464C17.6633 27.844 17.5701 27.8415 17.4782 27.8415C17.3654 27.8415 17.2551 27.8452 17.1435 27.8562C16.7721 27.8941 16.468 28.2716 16.468 28.6992C16.468 29.1341 16.7733 29.5202 17.1362 29.5422C17.6915 29.5752 18.2738 29.5764 18.8672 29.5458C19.2521 29.5263 19.5684 29.1292 19.5574 28.6808C19.5476 28.2532 19.2435 27.8892 18.8647 27.8537Z" fill="#0C67BD"/>
<path d="M7.61925 20.0396C7.81295 20.0554 8.014 20.0518 8.20892 20.0469C8.29964 20.0444 8.39159 20.0432 8.48231 20.0432L8.6049 20.0457C8.64659 20.0457 8.68827 20.0469 8.72995 20.0481C8.90526 20.0518 9.08792 20.0542 9.26201 20.042C9.6776 20.0115 10.0074 19.6205 9.9988 19.1709C9.99022 18.7286 9.66412 18.356 9.27304 18.3389C8.70543 18.3145 8.14885 18.3145 7.6217 18.3401C7.23062 18.3597 6.91065 18.7384 6.90943 19.1843C6.9082 19.6217 7.22695 20.0053 7.61925 20.0371V20.0396Z" fill="#0C67BD"/>
<path d="M7.60692 24.7933C7.78958 24.8104 7.97225 24.8055 8.16595 24.8019C8.21253 24.8019 8.25789 24.7994 8.30448 24.7994L8.42707 24.7945C8.5227 24.7945 8.61832 24.797 8.71272 24.7994C8.92603 24.8055 9.12708 24.8104 9.32814 24.7896C9.69347 24.7518 10.0012 24.3633 9.99873 23.9405C9.99628 23.5068 9.68734 23.1244 9.32446 23.1036C8.76543 23.0719 8.18311 23.0707 7.59221 23.1012C7.22933 23.1195 6.91549 23.4995 6.90813 23.9283C6.89955 24.3681 7.21339 24.7567 7.60692 24.7933Z" fill="#0C67BD"/>
<path d="M9.30614 27.8537C9.12347 27.8366 8.94081 27.8403 8.74711 27.8452C8.70052 27.8452 8.65516 27.8476 8.60858 27.8476L8.48598 27.8513C8.39036 27.8513 8.29474 27.8489 8.20034 27.8464C8.10472 27.844 8.01154 27.8415 7.9196 27.8415C7.80681 27.8415 7.69648 27.8452 7.58492 27.8562C7.21346 27.8941 6.90942 28.2716 6.90942 28.6992C6.90942 29.1341 7.21468 29.5202 7.57756 29.5422C8.13291 29.5752 8.71523 29.5764 9.30859 29.5458C9.69354 29.5251 10.0098 29.1292 9.99879 28.6808C9.98899 28.2532 9.68495 27.8892 9.30614 27.8537Z" fill="#0C67BD"/>
<path d="M39.1136 18.0591H38.3389V17.9369C38.3389 14.5002 38.3388 11.0622 38.3364 7.6255C38.3364 5.81489 37.0602 4.53452 35.2348 4.51253C34.6426 4.5052 33.9402 4.50031 33.2267 4.51253C32.8822 4.51741 32.6223 4.42823 32.4347 4.24008C32.2484 4.05316 32.1638 3.80026 32.1736 3.46917C32.1871 3.01469 32.1859 2.63961 32.1675 2.28776C32.1429 1.8235 31.8267 1.47164 31.4319 1.4692C31.0408 1.4692 30.7172 1.82472 30.6927 2.2792C30.6743 2.61884 30.6718 2.99392 30.6853 3.4594C30.6951 3.79659 30.6093 4.05194 30.4229 4.24008C30.2354 4.42945 29.9792 4.51741 29.642 4.51131C29.1749 4.50275 28.7017 4.5052 28.2432 4.50764H28.2297C27.9931 4.50886 27.7553 4.51008 27.5187 4.51008C26.9376 4.51008 26.3565 4.51008 25.7766 4.50764H25.735C24.2295 4.5052 22.6725 4.50153 21.1389 4.51986C20.8545 4.52352 20.4462 4.4942 20.1643 4.19121C19.8897 3.89555 19.8884 3.50949 19.9117 3.24559C19.9399 2.92916 19.9264 2.59441 19.9081 2.2792C19.8799 1.82472 19.5587 1.4692 19.1737 1.4692C19.1713 1.4692 19.1688 1.4692 19.1676 1.4692C18.7716 1.47164 18.4553 1.8235 18.4308 2.28776C18.4124 2.63595 18.4112 3.02202 18.4247 3.46917C18.4345 3.79537 18.3511 4.04461 18.1697 4.23153C17.9833 4.42334 17.7148 4.51741 17.3765 4.51253C14.4538 4.5052 11.5263 4.5052 8.67844 4.51253C8.33762 4.50642 8.08753 4.41601 7.90977 4.23275C7.72588 4.04338 7.64129 3.7856 7.65355 3.44596C7.66581 3.11242 7.65968 2.77767 7.65355 2.43559C7.64619 2.10205 7.54199 1.82228 7.35932 1.64757C7.23183 1.52662 7.07613 1.46553 6.90205 1.4692C6.48278 1.4753 6.18119 1.86137 6.16648 2.40871L6.16158 2.57364C6.15422 2.796 6.14687 3.00491 6.16648 3.20161C6.21184 3.64999 6.1248 3.98107 5.898 4.21443C5.67243 4.44778 5.34388 4.54674 4.89273 4.51986C4.28344 4.48076 3.64963 4.49787 3.03788 4.51497H2.97781C1.28479 4.5614 0.0061297 5.85155 0.00490376 7.51554C0 13.4666 0 19.4873 0 25.3101V32.9227C0 33.1841 0.0147113 33.5238 0.12995 33.8365C0.606841 35.1426 1.73593 35.9232 3.15067 35.9257C6.99644 35.9306 10.841 35.9293 14.6868 35.9281H19.1455C20.6792 35.9281 22.2128 35.9281 23.7452 35.9281H25.0705L25.122 36.4681C25.1821 37.0912 25.2421 37.7155 25.301 38.3386C25.3328 38.6685 25.4922 39.0631 26.0733 39.0643C29.8651 39.0692 33.6754 39.0692 37.3986 39.0643C37.8767 39.0643 38.1304 38.8163 38.1758 38.3093C38.3119 36.7785 38.4418 35.3612 38.5742 33.977C38.6699 32.9728 38.7679 31.9697 38.866 30.9667C38.9653 29.9502 39.0646 28.9337 39.1615 27.916C39.2264 27.2404 39.2865 26.5636 39.3466 25.8867C39.3968 25.3321 39.4459 24.7786 39.4974 24.2252C39.5525 23.6363 39.6089 23.0474 39.6665 22.4598C39.7781 21.3113 39.8933 20.1238 39.9902 18.9546C40.0184 18.6174 39.9743 18.3987 39.8504 18.2643C39.7217 18.1251 39.4876 18.0603 39.1112 18.0603L39.1136 18.0591ZM1.43803 7.80143C1.44784 6.60658 2.02893 6.01648 3.21442 5.99815C3.53071 5.99327 3.86294 5.99449 4.13019 5.99693H4.14491C4.46855 5.99815 4.79465 6.0006 5.11217 5.99449C5.45053 5.98716 5.71656 6.07757 5.90413 6.26693C6.09047 6.45386 6.17629 6.70676 6.16526 7.03785C6.15177 7.49111 6.153 7.86618 6.17139 8.21804C6.19591 8.6823 6.51097 9.03416 6.90573 9.0366C7.29557 9.0366 7.62045 8.68108 7.64619 8.22781C7.66458 7.88817 7.66703 7.5241 7.65355 7.04884C7.64374 6.71531 7.72833 6.46119 7.911 6.27304C8.09366 6.0849 8.34621 5.99449 8.68211 5.99449C11.5582 6.0006 14.4857 6.0006 17.3826 5.99449C17.7271 5.99449 17.9833 6.08612 18.1672 6.27426C18.3499 6.46119 18.4332 6.71287 18.4234 7.04151C18.41 7.49844 18.4112 7.87351 18.4296 8.2217C18.4541 8.67863 18.7777 9.0366 19.1664 9.0366C19.555 9.0366 19.8786 8.67863 19.9044 8.22293C19.9277 7.80021 19.9289 7.48133 19.9081 7.1869C19.8799 6.80205 19.9632 6.5125 20.1606 6.30114C20.4646 5.97861 20.9231 5.98471 21.0739 5.98716C22.778 6.0006 24.498 5.99815 26.1628 5.99571H26.7304C27.1705 5.99327 27.6119 5.99204 28.0544 5.99449C28.2163 5.99449 28.3805 5.99449 28.5436 5.99693H28.5669C28.9261 5.99938 29.2853 6.00182 29.6334 5.99327C29.9694 5.98349 30.2268 6.07146 30.4156 6.26083C30.6044 6.45019 30.6902 6.70554 30.6804 7.04396C30.6669 7.50821 30.6681 7.88206 30.6878 8.22415C30.7123 8.67863 31.0359 9.03538 31.4245 9.03538C31.8205 9.03538 32.138 8.68352 32.1626 8.21926C32.1809 7.86618 32.1773 7.49966 32.1736 7.14536V6.96699C32.1699 6.66888 32.257 6.42942 32.431 6.25594C32.6051 6.08245 32.8405 5.99815 33.1507 5.99693C33.413 5.99938 33.6729 5.99693 33.9328 5.99693C34.3778 5.99449 34.8841 5.99204 35.3733 6.01159C36.2646 6.04702 36.8555 6.6249 36.8775 7.485C36.9008 8.37931 36.8996 9.28583 36.8971 10.163C36.8971 10.6163 36.8947 11.0708 36.8971 11.524C36.8984 11.8063 36.815 12.0335 36.647 12.1997C36.4742 12.3707 36.2449 12.4513 35.9446 12.4489C35.8477 12.4489 35.7497 12.4489 35.6504 12.4489H35.6356C35.5572 12.4489 35.4775 12.4513 35.399 12.4513H14.6929H11.2198C8.39647 12.4513 5.57435 12.4513 2.75224 12.4513C1.65747 12.4513 1.4368 12.2351 1.43558 11.1636V10.4233C1.4319 9.56683 1.43067 8.6823 1.43803 7.80143ZM23.3566 34.4425C19.7548 34.4425 16.1518 34.4425 12.55 34.4425C9.52556 34.4425 6.50239 34.4425 3.47799 34.4425C1.9517 34.4425 1.43558 33.9269 1.43558 32.3985C1.43558 26.6772 1.43558 20.9558 1.43558 15.2344C1.43558 14.1557 1.65625 13.9382 2.74488 13.937C6.81255 13.937 10.8802 13.937 14.9467 13.937H19.17H23.3934C27.4611 13.937 31.5287 13.937 35.5952 13.937C36.6826 13.937 36.902 14.1557 36.902 15.2357V18.0591H27.721C26.5527 18.0591 25.3831 18.0591 24.2148 18.0615C23.9622 18.0615 23.7722 18.1251 23.6509 18.246C23.5307 18.367 23.4706 18.5551 23.4719 18.8043C23.4731 19.0267 23.4866 19.2588 23.5111 19.5117C23.5736 20.1409 23.6361 20.7689 23.6999 21.3981C23.7992 22.3828 23.9022 23.4017 23.9978 24.4048C24.0971 25.4616 24.1915 26.5196 24.2871 27.5764C24.3742 28.5538 24.4624 29.5299 24.5531 30.5073C24.6721 31.7742 24.7934 33.0412 24.9148 34.3081L24.9271 34.4425H23.3542H23.3566ZM37.8497 26.8727C37.7847 27.5739 37.7222 28.2764 37.6609 28.9777C37.6119 29.5311 37.5628 30.0858 37.5126 30.6393C37.4574 31.2403 37.401 31.8414 37.3446 32.4425C37.2833 33.0962 37.222 33.751 37.1619 34.4046C37.097 35.1267 37.0357 35.8487 36.9756 36.5708L36.9168 37.2671C36.8886 37.6043 36.7133 37.7619 36.3651 37.7619C36.3614 37.7619 36.3577 37.7619 36.3541 37.7619C35.209 37.7509 34.0444 37.7522 32.9177 37.7546C32.5095 37.7546 32.1013 37.7546 31.6942 37.7546C31.2934 37.7546 30.8925 37.7546 30.4904 37.7534C29.3993 37.7509 28.2702 37.7497 27.1607 37.7632C27.1546 37.7632 27.1485 37.7632 27.1423 37.7632C26.7537 37.7632 26.5809 37.5982 26.5441 37.1987C26.3148 34.6368 26.0794 32.0907 25.8514 29.6289L25.8379 29.4774C25.7202 28.2068 25.5989 26.8922 25.4665 25.6021C25.4358 25.304 25.5302 25.1415 25.8012 25.0193C26.8224 24.5599 27.8325 24.136 28.9592 23.9881C30.2011 23.8257 31.4932 24.0309 32.9104 24.6173C34.129 25.1219 35.7435 25.7633 37.428 26.2532C37.7541 26.3473 37.8791 26.533 37.8472 26.8727H37.8497ZM38.5448 19.8966C38.3903 21.3272 38.2457 22.8287 38.1047 24.4854C38.0949 24.6063 38.0667 24.7762 37.9392 24.8605C37.884 24.8971 37.8227 24.9106 37.759 24.9106C37.6744 24.9106 37.5873 24.8861 37.5064 24.8617C36.2266 24.4622 34.9295 23.9881 33.5405 23.4127C32.1258 22.8251 30.8018 22.5599 29.4949 22.599C28.383 22.632 27.2355 22.9204 25.8833 23.5056L25.8686 23.5117C25.6246 23.6167 25.502 23.6705 25.3917 23.6045C25.2814 23.5398 25.2703 23.409 25.247 23.1476L25.2164 22.8018C25.1318 21.8562 25.0435 20.8776 24.9307 19.9198C24.9136 19.7732 24.9087 19.6082 25.0067 19.4995C25.1036 19.3908 25.2642 19.3798 25.4187 19.3773C27.0136 19.3871 28.6355 19.3859 30.2035 19.3847H31.7629H33.2855C34.8535 19.3847 36.4742 19.3859 38.0691 19.3786C38.2457 19.3786 38.3793 19.3969 38.4676 19.4946C38.5632 19.5997 38.5607 19.7561 38.5448 19.8953V19.8966Z" fill="#0C67BD"/>
<path d="M29.3526 35.0424C29.3502 34.9605 29.3465 34.8799 29.3392 34.7993L29.2362 33.6606C29.0927 32.0821 28.9493 30.5024 28.801 28.924L28.7936 28.8397C28.736 28.2264 28.6771 27.5935 28.5864 26.9753C28.5435 26.6809 28.264 26.4659 27.9367 26.4659C27.9171 26.4659 27.8987 26.4658 27.8791 26.4683C27.5358 26.4952 27.2833 26.7578 27.2759 27.0926C27.2698 27.3919 27.2931 27.6925 27.3151 27.9478C27.4917 29.9124 27.6559 31.7107 27.8178 33.4456L27.8362 33.6496C27.8913 34.2483 27.9489 34.8677 28.0311 35.4712C28.085 35.8634 28.3756 36.0833 28.7899 36.0454C29.0437 36.0222 29.3784 35.9013 29.3539 35.1316L29.3502 35.0424H29.3526Z" fill="#0C67BD"/>
</g>
<defs>
<linearGradient id="paint0_linear_1_773" x1="31.6604" y1="23.934" x2="31.6604" y2="37.7632" gradientUnits="userSpaceOnUse">
<stop stop-color="#12E3FD"/>
<stop offset="1" stop-color="#24BEFD"/>
</linearGradient>
<linearGradient id="paint1_linear_1_773" x1="19.1706" y1="5.98574" x2="19.1706" y2="12.4514" gradientUnits="userSpaceOnUse">
<stop stop-color="#12E3FD"/>
<stop offset="1" stop-color="#24BEFD"/>
</linearGradient>
<clipPath id="clip0_1_773">
<rect width="40" height="37.6" fill="white" transform="translate(0 1.46924)"/>
</clipPath>
</defs>
</svg>
