<svg width="40" height="41" viewBox="0 0 40 41" fill="none" xmlns="http://www.w3.org/2000/svg">
<g clip-path="url(#clip0_1_960)">
<g clip-path="url(#clip1_1_960)">
<path d="M15.6008 16.2981C15.5819 15.8494 15.6081 15.4317 16.2404 15.4345C16.8407 15.4373 16.9426 15.8074 16.9164 16.2798C16.8902 16.7425 16.9354 17.2584 16.2244 17.2458C15.5455 17.2331 15.5965 16.7439 15.6008 16.2995V16.2981Z" fill="#0C67BD"/>
<path d="M30.4454 13.6819C30.6275 13.7913 30.964 13.8404 30.8271 14.1236C30.7353 14.3114 30.4789 14.289 30.3113 14.1011C30.3405 13.9567 30.2094 13.7647 30.4454 13.6805V13.6819Z" fill="#0C67BD"/>
<path d="M21.6368 15.3895C21.6674 15.3475 21.6966 15.3068 21.7272 15.2648C21.7563 15.3138 21.7854 15.3629 21.8146 15.4134C21.7447 15.4779 21.6835 15.4877 21.6368 15.3895Z" fill="#0C67BD"/>
<path d="M14.5359 28.2341C16.4269 28.2341 18.3195 28.2453 20.2106 28.2256C20.6331 28.2214 20.7991 28.2901 20.7875 28.7486C20.7525 30.1477 20.7685 31.5482 20.7787 32.9488C20.7817 33.3048 20.7248 33.4969 20.2805 33.6231C18.8032 34.0409 17.54 34.8161 16.494 35.9265C15.8194 36.6429 15.0356 37.0634 13.9254 36.9723C12.5282 36.8574 11.115 36.9457 9.70765 36.9415C8.83787 36.9387 8.24053 36.4017 8.23325 35.5521C8.21285 33.2656 8.23616 30.979 8.20265 28.6925C8.19537 28.2032 8.47801 28.2397 8.78688 28.2397C10.7027 28.2355 12.6186 28.2383 14.5344 28.2369L14.5359 28.2341Z" fill="url(#paint0_linear_1_960)"/>
<path d="M14.8535 39.1173C15.4421 38.5818 15.9287 38.122 16.4357 37.6845C17.1292 37.0873 17.8489 36.5167 18.541 35.9167C20.1683 34.5078 22.9132 34.4475 24.5988 35.8074C25.8911 36.8504 27.1339 37.9509 28.5048 39.1173H14.8535ZM23.2439 36.1102C23.3182 35.6125 22.9569 35.5802 22.5854 35.5424C22.1221 35.4947 21.9764 35.8578 21.9589 36.134C21.9356 36.5013 22.2503 36.7761 22.6364 36.7943C23.0763 36.8168 23.273 36.5364 23.2439 36.1102ZM24.7707 36.9499C24.3628 36.8953 24.0904 36.9976 24.1151 37.4518C24.137 37.8374 24.2433 38.1107 24.7445 38.0729C25.1364 38.0434 25.4074 37.9103 25.422 37.5163C25.4366 37.1042 25.2355 36.863 24.7707 36.9499ZM21.1882 38.4809C21.6529 38.5383 21.7943 38.3308 21.7986 37.9159C21.803 37.4799 21.6121 37.3705 21.1867 37.3523C20.7322 37.3313 20.5093 37.6173 20.5107 37.9033C20.5122 38.2131 20.6972 38.5958 21.1867 38.4809H21.1882Z" fill="url(#paint1_linear_1_960)"/>
<path d="M17.9946 21.3029C18.0179 20.8851 17.8956 20.3889 18.6211 20.4043C19.2199 20.4169 19.3117 20.7548 19.3204 21.2328C19.3292 21.7642 19.1587 22.1903 18.5788 22.2114C17.964 22.2324 17.983 21.7347 17.9961 21.3029H17.9946Z" fill="#0C67BD"/>
<path d="M15.528 24.0634C15.4537 23.6147 15.5586 23.3414 16.1924 23.3316C16.9529 23.3189 16.813 23.7732 16.8392 24.2036C16.8684 24.6872 16.7547 25.0377 16.1661 25.0335C15.4872 25.0293 15.5091 24.5639 15.528 24.0634Z" fill="#0C67BD"/>
<path d="M23.2453 36.1088C23.2745 36.535 23.0778 36.8154 22.6378 36.7929C22.2517 36.7733 21.937 36.4999 21.9603 36.1326C21.9778 35.8578 22.1235 35.4947 22.5868 35.541C22.9583 35.5789 23.3196 35.6111 23.2453 36.1088Z" fill="#0C67BD"/>
<path d="M24.7707 36.9484C25.2355 36.8629 25.438 37.1041 25.4219 37.5148C25.4074 37.9088 25.1364 38.0419 24.7445 38.0714C24.2433 38.1092 24.1355 37.8345 24.1151 37.4503C24.0903 36.9961 24.3628 36.8938 24.7707 36.9484Z" fill="#0C67BD"/>
<path d="M21.1896 38.4794C20.6986 38.5943 20.515 38.2102 20.5136 37.9018C20.5121 37.6158 20.735 37.3298 21.1896 37.3508C21.6135 37.3705 21.8058 37.4784 21.8015 37.9144C21.7971 38.3294 21.6558 38.5369 21.191 38.4794H21.1896Z" fill="#0C67BD"/>
<path d="M29.8685 38.5144C29.0234 37.8331 28.2236 37.1027 27.3917 36.4087C26.6516 35.7919 26.1213 35.2535 25.1553 34.5792C24.6177 34.2035 24.3948 33.9133 24.3992 33.2866C24.4298 28.8761 24.4181 24.4642 24.4138 20.0538C24.4138 18.921 23.7829 18.3097 22.6174 18.2943C21.8175 18.2845 21.0162 18.2691 20.2164 18.2999C19.6351 18.3224 19.1863 18.335 19.2883 17.5429C19.3408 17.1349 18.9809 16.9022 18.5409 16.9204C18.1636 16.9359 17.948 17.177 18.0062 17.5163C18.1359 18.2635 17.744 18.3097 17.1132 18.3041C13.5233 18.2775 9.93348 18.2873 6.34364 18.2929C5.2189 18.2943 4.93771 18.4892 4.59388 19.514C4.57494 19.5715 4.55163 19.622 4.52832 19.6682V32.2758C4.60699 32.4637 4.77163 32.5955 5.11691 32.6025C5.84829 32.6179 5.91822 32.1174 5.9153 31.5636C5.90656 29.7201 5.92696 21.9786 5.90073 20.1337C5.89491 19.6794 6.02312 19.5547 6.50098 19.5561C11.7415 19.5729 16.9806 19.5715 22.2211 19.5589C22.8345 19.5575 23.1113 19.6963 23.1069 20.3706C23.0763 24.3857 23.0909 28.4009 23.0982 32.4146C23.0982 32.6964 22.9845 32.96 22.9758 33.2235C22.9627 33.5684 22.8053 33.5726 22.5329 33.5852C22.1643 33.6021 22.1628 33.4058 22.1643 33.1492C22.1701 31.6085 22.1585 30.0678 22.1701 28.527C22.1789 27.362 21.8059 26.863 20.5762 26.9877C20.3606 27.0088 20.1392 26.9849 19.9221 26.9919C19.5812 27.0031 19.2796 27.0466 19.2738 26.5349C19.2708 26.291 19.1004 25.9657 18.6619 26.0008C18.2583 26.0316 18.0062 26.1844 18.0048 26.577C18.0048 27.076 17.6289 26.9092 17.3856 26.9092C14.4018 26.919 11.4181 26.9162 8.43431 26.9134C8.07154 26.9134 7.72334 26.9246 7.39553 27.1125C7.02547 27.3256 6.81713 27.5653 6.82151 28.0336C6.84482 30.6692 6.82442 33.3048 6.82151 35.9419C6.82151 36.6344 7.78307 37.7209 8.59894 38.0714C9.19482 38.328 9.78924 38.2326 10.3909 38.2312C11.4589 38.2284 12.5253 38.2312 13.6719 38.2312C13.1795 38.9364 12.5763 39.2799 11.7299 39.2687C10.6736 39.2547 9.77176 39.3107 8.81311 39.0359C7.38679 38.628 6.39609 37.8022 6.02312 36.3414C5.94007 36.0176 5.90365 35.7302 5.90802 35.4049C5.92696 33.3974 5.91385 31.3898 5.92113 29.3822C5.92113 29.1159 5.88034 28.8579 5.672 28.6939C5.44472 28.5144 5.13294 28.4724 4.85321 28.5537C4.56474 28.6378 4.59242 28.9168 4.59097 29.1467C4.58368 29.8939 4.59097 30.6412 4.57931 31.387C4.5764 31.5216 4.63613 31.7164 4.53415 31.8118V35.9223C4.53415 37.2639 5.37916 38.2719 5.71279 38.6056C6.75157 39.6444 7.85737 40.5052 9.53428 40.4645C12.6608 40.3888 15.7917 40.4435 18.9212 40.4435C22.3173 40.4435 25.7133 40.4393 29.1079 40.4491C29.698 40.4505 30.2254 40.1771 30.3813 39.7411C30.5153 39.3668 30.2545 38.82 29.8728 38.5116L29.8685 38.5144ZM13.9269 36.9709C12.5297 36.8559 11.1165 36.9443 9.70911 36.9401C8.83933 36.9373 8.242 36.4003 8.23471 35.5507C8.21432 33.2642 8.23763 30.9776 8.20412 28.6911C8.19683 28.2018 8.47948 28.2382 8.78834 28.2382C10.7042 28.234 12.62 28.2368 14.5359 28.2368C16.427 28.2368 18.3195 28.2467 20.2106 28.227C20.6331 28.2228 20.7992 28.2915 20.7875 28.75C20.7525 30.1491 20.7686 31.5496 20.7788 32.9502C20.7817 33.3062 20.7249 33.4983 20.2805 33.6245C18.8032 34.0423 17.54 34.8175 16.494 35.9279C15.8194 36.6442 15.0356 37.0648 13.9254 36.9723L13.9269 36.9709ZM14.8549 39.1173C15.4435 38.5817 15.9301 38.1219 16.4371 37.6845C17.1306 37.0873 17.8504 36.5167 18.5424 35.9166C20.1698 34.5077 22.9146 34.4474 24.6002 35.8073C25.8925 36.8503 27.1353 37.9508 28.5062 39.1173H14.8549Z" fill="#0C67BD"/>
<path d="M16.6105 12.1777V1.12769H35.5416V15.862H20.4815L16.6105 12.1777Z" fill="white"/>
<path d="M35.5417 0.46875H16.6105C16.2332 0.46875 15.9258 0.764558 15.9258 1.12766V12.1777C15.9258 12.353 16.0001 12.5226 16.1283 12.646L19.9993 16.3302C20.129 16.4536 20.2994 16.5209 20.4801 16.5209H35.5417C35.919 16.5209 36.2264 16.2251 36.2264 15.862V1.12766C36.2264 0.764558 35.919 0.46875 35.5417 0.46875ZM20.7627 15.2031L17.2953 11.9029V1.78657H34.8584V15.2045H20.7627V15.2031Z" fill="#0C67BD"/>
<path d="M25.3141 3.81238H23.4958V12.8268H25.3141V3.81238Z" fill="url(#paint2_linear_1_960)"/>
<path d="M25.3141 13.274H23.4959C23.238 13.274 23.0297 13.0736 23.0297 12.8254V3.81239C23.0297 3.56425 23.238 3.36377 23.4959 3.36377H25.3141C25.572 3.36377 25.7803 3.56425 25.7803 3.81239V12.8268C25.7803 13.075 25.572 13.2754 25.3141 13.2754V13.274ZM23.9621 12.3768H24.8479V4.25961H23.9621V12.3768Z" fill="#0C67BD"/>
<path d="M29.5654 3.81238H27.7472V12.8268H29.5654V3.81238Z" fill="url(#paint3_linear_1_960)"/>
<path d="M29.5655 13.274H27.7472C27.4893 13.274 27.281 13.0736 27.281 12.8254V3.81239C27.281 3.56425 27.4893 3.36377 27.7472 3.36377H29.5655C29.8233 3.36377 30.0317 3.56425 30.0317 3.81239V12.8268C30.0317 13.075 29.8233 13.2754 29.5655 13.2754V13.274ZM28.2134 12.3768H29.0992V4.25961H28.2134V12.3768Z" fill="#0C67BD"/>
</g>
</g>
<defs>
<linearGradient id="paint0_linear_1_960" x1="14.4953" y1="28.2255" x2="14.4953" y2="36.9846" gradientUnits="userSpaceOnUse">
<stop stop-color="#12E6FD"/>
<stop offset="1" stop-color="#27BAFD"/>
</linearGradient>
<linearGradient id="paint1_linear_1_960" x1="21.6792" y1="34.8228" x2="21.6792" y2="39.1173" gradientUnits="userSpaceOnUse">
<stop stop-color="#12E6FD"/>
<stop offset="1" stop-color="#27BAFD"/>
</linearGradient>
<linearGradient id="paint2_linear_1_960" x1="24.405" y1="3.81238" x2="24.405" y2="12.8268" gradientUnits="userSpaceOnUse">
<stop stop-color="#12E6FD"/>
<stop offset="1" stop-color="#27BAFD"/>
</linearGradient>
<linearGradient id="paint3_linear_1_960" x1="28.6563" y1="3.81238" x2="28.6563" y2="12.8268" gradientUnits="userSpaceOnUse">
<stop stop-color="#12E6FD"/>
<stop offset="1" stop-color="#27BAFD"/>
</linearGradient>
<clipPath id="clip0_1_960">
<rect width="40" height="40" fill="white" transform="translate(0 0.46875)"/>
</clipPath>
<clipPath id="clip1_1_960">
<rect width="31.6981" height="40" fill="white" transform="translate(4.52832 0.46875)"/>
</clipPath>
</defs>
</svg>
