<svg width="2145" height="169" viewBox="0 0 2145 169" fill="none" xmlns="http://www.w3.org/2000/svg">
<path d="M1.36256 103.853C132.169 25.0008 312.714 -7.21183 453.894 66.5838C470.6 75.3176 487.404 85.3598 497.778 101.166C508.936 118.174 504.686 138.67 481.954 142.819C465.505 145.825 445.296 138.199 435.878 124.739C424.475 108.438 437.139 89.6854 450.44 78.8064C480.288 54.3965 524.405 46.9827 562.373 45.9573C601.811 44.9083 641.286 51.0963 679.205 61.2091C757.774 82.1656 830.563 119.847 910.749 135.783C991.315 151.801 1074.69 148.17 1153.91 127.426C1231.29 107.165 1304.42 73.9622 1382.67 56.5416C1467.53 37.6478 1556.34 38.685 1642.96 40.123C1686.72 40.8537 1730.37 44.0715 1772.31 56.8835C1811.23 68.7761 1847.53 86.951 1884.41 103.558C1921.82 120.413 1960.19 135.217 1999.32 147.935C2032.94 158.861 2068.66 170.801 2104.69 168.773C2118.87 167.972 2132.49 164.577 2144.57 157.258C2145.57 156.657 2144.64 155.124 2143.64 155.726C2108.99 176.706 2063.12 165.461 2026.84 154.653C1982.15 141.334 1938.29 125.352 1895.73 106.658C1857.97 90.0626 1821.19 71.1216 1781.85 58.0621C1739.56 44.0243 1695.71 39.5454 1651.2 38.5082C1561.23 36.4102 1468.4 35.3612 1380.29 55.2451C1295.87 74.2922 1217.3 111.514 1132.92 130.738C1042.01 151.447 946.868 147.569 857.876 120.519C777.395 96.062 701.545 57.7203 616.974 47.0888C577.903 42.1738 537.265 42.4685 499.248 53.3593C472.952 60.8909 432.902 77.3449 429.754 108.072C427.317 131.822 457.005 146.791 478.414 145.012C489.278 144.104 500.889 138.376 504.919 128.062C509.352 116.747 502.959 104.43 495.929 95.5434C475.401 69.6011 438.119 55.2805 407.059 44.9201C369.862 32.5442 330.571 26.038 291.268 24.3997C209.232 20.9816 127.013 39.6515 53.3422 74.0447C35.1665 82.531 17.5419 92.0074 0.431725 102.321C-0.572595 102.922 0.358238 104.454 1.36256 103.853Z" fill="#BABFDE"/>
<g filter="url(#filter0_d_1_8)">
<circle cx="355.201" cy="32.2009" r="27.2593" transform="rotate(-85.7582 355.201 32.2009)" fill="url(#paint0_linear_1_8)"/>
</g>
<defs>
<filter id="filter0_d_1_8" x="321.94" y="0.940361" width="66.5211" height="66.5211" filterUnits="userSpaceOnUse" color-interpolation-filters="sRGB">
<feFlood flood-opacity="0" result="BackgroundImageFix"/>
<feColorMatrix in="SourceAlpha" type="matrix" values="0 0 0 0 0 0 0 0 0 0 0 0 0 0 0 0 0 0 127 0" result="hardAlpha"/>
<feOffset dy="2"/>
<feGaussianBlur stdDeviation="3"/>
<feComposite in2="hardAlpha" operator="out"/>
<feColorMatrix type="matrix" values="0 0 0 0 0 0 0 0 0 0 0 0 0 0 0 0 0 0 0.1 0"/>
<feBlend mode="normal" in2="BackgroundImageFix" result="effect1_dropShadow_1_8"/>
<feBlend mode="normal" in="SourceGraphic" in2="effect1_dropShadow_1_8" result="shape"/>
</filter>
<linearGradient id="paint0_linear_1_8" x1="373.286" y1="14.9017" x2="341.309" y2="30.104" gradientUnits="userSpaceOnUse">
<stop stop-color="#11E4FC"/>
<stop offset="0.791925" stop-color="#25BBFE"/>
</linearGradient>
</defs>
</svg>
