<svg width="320" height="130" viewBox="0 0 320 130" fill="none" xmlns="http://www.w3.org/2000/svg">
<path d="M-955.017 71.5108C-860.678 1.35962 -730.467 -27.2985 -628.646 38.3541C-616.597 46.1242 -604.478 55.0583 -596.996 69.12C-588.949 84.2512 -592.014 102.486 -608.409 106.177C-620.272 108.851 -634.847 102.067 -641.64 90.0919C-649.863 75.5898 -640.73 58.9066 -631.137 49.2281C-609.61 27.5116 -577.793 20.916 -550.41 20.0037C-521.967 19.0704 -493.497 24.5756 -466.149 33.5725C-409.484 52.2166 -356.988 85.7402 -299.156 99.9173C-241.051 114.168 -180.923 110.938 -123.79 92.4827C-67.9811 74.4573 -15.2378 44.9183 41.1979 29.4201C102.404 12.6111 166.454 13.5338 228.922 14.8131C260.484 15.4633 291.965 18.3259 322.21 29.7242C350.283 40.3045 376.464 56.4739 403.061 71.2486C430.038 86.2436 457.713 99.4139 485.935 110.728C510.182 120.449 535.94 131.071 561.928 129.267C572.156 128.554 581.979 125.534 590.689 119.023C591.413 118.488 590.742 117.125 590.017 117.66C565.028 136.325 531.947 126.321 505.783 116.705C473.551 104.856 441.919 90.6372 411.223 74.0064C383.99 59.2422 357.464 42.3912 329.092 30.7728C298.59 18.284 266.967 14.2993 234.867 13.3765C169.978 11.51 103.031 10.5768 39.4843 28.2666C-21.4034 45.212 -78.0687 78.3266 -138.921 95.4293C-204.49 113.853 -273.107 110.403 -337.29 86.3379C-395.333 64.5795 -450.037 30.4687 -511.031 21.0103C-539.209 16.6377 -568.518 16.8998 -595.936 26.5889C-614.901 33.2894 -643.786 47.9278 -646.056 75.2647C-647.814 96.394 -626.402 109.711 -610.962 108.128C-603.127 107.32 -594.753 102.224 -591.847 93.049C-588.649 82.9824 -593.26 72.0246 -598.33 64.1182C-613.135 41.0385 -640.023 28.2981 -662.424 19.0809C-689.251 8.07065 -717.588 2.28239 -745.934 0.824842C-805.099 -2.21609 -864.397 14.3937 -917.529 44.9917C-930.638 52.5416 -943.349 60.9724 -955.689 70.1476C-956.413 70.6824 -955.742 72.0455 -955.017 71.5108Z" fill="#BABFDE"/>
</svg>
