<svg xmlns="http://www.w3.org/2000/svg" aria-hidden="true" style="position:absolute;width:0;height:0;overflow:hidden">
  <defs>
    <symbol id="icon-girl" viewBox="0 0 32 32">
      <path d="m7.845 2.673.163-.156-.121-.191C7.56 1.811 6.781.948 5.231.948c-1.006 0-1.739.255-2.241.781-1.098 1.15-.985 3.503-.886 5.581.059 1.228.114 2.388-.08 3.297l-.12.563.516-.258c1.301-.652 1.616-2.123 1.891-3.977.176-1.182.328-2.202 1.053-2.58.282-.147.6-.174.97-.082l.172.042 1.171-1.462c.046-.058.1-.116.17-.183v.001zM7.368 11.544l-.025.4.383-.118a5.592 5.592 0 0 0 2.09-1.181c.023-.021.047-.041.069-.063a5.543 5.543 0 0 0 1.647-2.798l.005-.017a.213.213 0 0 1 .008-.027l.006-.019a.433.433 0 0 1 .01-.025l.009-.02.009-.018.014-.024.011-.017a.21.21 0 0 1 .016-.022l.013-.017.017-.019.016-.016.016-.014.017-.014.018-.014.019-.013.019-.011.02-.011.021-.01a.173.173 0 0 1 .024-.01l.02-.007.021-.007.023-.006.02-.004.024-.004.021-.003.024-.001h.044a.52.52 0 0 1 .024.003l.02.003.026.005.02.005a.16.16 0 0 1 .026.008l.02.007.023.009.019.009.02.01.033.019a13.378 13.378 0 0 0 11.209 1.635l.268-.08-.083-.267c-1.116-3.597-3.92-5.578-7.897-5.578-2.43 0-4.483.767-5.934 2.217-1.442 1.442-2.29 3.561-2.453 6.127l.002-.001zm2.381-.974v-.062h.068l-.068.062zM29.404 7.31c.099-2.077.211-4.431-.886-5.58-.502-.526-1.235-.781-2.241-.781-1.552 0-2.331.863-2.657 1.377l-.121.191.163.156c.071.068.125.126.171.184l1.172 1.462.172-.042c.37-.092.686-.066.97.082.726.378.878 1.398 1.053 2.58.275 1.854.589 3.324 1.891 3.976l.516.258-.12-.563c-.194-.91-.139-2.07-.08-3.299h-.001zM26.554 26.479l-.085-.078c-1.611-1.689-3.216-2.289-4.389-2.727a16.224 16.224 0 0 1-.78-.306l-.069-.029-.049.057c-.013.015-1.367 1.53-5.122 1.58-3.769.048-5.903-1.594-5.924-1.611l-.04-.032-.132.037c-.838.237-2.398.679-4.921 3.026l-.09.082v5.42h-.234v.101h22.549v-.101h-.716V26.48zM16.663 18.679c-.897.62-.963.621-1.799.017-.151-.108-.289-.163-.42-.163-.148 0-.282.069-.408.208-.236.258-.221.555.038.835.432.466.993.712 1.667.732.696-.012 1.273-.266 1.709-.755.254-.285.252-.573-.006-.834-.233-.235-.481-.247-.782-.039v-.001zM11.697 13.606h-.019c-.352 0-.555.181-.656.582-.04.162-.037.341-.034.471.001.05.002.093 0 .124v.254c.002.135.003.231 0 .326-.011.299.06.535.203.683.12.124.289.191.511.186.521 0 .65-.465.667-.855.017-.396.034-.801-.023-1.18-.06-.392-.272-.585-.648-.591v-.001zM20.757 15.163l-.01-.176.003-.195c.003-.138.007-.268-.006-.396-.054-.557-.254-.788-.685-.788h-.031c-.283.007-.613.099-.651.757-.026.446-.033.817.016 1.179.028.211.153.7.659.687.56-.014.68-.469.702-.739.009-.107.006-.216.004-.331h-.003l.003.001z"/>
      <path d="M9.748 10.57c.023-.02.046-.04.068-.062h-.068v.062z"/>
      <path d="m31.256 11.664-.008-.044a.423.423 0 0 0-.059-.138l-.019-.029a.464.464 0 0 0-.114-.111l-.022-.013-.023-.014-.007-.003c-.014-.007-.025-.013-.036-.017-.731-.297-.716-1.819-.615-3.936.108-2.267.232-4.837-1.147-6.28C28.525.365 27.539.003 26.277.003c-.731 0-1.398.155-1.984.461a3.977 3.977 0 0 0-1.579 1.523l-.087.153-.176-.014a2.002 2.002 0 0 0-1.406.429l-.821.661-.157-.073c-1.273-.59-2.725-.889-4.314-.889s-3.042.3-4.315.89l-.157.073-.821-.661a2.01 2.01 0 0 0-1.406-.429l-.176.014-.087-.153C8.451 1.389 7.424.002 5.229.002 3.967.002 2.982.363 2.3 1.078.922 2.521 1.044 5.09 1.153 7.357c.101 2.118.116 3.64-.614 3.936l-.035.016-.021.011-.039.025a.476.476 0 0 0-.112.112l-.017.027a.476.476 0 0 0-.058.141l-.006.029c-.002.013-.004.02-.004.028l-.002.047v.008l.002.038.003.023.003.023a.167.167 0 0 0 .005.018l.008.031a.56.56 0 0 0 .01.027l.008.021c.004.01.014.029.025.048l.008.013a.382.382 0 0 0 .077.093l.016.015c.012.01.027.023.044.034.02.012.037.022.056.031l.013.007a.442.442 0 0 0 .117.034l.018.003a.443.443 0 0 0 .055.004h.014c3.757-.005 4.233-3.212 4.518-5.127.08-.537.189-1.271.35-1.622l.486-1.06.043 1.165c.002.05.004.1.009.15.06.519.329 1.001.738 1.325l.465.367-.079.193c-.514 1.259-.804 2.704-.861 4.297l-.007.197-.188.057a3.126 3.126 0 0 0-2.198 2.962 3.096 3.096 0 0 0 2.483 3.034l.161.032.05.156a9.458 9.458 0 0 0 2.429 3.945l.299.291-.385.163C4.934 24.449 1.822 27.68.275 31.821a.358.358 0 0 0-.02.073h1.012a14.884 14.884 0 0 1 2.244-3.867l.493-.613v4.479h.716v-5.966l5.544-3.131c2.361 1.224 3.527 1.65 5.73 1.654 4.529.009 5.524-1.82 5.524-1.82l5.752 3.296v5.966h.233v-4.479l.492.613a14.868 14.868 0 0 1 2.244 3.867h1.012a.605.605 0 0 0-.02-.073c-1.546-4.14-4.659-7.372-8.765-9.098l-.385-.163.299-.291a9.464 9.464 0 0 0 2.429-3.945l.05-.156.162-.032a3.096 3.096 0 0 0 2.483-3.034 3.126 3.126 0 0 0-2.199-2.961l-.188-.057-.011-.28a13.908 13.908 0 0 0-.322-2.483l-.004-.021a.48.48 0 0 0-.025-.115l-.006-.021a10.884 10.884 0 0 0-.501-1.572l-.079-.193.465-.367c.41-.324.679-.806.738-1.325.006-.049.007-.098.009-.147l.042-1.17.486 1.064c.16.35.269 1.084.349 1.619.217 1.462.546 3.672 2.342 4.639.602.324 1.334.489 2.176.49h.012c.021 0 .04-.002.059-.004l.019-.003a.432.432 0 0 0 .116-.035l.009-.004a.449.449 0 0 0 .107-.069l.014-.013c.012-.012.025-.024.037-.038a.352.352 0 0 0 .04-.057l.008-.014a.378.378 0 0 0 .028-.057l.002-.007.013-.035.007-.026.005-.02.003-.018.004-.033.001-.03v-.016c0-.005 0-.018-.002-.03l-.003-.028-.001-.001zM15.754 3.2c3.976 0 6.781 1.98 7.897 5.578l.083.266-.268.08A13.379 13.379 0 0 1 12.224 7.47l-.02-.01-.019-.009a.558.558 0 0 0-.023-.009l-.02-.007a.669.669 0 0 1-.026-.008l-.02-.005-.026-.005-.02-.003-.024-.002h-.044l-.024.001-.021.003-.024.004-.02.004-.023.006-.021.007a.388.388 0 0 0-.02.007l-.024.01-.021.01-.02.011-.019.011-.019.013-.018.014-.017.014-.016.014-.016.016-.017.019-.013.017a.21.21 0 0 0-.016.022l-.011.017a.395.395 0 0 0-.014.024l-.009.018a.13.13 0 0 0-.009.02l-.01.025-.006.019-.008.027-.005.017a5.547 5.547 0 0 1-1.647 2.798l-.069.063a5.584 5.584 0 0 1-2.09 1.181l-.383.118.025-.4C7.54 8.976 8.388 6.858 9.83 5.415c1.451-1.45 3.503-2.217 5.934-2.217h-.002zm-9.25 1.118-.172-.042c-.37-.092-.688-.066-.97.082-.726.378-.878 1.398-1.053 2.58-.275 1.854-.589 3.324-1.891 3.977l-.516.258.12-.563c.194-.91.139-2.07.08-3.297-.099-2.077-.211-4.431.886-5.581.502-.526 1.235-.781 2.241-.781 1.55 0 2.329.863 2.656 1.378l.121.191-.163.156c-.07.068-.123.125-.17.183L6.502 4.32zm.574 1.285a1.03 1.03 0 0 1 .054-.459c.014-.033.02-.047.025-.063a.96.96 0 0 1 .14-.235l1.119-1.397c.086-.108.193-.196.316-.262l.025-.012a.623.623 0 0 0 .074-.032l.026-.012a1.026 1.026 0 0 1 1.006.161l.523.421-.294.212a7.982 7.982 0 0 0-2.165 2.343l-.163.266-.304-.24a1.038 1.038 0 0 1-.384-.689l.002-.001zm17.093 6.894.001.024.002.024c0 .009.002.017.003.024l.004.022.004.019.039.105.056.085.062.061.018.014.02.015.015.009.022.013.012.006.092.035.03.008.015.002a2.164 2.164 0 0 1 1.985 2.145c0 1.1-.933 2.108-2.081 2.145a.477.477 0 0 0-.445.356 8.516 8.516 0 0 1-3.138 4.694.683.683 0 0 0-.098.071l-.016.013c-1.473 1.065-3.209 1.626-5.023 1.626s-3.548-.56-5.015-1.619l-.017-.014a.553.553 0 0 0-.082-.062l-.016-.011a8.523 8.523 0 0 1-3.144-4.699.476.476 0 0 0-.445-.356 2.164 2.164 0 0 1-2.081-2.145c0-1.051.792-1.964 1.82-2.124v-.006l.166-.013a6.55 6.55 0 0 0 5.224-4.047l.118-.293.275.155a14.436 14.436 0 0 0 7.077 1.851c1.357 0 2.707-.194 4.015-.575l.301-.088.05.309c.114.707.172 1.452.172 2.219l.001.001zm.259-6.893c-.03.269-.171.521-.384.689l-.304.24-.163-.266a8.112 8.112 0 0 0-1.194-1.52 8.072 8.072 0 0 0-.971-.823l-.294-.212.523-.421a1.036 1.036 0 0 1 .994-.167l.027.012a.702.702 0 0 0 .077.034l.027.011c.132.071.239.159.325.266l1.12 1.397c.049.061.091.13.127.206l.008.02a.652.652 0 0 0 .021.053l.008.02c.053.152.071.31.054.459l-.001-.001zm4.66 5.31c-1.301-.652-1.615-2.123-1.891-3.976-.176-1.182-.328-2.202-1.053-2.58-.283-.147-.6-.174-.97-.082l-.172.042-1.172-1.462a1.82 1.82 0 0 0-.171-.184l-.163-.156.121-.191c.327-.514 1.105-1.377 2.657-1.377 1.006 0 1.739.255 2.241.781 1.098 1.15.985 3.503.886 5.58-.059 1.228-.114 2.388.08 3.299l.12.563-.516-.258h.001z"/>
      <path d="M21.519 22.637s-.994 1.829-5.524 1.82c-2.203-.004-3.37-.43-5.73-1.654l-5.544 3.131V31.9h.234v-5.42l.09-.082c2.522-2.348 4.082-2.789 4.921-3.026l.132-.037.04.032c.021.017 2.155 1.659 5.924 1.611 3.755-.05 5.109-1.564 5.122-1.58l.049-.057.069.029c.237.102.5.201.779.306 1.173.438 2.779 1.039 4.389 2.727l.085.078v5.42h.716v-5.966l-5.751-3.299z"/>
    </symbol>
    <symbol id="icon-pregnant" viewBox="0 0 21 32">
      <path d="M6.609 26.325s-.476 4.011-2.147 5.202h6.449l-4.302-5.202zM8.964 14.929v8.72l5.764 7.811 3.928-.181s2.457-2.849 1.638-5.678-3.174-3.198-3.174-3.198l-1.229.73-.453.684-1.424-.684.194-1.706 1.513-1.448s-.35-3.387-2.491-4.178-2.76-.333-2.76-.333l-1.506-.538z"/>
      <path d="M9.389 15.663c0 2.232.035 4.419-.012 6.603-.032 1.441.59 2.556 1.488 3.615 1.123 1.324 2.189 2.695 3.282 4.046.224.277.442.558.681.823.256.285.117.566-.098.711-.181.122-.462.162-.688-.122-.824-1.034-1.722-2.013-2.515-3.069-.862-1.148-1.981-2.118-2.589-3.441-.372-.808-.578-1.649-.547-2.583.07-2.088.019-4.18-.013-6.27-.01-.657-.535-1.272-1.053-1.356-1.021-.166-1.524.059-1.874.824-.104.227-.062.463-.063.691-.007 1.647.007 3.294.001 4.941-.007 2.151.796 3.994 2.136 5.653.448.555.979 1.024 1.469 1.534.731.762 1.467 1.517 2.201 2.275.207.213.334.462.216.747-.08.194-.273.254-.499.242-.185-.009-.258-.139-.356-.239a725.196 725.196 0 0 1-3.369-3.426c-.218-.224-.265-.31-.377.109-.329 1.227-.87 2.368-1.774 3.307-.226.234-.486.398-.762.127-.261-.256-.197-.536.045-.812a7.015 7.015 0 0 0 1.634-3.306c.141-.7-.086-1.222-.414-1.785-.558-.958-.882-1.986-1.026-3.098-.292-2.26-.043-4.521-.129-6.778a.649.649 0 0 1 .059-.31c.344-.599.25-1.252.298-1.894.074-.981.04-1.975.284-2.941.022-.087.012-.217-.04-.279-.063-.074-.173-.018-.27.021-2.12.852-4.113-.407-4.474-2.414C.027 6.62.62 4.871 2.261 4.431c.03-.008.054-.051.082-.052.947-.034.964-.815 1.177-1.431C3.998 1.56 4.896.657 6.377.277c1.547-.398 3.116-.288 4.64-.137 2.089.205 3.578 1.876 3.639 4.008a5.377 5.377 0 0 1-.176 1.569c-.148.555.022 1.115.338 1.609.138.217.317.411.431.639.14.279.303.678-.124.858-.257.109-.342.21-.714.391-.099.048-.052.196-.062.303-.113 1.315-.671 2.382-1.776 3.158-.436.306-.917.321-1.397.226-.163-.033-.318-.031-.534-.059.307.546.775.895 1.161 1.315.734.798 1.795 1.163 2.541 1.966.941 1.013 1.503 2.18 1.797 3.492.054.239.155.353.358.464.681.371 1.045.945 1.055 1.723.002.178-.006.323.206.442 1.638.917 2.664 2.237 2.918 4.138.254 1.894-.215 3.526-1.54 4.913-.221.231-.46.484-.812.152-.351-.33-.134-.598.105-.827a4.285 4.285 0 0 0 1.3-2.576c.257-1.999-.373-3.757-2.386-4.925-.227-.132-.332-.038-.443.108-.971 1.263-2.08 1.056-3.001.261-.665-.574-.821-1.577-.144-2.49.317-.427.622-.881 1.206-.999.236-.047.212-.223.171-.379-.331-1.31-.955-2.439-2.078-3.261-.107-.078-.19-.161-.343-.157-1.131.03-2.238-.107-3.324-.535l.003-.001zm-3.678-1.909c.918-.294 1.787-.322 2.535.194.789.544 1.646.862 2.556 1.103.13.035.218.074.286-.043.07-.121-.07-.161-.129-.217A7.992 7.992 0 0 1 9.543 13c-.2-.342-.391-.625-.845-.666-.328-.03-.402-.336-.347-.592a.47.47 0 0 1 .587-.373c.77.165 1.538.34 2.3.538.293.076.566.07.794-.101.757-.571 1.262-1.307 1.304-2.27.024-.541.26-.924.689-1.215.019-.013.125.017.161-.035.07-.099-.045-.132-.088-.187-.698-.899-.655-1.953-.523-2.97a6.61 6.61 0 0 0-.053-1.923c-.032-.202-.16-.366-.383-.102-.644.765-1.5 1.096-2.484 1.127-.18.006-.238.098-.269.218-.177.68-.581 1.23-.995 1.786-.571.768-1.02.837-1.685.469-.332-.184-.527-.032-.674.229-.191.342-.155.685.09.992.262.326.57.565 1.03.574.333.007.578.226.572.541-.007.35-.304.435-.633.444-.357.01-.66-.123-.972-.255-.118-.05-.223-.223-.389-.098-.375.282-.851.489-.71 1.112.044.194.009.413-.037.629-.2.937-.178 1.893-.273 2.882l.001-.001zm.223-6.408C5.83 6.243 7.002 5.158 8.206 5.853c.185.107.245.016.319-.081.42-.55.806-1.134.995-1.793.161-.562.474-.746 1.027-.734.713.016 1.335-.221 1.824-.76.381-.419.365-.637-.129-.908-.586-.321-1.201-.544-1.895-.527-1 .024-2.008.072-3-.018-.487-.044-.84.175-1.214.318-.677.261-1.164.787-1.509 1.431-.415.776-.495 1.654-.455 2.47.058 1.179.759 2.171 1.415 3.138.072.107.171.248.352.104.112-.09.216-.114.139-.328-.093-.263-.204-.55-.141-.82zM3.378 9.477c.409.036.813-.027 1.189-.276.216-.143.234-.242.082-.448-.702-.95-1.244-1.989-1.398-3.159-.068-.513-.351-.416-.591-.331-1.146.402-1.573 1.466-1.421 2.414.152.946 1.081 1.941 2.14 1.8h-.001zM14.34 22.049c-.075.423.128.731.441.93.353.224.754.203 1.093-.065.286-.225.412-.567.578-.878.178-.335.103-.618-.141-.881-.27-.29-.608-.431-.968-.246-.477.245-.977.508-1.003 1.141h.001z"/>
      <path d="M5.934 7.347c-.063.27.048.557.141.82.076.215-.027.238-.139.328-.18.144-.279.003-.352-.104-.658-.966-1.358-1.959-1.415-3.138-.04-.816.04-1.693.455-2.47.344-.644.831-1.17 1.509-1.431.374-.144.727-.363 1.214-.318.992.09 2 .042 3 .018.695-.016 1.308.207 1.895.527.494.271.51.489.129.908-.489.539-1.112.775-1.824.76-.552-.013-.865.172-1.027.734-.189.66-.576 1.243-.995 1.793-.073.096-.133.188-.319.081-1.204-.694-2.377.391-2.272 1.493zM3.378 9.477c-1.06.141-1.988-.853-2.14-1.8-.152-.948.275-2.013 1.421-2.414.242-.085.524-.182.591.331.154 1.17.697 2.208 1.398 3.159.152.206.133.305-.082.448-.376.25-.779.312-1.189.276h.001z"/>
    </symbol>
    <symbol id="icon-woman" viewBox="0 0 29 32">
      <path d="M10.916 17.979c-1.097-0.941-1.947-2.3-2.23-3.77-0.745-0.377-1.233-1.221-1.233-2.172 0-1.019 0.558-1.91 1.391-2.237 1.751-1.064 2.951-2.813 3.211-4.684 0.003-0.024 0.009-0.048 0.017-0.071 0.004-0.011 0.010-0.021 0.015-0.031s0.010-0.023 0.016-0.034c0.007-0.013 0.017-0.025 0.026-0.036 0.006-0.007 0.010-0.015 0.016-0.021 0.016-0.018 0.034-0.035 0.054-0.050 0.002-0.001 0.003-0.002 0.004-0.002 0.018-0.013 0.037-0.025 0.057-0.035 0.009-0.004 0.018-0.007 0.027-0.010 0.013-0.005 0.026-0.011 0.041-0.015 0.011-0.003 0.023-0.004 0.035-0.006s0.024-0.005 0.036-0.005c0.019-0.001 0.037 0 0.056 0.002 0.006 0 0.011 0 0.016 0 0.024 0.003 0.047 0.009 0.070 0.017 0.010 0.003 0.019 0.009 0.029 0.013 0.012 0.006 0.025 0.010 0.036 0.017s0.022 0.016 0.034 0.024c0.008 0.007 0.017 0.012 0.025 0.018 0.018 0.017 0.034 0.035 0.049 0.054 1.649 2.221 3.876 3.879 6.457 4.816 0.043 0 0.086 0.006 0.129 0.021 0.859 0.312 1.436 1.219 1.436 2.256 0 0.95-0.488 1.794-1.233 2.172-0.279 1.444-1.104 2.782-2.174 3.72v0.841c1.592 1.865 4.684 1.343 5.861 1.057-0.624-0.991-0.92-1.656-0.92-2.638 0-1.74 0.142-2.529 0.278-3.291 0.143-0.792 0.289-1.611 0.289-3.579 0-2.354-0.98-4.642-2.761-6.443-1.523-1.54-3.25-2.345-4.169-2.345-1.898 0-2.629 0.498-2.636 0.503 0 0 0 0-0.001 0-0.003 0.002-0.007 0.004-0.011 0.007-0.107 0.074-0.238 0.082-0.35 0.034-0.887-0.327-2.252 0.039-3.572 0.959-1.867 1.302-3.862 3.9-3.862 7.286 0 1.969 0.147 2.787 0.289 3.579 0.137 0.762 0.278 1.551 0.278 3.291 0 0.974-0.292 1.638-0.909 2.62 1.193 0.241 4.246 0.632 5.779-1.244v-0.588z"></path>
      <path d="M14.668 14.938c-0.618 0.432-0.665 0.433-1.241 0.012-0.104-0.075-0.2-0.113-0.29-0.113-0.102 0-0.195 0.048-0.282 0.145-0.162 0.18-0.153 0.386 0.026 0.581 0.298 0.325 0.685 0.496 1.15 0.51 0.48-0.009 0.878-0.186 1.178-0.526 0.175-0.198 0.174-0.399-0.004-0.581-0.161-0.164-0.332-0.173-0.539-0.027h0.001z"></path>
      <path d="M11.16 10.991c-0.004 0-0.009 0-0.013 0-0.243 0-0.382 0.126-0.452 0.405-0.028 0.113-0.025 0.238-0.024 0.329 0 0.036 0.001 0.064 0 0.087v0.177c0.002 0.094 0.002 0.161 0 0.227-0.007 0.208 0.041 0.372 0.14 0.476 0.083 0.086 0.199 0.133 0.352 0.13 0.36 0 0.449-0.325 0.46-0.596 0.012-0.276 0.024-0.558-0.016-0.822-0.041-0.273-0.188-0.408-0.447-0.412l-0.001 0.001z"></path>
      <path d="M17.41 12.076l-0.006-0.122c0-0.045 0.001-0.090 0.002-0.135 0.002-0.096 0.005-0.187-0.004-0.276-0.037-0.388-0.174-0.549-0.473-0.549-0.007 0-0.014 0-0.021 0-0.195 0.005-0.423 0.069-0.449 0.528-0.018 0.31-0.023 0.569 0.011 0.821 0.020 0.147 0.105 0.488 0.455 0.479 0.386-0.010 0.469-0.327 0.484-0.514 0.006-0.074 0.004-0.15 0.002-0.23h-0.002z"></path>
      <path d="M23.381 23.158c-0.694-0.456-3.379-1.633-4.935-2.302-0.428-0.184-0.76-0.518-0.947-0.926 1.005 0.726 2.243 0.942 3.362 0.942 1.581 0 2.923-0.432 3.028-0.467 0.109-0.036 0.196-0.121 0.233-0.23s0.023-0.23-0.040-0.327c-0.807-1.233-1.074-1.789-1.074-2.657 0-1.673 0.129-2.395 0.267-3.158 0.148-0.824 0.301-1.676 0.301-3.712 0-2.552-1.057-5.026-2.976-6.967-1.493-1.51-3.422-2.564-4.69-2.564-1.669 0-2.547 0.352-2.896 0.538-1.113-0.329-2.625 0.072-4.092 1.096-2.021 1.41-4.18 4.224-4.18 7.898 0 2.035 0.153 2.888 0.301 3.712 0.137 0.764 0.267 1.485 0.267 3.158 0 0.868-0.269 1.424-1.075 2.657-0.065 0.099-0.079 0.222-0.038 0.334s0.131 0.196 0.244 0.229c0.098 0.028 1.276 0.361 2.711 0.361 1.212 0 2.607-0.238 3.69-1.095-0.151 0.522-0.527 0.959-1.042 1.18-1.062 0.457-2.65 1.15-3.772 1.689-0.001 0-0.002 0.001-0.002 0.001-0.52 0.25-0.94 0.467-1.16 0.611-0.223 0.096-1.299 0.6-2.373 1.827-1.070 1.22-2.341 3.42-2.364 6.991h0.738c0.018-2.628 0.76-4.864 2.15-6.468 1.064-1.229 2.146-1.67 2.156-1.674 0.026-0.010 0.051-0.023 0.074-0.040 0.135-0.093 0.414-0.244 0.817-0.442 1.893 2.474 4.878 3.941 8.050 3.941h0.009c1.24-0.001 2.452-0.228 3.58-0.653 0.052-0.008 0.102-0.027 0.147-0.057 1.691-0.666 3.188-1.779 4.305-3.244 0.417 0.205 0.706 0.36 0.843 0.455 0.022 0.016 0.047 0.029 0.073 0.039 0.011 0.004 1.093 0.446 2.156 1.674 1.391 1.605 2.132 3.841 2.15 6.468h0.738c-0.023-3.571-1.294-5.771-2.362-6.991-1.074-1.227-2.151-1.731-2.373-1.827v0.001zM5.137 19.81c0.617-0.982 0.909-1.645 0.909-2.62 0-1.74-0.142-2.529-0.278-3.291-0.143-0.792-0.289-1.611-0.289-3.579 0-3.386 1.995-5.984 3.862-7.286 1.319-0.92 2.685-1.285 3.572-0.959 0.111 0.048 0.242 0.040 0.35-0.034 0.003-0.002 0.007-0.004 0.011-0.007 0 0 0 0 0.001 0 0.007-0.005 0.738-0.503 2.636-0.503 0.919 0 2.645 0.806 4.169 2.345 1.78 1.8 2.761 4.088 2.761 6.443 0 1.969-0.147 2.787-0.289 3.579-0.137 0.762-0.279 1.551-0.279 3.291 0 0.98 0.296 1.646 0.92 2.638-1.177 0.286-4.268 0.808-5.861-1.057v-0.841c1.070-0.938 1.895-2.276 2.174-3.72 0.745-0.377 1.233-1.221 1.233-2.172 0-1.037-0.577-1.944-1.436-2.256-0.043-0.016-0.086-0.021-0.129-0.021-2.581-0.936-4.809-2.595-6.457-4.816-0.015-0.020-0.031-0.038-0.049-0.054-0.008-0.007-0.016-0.012-0.025-0.018-0.011-0.008-0.021-0.017-0.034-0.024s-0.024-0.012-0.036-0.017c-0.010-0.004-0.019-0.010-0.029-0.013-0.023-0.008-0.047-0.014-0.070-0.017-0.006 0-0.011 0-0.016 0-0.019-0.002-0.037-0.003-0.056-0.002-0.012 0-0.024 0.003-0.036 0.005s-0.023 0.002-0.035 0.006c-0.014 0.003-0.027 0.009-0.041 0.015-0.009 0.003-0.018 0.006-0.027 0.010-0.020 0.010-0.039 0.021-0.057 0.035-0.002 0.001-0.003 0.002-0.004 0.002-0.020 0.015-0.038 0.031-0.054 0.050-0.006 0.007-0.011 0.015-0.016 0.021-0.009 0.012-0.019 0.024-0.026 0.036-0.007 0.011-0.011 0.023-0.016 0.034s-0.011 0.021-0.015 0.031c-0.008 0.023-0.014 0.047-0.017 0.071-0.26 1.871-1.46 3.621-3.211 4.684-0.834 0.327-1.391 1.219-1.391 2.237 0 0.95 0.488 1.794 1.233 2.172 0.283 1.47 1.133 2.829 2.23 3.77v0.587c-1.532 1.877-4.585 1.486-5.779 1.244v0.001zM17.11 17.13c-0.115 0.115-0.233 0.222-0.354 0.324-0.004 0.002-0.007 0.006-0.011 0.009-0.82 0.686-1.754 1.073-2.622 1.073h-0.057c-1 0-2.089-0.513-2.988-1.405-0.899-0.894-1.52-2.074-1.702-3.238 0-0.005-0.002-0.009-0.003-0.014-0.002-0.013-0.006-0.026-0.010-0.039-0.003-0.011-0.007-0.022-0.011-0.032s-0.010-0.021-0.016-0.032-0.011-0.021-0.018-0.031-0.014-0.019-0.021-0.028-0.015-0.018-0.023-0.026-0.017-0.017-0.027-0.024c-0.009-0.007-0.019-0.015-0.029-0.022s-0.019-0.012-0.029-0.017c-0.011-0.007-0.024-0.012-0.036-0.017-0.004-0.002-0.008-0.005-0.013-0.007-0.56-0.208-0.951-0.851-0.951-1.563s0.39-1.354 0.948-1.557c0.002 0 0.004-0.002 0.006-0.002 0.020-0.007 0.039-0.017 0.058-0.028 0 0 0.002-0.001 0.002-0.002s0.001 0 0.002-0.001c1.698-1.025 2.931-2.64 3.414-4.426 1.75 2.113 4.028 3.68 6.634 4.556 0.447 0.268 0.745 0.836 0.745 1.459 0 0.713-0.391 1.355-0.951 1.563-0.005 0.002-0.009 0.005-0.014 0.007-0.011 0.005-0.023 0.011-0.034 0.017s-0.021 0.012-0.031 0.019c-0.009 0.007-0.018 0.013-0.026 0.021-0.010 0.008-0.020 0.017-0.029 0.026s-0.015 0.017-0.022 0.026c-0.008 0.010-0.016 0.019-0.022 0.030s-0.012 0.020-0.018 0.031c-0.006 0.011-0.011 0.021-0.016 0.033s-0.008 0.021-0.011 0.032c-0.004 0.012-0.007 0.026-0.010 0.039-0.001 0.005-0.003 0.009-0.003 0.014-0.182 1.163-0.803 2.344-1.702 3.238l-0.001-0.001zM6.747 23.025c0.522-0.244 1.158-0.532 1.889-0.855 0.11 1.171 0.418 2.267 0.898 3.206-1.070-0.588-2.020-1.383-2.788-2.351zM17.43 25.951c-1.043 0.391-2.162 0.599-3.307 0.599h-0.008c-1.165 0-2.303-0.214-3.362-0.613-0.802-1.061-1.295-2.498-1.402-4.078 0.238-0.103 0.484-0.21 0.738-0.319 0.95-0.408 1.564-1.344 1.564-2.386v-0.63c0.759 0.477 1.591 0.756 2.413 0.756h0.057c0.843 0 1.696-0.292 2.47-0.791v0.666c0 1.041 0.614 1.978 1.564 2.386 0.234 0.101 0.462 0.199 0.682 0.295-0.102 1.592-0.598 3.041-1.409 4.116zM18.645 25.395c0.49-0.952 0.802-2.063 0.909-3.249 0.743 0.327 1.388 0.618 1.917 0.866-0.777 0.984-1.742 1.789-2.826 2.382z"></path>
      <path d="M23.072 23.834c-0.025-0.010-0.051-0.023-0.073-0.039-0.138-0.095-0.427-0.25-0.843-0.455-1.117 1.466-2.614 2.578-4.305 3.244-0.045 0.030-0.094 0.049-0.147 0.057-1.129 0.424-2.341 0.652-3.581 0.653h-0.009c-3.173 0-6.158-1.467-8.050-3.941-0.403 0.198-0.682 0.349-0.817 0.442-0.023 0.016-0.048 0.029-0.074 0.040-0.010 0.004-1.092 0.445-2.155 1.674-1.391 1.605-2.132 3.841-2.15 6.468h26.512c-0.018-2.628-0.76-4.864-2.15-6.468-1.064-1.229-2.146-1.67-2.156-1.674l-0.001-0.001z"></path>
    </symbol>
    <symbol id="icon-calendar" viewBox="0 0 33 32">
      <path d="M30.712 20.721c-1.382-.402-2.707-.928-3.707-1.342-1.163-.481-2.223-.651-3.242-.516-.924.121-1.753.469-2.591.846-.222.1-.299.234-.275.478.109 1.06.208 2.137.305 3.18l.011.124c.187 2.02.38 4.109.568 6.211.029.328.172.463.491.463h.015c.91-.011 1.836-.01 2.732-.008l.988.001h1.004c.924-.001 1.88-.002 2.82.006h.009c.285 0 .428-.129.453-.406l.048-.571c.05-.592.1-1.185.153-1.777.048-.536.099-1.074.15-1.61.046-.493.093-.986.138-1.48l.122-1.363c.05-.576.102-1.152.155-1.727.026-.279-.077-.43-.344-.508h-.002zm-7.087 8.034c-.34.032-.578-.148-.623-.471a34.961 34.961 0 0 1-.16-1.495l-.015-.167c-.133-1.424-.268-2.899-.412-4.511a6.422 6.422 0 0 1-.032-.702.521.521 0 0 1 .542-.514c.269 0 .498.176.533.418.074.506.123 1.027.17 1.53l.006.069c.121 1.295.238 2.591.357 3.886l.084.934c.006.066.008.133.011.199l.003.073c.021.632-.255.731-.463.75h-.002zM2.258 9.396h26.791c.064 0 .13 0 .194-.002h.012c.08 0 .161-.002.241-.001.246.002.435-.064.576-.204.137-.136.206-.323.205-.554-.002-.372-.001-.745 0-1.117.002-.719.003-1.463-.016-2.197-.019-.706-.503-1.18-1.234-1.209a26.417 26.417 0 0 0-1.182-.012c-.213.001-.427.002-.642 0-.255 0-.447.07-.59.213s-.214.339-.212.583v.146c.004.291.007.591-.008.881-.02.381-.281.669-.606.67-.319 0-.584-.293-.605-.666-.015-.28-.017-.587-.006-.968.008-.278-.062-.488-.217-.643-.156-.155-.366-.228-.642-.22-.286.007-.581.005-.875.003h-.019l-.401-.002c-.363-.002-.724 0-1.086 0h-.466c-1.365.003-2.777.004-4.175-.006-.124-.001-.501-.007-.749.258-.163.172-.23.41-.207.727.017.241.016.503-.003.85-.021.374-.288.668-.606.668-.319 0-.584-.294-.605-.669a11.326 11.326 0 0 1-.005-.968c.008-.271-.06-.476-.21-.63s-.361-.23-.644-.23c-2.377.005-4.779.005-7.139 0-.276 0-.483.075-.633.229-.151.154-.22.363-.211.637.011.39.01.689-.006.967-.021.372-.288.664-.608.664-.324-.002-.583-.291-.603-.672-.015-.29-.017-.597-.005-.968.008-.272-.062-.479-.214-.633-.154-.155-.373-.23-.65-.224-.261.005-.528.004-.794.002h-.012c-.219-.001-.491-.003-.751.001-.973.015-1.45.499-1.458 1.48-.006.723-.004 1.45-.003 2.151v.608c.002.878.184 1.057 1.082 1.057l-.005.001zM14.095 15.622c.159.013.324.01.484.006.074-.002.15-.003.224-.003l.101.002.103.002c.144.003.294.005.437-.005.341-.025.612-.346.605-.715-.007-.363-.275-.669-.596-.683a14.92 14.92 0 0 0-1.355.001c-.321.016-.583.327-.584.693-.001.359.261.674.582.7v.002zM14.086 19.523c.15.014.3.01.459.007l.114-.002.101-.004c.078 0 .157.002.234.004.175.005.34.009.505-.008.3-.031.552-.35.55-.697-.002-.356-.255-.67-.553-.687a13.196 13.196 0 0 0-1.421-.002c-.298.015-.555.327-.561.679-.007.361.25.68.573.71zM15.479 22.034c-.15-.014-.3-.011-.459-.007l-.122.003v.002h-.093c-.078 0-.156-.002-.234-.004s-.155-.004-.23-.004c-.093 0-.183.003-.275.012-.305.031-.554.341-.554.692 0 .357.251.674.548.692.456.027.933.028 1.42.003.316-.016.575-.342.566-.71-.008-.351-.258-.65-.568-.679zM6.252 15.622c.159.013.324.01.484.006.074-.002.15-.003.224-.003l.101.002.103.002c.144.003.294.005.437-.005.341-.025.612-.346.605-.715-.007-.363-.275-.669-.596-.683a14.92 14.92 0 0 0-1.355.001c-.321.016-.583.327-.584.693-.001.359.261.674.582.7v.002zM6.242 19.523c.15.014.3.01.459.007l.114-.002.101-.004c.078 0 .157.002.234.004.175.005.34.009.505-.008.3-.031.552-.35.55-.697-.002-.356-.255-.67-.553-.687a13.195 13.195 0 0 0-1.421-.002c-.298.015-.555.327-.561.679-.007.361.25.68.573.71zM7.636 22.034c-.15-.014-.3-.011-.459-.007l-.114.002-.101.003c-.078 0-.157-.002-.234-.004s-.155-.004-.23-.004c-.093 0-.183.003-.275.012-.305.031-.554.341-.554.692 0 .357.25.674.548.692.456.027.933.028 1.42.003.316-.017.575-.342.566-.71-.008-.351-.258-.65-.568-.679z"/>
      <path d="M32.093 13.997h-.636v-.1c0-2.82 0-5.641-.002-8.461 0-1.486-1.047-2.536-2.545-2.554a56.467 56.467 0 0 0-1.648 0c-.283.004-.496-.069-.65-.224-.153-.153-.222-.361-.214-.633.011-.373.01-.681-.005-.969-.02-.381-.28-.67-.604-.672-.321 0-.586.292-.607.665-.015.279-.017.586-.006.968.008.277-.062.486-.215.641s-.364.228-.641.223a48.912 48.912 0 0 0-1.148-.003h-.011l-.583.002c-.477 0-.954 0-1.429-.002h-.034c-1.235-.002-2.513-.005-3.771.01-.233.003-.568-.021-.8-.27-.225-.243-.226-.559-.207-.776.023-.26.012-.534-.003-.793-.023-.373-.287-.665-.603-.665h-.005c-.325.002-.584.291-.605.672-.015.286-.016.602-.005.969.008.268-.06.472-.209.626-.153.157-.373.235-.651.231-2.398-.006-4.8-.006-7.137 0-.28-.005-.485-.079-.631-.23-.151-.155-.22-.367-.21-.646.01-.274.005-.548 0-.829C6.272.903 6.186.674 6.037.53a.516.516 0 0 0-.375-.146c-.344.005-.591.322-.604.771l-.004.135c-.006.182-.012.354.004.515.037.368-.034.64-.22.831-.185.191-.455.273-.825.251-.5-.032-1.02-.018-1.522-.004h-.049C1.053 2.921.004 3.98.003 5.345c-.004 4.883-.004 9.823-.004 14.601v6.246c0 .214.012.493.107.75.391 1.072 1.318 1.712 2.479 1.714 3.155.004 6.31.003 9.466.002h8.519l.042.443c.049.511.099 1.023.147 1.535.026.271.157.594.634.595 3.111.004 6.238.004 9.293 0 .392 0 .6-.203.638-.619.112-1.256.218-2.419.327-3.555l.239-2.47c.081-.834.163-1.668.242-2.503.053-.554.103-1.11.152-1.665.041-.455.081-.909.124-1.363.045-.483.092-.966.139-1.449.092-.942.186-1.917.266-2.876.023-.277-.013-.456-.115-.566-.106-.114-.298-.167-.607-.167l.002-.001zM1.18 5.581c.008-.98.485-1.465 1.458-1.48.26-.004.532-.003.751-.001h.012c.266.001.533.003.794-.002.278-.006.496.068.65.224.153.153.223.361.214.633-.011.372-.01.68.005.968.02.381.279.67.603.672.32 0 .586-.292.608-.664.015-.279.017-.577.006-.967-.008-.274.061-.482.211-.637s.357-.229.633-.229c2.36.005 4.762.005 7.139 0 .283 0 .493.075.644.23.15.153.218.36.21.63-.011.375-.01.683.005.968.02.375.286.669.605.669s.584-.294.606-.668c.019-.347.02-.609.003-.85-.023-.316.045-.553.207-.727.249-.265.626-.26.749-.258 1.398.011 2.81.009 4.175.007h.466a98.238 98.238 0 0 1 1.487.001h.019c.295.002.589.004.875-.003.276-.008.487.064.642.22s.225.365.217.643c-.011.381-.01.688.006.968.02.373.286.666.604.666.325 0 .585-.289.606-.67.015-.29.012-.59.009-.881v-.146c-.003-.245.068-.441.211-.583s.336-.212.591-.213c.215.002.428 0 .642 0 .365-.002.781-.004 1.182.012.731.029 1.216.503 1.234 1.209.019.734.018 1.478.016 2.197 0 .372-.002.745 0 1.117.001.232-.067.418-.205.554-.142.14-.33.206-.576.204h-.253l-.194.002H2.26c-.898 0-1.079-.177-1.08-1.057v-.607c-.003-.703-.004-1.428.002-2.151zM19.164 27.44H2.853c-1.252 0-1.676-.423-1.676-1.677V11.68c0-.885.181-1.064 1.074-1.065H29.206c.892 0 1.072.179 1.072 1.066v2.317h-7.533c-.959 0-1.918 0-2.877.002-.207 0-.363.052-.463.151s-.148.254-.147.458c.001.182.012.373.032.58l.155 1.548c.081.808.166 1.644.244 2.467.081.867.159 1.735.237 2.602a650.607 650.607 0 0 0 .515 5.524l.01.11h-1.289zm11.892-6.211c-.053.575-.105 1.152-.155 1.727l-.122 1.363-.138 1.48-.15 1.61a271.93 271.93 0 0 0-.153 1.777l-.048.571c-.023.277-.167.406-.453.406h-.009c-.94-.009-1.895-.008-2.82-.006h-1.004l-.988-.001a192.03 192.03 0 0 0-2.732.008h-.015c-.319 0-.461-.135-.491-.463-.188-2.102-.381-4.191-.568-6.211l-.011-.124c-.097-1.043-.196-2.121-.305-3.18-.025-.245.052-.378.275-.478.838-.377 1.667-.725 2.591-.846 1.019-.133 2.079.035 3.242.516 1 .414 2.325.94 3.707 1.342.268.077.37.23.344.508h.002zm.571-5.724a166.475 166.475 0 0 0-.361 3.765c-.008.099-.031.239-.136.308a.261.261 0 0 1-.148.041.737.737 0 0 1-.207-.04 38.321 38.321 0 0 1-3.254-1.189c-1.161-.482-2.247-.7-3.319-.668-.912.027-1.854.264-2.963.744l-.012.005c-.2.086-.301.13-.391.076-.09-.053-.1-.16-.119-.375l-.025-.284a85.955 85.955 0 0 0-.234-2.365c-.014-.12-.018-.256.062-.345s.211-.098.338-.1c1.309.008 2.639.007 3.926.006h2.529c1.287 0 2.616.001 3.925-.005.145 0 .255.015.327.095.078.086.076.215.063.329v.001z"/>
      <path d="M24.084 27.932a3.27 3.27 0 0 0-.011-.199l-.084-.934c-.118-1.295-.235-2.591-.357-3.886l-.006-.069a29.934 29.934 0 0 0-.17-1.53c-.035-.242-.265-.418-.533-.418-.016 0-.031 0-.047.002a.523.523 0 0 0-.495.512c-.005.246.014.492.032.702.145 1.612.28 3.087.412 4.511l.015.167c.045.491.092.999.16 1.495.044.322.283.502.623.471.208-.019.483-.118.463-.75l-.003-.073h.002z"/>
    </symbol>
    <symbol id="icon-cart" viewBox="0 0 38 32">
      <path d="M23.632 26.168c-2.404-.004-4.808-.004-7.212-.021-.305-.002-.382.096-.307.377.443 1.657-.009 3.107-1.165 4.279-.641.651-1.479 1.024-2.449 1.147-1.424.18-2.6-.26-3.556-1.244-1.273-1.31-1.482-3.417-1.04-4.37.171-.369.667-.988.586-1.354-.075-.343-.485-.599-.75-.882-.926-.985-1.077-2.223-1.233-3.469C6.42 19.942 4.95 3.627 4.9 3.071c-.024-.255-.191-.169-.31-.172-.395-.011-.789 0-1.184-.007-.812-.014-1.369-.512-1.426-1.223C1.896.641 2.462.114 3.263.054A23.928 23.928 0 0 1 6.328.043c.8.044 1.305.617 1.353 1.503.077 1.411.232 2.813.351 4.218-.013.077.012.113.094.086 1.544.004 3.088.013 4.632.014 7.308.001 14.617.007 21.924-.01.65-.001 1.176.093 1.544.701.287.475.231.963.095 1.426-.754 2.574-1.274 5.208-1.986 7.794-.32 1.163-.58 2.35-.86 3.528-.145.61-.607.915-1.124 1.038-.381.09-.788.179-1.205.144-.478-.039-19.942 1.23-21.608 1.19.255.654.287.934 1.703 1.444.51.183 1.003.193 1.512.193 4.848.001 9.697-.014 14.544.012 1.198.006 2.375.191 3.324 1.069.819.758 1.338 1.645 1.428 2.795.119 1.495-.33 2.733-1.443 3.731-1.461 1.309-3.699 1.469-5.289.256-1.406-1.074-1.933-2.495-1.781-4.22.02-.237.126-.468.192-.701.012-.077-.013-.113-.095-.086v-.002zm6.424-8.531c1.406-.131 1.552-2.48 1.766-3.344.406-1.648.784-3.304 1.197-4.951.161-.642.189-.635-.426-.635H9.11c-.162 0-.324.017-.484 0-.241-.025-.291.076-.3.307-.014.382.085.746.114 1.118.097 1.226.2 2.453.319 3.678.152 1.579.244 3.165.429 4.744.028.241.085.305.312.296.496-.02.994-.086 1.482-.094 1.724-.025 17.517-.973 19.074-1.118v-.001zM13.404 27.699c-.027-.915-.606-1.573-1.368-1.555-.871.02-1.567.738-1.545 1.596.014.565.47 1.443 1.328 1.444.93-.041 1.608-.677 1.585-1.485zM27.71 26.25c-.835.044-1.456.667-1.37 1.468.101.948.744 1.452 1.603 1.463.688.009 1.338-.87 1.297-1.655-.043-.808-.659-1.321-1.529-1.277h-.001z"/>
    </symbol>
    <symbol id="icon-clock" viewBox="0 0 32 32">
      <path d="M31.567 23.291c-.128-1.141-.486-2.064-1.092-2.819.405-1.4.611-2.851.611-4.316 0-8.491-6.839-15.399-15.244-15.399S.597 7.665.597 16.157s6.839 15.4 15.245 15.4c1.616 0 3.209-.256 4.735-.761.847.788 2.179 1.496 3.772.497.297-.186.583-.188.874-.006.047.029.096.054.147.079.035.017.07.034.104.054.44.245.886.369 1.326.369.488 0 .991-.153 1.495-.455.691-.414 1.274-1.021 1.783-1.854 1.242-2.029 1.728-4.053 1.488-6.188h.001zm-7.409-3.965c-.005.006-.021.023-.076.023-.031 0-.062-.006-.084-.01-1.135-.207-2.305-1.379-2.502-2.508l-.01-.053-.009-.046c.002-.046.015-.077.037-.093.031-.022.073-.015.147.007a3.109 3.109 0 0 1 1.3.635 3.36 3.36 0 0 1 1.19 1.87l.003.015c.025.103.026.138.004.161l-.001-.001zm5.526.367c-.715-.558-1.458-.798-2.269-.737-.576.043-1.094.307-1.551.54l-.072.037a.981.981 0 0 1-.354.133 4.78 4.78 0 0 1 .344-1.083 6.112 6.112 0 0 1 2.118-2.575.61.61 0 0 0 .266-.393.486.486 0 0 0-.095-.374c-.174-.237-.486-.269-.759-.079a7.03 7.03 0 0 0-1.297 1.15 7.69 7.69 0 0 0-1.141 1.76 9.71 9.71 0 0 1-.078-.139c-.048-.085-.092-.164-.139-.24-.839-1.358-2.064-2.089-3.641-2.177-.214-.011-.373.033-.477.133-.106.102-.159.267-.158.492.005.956.318 1.839.933 2.624.106.134.089.181.084.196-.02.057-.118.079-.191.095a3.135 3.135 0 0 0-.907.369c-1.208.715-1.939 1.859-2.235 3.496-.193 1.069-.156 2.192.112 3.338.35 1.498.901 2.723 1.683 3.739a14.11 14.11 0 0 1-4.02.584c-7.873 0-14.278-6.47-14.278-14.423S7.969 1.737 15.843 1.737c7.873 0 14.278 6.47 14.278 14.423 0 1.192-.147 2.38-.436 3.535h-.001zm-9.994 1.741c.515-.815 1.161-1.282 1.976-1.428.086-.015.176-.024.264-.024.371 0 .705.134.982.264.107.05.213.102.321.155.177.086.359.175.543.256.72.312 1.45.295 2.173-.049.109-.052.218-.106.328-.16.22-.108.446-.221.676-.317a1.808 1.808 0 0 1 1.528.036c1.06.498 1.707 1.392 1.976 2.733.35 1.747.065 3.504-.871 5.372-.434.866-.915 1.489-1.512 1.959-.753.593-1.501.666-2.224.218-.714-.442-1.406-.443-2.116-.002-.725.45-1.474.378-2.224-.212-.654-.516-1.165-1.206-1.655-2.236a8.884 8.884 0 0 1-.882-3.712c.017-.829.114-1.901.716-2.854l.002.001z"/>
      <path d="M15.842 5.259a.578.578 0 0 0-.575.58v1.202c0 .32.258.58.575.58s.575-.26.575-.58V5.839c0-.32-.258-.58-.575-.58zM15.842 24.615a.578.578 0 0 0-.575.58v1.202c0 .32.258.58.575.58s.575-.261.575-.58v-1.202c0-.32-.258-.58-.575-.58zM21.216 6.752a.569.569 0 0 0-.785.212l-.595 1.041a.585.585 0 0 0 .21.793.575.575 0 0 0 .785-.213l.595-1.041a.585.585 0 0 0-.21-.793zM11.637 23.517a.573.573 0 0 0-.785.212l-.595 1.041c-.077.134-.097.291-.057.44a.577.577 0 0 0 .704.41.573.573 0 0 0 .349-.27l.595-1.041a.585.585 0 0 0-.21-.793zM24.385 10.544l-1.032.597a.584.584 0 0 0-.213.792.573.573 0 0 0 .784.214l1.032-.597c.275-.159.37-.514.213-.792s-.509-.374-.784-.215zM7.759 20.167l-1.032.597a.584.584 0 0 0-.213.792.573.573 0 0 0 .784.215l1.032-.598c.275-.159.37-.514.213-.792s-.509-.374-.784-.215zM10.803 8.62a.574.574 0 0 0 .785.207c.132-.078.226-.204.265-.354s.018-.306-.06-.44l-.602-1.037c-.16-.276-.512-.369-.786-.208s-.365.518-.205.794l.602 1.037v.001zM7.431 16.158c0-.32-.258-.58-.575-.58h-1.19c-.317 0-.575.261-.575.58s.258.58.575.58h1.19c.317 0 .575-.26.575-.58zM6.661 11.382l1.031.601a.575.575 0 0 0 .785-.213.585.585 0 0 0-.21-.793l-1.031-.601a.573.573 0 0 0-.785.212c-.077.134-.097.291-.057.44s.135.275.268.352zM15.842 8.491a.578.578 0 0 0-.575.58v6.507H9.038c-.317 0-.575.26-.575.58s.258.58.575.58h6.804a.579.579 0 0 0 .575-.58V9.072c0-.32-.258-.58-.575-.58v-.001z"/>
    </symbol>
    <symbol id="icon-contraindications" viewBox="0 0 354 32">
      <path d="M1.024 19.569 4.198.691h1.03v24.497h-1.03V6.293L1.024 25.188H0V.691h1.024v18.878zM7.383.691h.996l2.133 19.971L12.639.691h.996l-2.737 24.497h-.784L7.382.691zm-.324 0h.873l.151 14.941v9.557H7.059V.692zm6.023 0h.873v24.497h-1.024v-9.557L13.082.69zM20.106 22.547v2.642h-3.538v-2.642h3.538zM16.753.691v24.497h-1.03V.691h1.03zm2.878 10.533v2.641h-3.062v-2.641h3.062zM20.05.691v2.658h-3.482V.691h3.482zM22.497.691v24.497h-1.03V.691h1.03zm1.556 11.223v2.557h-1.64v-2.557h1.64zm4.842-1.094v4.257c0 1.727-.063 3.247-.19 4.56-.123 1.301-.304 2.389-.543 3.264s-.526 1.531-.862 1.969c-.336.438-.715.656-1.136.656-.407 0-.778-.219-1.114-.656s-.625-1.094-.868-1.969c-.242-.875-.431-1.963-.565-3.264-.131-1.312-.196-2.832-.196-4.56V10.82c0-1.727.065-3.242.196-4.543.131-1.312.317-2.406.56-3.281s.532-1.531.868-1.969c.336-.449.707-.673 1.114-.673.422 0 .8.224 1.136.673.34.437.627 1.094.862 1.969.239.875.422 1.969.549 3.281.127 1.301.19 2.815.19 4.543zm-1.019 4.257v-4.29c0-1.346-.037-2.501-.112-3.466-.075-.976-.185-1.772-.33-2.389s-.325-1.071-.537-1.363c-.213-.303-.459-.454-.739-.454-.265 0-.504.151-.716.454-.209.292-.388.746-.537 1.363s-.265 1.413-.347 2.389c-.078.965-.118 2.12-.118 3.466v4.29c0 1.357.039 2.524.118 3.5.082.965.198 1.761.347 2.389.153.617.336 1.077.549 1.38.213.292.45.438.711.438.28 0 .526-.146.739-.438.216-.303.396-.763.537-1.38.145-.628.254-1.425.325-2.389.075-.976.112-2.142.112-3.5zM32.651.691v24.497h-1.019V.691h1.019zm2.143 0v2.658h-5.301V.691h5.301zM39.922 17.399h1.03c-.026 1.682-.14 3.135-.342 4.358-.198 1.211-.487 2.142-.868 2.793-.377.651-.849.976-1.416.976-.407 0-.774-.241-1.103-.723s-.61-1.172-.845-2.07c-.231-.909-.409-1.997-.532-3.264s-.185-2.692-.185-4.274v-4.526c0-1.57.062-2.989.185-4.257.127-1.268.308-2.35.543-3.247.239-.909.528-1.604.868-2.086.343-.482.731-.723 1.164-.723.53 0 .978.32 1.343.959.369.628.653 1.554.851 2.776.202 1.211.313 2.698.336 4.459h-1.03c-.026-1.29-.093-2.339-.202-3.146-.108-.819-.269-1.419-.481-1.8-.209-.393-.481-.589-.817-.589-.298 0-.558.179-.778.538-.216.359-.396.875-.537 1.548a18.838 18.838 0 0 0-.313 2.406 43.924 43.924 0 0 0-.101 3.129v4.56c0 1.077.028 2.081.084 3.012.06.931.153 1.75.28 2.456.131.695.3 1.239.509 1.632s.463.589.761.589c.377 0 .675-.185.896-.555s.383-.959.487-1.767c.108-.808.179-1.862.213-3.163zM46.124 15.649h-1.769l-.521-.656c-.508-.561-.898-1.419-1.17-2.574-.269-1.167-.403-2.614-.403-4.341 0-1.582.099-2.922.297-4.021s.48-1.935.845-2.507c.369-.572.804-.858 1.304-.858h2.228v24.497h-1.03V3.35h-1.198c-.474 0-.828.426-1.064 1.279s-.353 2.002-.353 3.449c0 .942.052 1.783.157 2.524.108.74.269 1.324.481 1.75s.48.639.8.639h1.399l-.006 2.658zm-1.377-1.683L43.09 25.188h-1.097l1.713-11.222h1.041zM56.72.691v24.497h-1.03V3.349h-3.185v21.839h-1.03V.691h5.245zM61.142 15.582h-1.78V12.94h1.78c.336 0 .606-.202.812-.606.209-.404.36-.965.453-1.683a18.52 18.52 0 0 0 .145-2.456c0-.841-.048-1.632-.145-2.372-.093-.74-.244-1.335-.453-1.783-.205-.46-.476-.69-.812-.69h-1.567v21.839h-1.03V.692h2.597c.526 0 .97.32 1.332.959s.636 1.525.823 2.658c.19 1.122.285 2.406.285 3.853 0 1.57-.095 2.911-.285 4.021-.187 1.11-.461 1.957-.823 2.541-.362.572-.806.858-1.332.858zM70.204 10.82v4.257c0 1.727-.063 3.247-.19 4.56-.123 1.301-.304 2.389-.543 3.264s-.526 1.531-.862 1.969-.715.656-1.136.656c-.407 0-.778-.219-1.114-.656s-.625-1.094-.868-1.969-.431-1.963-.565-3.264c-.13-1.312-.196-2.832-.196-4.56V10.82c0-1.727.065-3.242.196-4.543.131-1.312.317-2.406.56-3.281s.532-1.531.868-1.969c.336-.449.707-.673 1.114-.673.422 0 .8.224 1.136.673.34.437.627 1.094.862 1.969.239.875.422 1.969.549 3.281.127 1.301.19 2.815.19 4.543zm-1.018 4.257v-4.29c0-1.346-.037-2.501-.112-3.466-.075-.976-.185-1.772-.33-2.389s-.325-1.071-.537-1.363c-.213-.303-.459-.454-.739-.454-.265 0-.504.151-.717.454-.209.292-.388.746-.537 1.363s-.265 1.413-.347 2.389c-.078.965-.118 2.12-.118 3.466v4.29c0 1.357.039 2.524.118 3.5.082.965.198 1.761.347 2.389.153.617.336 1.077.549 1.38.213.292.45.438.711.438.28 0 .526-.146.739-.438.216-.303.396-.763.537-1.38.145-.628.254-1.425.325-2.389.075-.976.112-2.142.112-3.5zM74.263.691v24.497h-1.019V.691h1.019zm2.143 0v2.658h-5.301V.691h5.301zM78.685 19.569 81.859.691h1.03v24.497h-1.03V6.293l-3.174 18.895h-1.024V.691h1.024v18.878zM87.187 13.731H85.53l-.011-2.608h1.539c.231 0 .437-.157.616-.471s.319-.763.42-1.346c.104-.595.157-1.301.157-2.12 0-.897-.045-1.626-.134-2.187-.086-.572-.218-.987-.397-1.245-.175-.269-.399-.404-.672-.404h-1.299v21.839h-1.03V.692h2.329c.351 0 .664.129.94.387.276.247.509.639.7 1.178.194.527.341 1.2.442 2.019s.151 1.8.151 2.944c0 1.009-.076 1.924-.23 2.742-.149.808-.358 1.469-.627 1.985s-.578.847-.929.993l-.308.791zm-.039 11.458h-2.043l.599-2.642h1.444c.269 0 .496-.18.683-.538s.328-.864.425-1.514c.101-.662.151-1.441.151-2.339 0-.908-.041-1.694-.123-2.355s-.213-1.172-.392-1.531c-.179-.359-.414-.538-.705-.538H85.86l.011-2.608h1.791l.23.942c.336.101.618.438.845 1.009.231.561.405 1.279.521 2.154.119.875.179 1.84.179 2.894 0 1.526-.095 2.815-.285 3.87-.187 1.043-.452 1.84-.795 2.389-.343.538-.746.808-1.209.808zM96.278 10.82v4.257c0 1.727-.063 3.247-.19 4.56-.123 1.301-.304 2.389-.543 3.264s-.526 1.531-.862 1.969c-.336.438-.715.656-1.136.656-.407 0-.778-.219-1.114-.656s-.625-1.094-.868-1.969-.431-1.963-.565-3.264c-.131-1.312-.196-2.832-.196-4.56V10.82c0-1.727.065-3.242.196-4.543.13-1.312.317-2.406.56-3.281s.532-1.531.868-1.969c.336-.449.707-.673 1.114-.673.422 0 .8.224 1.136.673.34.437.627 1.094.862 1.969.239.875.422 1.969.549 3.281.127 1.301.19 2.815.19 4.543zm-1.019 4.257v-4.29c0-1.346-.037-2.501-.112-3.466-.075-.976-.185-1.772-.33-2.389s-.325-1.071-.537-1.363c-.213-.303-.459-.454-.739-.454-.265 0-.504.151-.717.454-.209.292-.388.746-.537 1.363s-.265 1.413-.347 2.389c-.078.965-.118 2.12-.118 3.466v4.29c0 1.357.039 2.524.118 3.5.082.965.198 1.761.347 2.389.153.617.336 1.077.548 1.38.213.292.45.438.711.438.28 0 .526-.146.739-.438.216-.303.396-.763.537-1.38.145-.628.254-1.425.325-2.389.075-.976.112-2.142.112-3.5zM103.168.691v24.497h-1.03V3.349h-3.185v21.839h-1.03V.691h5.245zM110.294 10.82v4.257c0 1.727-.064 3.247-.19 4.56-.123 1.301-.304 2.389-.543 3.264s-.526 1.531-.862 1.969c-.336.438-.715.656-1.136.656-.407 0-.778-.219-1.114-.656s-.625-1.094-.868-1.969-.431-1.963-.565-3.264c-.131-1.312-.196-2.832-.196-4.56V10.82c0-1.727.065-3.242.196-4.543.131-1.312.317-2.406.56-3.281s.532-1.531.868-1.969c.336-.449.707-.673 1.114-.673.422 0 .8.224 1.136.673.34.437.627 1.094.862 1.969.239.875.422 1.969.549 3.281.127 1.301.19 2.815.19 4.543zm-1.019 4.257v-4.29c0-1.346-.037-2.501-.112-3.466-.075-.976-.185-1.772-.33-2.389s-.325-1.071-.537-1.363c-.213-.303-.459-.454-.739-.454-.265 0-.504.151-.716.454-.209.292-.388.746-.537 1.363s-.265 1.413-.347 2.389c-.078.965-.118 2.12-.118 3.466v4.29c0 1.357.039 2.524.118 3.5.082.965.198 1.761.347 2.389.153.617.336 1.077.549 1.38.213.292.45.438.711.438.28 0 .526-.146.739-.438.216-.303.396-.763.537-1.38.146-.628.254-1.425.325-2.389.075-.976.112-2.142.112-3.5zM112.97.691v24.497h-1.03V.691h1.03zm4.192 0-2.944 13.477h-1.657l-.174-2.692h1.209L115.885.691h1.277zm-1.064 24.498-2.451-11.441.576-2.843 3.13 14.284h-1.255zM120.958 2.862l-2.229 22.327h-1.051L120.303.692h.661l-.006 2.17zm1.802 22.327-2.227-22.327-.011-2.17h.666l2.625 24.497h-1.053zm0-9.069v2.658h-3.929V16.12h3.929zM127.064 13.428h-.794v-2.069h.761c.317 0 .573-.174.767-.522s.336-.83.425-1.447c.09-.617.135-1.329.135-2.137 0-.774-.05-1.481-.152-2.12-.096-.651-.248-1.167-.453-1.548-.206-.393-.472-.589-.801-.589-.242 0-.463.179-.661.538-.198.348-.354.836-.47 1.464a12.071 12.071 0 0 0-.168 2.137h-1.03c0-1.043.059-1.98.179-2.81.122-.841.29-1.554.503-2.137.217-.595.465-1.049.745-1.363.283-.314.584-.471.901-.471.37 0 .704.151 1.002.454.298.292.554.729.767 1.312.216.583.381 1.307.493 2.17.115.864.174 1.868.174 3.012 0 .841-.056 1.632-.168 2.372a9.64 9.64 0 0 1-.475 1.952c-.206.561-.45 1.004-.734 1.329-.283.314-.599.471-.946.471zm-.794-1.43h.794c.381 0 .721.14 1.019.421.302.28.558.69.767 1.228s.367 1.206.475 2.002c.112.785.168 1.688.168 2.709 0 1.144-.064 2.159-.191 3.045-.122.886-.298 1.638-.526 2.255s-.496 1.082-.806 1.396c-.31.314-.649.471-1.019.471-.298 0-.591-.134-.879-.404-.287-.28-.549-.707-.783-1.279-.232-.583-.418-1.324-.56-2.221-.138-.897-.207-1.974-.207-3.23h1.03c0 .819.058 1.57.174 2.255.119.684.283 1.234.493 1.649.209.404.453.606.733.606.321 0 .594-.191.817-.572.229-.393.4-.925.515-1.598.12-.684.179-1.453.179-2.305 0-.752-.032-1.402-.095-1.952-.061-.561-.152-1.021-.274-1.38-.12-.359-.27-.623-.448-.791a.837.837 0 0 0-.616-.269h-.761v-2.036zM133.507 2.862l-2.229 22.327h-1.051L132.852.692h.661l-.006 2.17zm1.803 22.327-2.227-22.327-.011-2.17h.666l2.625 24.497h-1.053zm0-9.069v2.658h-3.929V16.12h3.929zM141.904 11.224v2.641h-3.533v-2.641h3.533zM138.511.691v24.497h-1.03V.691h1.03zm4.305 0v24.497h-1.03V.691h1.03zM145.665 19.569 148.839.691h1.03v24.497h-1.03V6.293l-3.174 18.895h-1.024V.691h1.024v18.878zM155.478 15.649h-1.769l-.52-.656c-.507-.561-.898-1.419-1.17-2.574-.269-1.167-.403-2.614-.403-4.341 0-1.582.099-2.922.297-4.021s.479-1.935.845-2.507c.37-.572.805-.858 1.305-.858h2.227v24.497h-1.03V3.35h-1.198c-.474 0-.829.426-1.064 1.279s-.352 2.002-.352 3.449c0 .942.051 1.783.157 2.524.107.74.269 1.324.481 1.75s.479.639.8.639h1.4l-.006 2.658zm-1.377-1.683-1.657 11.222h-1.097l1.713-11.222h1.041zM158.074 23.54c0-.527.055-.97.163-1.329.111-.37.272-.555.481-.555s.367.185.475.555c.112.359.168.802.168 1.329 0 .516-.056.953-.168 1.312-.109.359-.266.538-.475.538s-.37-.18-.481-.538c-.109-.359-.163-.796-.163-1.312zM169.096.691v24.497h-1.03V3.349h-3.185v21.839h-1.03V.691h5.245zM175.304 22.547v2.642h-3.537v-2.642h3.537zM171.951.691v24.497h-1.03V.691h1.03zm2.878 10.533v2.641h-3.062v-2.641h3.062zm.419-10.533v2.658h-3.481V.691h3.481zM179.217 15.582h-1.781V12.94h1.781c.336 0 .606-.202.811-.606.209-.404.36-.965.454-1.683.096-.718.145-1.537.145-2.456 0-.841-.049-1.632-.145-2.372-.094-.74-.245-1.335-.454-1.783-.206-.46-.475-.69-.811-.69h-1.568v21.839h-1.03V.692h2.598c.526 0 .97.32 1.331.959.362.639.637 1.525.823 2.658.191 1.122.286 2.406.286 3.853 0 1.57-.095 2.911-.286 4.021-.186 1.11-.461 1.957-.823 2.541-.361.572-.806.858-1.331.858zM187.361 22.547v2.642h-3.537v-2.642h3.537zM184.008.691v24.497h-1.03V.691h1.03zm2.878 10.533v2.641h-3.062v-2.641h3.062zm.419-10.533v2.658h-3.481V.691h3.481zM194.095 22.547v2.642h-5.111v-2.642h5.111zm-4.953 0v8.665h-1.025l-.006-8.665h1.031zm5.849 0-.011 8.648h-1.018v-8.648h1.03zM193.133.691v2.658h-2.955V.691h2.955zm.9 0v24.497h-1.03V.691h1.03zm-4.209 0h1.03l-.145 9.859a127.195 127.195 0 0 1-.112 4.105 83.65 83.65 0 0 1-.218 3.415 53.397 53.397 0 0 1-.297 2.776 27.902 27.902 0 0 1-.363 2.103c-.13.583-.269 1.066-.414 1.447-.146.37-.295.634-.448.791h-.431v-2.642h.285c.082-.314.173-.768.27-1.363.101-.595.198-1.363.29-2.305.097-.954.182-2.114.253-3.483.074-1.368.125-2.984.151-4.846l.151-9.859zM204.17.691v24.497h-1.03V3.349h-3.185v21.839h-1.03V.691h5.245zM208.593 15.582h-1.781V12.94h1.781c.335 0 .606-.202.811-.606.209-.404.36-.965.454-1.683.096-.718.145-1.537.145-2.456 0-.841-.049-1.632-.145-2.372-.094-.74-.245-1.335-.454-1.783-.206-.46-.477-.69-.811-.69h-1.568v21.839h-1.03V.692h2.598c.526 0 .97.32 1.331.959.362.639.637 1.525.823 2.658.191 1.122.286 2.406.286 3.853 0 1.57-.095 2.911-.286 4.021-.186 1.11-.461 1.957-.823 2.541-.361.572-.806.858-1.331.858zM213.429 19.569 216.603.691h1.031v24.497h-1.031V6.293l-3.174 18.895h-1.024V.691h1.024v18.878zM219.787.691h.997l2.133 19.971L225.044.691h.997l-2.737 24.497h-.784L219.789.691zm-.324 0h.873l.152 14.941v9.557h-1.025V.692zm6.023 0h.873v24.497h-1.024v-9.557L225.486.69zM232.511 22.547v2.642h-3.537v-2.642h3.537zM229.158.691v24.497h-1.03V.691h1.03zm2.877 10.533v2.641h-3.062v-2.641h3.062zm.42-10.533v2.658h-3.481V.691h3.481zM238.248 11.224v2.641h-3.531v-2.641h3.531zM234.856.691v24.497h-1.03V.691h1.03zm4.305 0v24.497h-1.03V.691h1.03zM245.318 22.547v2.642h-3.537v-2.642h3.537zM241.966.691v24.497h-1.031V.691h1.031zm2.876 10.533v2.641h-3.062v-2.641h3.062zm.42-10.533v2.658h-3.481V.691h3.481zM251.056 11.224v2.641h-3.533v-2.641h3.533zM247.664.691v24.497h-1.031V.691h1.031zm4.304 0v24.497h-1.03V.691h1.03zM254.817 19.569 257.991.691h1.03v24.497h-1.03V6.293l-3.174 18.895h-1.024V.691h1.024v18.878zM265.234 22.547v2.642h-3.537v-2.642h3.537zM261.881.691v24.497h-1.03V.691h1.03zm2.878 10.533v2.641h-3.062v-2.641h3.062zm.419-10.533v2.658h-3.481V.691h3.481zM266.874.691h.997l2.133 19.971L272.131.691h.997l-2.737 24.497h-.784L266.876.691zm-.324 0h.873l.151 14.941v9.557h-1.024V.692zm6.023 0h.873v24.497h-1.024v-9.557L272.573.69zM283.146 10.82v4.257c0 1.727-.063 3.247-.19 4.56-.123 1.301-.304 2.389-.543 3.264s-.527 1.531-.863 1.969-.714.656-1.136.656c-.407 0-.778-.219-1.114-.656s-.625-1.094-.867-1.969-.431-1.963-.566-3.264c-.13-1.312-.195-2.832-.195-4.56V10.82c0-1.727.065-3.242.195-4.543.131-1.312.318-2.406.56-3.281.243-.875.533-1.531.867-1.969.336-.449.707-.673 1.114-.673.422 0 .8.224 1.136.673.339.437.627 1.094.863 1.969.239.875.422 1.969.549 3.281.127 1.301.19 2.815.19 4.543zm-1.018 4.257v-4.29c0-1.346-.038-2.501-.112-3.466-.075-.976-.185-1.772-.33-2.389-.146-.617-.325-1.071-.537-1.363-.213-.303-.459-.454-.739-.454-.265 0-.504.151-.717.454-.209.292-.387.746-.537 1.363s-.265 1.413-.347 2.389c-.078.965-.118 2.12-.118 3.466v4.29c0 1.357.04 2.524.118 3.5.082.965.198 1.761.347 2.389.153.617.336 1.077.549 1.38.213.292.449.438.711.438.28 0 .526-.146.739-.438.216-.303.395-.763.537-1.38.145-.628.254-1.425.325-2.389.074-.976.112-2.142.112-3.5zM286.874 13.428h-.794v-2.069h.761c.317 0 .573-.174.767-.522s.336-.83.425-1.447c.089-.617.135-1.329.135-2.137 0-.774-.051-1.481-.152-2.12-.097-.651-.248-1.167-.453-1.548-.206-.393-.472-.589-.801-.589-.242 0-.463.179-.661.538-.198.348-.354.836-.47 1.464a12.071 12.071 0 0 0-.168 2.137h-1.03c0-1.043.059-1.98.178-2.81.123-.841.291-1.554.504-2.137.217-.595.465-1.049.745-1.363.283-.314.584-.471.901-.471.369 0 .704.151 1.002.454.298.292.554.729.767 1.312.216.583.381 1.307.493 2.17.115.864.174 1.868.174 3.012 0 .841-.056 1.632-.168 2.372a9.57 9.57 0 0 1-.477 1.952c-.205.561-.449 1.004-.733 1.329-.283.314-.599.471-.946.471zm-.794-1.43h.794c.381 0 .72.14 1.019.421.302.28.558.69.767 1.228.208.538.367 1.206.475 2.002.112.785.168 1.688.168 2.709 0 1.144-.064 2.159-.191 3.045-.122.886-.298 1.638-.526 2.255s-.496 1.082-.806 1.396c-.31.314-.65.471-1.019.471-.298 0-.591-.134-.879-.404-.287-.28-.549-.707-.784-1.279-.231-.583-.417-1.324-.559-2.221-.138-.897-.207-1.974-.207-3.23h1.03c0 .819.057 1.57.174 2.255.119.684.283 1.234.493 1.649.208.404.453.606.733.606.321 0 .593-.191.817-.572.227-.393.4-.925.515-1.598.119-.684.179-1.453.179-2.305 0-.752-.032-1.402-.096-1.952-.059-.561-.151-1.021-.274-1.38-.119-.359-.269-.623-.448-.791a.835.835 0 0 0-.615-.269h-.761v-2.036zM295.097 11.224v2.641h-3.531v-2.641h3.531zM291.705.691v24.497h-1.03V.691h1.03zm4.304 0v24.497h-1.03V.691h1.03zM300.527 2.862 298.3 25.189h-1.053L299.872.692h.661l-.006 2.17zm1.802 22.327-2.227-22.327-.011-2.17h.666l2.625 24.497h-1.053zm0-9.069v2.658H298.4V16.12h3.929zM305.582.691v24.497h-1.03V.691h1.03zm4.192 0-2.944 13.477h-1.657l-.174-2.692h1.209l2.29-10.785h1.275zm-1.063 24.498-2.453-11.441.577-2.843 3.129 14.284h-1.254zM316.049 10.82v4.257c0 1.727-.064 3.247-.191 4.56-.123 1.301-.304 2.389-.543 3.264s-.526 1.531-.862 1.969-.714.656-1.136.656c-.407 0-.778-.219-1.114-.656s-.625-1.094-.867-1.969-.431-1.963-.566-3.264c-.13-1.312-.195-2.832-.195-4.56V10.82c0-1.727.065-3.242.195-4.543.13-1.312.318-2.406.56-3.281s.531-1.531.867-1.969c.336-.449.707-.673 1.114-.673.422 0 .8.224 1.136.673.339.437.627 1.094.862 1.969.239.875.422 1.969.549 3.281.127 1.301.191 2.815.191 4.543zm-1.019 4.257v-4.29c0-1.346-.037-2.501-.112-3.466-.074-.976-.184-1.772-.33-2.389-.145-.617-.325-1.071-.537-1.363-.213-.303-.458-.454-.738-.454-.265 0-.504.151-.717.454-.209.292-.389.746-.537 1.363-.15.617-.265 1.413-.347 2.389-.079.965-.118 2.12-.118 3.466v4.29c0 1.357.039 2.524.118 3.5.082.965.198 1.761.347 2.389.152.617.335 1.077.549 1.38.213.292.449.438.711.438.279 0 .526-.146.738-.438.216-.303.395-.763.537-1.38.146-.628.254-1.425.325-2.389.075-.976.112-2.142.112-3.5zM317.969.691h.997l2.133 19.971L323.226.691h.997l-2.737 24.497h-.784L317.971.691zm-.324 0h.873l.151 14.941v9.557h-1.024V.692zm6.022 0h.873v24.497h-1.025v-9.557L323.667.69zM327.093 10.669h1.853c.504 0 .929.303 1.277.909.351.594.616 1.43.795 2.507.183 1.077.274 2.339.274 3.786 0 1.077-.053 2.064-.158 2.961-.101.886-.251 1.66-.453 2.322-.198.651-.442 1.155-.734 1.514-.291.348-.625.522-1.002.522h-2.664V.693h1.03v21.856h1.634c.314 0 .566-.219.757-.656.193-.449.336-1.032.425-1.75s.134-1.486.134-2.305c0-.819-.045-1.57-.134-2.255s-.232-1.228-.425-1.632c-.191-.415-.442-.623-.757-.623h-1.853V10.67zM333.754.691v24.497h-1.019V.691h1.019zm2.144 0v2.658h-5.302V.691h5.302zM341.485 22.547v2.642h-3.538v-2.642h3.538zM338.131.691v24.497h-1.03V.691h1.03zm2.877 10.533v2.641h-3.062v-2.641h3.062zm.421-10.533v2.658h-3.482V.691h3.482zM346.88 17.399h1.03c-.026 1.682-.139 3.135-.341 4.358-.198 1.211-.488 2.142-.869 2.793-.376.651-.848.976-1.416.976-.407 0-.774-.241-1.103-.723-.328-.482-.609-1.172-.845-2.07-.232-.909-.409-1.997-.533-3.264a44.935 44.935 0 0 1-.184-4.274v-4.526c0-1.57.062-2.989.184-4.257.127-1.268.309-2.35.544-3.247.239-.909.528-1.604.867-2.086.343-.482.731-.723 1.165-.723.529 0 .977.32 1.343.959.369.628.653 1.554.85 2.776.202 1.211.314 2.698.336 4.459h-1.03c-.026-1.29-.093-2.339-.201-3.146-.109-.819-.269-1.419-.481-1.8-.209-.393-.482-.589-.817-.589-.299 0-.559.179-.778.538-.217.359-.395.875-.537 1.548a19.002 19.002 0 0 0-.314 2.406 43.924 43.924 0 0 0-.101 3.129v4.56c0 1.077.029 2.081.085 3.012.059.931.152 1.75.279 2.456.131.695.301 1.239.51 1.632s.463.589.761.589c.377 0 .675-.185.896-.555s.383-.959.487-1.767c.109-.808.179-1.862.213-3.163zM350.088 10.669h1.853c.504 0 .929.303 1.275.909.351.594.616 1.43.795 2.507.183 1.077.274 2.339.274 3.786 0 1.077-.053 2.064-.157 2.961-.101.886-.253 1.66-.454 2.322-.198.651-.442 1.155-.733 1.514-.291.348-.625.522-1.002.522h-2.665V.693h1.031v21.856h1.634c.313 0 .565-.219.755-.656.194-.449.336-1.032.425-1.75.09-.718.135-1.486.135-2.305s-.045-1.57-.135-2.255c-.089-.684-.231-1.228-.425-1.632-.191-.415-.442-.623-.755-.623h-1.853V10.67z"/>
    </symbol>
    <symbol id="icon-drop" viewBox="0 0 31 32">
      <path d="M26.257 16.958a10.302 10.302 0 0 0-1.825-3.203L16.483 2.152l-4.919 7.227c1.109 1.684 2.705 2.877 4.767 3.557l.279.091c.212.07.423.138.634.21.391.133.476.306.482.523.007.237-.161.414-.502.525-1.095.359-2.336.767-3.405 1.534-1.611 1.157-2.742 2.713-3.363 4.628l-.058.179c-.086.265-.174.538-.269.801-.094.259-.244.372-.495.377-.217-.004-.387-.08-.511-.435-.064-.182-.124-.366-.187-.556-.187-.569-.382-1.157-.667-1.715a9.187 9.187 0 0 0-1.549-2.189 10.284 10.284 0 0 0-.59 3.44c0 5.686 4.644 10.313 10.353 10.313s10.353-4.626 10.353-10.313c0-1.189-.203-2.331-.577-3.394l-.001.003zm-4.001 6.669c-.455.149-.971.319-1.403.629a3.65 3.65 0 0 0-1.365 1.879l-.025.077a9.69 9.69 0 0 1-.118.351.418.418 0 0 1-.406.3c-.208-.004-.347-.114-.421-.327a10.762 10.762 0 0 1-.079-.235c-.08-.243-.16-.487-.276-.712-.468-.914-1.219-1.539-2.23-1.857-.129-.04-.236-.075-.344-.112-.216-.074-.325-.213-.325-.413 0-.205.113-.348.337-.424l.206-.068c.256-.084.519-.17.761-.294.903-.465 1.52-1.206 1.836-2.202l.113-.342c.073-.212.228-.338.413-.338h.011c.199.008.337.119.413.332l.085.248c.059.177.119.356.192.523.436.986 1.19 1.663 2.243 2.01l.119.039.274.091c.229.078.343.214.349.416.003.093-.027.321-.36.43l-.002-.003z"/>
      <path d="M22.267 22.78a21.979 21.979 0 0 0-.274-.091l-.119-.039c-1.052-.347-1.807-1.023-2.243-2.01a5.606 5.606 0 0 1-.192-.523 8.073 8.073 0 0 0-.085-.248c-.076-.214-.213-.325-.413-.332h-.011c-.186 0-.34.126-.413.338-.044.127-.081.239-.113.342-.315.995-.933 1.736-1.836 2.202a5.025 5.025 0 0 1-.761.294l-.206.068c-.224.075-.337.219-.337.424 0 .199.109.338.325.413.108.037.215.072.344.112 1.011.317 1.762.943 2.23 1.857.115.225.196.47.276.712.027.08.052.158.079.235.074.213.214.322.421.327a.418.418 0 0 0 .406-.3c.043-.118.082-.242.118-.351l.025-.077a3.648 3.648 0 0 1 1.365-1.879c.432-.31.948-.48 1.403-.629.333-.109.362-.337.36-.43-.006-.202-.12-.338-.349-.416l.002.002zm-1.322.435a4.431 4.431 0 0 0-1.998 2l-.009.018a4.436 4.436 0 0 0-2.042-2.033 4.558 4.558 0 0 0 1.032-.696c.408-.373.74-.809.989-1.294l.008-.019.008-.022-.199-.067.2.065.001-.005.008.017a4.478 4.478 0 0 0 2.024 2.015l.013.005-.033.013-.001.002zM30.509 6.472c-.006-.202-.12-.338-.349-.416a21.979 21.979 0 0 0-.274-.091l-.119-.039c-1.052-.347-1.807-1.023-2.243-2.01a5.606 5.606 0 0 1-.192-.523 8.073 8.073 0 0 0-.085-.248c-.076-.213-.213-.325-.413-.332h-.011c-.186 0-.34.126-.413.338-.044.127-.081.239-.113.342-.315.995-.933 1.736-1.836 2.202a5.025 5.025 0 0 1-.761.294l-.206.068c-.224.075-.337.218-.337.424 0 .199.109.338.325.413.108.037.215.072.344.112 1.011.317 1.762.943 2.23 1.857.115.225.196.47.276.713.027.08.052.158.079.235.074.213.213.322.421.326a.416.416 0 0 0 .406-.3c.043-.118.082-.242.118-.351l.025-.077a3.648 3.648 0 0 1 1.365-1.879c.432-.31.948-.48 1.403-.629.333-.109.362-.337.36-.43l.002.002zM26.627 4.38l.2.065.001-.005.008.017a4.478 4.478 0 0 0 2.025 2.015l.013.005-.033.013a4.431 4.431 0 0 0-1.998 2l-.009.018a4.436 4.436 0 0 0-2.042-2.033 4.558 4.558 0 0 0 1.032-.696c.408-.373.74-.809.989-1.293l.008-.019.008-.022-.199-.067-.001.002z"/>
      <path d="M26.093 14.396 16.48.366l-5.474 8.043a9.732 9.732 0 0 1-.2-.425c-.182-.412-.324-.84-.461-1.253a21.986 21.986 0 0 0-.198-.579c-.11-.311-.258-.44-.51-.45h-.016c-.221 0-.399.163-.502.46a32.47 32.47 0 0 0-.261.785c-.776 2.451-2.298 4.274-4.523 5.421-.599.309-1.233.516-1.846.717l-.475.157c-.375.127-.452.302-.452.527 0 .212.073.378.429.501.246.085.493.165.788.257 1.228.386 2.299.957 3.209 1.706l-.018.043a11.148 11.148 0 0 0-.766 4.076c0 6.195 5.059 11.234 11.277 11.234s11.277-5.039 11.277-11.234c0-2.01-.534-3.899-1.466-5.533a1.424 1.424 0 0 0-.2-.422v-.001zm-21.706-.329-.627-.296.622-.307c1.097-.543 1.889-1.062 2.57-1.684.908-.831 1.648-1.8 2.202-2.88a.962.962 0 0 0 .01-.029c.029-.09.117-.363.425-.384.235-.017.408.11.514.375l.003.008c.004.01.008.02.013.028.987 1.919 2.47 3.395 4.41 4.387a.208.208 0 0 0 .03.013c.095.039.33.137.371.406.021.142.003.399-.362.516l-.01.003-.011.003c-1.979 1.008-3.476 2.506-4.443 4.448-.034.068-.066.126-.099.177s-.067.082-.103.116l-.06.055-.336.321-.2-.418c-1.057-2.209-2.664-3.798-4.914-4.858l-.003-.001zm12.094 16.597c-5.708 0-10.353-4.626-10.353-10.313a10.284 10.284 0 0 1 .59-3.44A9.167 9.167 0 0 1 8.267 19.1c.286.558.48 1.146.667 1.715.063.19.124.373.187.556.124.354.293.43.511.434.251-.005.401-.117.495-.377.096-.263.184-.537.269-.801l.058-.179c.621-1.914 1.753-3.471 3.363-4.628 1.068-.767 2.31-1.175 3.405-1.534.34-.111.509-.288.502-.525-.007-.218-.091-.39-.482-.523a47.02 47.02 0 0 0-.634-.21l-.279-.091c-2.062-.68-3.658-1.874-4.767-3.557l4.919-7.227 7.95 11.602a10.231 10.231 0 0 1 2.402 6.597c0 5.686-4.644 10.313-10.353 10.313v-.002z"/>
    </symbol>
    <symbol id="icon-feather" viewBox="0 0 26 32">
      <path d="M9.107 22.478a.65.65 0 0 1-.131-1.287 6.235 6.235 0 0 0 3.155-1.708.65.65 0 0 1 .922.918 7.533 7.533 0 0 1-3.812 2.063.676.676 0 0 1-.133.014l-.001-.001zM3.904 28.332a.65.65 0 1 1 0-1.3 6.078 6.078 0 0 0 5.459-3.444.65.65 0 0 1 1.175.559 7.383 7.383 0 0 1-6.634 4.186zM14.136 5.769a.65.65 0 0 0-.919-.03C9.22 9.484 4.251 19.15 1.513 26.328a3.489 3.489 0 0 1-.212-1.25.65.65 0 1 0-1.3 0c0 1.11.324 2.073.938 2.811a43.657 43.657 0 0 0-.915 2.871.65.65 0 0 0 .628.824.651.651 0 0 0 .627-.478c.917-3.315 2.993-8.402 5.287-12.958 2.703-5.366 5.381-9.436 7.542-11.461a.65.65 0 0 0 .03-.919v-.001z"/>
      <path d="M11.71 18.574a.652.652 0 0 1-.294-1.232c2.657-1.341 3.717-4.047 4.84-6.912 1.289-3.289 2.616-6.676 6.462-7.982-3.581-1.386-6.801-.952-9.801 1.31-2.927 2.207-4.934 5.636-6.262 7.907l-.239.408a.65.65 0 1 1-1.121-.659l.238-.405C6.914 8.65 9 5.085 12.135 2.721c3.856-2.908 8.192-3.123 12.891-.641a.652.652 0 0 1-.217 1.22c-4.603.623-5.932 4.015-7.339 7.607-1.162 2.967-2.364 6.033-5.465 7.599a.654.654 0 0 1-.293.07l-.002-.001zM5.205 14.346a.65.65 0 1 0 0-1.3.65.65 0 0 0 0 1.3zM1.302 23.128a.65.65 0 1 1-1.299.001.65.65 0 0 1 1.299-.001z"/>
      <path d="M15.613 5.564a.65.65 0 1 0 0-1.302.65.65 0 0 0 0 1.302zM2.603 19.902a.651.651 0 0 1-.611-.426c-.56-1.522.122-3.618 1.52-4.673a.65.65 0 1 1 .784 1.038c-.94.709-1.446 2.198-1.082 3.186a.65.65 0 0 1-.611.875l-.001-.001zM1.302 21.827a.65.65 0 1 0 0-1.3.65.65 0 0 0 0 1.3z"/>
    </symbol>
    <symbol id="icon-glass" viewBox="0 0 26 32">
      <path d="M9.054 12.72c-.015-.35.006-.676.499-.674.469.002.548.291.528.66-.02.361.015.764-.54.754-.53-.01-.49-.392-.487-.739v-.001zM20.64 10.679c.142.085.405.124.298.345-.072.147-.272.129-.403-.018.023-.113-.08-.263.105-.328v.001zM13.765 12.011l.071-.097.068.116c-.055.05-.102.058-.139-.019zM8.223 22.036c1.476 0 2.953.009 4.429-.007.33-.003.459.05.45.408-.027 1.092-.015 2.185-.007 3.278.002.278-.042.428-.389.526a6.377 6.377 0 0 0-2.955 1.798c-.527.559-1.138.887-2.005.816-1.091-.09-2.193-.021-3.292-.024-.679-.002-1.145-.421-1.151-1.084-.016-1.785.002-3.569-.024-5.354-.006-.382.215-.353.456-.353 1.495-.003 2.991-.001 4.486-.002l.001-.002zM8.471 30.531c.459-.418.839-.777 1.235-1.118.541-.466 1.103-.911 1.643-1.38 1.27-1.1 3.412-1.147 4.728-.085 1.009.814 1.979 1.673 3.049 2.583H8.471zm6.549-2.347c.058-.388-.224-.414-.514-.443-.362-.037-.475.246-.489.462-.018.287.227.501.529.515.343.018.497-.201.474-.534zm1.191.655c-.318-.043-.531.037-.512.392.017.301.1.514.491.485.306-.023.517-.127.529-.434.011-.322-.146-.51-.508-.442zm-2.796 1.195c.363.045.473-.117.476-.441.003-.34-.146-.426-.478-.44-.355-.016-.529.207-.528.43.001.242.146.541.528.451h.001zM10.923 16.627c.018-.326-.077-.713.489-.701.467.01.539.274.546.647.007.415-.126.747-.579.764-.48.016-.465-.372-.455-.709h-.001zM8.997 18.781c-.058-.35.024-.564.519-.571.594-.01.484.345.505.681.023.377-.066.651-.525.648-.53-.003-.513-.367-.498-.757z"/>
      <path d="M15.021 28.182c.023.333-.131.552-.474.534-.301-.015-.547-.229-.529-.515.014-.214.127-.498.489-.462.29.03.572.055.514.443zM16.211 28.838c.363-.067.521.122.508.442-.011.308-.223.411-.529.434-.391.029-.475-.185-.491-.485-.019-.355.193-.434.512-.392zM13.416 30.033c-.383.09-.527-.21-.528-.451-.001-.223.173-.446.528-.43.331.015.481.1.478.44-.003.324-.114.486-.476.441h-.001z"/>
      <path d="M20.19 30.06c-.66-.532-1.284-1.102-1.933-1.643-.578-.481-.992-.902-1.745-1.428-.42-.293-.594-.52-.59-1.009.024-3.442.015-6.886.011-10.328 0-.884-.492-1.361-1.402-1.373-.624-.008-1.25-.02-1.874.004-.454.018-.804.027-.724-.591.041-.318-.24-.5-.583-.486-.294.012-.463.2-.417.465.101.583-.205.619-.697.615-2.802-.021-5.604-.013-8.405-.009-.878.001-1.097.153-1.366.953a.902.902 0 0 1-.051.12v9.84c.061.147.19.25.459.255.571.012.625-.379.623-.811-.007-1.439.009-7.481-.011-8.921-.005-.355.096-.452.469-.451 4.09.013 8.179.012 12.269.002.479-.001.695.107.691.634-.024 3.134-.012 6.268-.007 9.4 0 .22-.089.426-.096.631-.01.269-.133.272-.346.282-.288.013-.289-.14-.288-.34.005-1.203-.005-2.405.005-3.608.007-.909-.284-1.299-1.244-1.201-.168.016-.341-.002-.511.003-.266.009-.501.043-.506-.357-.002-.19-.135-.444-.478-.417-.315.024-.512.143-.513.45 0 .389-.293.259-.483.259-2.329.008-4.658.005-6.986.003-.283 0-.555.009-.811.155-.289.166-.451.353-.448.719.018 2.057.002 4.114 0 6.172 0 .541.75 1.389 1.387 1.662.465.2.929.126 1.399.125.833-.002 1.666 0 2.561 0-.384.55-.855.819-1.516.81-.824-.011-1.528.033-2.276-.182-1.113-.318-1.886-.963-2.178-2.103a2.687 2.687 0 0 1-.09-.731c.015-1.567.005-3.134.01-4.701 0-.208-.032-.409-.194-.537a.712.712 0 0 0-.639-.109c-.225.066-.204.283-.205.463-.006.583 0 1.166-.009 1.749-.002.105.044.257-.035.332v3.208c0 1.047.66 1.834.92 2.094.811.811 1.674 1.483 2.983 1.451 2.44-.059 4.884-.016 7.326-.016 2.651 0 5.301-.003 7.951.004.461.001.872-.212.994-.553.105-.292-.099-.719-.397-.96l-.003.002zM7.748 28.855c-1.09-.09-2.193-.021-3.292-.024-.679-.002-1.145-.421-1.151-1.084-.016-1.785.002-3.569-.024-5.354-.006-.382.215-.353.456-.353 1.495-.003 2.991-.001 4.486-.001 1.476 0 2.953.008 4.429-.008.33-.003.459.05.45.408-.027 1.092-.015 2.185-.007 3.278.002.278-.042.428-.389.526a6.377 6.377 0 0 0-2.955 1.798c-.527.559-1.138.887-2.005.815l.001-.001zm.724 1.676c.459-.418.839-.777 1.235-1.118.541-.466 1.103-.911 1.643-1.38 1.27-1.1 3.412-1.147 4.728-.085 1.009.814 1.979 1.673 3.049 2.583H8.472zM9.842 9.505V.881h14.775v11.5H12.863L9.842 9.505z"/>
      <path d="M24.618.366H9.842a.525.525 0 0 0-.534.514v8.624c0 .137.058.269.158.366l3.021 2.875a.541.541 0 0 0 .375.149h11.755a.525.525 0 0 0 .534-.514V.88a.525.525 0 0 0-.534-.514zm-11.535 11.5L10.377 9.29V1.394h13.708v10.473l-11.002-.001z"/>
      <path d="M16.635 2.976h-1.419v7.036h1.419V2.976z"/>
      <path d="M16.635 10.36h-1.419a.357.357 0 0 1-.364-.35V2.975c0-.194.163-.35.364-.35h1.419c.201 0 .364.156.364.35v7.036c0 .194-.163.35-.364.35v-.001zm-1.055-.7h.691V3.325h-.691V9.66zM19.953 2.976h-1.419v7.036h1.419V2.976z"/>
      <path d="M19.954 10.36h-1.419a.357.357 0 0 1-.364-.35V2.975c0-.194.163-.35.364-.35h1.419c.201 0 .364.156.364.35v7.036c0 .194-.163.35-.364.35v-.001zm-1.056-.7h.691V3.325h-.691V9.66z"/>
    </symbol>
    <symbol id="icon-instruction" viewBox="0 0 310 32">
      <path d="M3.996 19.671h.966c-.024 1.43-.131 2.664-.32 3.703-.186 1.029-.457 1.821-.814 2.374-.354.553-.796.829-1.328.829-.382 0-.726-.205-1.034-.615s-.572-.996-.793-1.759c-.217-.772-.383-1.697-.499-2.774s-.173-2.288-.173-3.632v-3.846c0-1.335.058-2.54.173-3.618.119-1.077.289-1.997.509-2.76.224-.772.495-1.363.814-1.773.322-.41.686-.615 1.092-.615.497 0 .917.272 1.26.815.347.534.613 1.32.798 2.359.189 1.03.294 2.293.315 3.789h-.966c-.025-1.096-.088-1.988-.189-2.674-.102-.696-.252-1.206-.452-1.53-.196-.334-.452-.5-.767-.5-.28 0-.523.153-.73.458-.203.305-.371.744-.504 1.316-.13.562-.228 1.244-.294 2.045a33.762 33.762 0 0 0-.095 2.66v3.875c0 .915.026 1.768.079 2.559.056.791.143 1.487.262 2.088.123.591.282 1.053.478 1.387s.434.5.714.5c.354 0 .634-.157.84-.472s.359-.815.457-1.501c.102-.686.168-1.582.2-2.688zM9.746 21.516l2.977-16.043h.966v20.819h-.966V10.234L9.746 26.292h-.961V5.473h.961v16.043zM19.554 14.424v2.245h-3.313v-2.245h3.313zm-3.182-8.952v20.819h-.966V5.472h.966zm4.038 0v20.819h-.966V5.472h.966zM25.902 19.671h.966c-.025 1.43-.131 2.664-.32 3.703-.186 1.029-.457 1.821-.814 2.374-.354.553-.796.829-1.328.829-.381 0-.726-.205-1.034-.615s-.572-.996-.793-1.759c-.217-.772-.383-1.697-.499-2.774s-.173-2.288-.173-3.632v-3.846c0-1.335.058-2.54.173-3.618.119-1.077.289-1.997.509-2.76.224-.772.495-1.363.814-1.773.322-.41.686-.615 1.092-.615.497 0 .917.272 1.26.815.346.534.613 1.32.798 2.359.189 1.03.294 2.293.315 3.789h-.966c-.024-1.096-.087-1.988-.189-2.674-.102-.696-.252-1.206-.452-1.53-.196-.334-.452-.5-.767-.5-.28 0-.523.153-.73.458-.203.305-.371.744-.504 1.316-.13.562-.227 1.244-.294 2.045a33.762 33.762 0 0 0-.095 2.66v3.875c0 .915.026 1.768.079 2.559.056.791.143 1.487.263 2.088.122.591.282 1.053.478 1.387s.434.5.714.5c.354 0 .634-.157.84-.472s.359-.815.457-1.501c.102-.686.168-1.582.2-2.688zM30.476 5.472v20.819h-.956V5.472h.956zm2.011 0v2.259h-4.973V5.472h4.973zM36.052 18.127h-1.67v-2.245h1.67c.315 0 .569-.171.761-.515.196-.343.338-.82.425-1.43.091-.61.136-1.306.136-2.088 0-.715-.045-1.387-.136-2.016-.087-.629-.229-1.134-.425-1.516-.193-.391-.446-.586-.761-.586h-1.47v18.56h-.966V5.472h2.436c.494 0 .91.272 1.25.815s.597 1.296.772 2.259c.178.953.268 2.045.268 3.274 0 1.335-.089 2.474-.268 3.417-.175.944-.432 1.663-.772 2.159-.34.486-.756.729-1.25.729zM41.534 19.385l1.623-13.913h1.113l-2.2 17.345c-.07.486-.145.958-.226 1.416-.077.448-.172.848-.284 1.201s-.252.634-.42.844a.776.776 0 0 1-.63.315.993.993 0 0 1-.268-.043c-.098-.019-.161-.043-.189-.072l.021-2.202a.696.696 0 0 0 .194.057c.102.009.173.014.215.014.157 0 .278-.11.362-.329.087-.219.156-.496.205-.829.049-.343.096-.691.142-1.044l.341-2.76zM40.316 5.472l1.649 12.969.226 2.559-.814.172-2.137-15.7h1.076zM46.486 5.472v20.819h-.966V5.472h.966zm3.933 0-2.762 11.453h-1.554l-.163-2.288h1.134l2.148-9.166h1.197zm-.998 20.82-2.3-9.723.541-2.416 2.935 12.14h-1.176zM57.161 23.975l-.094 7.335h-.861v-5.019h-.635v-2.316h1.591zm-5.613 2.317V5.473h.966v18.574h2.988V5.473h.966v20.819h-4.92zM59.387 21.516l2.977-16.043h.966v20.819h-.966V10.234l-2.977 16.058h-.961V5.473h.961v16.043zM69.159 24.047v2.245H65.84v-2.245h3.319zM66.014 5.472v20.819h-.966V5.472h.966zm2.699 8.952v2.245h-2.872v-2.245h2.872zm.393-8.952v2.259H65.84V5.472h3.266zM71.401 21.516l2.977-16.043h.966v20.819h-.966V10.234l-2.977 16.058h-.961V5.473h.961v16.043zM73.691.311h.788a9.44 9.44 0 0 1-.189 1.988c-.126.572-.306 1.02-.541 1.344s-.513.486-.835.486c-.487 0-.872-.353-1.155-1.058-.28-.715-.42-1.635-.42-2.76h.788c0 .562.059 1.058.178 1.487s.322.643.609.643c.28 0 .48-.214.599-.643s.178-.925.178-1.487zM80.538 21.516l2.977-16.043h.966v20.819h-.966V10.234l-2.977 16.058h-.961V5.473h.961v16.043zM90.362 5.472v2.259h-2.856V5.472h2.856zm.851 0v20.819h-.966V5.472h.966zm-4.033 0h.961l-.136 10.195a128.473 128.473 0 0 1-.1 3.932 47.495 47.495 0 0 1-.21 2.988c-.091.839-.21 1.535-.357 2.088-.147.543-.327.948-.541 1.215-.21.267-.46.4-.751.4h-.252v-2.245l.184-.043c.161-.038.299-.157.415-.358.119-.21.217-.524.294-.944.081-.419.145-.963.194-1.63.052-.667.093-1.482.121-2.445.028-.972.049-2.107.063-3.403l.115-9.752zM93.927 21.516l2.977-16.043h.966v20.819h-.966V10.234l-2.977 16.058h-.961V5.473h.961v16.043zM107.023 5.472v20.819h-.966V7.731h-2.988v18.56h-.966V5.472h4.92zM111.171 18.127h-1.67v-2.245h1.67c.315 0 .569-.171.761-.515.197-.343.338-.82.426-1.43.091-.61.136-1.306.136-2.088 0-.715-.045-1.387-.136-2.016-.088-.629-.229-1.134-.426-1.516-.192-.391-.446-.586-.761-.586h-1.47v18.56h-.966V5.472h2.436c.494 0 .91.272 1.25.815.339.543.597 1.296.772 2.259.178.953.267 2.045.267 3.274 0 1.335-.089 2.474-.267 3.417-.175.944-.433 1.663-.772 2.159-.34.486-.756.729-1.25.729zM119.672 14.08v3.618c0 1.468-.059 2.76-.178 3.875-.116 1.106-.286 2.03-.51 2.774s-.493 1.301-.808 1.673c-.315.372-.671.558-1.066.558-.382 0-.73-.186-1.045-.558s-.586-.93-.814-1.673c-.228-.744-.404-1.668-.53-2.774-.123-1.115-.184-2.407-.184-3.875V14.08c0-1.468.061-2.755.184-3.861.122-1.115.297-2.045.525-2.788.227-.744.499-1.301.814-1.673.315-.381.663-.572 1.045-.572.395 0 .75.191 1.065.572.319.372.589.929.809 1.673.224.744.396 1.673.515 2.788.119 1.106.178 2.393.178 3.861zm-.955 3.618v-3.646c0-1.144-.035-2.126-.105-2.946-.07-.829-.174-1.506-.31-2.03-.137-.524-.305-.91-.504-1.158-.2-.257-.431-.386-.693-.386-.249 0-.473.129-.673.386-.196.248-.364.634-.504 1.158s-.248 1.201-.325 2.03c-.074.82-.11 1.802-.11 2.946v3.646c0 1.153.036 2.145.11 2.974.077.82.185 1.497.325 2.03.144.524.315.915.515 1.172.199.248.422.372.667.372.262 0 .493-.124.693-.372.203-.257.371-.648.504-1.172.137-.534.238-1.211.305-2.03.07-.829.105-1.821.105-2.974zM122.182 5.472v20.819h-.966V5.472h.966zm3.933 0-2.762 11.453h-1.554l-.163-2.288h1.134l2.148-9.166h1.197zm-.998 20.82-2.299-9.723.54-2.416 2.936 12.14h-1.177zM132.001 14.08v3.618c0 1.468-.059 2.76-.178 3.875-.116 1.106-.286 2.03-.51 2.774s-.493 1.301-.808 1.673c-.315.372-.671.558-1.066.558-.382 0-.73-.186-1.045-.558s-.586-.93-.814-1.673c-.227-.744-.404-1.668-.53-2.774-.123-1.115-.184-2.407-.184-3.875V14.08c0-1.468.061-2.755.184-3.861.122-1.115.297-2.045.525-2.788.227-.744.499-1.301.814-1.673.315-.381.663-.572 1.045-.572.395 0 .75.191 1.066.572.318.372.588.929.808 1.673.224.744.396 1.673.515 2.788.119 1.106.178 2.393.178 3.861zm-.955 3.618v-3.646c0-1.144-.035-2.126-.105-2.946-.07-.829-.174-1.506-.31-2.03-.137-.524-.305-.91-.504-1.158-.2-.257-.431-.386-.693-.386-.249 0-.473.129-.673.386-.196.248-.364.634-.504 1.158s-.248 1.201-.325 2.03c-.074.82-.11 1.802-.11 2.946v3.646c0 1.153.036 2.145.11 2.974.077.82.185 1.497.325 2.03.144.524.315.915.515 1.172.199.248.422.372.667.372.262 0 .493-.124.693-.372.203-.257.371-.648.504-1.172.137-.534.238-1.211.305-2.03.07-.829.105-1.821.105-2.974zM137.646 14.424v2.245h-3.313v-2.245h3.313zm-3.182-8.952v20.819h-.966V5.472h.966zm4.038 0v20.819h-.966V5.472h.966zM143.994 19.671h.966c-.024 1.43-.131 2.664-.32 3.703-.185 1.029-.457 1.821-.814 2.374-.353.553-.796.829-1.328.829-.382 0-.727-.205-1.035-.615s-.572-.996-.793-1.759c-.217-.772-.383-1.697-.498-2.774a34.184 34.184 0 0 1-.174-3.632v-3.846c0-1.335.058-2.54.174-3.618.119-1.077.288-1.997.509-2.76.224-.772.495-1.363.814-1.773.322-.41.686-.615 1.092-.615.497 0 .917.272 1.26.815.347.534.613 1.32.798 2.359.189 1.03.294 2.293.315 3.789h-.966c-.024-1.096-.087-1.988-.189-2.674-.101-.696-.252-1.206-.451-1.53-.196-.334-.452-.5-.767-.5-.28 0-.523.153-.73.458-.203.305-.371.744-.504 1.316a14.834 14.834 0 0 0-.294 2.045 33.762 33.762 0 0 0-.095 2.66v3.875c0 .915.027 1.768.079 2.559.056.791.144 1.487.263 2.088.122.591.282 1.053.478 1.387s.434.5.714.5c.353 0 .633-.157.84-.472.206-.315.359-.815.457-1.501.101-.686.168-1.582.199-2.688zM148.221 19.385l1.623-13.913h1.113l-2.2 17.345c-.07.486-.146.958-.226 1.416-.077.448-.172.848-.284 1.201s-.252.634-.42.844a.776.776 0 0 1-.63.315.993.993 0 0 1-.268-.043c-.098-.019-.161-.043-.189-.072l.021-2.202a.706.706 0 0 0 .195.057c.101.009.173.014.215.014.157 0 .278-.11.362-.329a3.71 3.71 0 0 0 .205-.829c.049-.343.096-.691.142-1.044l.341-2.76zm-1.218-13.913 1.649 12.969.226 2.559-.814.172-2.137-15.7h1.076zM155.945 5.472v2.259h-2.856V5.472h2.856zm.851 0v20.819h-.966V5.472h.966zm-4.033 0h.961l-.136 10.195a131.765 131.765 0 0 1-.1 3.932 47.495 47.495 0 0 1-.21 2.988c-.091.839-.21 1.535-.357 2.088-.147.543-.328.948-.541 1.215-.21.267-.461.4-.751.4h-.252v-2.245l.184-.043c.161-.038.299-.157.415-.358.119-.21.217-.524.294-.944.08-.419.145-.963.194-1.63.052-.667.093-1.482.121-2.445.028-.972.049-2.107.063-3.403l.115-9.752zM159.237 13.952h1.738c.473 0 .872.257 1.198.772.329.505.577 1.215.745 2.131.172.915.258 1.988.258 3.217 0 .915-.049 1.754-.147 2.517a10.259 10.259 0 0 1-.426 1.973c-.185.553-.415.982-.688 1.287-.273.296-.586.443-.94.443h-2.499V5.473h.966v18.574h1.533c.295 0 .531-.186.709-.558.182-.381.315-.877.399-1.487s.126-1.263.126-1.959c0-.696-.042-1.334-.126-1.916s-.217-1.044-.399-1.387c-.178-.353-.414-.529-.709-.529h-1.738v-2.259zM165.486 5.472v20.819h-.956V5.472h.956zm2.011 0v2.259h-4.973V5.472h4.973zM169.634 21.516l2.977-16.043h.966v20.819h-.966V10.234l-2.977 16.058h-.961V5.473h.961v16.043zM177.731 18.127h-1.67v-2.245h1.67c.315 0 .569-.171.761-.515.196-.343.338-.82.426-1.43.091-.61.136-1.306.136-2.088 0-.715-.045-1.387-.136-2.016-.088-.629-.23-1.134-.426-1.516-.192-.391-.446-.586-.761-.586h-1.47v18.56h-.966V5.472h2.436c.494 0 .91.272 1.25.815.339.543.596 1.296.772 2.259.178.953.267 2.045.267 3.274 0 1.335-.089 2.474-.267 3.417-.176.944-.433 1.663-.772 2.159-.34.486-.756.729-1.25.729zM183.213 19.385l1.622-13.913h1.114l-2.201 17.345c-.07.486-.145.958-.225 1.416-.077.448-.172.848-.284 1.201s-.252.634-.42.844a.776.776 0 0 1-.63.315.993.993 0 0 1-.268-.043c-.098-.019-.161-.043-.189-.072l.021-2.202a.696.696 0 0 0 .194.057c.102.009.174.014.216.014.157 0 .278-.11.362-.329a3.71 3.71 0 0 0 .205-.829c.049-.343.096-.691.142-1.044l.341-2.76zm-1.218-13.913 1.648 12.969.226 2.559-.814.172-2.137-15.7h1.077zM188.159 21.516l2.977-16.043h.967v20.819h-.967V10.234l-2.977 16.058h-.961V5.473h.961v16.043zm2.29-21.205h.787a9.44 9.44 0 0 1-.189 1.988c-.126.572-.306 1.02-.541 1.344s-.513.486-.835.486c-.486 0-.871-.353-1.155-1.058-.28-.715-.42-1.635-.42-2.76h.788c0 .562.059 1.058.178 1.487s.322.643.609.643c.28 0 .48-.214.599-.643s.179-.925.179-1.487zM196.277 5.472v20.819h-.956V5.472h.956zm2.011 0v2.259h-4.973V5.472h4.973zM203.528 24.047v2.245h-3.318v-2.245h3.318zm-3.145-18.575v20.819h-.966V5.472h.966zm2.699 8.952v2.245h-2.872v-2.245h2.872zm.394-8.952v2.259h-3.266V5.472h3.266zM208.59 19.671h.966c-.024 1.43-.131 2.664-.32 3.703-.185 1.029-.457 1.821-.814 2.374-.353.553-.796.829-1.328.829-.382 0-.727-.205-1.035-.615s-.572-.996-.793-1.759c-.217-.772-.383-1.697-.498-2.774a34.184 34.184 0 0 1-.174-3.632v-3.846c0-1.335.058-2.54.174-3.618.119-1.077.288-1.997.509-2.76.224-.772.495-1.363.814-1.773.322-.41.686-.615 1.092-.615.497 0 .917.272 1.26.815.347.534.613 1.32.798 2.359.189 1.03.294 2.293.315 3.789h-.966c-.024-1.096-.087-1.988-.189-2.674-.101-.696-.252-1.206-.451-1.53-.196-.334-.452-.5-.767-.5-.28 0-.523.153-.73.458-.203.305-.371.744-.504 1.316a14.834 14.834 0 0 0-.294 2.045 33.795 33.795 0 0 0-.094 2.66v3.875c0 .915.026 1.768.078 2.559.056.791.144 1.487.263 2.088.122.591.282 1.053.478 1.387s.434.5.714.5c.353 0 .633-.157.84-.472.206-.315.359-.815.457-1.501.101-.686.168-1.582.199-2.688zM211.599 13.952h1.738c.473 0 .872.257 1.197.772.329.505.578 1.215.746 2.131.171.915.257 1.988.257 3.217 0 .915-.049 1.754-.147 2.517a10.188 10.188 0 0 1-.425 1.973c-.186.553-.415.982-.688 1.287-.273.296-.586.443-.94.443h-2.499V5.473h.966v18.574h1.533c.294 0 .53-.186.709-.558.182-.381.315-.877.399-1.487s.126-1.263.126-1.959c0-.696-.042-1.334-.126-1.916s-.217-1.044-.399-1.387c-.179-.353-.415-.529-.709-.529h-1.738v-2.259zM223.093 19.671h.966c-.024 1.43-.131 2.664-.32 3.703-.186 1.029-.457 1.821-.814 2.374-.354.553-.796.829-1.328.829-.382 0-.727-.205-1.035-.615s-.572-.996-.793-1.759c-.217-.772-.383-1.697-.499-2.774s-.173-2.288-.173-3.632v-3.846c0-1.335.058-2.54.173-3.618.12-1.077.289-1.997.51-2.76.224-.772.495-1.363.814-1.773.322-.41.686-.615 1.092-.615.497 0 .917.272 1.26.815.347.534.613 1.32.798 2.359.189 1.03.294 2.293.315 3.789h-.966c-.024-1.096-.087-1.988-.189-2.674-.101-.696-.252-1.206-.452-1.53-.196-.334-.451-.5-.766-.5-.28 0-.523.153-.73.458-.203.305-.371.744-.504 1.316-.13.562-.228 1.244-.294 2.045a33.762 33.762 0 0 0-.095 2.66v3.875c0 .915.027 1.768.079 2.559.056.791.144 1.487.263 2.088.122.591.281 1.053.477 1.387s.435.5.715.5c.353 0 .633-.157.84-.472.206-.315.359-.815.457-1.501.101-.686.168-1.582.199-2.688zM230.339 14.08v3.618c0 1.468-.059 2.76-.178 3.875-.116 1.106-.286 2.03-.51 2.774s-.493 1.301-.808 1.673c-.315.372-.671.558-1.066.558-.382 0-.73-.186-1.045-.558s-.586-.93-.814-1.673c-.227-.744-.404-1.668-.53-2.774-.123-1.115-.184-2.407-.184-3.875V14.08c0-1.468.061-2.755.184-3.861.122-1.115.297-2.045.525-2.788.227-.744.499-1.301.814-1.673.315-.381.663-.572 1.045-.572.395 0 .751.191 1.066.572.318.372.588.929.808 1.673.224.744.396 1.673.515 2.788.119 1.106.178 2.393.178 3.861zm-.955 3.618v-3.646c0-1.144-.035-2.126-.105-2.946-.07-.829-.174-1.506-.31-2.03-.137-.524-.305-.91-.504-1.158-.2-.257-.431-.386-.693-.386-.249 0-.473.129-.673.386-.196.248-.364.634-.504 1.158s-.248 1.201-.325 2.03c-.074.82-.11 1.802-.11 2.946v3.646c0 1.153.036 2.145.11 2.974.077.82.185 1.497.325 2.03.144.524.315.915.515 1.172.2.248.422.372.667.372.262 0 .493-.124.693-.372.203-.257.371-.648.504-1.172.137-.534.238-1.211.305-2.03.07-.829.105-1.821.105-2.974zM238.132 19.671h.966c-.025 1.43-.132 2.664-.321 3.703-.185 1.029-.456 1.821-.813 2.374-.354.553-.797.829-1.329.829-.382 0-.726-.205-1.034-.615s-.573-.996-.793-1.759c-.217-.772-.384-1.697-.499-2.774a34.202 34.202 0 0 1-.173-3.632v-3.846c0-1.335.057-2.54.173-3.618.119-1.077.289-1.997.509-2.76.224-.772.496-1.363.814-1.773.322-.41.686-.615 1.092-.615.497 0 .917.272 1.261.815.346.534.612 1.32.798 2.359.189 1.03.294 2.293.315 3.789h-.966c-.025-1.096-.088-1.988-.189-2.674-.102-.696-.252-1.206-.452-1.53-.196-.334-.452-.5-.767-.5-.28 0-.523.153-.73.458-.203.305-.371.744-.504 1.316a14.834 14.834 0 0 0-.294 2.045 33.795 33.795 0 0 0-.094 2.66v3.875c0 .915.026 1.768.079 2.559.056.791.143 1.487.262 2.088.123.591.282 1.053.478 1.387s.434.5.714.5c.354 0 .634-.157.84-.472s.359-.815.457-1.501c.102-.686.168-1.582.2-2.688zM245.372 5.472v20.819h-.966V7.731h-2.987v18.56h-.967V5.472h4.92zM251.196 24.047v2.245h-3.319v-2.245h3.319zM248.05 5.472v20.819h-.966V5.472h.966zm2.699 8.952v2.245h-2.872v-2.245h2.872zm.394-8.952v2.259h-3.266V5.472h3.266zM258.09 23.975l-.094 7.335h-.862v-5.019h-.635v-2.316h1.591zm-5.613 2.317V5.473h.966v18.574h2.988V5.473h.966v20.819h-4.92zM260.316 21.516l2.978-16.043h.966v20.819h-.966V10.234l-2.978 16.058h-.961V5.473h.961v16.043zM268.55 7.317l-2.09 18.975h-.987l2.462-20.819h.62l-.005 1.845zm1.691 18.975-2.09-18.975-.011-1.845h.625l2.463 20.819h-.987zm0-7.708v2.259h-3.687v-2.259h3.687zM276.442 5.472v2.259h-2.857V5.472h2.857zm.85 0v20.819h-.966V5.472h.966zm-4.032 0h.961l-.137 10.195a128.473 128.473 0 0 1-.1 3.932 47.495 47.495 0 0 1-.21 2.988c-.091.839-.21 1.535-.357 2.088-.147.543-.327.948-.541 1.215-.21.267-.46.4-.75.4h-.252v-2.245l.183-.043c.161-.038.3-.157.415-.358.119-.21.217-.524.294-.944.081-.419.145-.963.194-1.63a50.04 50.04 0 0 0 .121-2.445c.028-.972.049-2.107.063-3.403l.116-9.752zM280.007 21.516l2.977-16.043h.967v20.819h-.967V10.234l-2.977 16.058h-.961V5.473h.961v16.043zM289.495 19.671h.967c-.025 1.43-.132 2.664-.321 3.703-.185 1.029-.457 1.821-.814 2.374-.353.553-.796.829-1.328.829-.382 0-.726-.205-1.034-.615-.309-.41-.573-.996-.793-1.759-.217-.772-.384-1.697-.499-2.774s-.173-2.288-.173-3.632v-3.846c0-1.335.057-2.54.173-3.618.119-1.077.289-1.997.509-2.76.224-.772.495-1.363.814-1.773.322-.41.686-.615 1.092-.615.497 0 .917.272 1.26.815.347.534.613 1.32.798 2.359.19 1.03.295 2.293.316 3.789h-.967c-.024-1.096-.087-1.988-.189-2.674-.101-.696-.252-1.206-.451-1.53-.196-.334-.452-.5-.767-.5-.28 0-.523.153-.73.458-.203.305-.371.744-.504 1.316a14.834 14.834 0 0 0-.294 2.045 33.795 33.795 0 0 0-.094 2.66v3.875c0 .915.026 1.768.078 2.559.056.791.144 1.487.263 2.088.123.591.282 1.053.478 1.387s.434.5.714.5c.353 0 .634-.157.84-.472.207-.315.359-.815.457-1.501.101-.686.168-1.582.199-2.688zM294.069 5.472v20.819h-.956V5.472h.956zm2.011 0v2.259h-4.973V5.472h4.973zM302.034 14.08v3.618c0 1.468-.059 2.76-.178 3.875-.116 1.106-.285 2.03-.509 2.774s-.494 1.301-.809 1.673c-.315.372-.67.558-1.066.558-.382 0-.73-.186-1.045-.558s-.586-.93-.814-1.673c-.227-.744-.404-1.668-.53-2.774-.123-1.115-.184-2.407-.184-3.875V14.08c0-1.468.061-2.755.184-3.861.122-1.115.297-2.045.525-2.788s.499-1.301.814-1.673c.315-.381.663-.572 1.045-.572.395 0 .751.191 1.066.572.318.372.588.929.808 1.673.224.744.396 1.673.515 2.788.119 1.106.178 2.393.178 3.861zm-.955 3.618v-3.646c0-1.144-.035-2.126-.105-2.946-.07-.829-.173-1.506-.31-2.03s-.305-.91-.504-1.158c-.2-.257-.431-.386-.693-.386-.249 0-.473.129-.672.386-.196.248-.364.634-.504 1.158s-.249 1.201-.326 2.03c-.073.82-.11 1.802-.11 2.946v3.646c0 1.153.037 2.145.11 2.974.077.82.186 1.497.326 2.03.143.524.315.915.514 1.172.2.248.422.372.667.372.263 0 .494-.124.693-.372.203-.257.371-.648.504-1.172.137-.534.238-1.211.305-2.03.07-.829.105-1.821.105-2.974zM303.835 5.472h.935l2.001 16.973 1.995-16.973h.935l-2.568 20.819h-.735l-2.563-20.819zm-.304 0h.819l.142 12.697v8.122h-.961V5.472zm5.65 0H310v20.819h-.961v-8.122l.142-12.697z"/>
    </symbol>
    <symbol id="icon-logo" viewBox="0 0 205 32">
      <path d="M4.886 18.439a20.166 20.166 0 0 1-.329 4.126 3.462 3.462 0 0 1-.802 1.578 2.497 2.497 0 0 1-.858.55 3.51 3.51 0 0 1-1.765.162 1.814 1.814 0 0 1-.578-.154l-.562-.243v4.483l.297.081a4.9 4.9 0 0 0 .899.162l.899.081a8.68 8.68 0 0 0 2.535-.38 6.249 6.249 0 0 0 2.262-1.23 6.478 6.478 0 0 0 1.982-2.896c.474-1.683.69-3.429.642-5.178V7.444h7.533v21.595h4.621V2.962H4.887V18.44zM26.892 29.039h14.625v-4.45h-9.996v-7.525h9.691v-4.442h-9.691V7.411h9.996v-4.45H26.892v26.077zM45.664 29.031h4.637V7.412h8.713v-4.45h-13.35v26.069zM81.67 2.961h-6.177l-9.114 9.483V2.961h-4.637v26.077h4.637V18.35l.313-.324 8.752 11.012h6.185L69.892 14.806 81.669 2.961zM117.731 18.439a21.203 21.203 0 0 1-.321 4.126 3.462 3.462 0 0 1-.802 1.578 2.413 2.413 0 0 1-.851.55 3.542 3.542 0 0 1-1.773.162 1.91 1.91 0 0 1-.578-.154l-.562-.243v4.483l.297.081c.294.079.595.133.899.162l.899.081a8.68 8.68 0 0 0 2.535-.38 6.249 6.249 0 0 0 2.262-1.23 6.4 6.4 0 0 0 1.981-2.896c.48-1.682.696-3.429.642-5.178V7.444h7.541v21.595h4.629V2.962H117.73V18.44zM136.656 29.039h5.022l2.728-6.101h10.189l2.647 6.101h5.006L149.765.923l-13.109 28.116zm12.941-17.712 3.081 7.136h-6.274l3.193-7.136zM178.125 2.961l-9.115 9.483V2.961h-4.636v26.077h4.636V18.342l.313-.316 8.761 11.012h6.169l-11.729-14.232 11.769-11.845h-6.169zM198.405 6.877a8.537 8.537 0 0 1 3.379.688 10.806 10.806 0 0 1 3.016 1.998l.674.623V4.522l-.192-.121a12.475 12.475 0 0 0-3.112-1.4 13.107 13.107 0 0 0-3.699-.494 14.973 14.973 0 0 0-5.031.809 11.568 11.568 0 0 0-4.108 2.589 12.817 12.817 0 0 0-3.089 4.612 15.193 15.193 0 0 0-1.027 5.591 13.846 13.846 0 0 0 .908 5.283 12.718 12.718 0 0 0 3.208 4.499 12.03 12.03 0 0 0 4.18 2.719 13.49 13.49 0 0 0 8.384.396 13.425 13.425 0 0 0 3.385-1.497l.192-.121v-5.72l-.682.664a10.82 10.82 0 0 1-3.016 2.087 7.504 7.504 0 0 1-3.208.704 8.186 8.186 0 0 1-6.338-2.581 9.142 9.142 0 0 1-2.407-6.473 9.2 9.2 0 0 1 2.358-6.595 8.108 8.108 0 0 1 2.831-1.984 8.033 8.033 0 0 1 3.394-.614z"/>
      <path d="M109.853 22.655a14.487 14.487 0 0 1-4.91 4.612 14.25 14.25 0 0 1-7.068 1.958h-.802l-1.468-.097-.698-.162-.658-.178a8.27 8.27 0 0 1-1.717-.574l-.61-.299a10.622 10.622 0 0 1-1.516-.858 11.4 11.4 0 0 0-.594-.477 10.376 10.376 0 0 1-1.3-1.125c-1.239-1.259-2.211-2.758-2.857-4.408s-.951-3.415-.898-5.188a11.492 11.492 0 0 1 1.605-5.316c.095-.212.216-.41.361-.591.855-1.484 2.037-2.75 3.454-3.7s3.032-1.559 4.719-1.781c1.688-.221 3.403-.049 5.014.505s3.074 1.472 4.277 2.686c1.037 1.12 1.845 2.436 2.376 3.872s.776 2.963.721 4.495a12.215 12.215 0 0 1-1.821 6.756 12.868 12.868 0 0 0 2.038-1.942 13.792 13.792 0 0 0 2.062-3.398c1.07-2.388 1.315-5.068.697-7.612s-2.064-4.807-4.107-6.426C103.079 1.009 99.25-.188 95.37.035s-7.549 1.851-10.333 4.586c-1.463 1.498-2.61 3.279-3.374 5.235s-1.128 4.048-1.071 6.149c-.061 2.107.302 4.204 1.066 6.166s1.913 3.748 3.379 5.25c3.01 2.944 7.038 4.59 11.232 4.59s8.221-1.646 11.231-4.59a15.205 15.205 0 0 0 4.268-8.746h-.096a14.817 14.817 0 0 1-1.821 3.981z"/>
      <path d="M108.89 20.657a10.665 10.665 0 0 1-3.394 3.163 9.96 9.96 0 0 1-5.086 1.392h-1.203l-.321-.089a9.687 9.687 0 0 1-1.268-.372c-.433-.218-.89-.372-1.3-.631s-.802-.534-1.171-.866a6.747 6.747 0 0 1-.995-1.092 14.09 14.09 0 0 1-.802-1.286 10.732 10.732 0 0 1-.514-1.416l-.136-.744-.08-.38v-.275a5.4 5.4 0 0 1 .12-1.618c.04-.213.091-.423.152-.631l.289-.68c.087-.228.209-.441.361-.631.144-.194.265-.421.425-.599a6.253 6.253 0 0 1 1.091-.971c.209-.129.393-.299.602-.405l.674-.291a2.28 2.28 0 0 1 .69-.21l.361-.073.177-.049h.144c.484-.041.97-.008 1.444.097l.289.049.313.129c.214.077.418.177.61.299a4.308 4.308 0 0 1 1.789 1.982c.188.413.322.848.401 1.295v.736c0 .218-.08.34-.096.518-.229.765-.716 1.424-1.377 1.865s-1.453.634-2.241.547a2.68 2.68 0 0 1-1.765-1.157c-.096-.154-.16-.324-.241-.486l-.152-.526v-.259a2.19 2.19 0 0 1 0-.324c.048-.129 0-.243.088-.413a2.193 2.193 0 0 1 1.26-1.391l.457-.146c.16-.012.321-.012.481 0 .285.02.561.111.802.267a1.688 1.688 0 0 1 .811 1.251 1.705 1.705 0 0 1-.49 1.411 1.552 1.552 0 0 1-1.131.396 1.423 1.423 0 0 1-.858-.396 1.796 1.796 0 0 1-.385-.753c.013.303.108.596.273.85a1.763 1.763 0 0 0 2.407.347c.29-.191.53-.45.7-.754s.266-.645.279-.994c.014-.675-.213-1.332-.638-1.853s-1.021-.871-1.681-.987a3.29 3.29 0 0 0-.714-.065c-.233.04-.489.073-.738.129a3.665 3.665 0 0 0-2.359 2.128 4.463 4.463 0 0 0 .297 3.645c.304.551.721 1.031 1.223 1.407s1.078.64 1.689.773a5.327 5.327 0 0 0 3.851-.639 5.713 5.713 0 0 0 2.567-3.285c.093-.39.165-.784.217-1.181v-.995a7.893 7.893 0 0 0-.529-2.079 6.696 6.696 0 0 0-2.8-3.293 4.873 4.873 0 0 0-.995-.485l-.514-.218-.602-.129a8.158 8.158 0 0 0-2.038-.17h-.402l-.265.049-.53.105a3.87 3.87 0 0 0-1.043.299l-1.003.429a7.673 7.673 0 0 0-.915.591 8.417 8.417 0 0 0-1.605 1.464c-.241.275-.409.599-.626.898a4.928 4.928 0 0 0-.521.947 8.65 8.65 0 0 0-.802 4.126c.091 1.38.465 2.725 1.097 3.952s1.51 2.308 2.578 3.176c.513.391 1.048.751 1.604 1.076.559.286 1.138.53 1.733.728.611.18 1.237.307 1.869.38l.465.065h1.203a11.102 11.102 0 0 0 5.961-2.128c1.255-.911 2.315-2.069 3.114-3.404s1.323-2.819 1.539-4.364c.099-.838.099-1.686 0-2.524-.072-.574-.112-.874-.112-.874v.882c-.06.82-.197 1.633-.409 2.427a11.662 11.662 0 0 1-1.653 3.309z"/>
    </symbol>
    <symbol id="icon-stomach" viewBox="0 0 30 32">
      <path d="M28.907 31.976h-1.156c0-2.324-.116-4.382-.347-6.296-.526-4.29-1.555-6.793-2.382-8.805-.705-1.717-1.318-3.203-1.318-5.134 0-1.411.376-3.024.775-4.735.133-.567.266-1.151.393-1.746.266-1.237.567-2.873.567-4.504h1.156c0 1.74-.318 3.452-.59 4.747-.127.601-.266 1.191-.399 1.763-.382 1.642-.746 3.197-.746 4.475 0 1.706.543 3.024 1.231 4.694.856 2.076 1.919 4.66 2.463 9.106.243 1.954.358 4.064.358 6.435h-.006zM1.156 31.976H0c0-2.376.116-4.481.358-6.435.543-4.446 1.607-7.03 2.463-9.106.688-1.671 1.231-2.989 1.231-4.694 0-1.278-.364-2.827-.746-4.475-.133-.578-.272-1.162-.399-1.763-.277-1.295-.59-3.006-.59-4.747h1.156c0 1.63.301 3.266.567 4.504.127.595.26 1.174.393 1.746.399 1.711.775 3.324.775 4.735 0 1.931-.613 3.417-1.318 5.134-.827 2.012-1.856 4.515-2.382 8.805-.237 1.908-.347 3.972-.347 6.296h-.006z"/>
      <path d="M25.438 5.96c-2.133 0-4.694-.555-6.955-1.046-1.619-.353-3.151-.688-4.03-.688s-2.411.335-4.03.688c-2.26.491-4.822 1.046-6.955 1.046V4.804c2.012 0 4.509-.543 6.712-1.023 1.758-.382 3.272-.711 4.272-.711s2.521.33 4.272.711c2.203.48 4.7 1.023 6.712 1.023V5.96zM14.453 27.929c-6.631 0-13.546-1.734-13.615-1.752l.283-1.122c.069.017 6.845 1.717 13.326 1.717s13.263-1.7 13.326-1.717l.283 1.122c-.069.017-6.978 1.752-13.615 1.752h.012zM14.453 23.304a.59.59 0 0 1-.41-.168l-4.218-4.218a.576.576 0 0 1 .815-.815l2.703 2.703c.61.61 1.598.61 2.208 0l2.703-2.703a.576.576 0 0 1 .815.815l-4.218 4.218a.567.567 0 0 1-.41.168h.012z"/>
      <path d="M15.032 22.148V9.429a.578.578 0 0 0-1.156 0v12.719a.578.578 0 0 0 1.156 0z"/>
    </symbol>
    <symbol id="icon-stop" viewBox="0 0 31 32">
      <path d="m21.373 19.221 3.602 5.4-5.764-3.239-.72 2.518-2.161-2.161-3.245 3.602-.72-4.323L6.244 23.9l3.239-6.121-3.239-2.525 4.323-.363L7.685 8.05l5.4 3.602 1.084-5.043 1.441 4.68 2.525-2.161.72 2.525 5.764-4.686-3.602 8.645 3.602 1.447-3.245 2.161z"/>
      <path d="M15.61 2.239c-7.586 0-13.737 6.15-13.737 13.737s6.15 13.737 13.737 13.737 13.737-6.15 13.737-13.737S23.197 2.239 15.61 2.239zM.624 15.976C.624 7.7 7.333.991 15.609.991S30.594 7.7 30.594 15.976s-6.709 14.985-14.985 14.985S.624 24.252.624 15.976z"/>
      <path d="M25.797 26.109 4.88 6.441l.855-.91 20.917 19.668-.855.91z"/>
    </symbol>
    <symbol id="icon-timer" viewBox="0 0 29 32">
      <path d="M15.712 18.641c-.428-.243-.677-.636-.688-1.087-.006-.468.255-.908.694-1.174l.075-.046c.266-.162.538-.324.775-.555.914-.879 1.007-2 .983-2.983-.012-.353-.156-.503-.492-.503h-.017c-.607.012-1.226.006-1.822 0h-3.355c-.191 0-.486 0-.509.405-.116 1.763.457 2.931 1.805 3.683.445.249.712.671.712 1.127s-.266.885-.717 1.139c-1.307.74-1.903 1.879-1.805 3.486.017.318.162.463.463.463h5.258c.393 0 .463-.249.469-.491.069-1.596-.532-2.735-1.84-3.475l.012.012z"/>
      <path d="M16.342 17.022a1.15 1.15 0 0 0 .087-.046c.602-.341 1.082-.838 1.458-1.509.405-.723.578-1.573.538-2.596-.006-.15 0-.376.162-.538a.641.641 0 0 1 .266-.156c.289-.092.469-.324.538-.705.064-.335.075-.694.029-1.104-.075-.705-.411-1.012-1.122-1.012h-7.746c-.648 0-.983.301-1.064.942-.046.376-.04.763.012 1.145.046.301.179.526.399.665.064.04.121.069.185.092.283.098.405.289.382.59-.006.133 0 .272 0 .405v.098c.029 1.7.706 2.92 2.065 3.723.202.121.44.289.434.509 0 .22-.237.382-.434.497a4.06 4.06 0 0 0-1.29 1.162c-.561.775-.81 1.7-.769 2.827.012.254-.035.532-.422.682-.046.017-.098.046-.15.075-.22.139-.359.364-.405.665a4.94 4.94 0 0 0-.029 1c.04.746.405 1.093 1.157 1.098h7.665c.712 0 1.047-.306 1.122-1.018a4.075 4.075 0 0 0-.017-1.029c-.058-.411-.249-.676-.584-.809a.694.694 0 0 1-.231-.139c-.121-.116-.174-.277-.156-.491.012-.145 0-.283 0-.422-.069-1.63-.723-2.798-1.996-3.567-.029-.017-.058-.029-.087-.046-.168-.093-.399-.22-.388-.52.006-.283.226-.393.388-.474l.006.006zm.735 5.579h-5.258c-.301 0-.445-.145-.463-.463-.092-1.601.498-2.746 1.805-3.486.451-.254.717-.682.717-1.145 0-.457-.266-.879-.711-1.127-1.348-.752-1.921-1.919-1.805-3.683.029-.405.318-.405.509-.405h5.194c.336 0 .48.15.492.503.029.983-.069 2.104-.983 2.983-.237.225-.509.393-.775.555l-.075.046c-.445.272-.706.711-.694 1.174.006.451.255.844.688 1.087 1.307.74 1.909 1.873 1.84 3.475-.012.243-.075.491-.469.491l-.012-.006zm-6.19-11.198c-.122 0-.301-.012-.417-.127-.093-.092-.133-.225-.127-.434 0-.162.017-.347.139-.468.092-.093.226-.133.434-.133h.012c2.164.012 4.454.012 7 0 .22 0 .364.04.463.139.093.092.139.237.139.445s-.04.347-.133.439c-.122.121-.307.139-.474.133-.827-.012-1.672-.006-2.488-.006H13.462c-.833 0-1.689 0-2.54.006h-.029l-.006.006zm7.497 12.222c.093.093.133.231.139.439 0 .208-.046.353-.139.445-.122.121-.307.133-.469.133-.845-.012-1.701-.012-2.534-.006h-1.95c-.821 0-1.678 0-2.516.012h-.029c-.191 0-.324-.041-.411-.127-.121-.116-.139-.295-.139-.474 0-.202.04-.341.127-.428.116-.116.289-.133.445-.133 2.326.012 4.68.012 7 0 .156 0 .347.012.469.139h.006zM26.674 12.565c-.226-.006-.723.231-.793.335-.017.214.22.728.318.804.174.006.712-.214.81-.312 0-.202-.231-.74-.341-.827h.006zM26.79 16.606h.035c.312.046.567.058.717-.191-.046-.133-.035-.272-.029-.399.017-.254.012-.358-.214-.405a.378.378 0 0 0-.11-.017c-.266-.029-.509.046-.607.145-.017.017-.035.04-.029.064.023.11.017.231.006.353-.023.312-.012.422.231.451zM21.525 5.02c-.133.081-.526.515-.59.653.075.139.503.532.648.595.133-.075.526-.515.596-.659-.081-.133-.509-.526-.648-.596l-.006.006zM25.153 10.94c.139-.029.665-.335.764-.451-.023-.145-.33-.671-.445-.763-.145.023-.659.318-.758.439.029.133.33.665.445.769l-.006.006zM24.279 7.87c-.064-.15-.422-.607-.55-.694-.15.058-.602.428-.683.555.052.145.417.607.544.7.145-.064.596-.428.688-.561z"/>
      <path d="M19.987 27.094c-1.521.85-3.17 1.33-4.9 1.422-1.84.098-3.54-.197-5.056-.873-3.749-1.677-6.028-4.475-6.786-8.319-.943-4.822.596-8.805 4.582-11.84 1.741-1.324 3.783-2.041 6.068-2.116.116 0 .202-.012.283-.017.353-.04.515-.052.567-.017h.006c.04.052.052.208.069.538 0 .116.012.301.162.376.145.075.312-.035.37-.081.792-.538 1.62-1.093 2.459-1.659.087-.058.22-.145.22-.301s-.15-.254-.208-.295c-.683-.451-1.371-.925-2.036-1.376l-.417-.283c-.081-.052-.185-.127-.301-.127a.198.198 0 0 0-.11.029c-.15.081-.145.301-.139.382 0 .064 0 .127.006.179v.012c.006.162.012.277 0 .318v.017l-.017.006c-.064.035-.283.04-.584.04-3.465.04-6.531 1.289-9.123 3.723-2.32 2.18-3.725 4.833-4.177 7.897-.642 4.377.492 8.25 3.373 11.511 1.892 2.139 4.287 3.561 7.115 4.226 1.117.266 2.117.37 3.066.33 5.195-.173 9.163-2.503 11.807-6.932 1.064-1.781 1.672-3.798 1.805-5.99h-2.227a11.561 11.561 0 0 1-1.423 4.729c-1.07 1.925-2.568 3.44-4.46 4.492h.006z"/>
      <path d="M28.097 17.872c-.133 2.191-.74 4.209-1.805 5.989-2.644 4.429-6.618 6.758-11.807 6.932-.943.041-1.95-.069-3.066-.33-2.829-.665-5.224-2.087-7.115-4.226C1.423 22.97.289 19.097.937 14.72c.451-3.064 1.857-5.718 4.177-7.897C7.706 4.395 10.772 3.14 14.237 3.1c.301 0 .521-.006.584-.04h.012v-.023c.017-.046.012-.162 0-.318v-.012c0-.052 0-.116-.006-.179 0-.081-.006-.301.139-.382a.198.198 0 0 1 .11-.029c.11 0 .22.075.301.127l.416.283c.665.457 1.354.925 2.036 1.376.058.04.208.139.208.295s-.133.243-.22.301c-.845.561-1.672 1.122-2.459 1.659-.064.04-.226.156-.37.081s-.156-.266-.162-.376c-.017-.324-.029-.486-.069-.532h-.006c-.052-.04-.208-.029-.567.012a1.9 1.9 0 0 1-.283.017c-2.285.081-4.327.792-6.068 2.116-3.986 3.035-5.525 7.024-4.582 11.84.752 3.845 3.037 6.643 6.786 8.319 1.516.676 3.216.971 5.056.873a11.244 11.244 0 0 0 4.9-1.422c1.892-1.058 3.39-2.567 4.46-4.492a11.396 11.396 0 0 0 1.423-4.729h-.798c-.069.699-.185 1.468-.428 2.243-.793 2.515-2.291 4.504-4.449 5.914-1.857 1.214-3.963 1.781-6.265 1.682a10.254 10.254 0 0 1-5.507-1.856c-2.204-1.544-3.656-3.648-4.31-6.25-.509-2.035-.451-4.047.179-5.99.879-2.706 2.58-4.775 5.044-6.151a10.17 10.17 0 0 1 4.084-1.272c.22-.017.37.017.474.121.104.098.145.249.139.457-.017.301-.006.607 0 .902v.156c0 .046-.006.098 0 .133v.064l.058-.035.081-.058c.029-.023.064-.052.098-.075.301-.191.596-.399.891-.595l.023-.017c.104-.069.208-.145.312-.214l1.093-.734c.972-.659 1.95-1.312 2.921-1.977.052-.035.098-.069.127-.093l.041-.029-.041-.029c-.035-.029-.081-.058-.139-.098-.237-.162-.474-.318-.712-.48l-1.035-.7c-1.186-.804-2.372-1.601-3.558-2.405-.023-.012-.04-.029-.064-.046A.276.276 0 0 1 14.1.404l-.058-.046V.797c0 .283-.012.578 0 .861.023.428-.15.619-.578.648-2.297.145-4.35.763-6.097 1.844C1.947 7.503-.506 12.4.084 18.702c.278 2.966 1.469 5.648 3.54 7.967 2.921 3.267 6.566 4.92 10.841 4.92h.336c3.592-.069 6.791-1.387 9.51-3.92 1.869-1.74 3.205-3.891 3.98-6.388.37-1.208.573-2.318.619-3.405h-.816v-.006z"/>
    </symbol>
    <symbol id="icon-arrow-left" viewBox="0 0 134 32">
      <path d="M14.201 1.205.625 14.781a2.134 2.134 0 0 0 0 3.017l13.576 13.576a2.134 2.134 0 0 0 3.017-3.017l-9.935-9.935h124.983a2.133 2.133 0 0 0 0-4.266H7.283l9.935-9.935a2.134 2.134 0 0 0-3.017-3.017z"/>
    </symbol>
    <symbol id="icon-arrow-right" viewBox="0 0 19 32">
    <path d="M3.642 0.625l13.576 13.576c0.833 0.833 0.833 2.184 0 3.017l-13.576 13.576c-0.833 0.833-2.184 0.833-3.017 0s-0.833-2.184 0-3.017l10.818-10.818v-2.499l-10.818-10.818c-0.833-0.833-0.833-2.184 0-3.017s2.184-0.833 3.017 0z"></path>
    </symbol>
    <symbol id="icon-ellipse-center-mob" viewBox="0 0 30 32">
      <path stroke-width="4.923" d="M27.077 15.924c0 6.797-5.51 12.308-12.308 12.308S2.461 22.722 2.461 15.924c0-6.797 5.51-12.308 12.308-12.308s12.308 5.51 12.308 12.308z"/>
    </symbol>
    <symbol id="icon-ellipse-sides-mob" viewBox="0 0 29 32">
      <path stroke-width="3.2" d="M27.2 15.902c0 7.069-5.731 12.8-12.8 12.8s-12.8-5.731-12.8-12.8c0-7.069 5.731-12.8 12.8-12.8s12.8 5.731 12.8 12.8z"/>
    </symbol>
    <symbol id="icon-thread-desk" viewBox="0 0 318 32">
      <path d="M-57.078 17.623C-28.21.221 11.634-6.888 42.791 9.398c3.687 1.927 7.395 4.144 9.685 7.632 2.462 3.753 1.525 8.277-3.492 9.192-3.63.663-8.09-1.02-10.169-3.99-2.517-3.597.278-7.736 3.214-10.137 6.587-5.387 16.323-7.023 24.702-7.249 8.704-.231 17.415 1.134 25.784 3.366 17.339 4.625 33.403 12.941 51.099 16.458 17.78 3.535 36.179 2.734 53.662-1.844 17.077-4.471 33.217-11.799 50.486-15.643 18.728-4.17 38.327-3.941 57.443-3.623 9.657.161 19.29.871 28.546 3.699 8.589 2.625 16.6 6.636 24.739 10.301a249.452 249.452 0 0 0 25.359 9.794c7.42 2.411 15.303 5.046 23.254 4.599 3.129-.177 6.135-.926 8.801-2.541.221-.133.015-.471-.205-.338-7.647 4.63-17.77 2.148-25.777-.237a248.216 248.216 0 0 1-28.935-10.592c-8.333-3.662-16.45-7.843-25.132-10.725-9.333-3.098-19.01-4.086-28.833-4.315-19.855-.463-40.342-.695-59.787 3.694-18.631 4.204-35.97 12.418-54.591 16.66-20.064 4.57-41.061 3.714-60.7-2.255-17.761-5.397-34.501-13.859-53.165-16.205-8.623-1.085-17.591-1.02-25.981 1.384-5.803 1.662-14.642 5.293-15.337 12.075-.538 5.241 6.014 8.545 10.739 8.152 2.398-.2 4.96-1.465 5.849-3.741.978-2.497-.433-5.215-1.984-7.177-4.53-5.725-12.758-8.886-19.613-11.172C24.243 1.889 15.572.453 6.898.091-11.206-.663-29.351 3.457-45.61 11.047a125.422 125.422 0 0 0-11.677 6.24c-.222.133-.016.471.205.338z"/>
    </symbol>
    <symbol id="icon-thread-mob" viewBox="0 0 79 32">
      <path d="M-235.081 17.603c23.222-17.268 55.274-24.322 80.337-8.162 2.966 1.913 5.949 4.112 7.791 7.573 1.981 3.725 1.226 8.213-2.809 9.122-2.92.658-6.508-1.012-8.18-3.959-2.024-3.57.224-7.676 2.585-10.059 5.299-5.346 13.131-6.969 19.871-7.194 7.001-.23 14.009 1.125 20.741 3.34 13.948 4.589 26.87 12.841 41.106 16.331 14.303 3.508 29.103 2.713 43.167-1.83C-16.734 18.328-3.751 11.057 10.14 7.242c15.066-4.138 30.832-3.91 46.209-3.596 7.769.16 15.518.865 22.963 3.67 6.91 2.604 13.355 6.585 19.902 10.221a179.421 179.421 0 0 0 20.4 9.718c5.969 2.393 12.309 5.008 18.706 4.563 2.518-.175 4.936-.919 7.08-2.522.178-.132.013-.467-.165-.335-6.151 4.594-14.294 2.132-20.735-.235a177.364 177.364 0 0 1-23.276-10.51c-6.704-3.634-13.233-7.782-20.217-10.642C73.499 4.5 65.715 3.519 57.813 3.292 41.84 2.833 25.361 2.603 9.719 6.957c-14.988 4.171-28.936 12.322-43.915 16.532-16.14 4.535-33.03 3.686-48.829-2.238-14.287-5.356-27.753-13.752-42.767-16.081-6.936-1.076-14.151-1.012-20.9 1.373-4.668 1.649-11.778 5.253-12.337 11.982-.433 5.201 4.838 8.479 8.639 8.089 1.929-.199 3.99-1.453 4.705-3.712.787-2.478-.348-5.175-1.596-7.121-3.644-5.681-10.263-8.817-15.777-11.086-6.604-2.71-13.579-4.135-20.556-4.494-14.564-.749-29.16 3.34-42.239 10.872a96.286 96.286 0 0 0-9.393 6.192c-.178.132-.013.467.165.336z"/>
    </symbol>
    <symbol id="icon-play" viewBox="0 0 32 32">
      <path fill="#fcc400" d="M31.58 16.316c0 8.569-6.946 15.515-15.515 15.515S.55 24.885.55 16.316 7.496.801 16.065.801 31.58 7.747 31.58 16.316z" style="fill:var(--color1, #fcc400)"/>
      <path fill="#fff" d="M23.212 15.99a.604.604 0 0 1 0 1.046l-9.972 5.757a.604.604 0 0 1-.906-.523V10.755c0-.465.503-.755.906-.523l9.972 5.757z" style="fill:var(--color2, #fff)"/>
    </symbol> 
  </defs>
</svg>
