<svg xmlns="http://www.w3.org/2000/svg" width="40" height="41" fill="none">
  <g clip-path="url(#a)">
    <g clip-path="url(#b)">
      <path fill="#0C67BD" d="M15.344 17.103c.137-1.905-1.277-3.575-3.143-3.707-.904-.073-1.78.235-2.469.835a3.446 3.446 0 0 0-1.162 2.374c-.137 1.905 1.277 3.575 3.143 3.707.086 0 .165.007.251.007.811 0 1.593-.293 2.218-.85a3.461 3.461 0 0 0 1.162-2.373v.007ZM11.806 19c-1.155-.087-2.03-1.113-1.945-2.3.08-1.128 1.005-1.992 2.096-1.992h.15c1.156.087 2.032 1.12 1.946 2.3-.087 1.18-1.099 2.066-2.254 1.992h.007Z"/>
      <path fill="#0C67BD" d="m18.652 16.642 2.268-1.751-1.902-4.008-2.748.733a6.692 6.692 0 0 0-1.134-.784l-.359-2.88-4.349-.321-.76 2.798c-.431.161-.848.366-1.235.608L5.813 9.91l-2.447 3.685 1.995 2.066a5.582 5.582 0 0 0-.086.696 7.668 7.668 0 0 0-.014.703L2.993 18.81l1.902 4.007 2.749-.732a6.7 6.7 0 0 0 1.133.784l.36 2.879 4.348.322.76-2.798c.432-.162.84-.367 1.235-.608l2.62 1.128 2.447-3.685-1.995-2.066c.043-.227.072-.462.086-.696.014-.235.021-.469.014-.703Zm-8.36 7.875-.309-2.513-.316-.154a5.52 5.52 0 0 1-1.4-.967l-.257-.249-2.397.638-.976-2.059 1.98-1.531-.028-.366a4.973 4.973 0 0 1-.008-.865c.022-.278.065-.571.13-.857l.079-.352-1.744-1.802 1.256-1.897 2.289.981.294-.212c.46-.33.969-.579 1.521-.755l.338-.11.66-2.44 2.24.17.308 2.512.316.154c.516.25.99.579 1.399.967l.258.25 2.404-.638.976 2.058-1.98 1.532.028.366c.03.293.03.586.008.864a6.052 6.052 0 0 1-.13.857l-.079.352 1.744 1.802-1.256 1.898-2.289-.982-.294.212c-.46.33-.969.58-1.521.755l-.338.11-.66 2.44-2.24-.169h-.006ZM32.897 9.382c0-1.913-1.521-3.466-3.394-3.466-1.873 0-3.395 1.553-3.395 3.466 0 1.912 1.522 3.465 3.395 3.465s3.394-1.553 3.394-3.465Zm-1.291 0c0 1.186-.948 2.146-2.103 2.146-1.155 0-2.103-.967-2.103-2.146 0-1.18.948-2.147 2.103-2.147 1.155 0 2.103.967 2.103 2.147Z"/>
      <path fill="#0C67BD" d="M36.199 9.381c0-.234-.014-.468-.036-.703l2.139-1.912-2.182-3.86-2.691.93a6.945 6.945 0 0 0-1.184-.704L31.685.29h-4.356l-.56 2.842c-.416.19-.818.425-1.184.704l-2.691-.93-2.182 3.86 2.139 1.912a7.702 7.702 0 0 0-.036.703c0 .235.014.47.035.704l-2.138 1.912 2.182 3.86 2.69-.93c.374.271.769.513 1.185.704l.56 2.842h4.356l.56-2.842c.416-.19.818-.425 1.184-.704l2.69.93 2.183-3.86-2.139-1.912c.022-.235.036-.47.036-.704Zm-5.576 7.766h-2.24l-.487-2.483-.33-.132a5.582 5.582 0 0 1-1.464-.865l-.28-.227-2.347.813-1.12-1.985 1.866-1.67-.057-.36a5.146 5.146 0 0 1 0-1.722l.057-.358-1.866-1.67 1.12-1.986 2.347.814.28-.228a5.467 5.467 0 0 1 1.463-.864l.33-.132.489-2.483h2.239l.488 2.483.33.132a5.583 5.583 0 0 1 1.464.864l.28.228 2.346-.814 1.12 1.986-1.866 1.67.058.359a5.145 5.145 0 0 1 0 1.722l-.058.359 1.866 1.67-1.12 1.985-2.346-.813-.28.227a5.47 5.47 0 0 1-1.464.865l-.33.132-.488 2.483Z"/>
      <path fill="url(#c)" d="m31.161 21.176 2.153 3.81-2.605 2.33c.065.41.1.835.1 1.26 0 .424-.035.85-.1 1.26l2.605 2.33-2.153 3.809-3.28-1.136a7.952 7.952 0 0 1-2.13 1.26l-.683 3.466h-4.306l-.681-3.466a7.953 7.953 0 0 1-2.132-1.26l-3.28 1.136-2.152-3.81 2.605-2.33c-.065-.41-.1-.835-.1-1.26 0-.424.035-.85.1-1.26l-2.605-2.33 2.153-3.809 3.28 1.136a7.95 7.95 0 0 1 2.13-1.26l.682-3.465h4.306l.682 3.465a7.95 7.95 0 0 1 2.131 1.26l3.28-1.136Zm-4.657 7.4c0-2.022-1.608-3.663-3.589-3.663-1.98 0-3.588 1.64-3.588 3.663 0 2.022 1.608 3.663 3.588 3.663 1.981 0 3.589-1.641 3.589-3.663Z"/>
      <path fill="#0C67BD" d="M22.915 32.971c-2.375 0-4.306-1.97-4.306-4.395s1.93-4.396 4.306-4.396c2.376 0 4.306 1.97 4.306 4.396 0 2.424-1.93 4.395-4.306 4.395Zm0-7.326c-1.586 0-2.87 1.311-2.87 2.93 0 1.62 1.284 2.931 2.87 2.931s2.87-1.311 2.87-2.93c0-1.62-1.284-2.93-2.87-2.93Z"/>
      <path fill="#0C67BD" d="M25.068 40.297h-4.306a.72.72 0 0 1-.703-.586l-.61-3.084a8.787 8.787 0 0 1-1.636-.967l-2.914 1.01a.713.713 0 0 1-.854-.329l-2.153-3.81a.74.74 0 0 1 .15-.915l2.319-2.073a8.866 8.866 0 0 1-.058-.967c0-.315.022-.645.058-.967l-2.318-2.074a.74.74 0 0 1-.151-.915l2.153-3.81c.172-.3.524-.44.854-.33l2.914 1.011a8.788 8.788 0 0 1 1.636-.967l.61-3.084a.713.713 0 0 1 .703-.586h4.306a.72.72 0 0 1 .703.586l.61 3.084a8.792 8.792 0 0 1 1.637.967l2.913-1.01a.713.713 0 0 1 .854.329l2.153 3.81a.74.74 0 0 1-.15.915L31.47 27.61c.036.322.057.652.057.967 0 .315-.021.644-.057.967l2.318 2.073a.74.74 0 0 1 .15.916l-2.153 3.81a.718.718 0 0 1-.854.329l-2.913-1.011c-.51.38-1.055.703-1.637.967l-.61 3.084a.713.713 0 0 1-.703.586Zm-3.717-1.465h3.129l.567-2.88a.727.727 0 0 1 .444-.534 7.137 7.137 0 0 0 1.938-1.15.698.698 0 0 1 .682-.125l2.72.945 1.564-2.769-2.16-1.934a.75.75 0 0 1-.237-.667c.058-.38.094-.769.094-1.142 0-.374-.029-.762-.094-1.143a.743.743 0 0 1 .237-.667l2.16-1.934-1.564-2.77-2.72.946a.698.698 0 0 1-.682-.125 7.328 7.328 0 0 0-1.938-1.15.727.727 0 0 1-.444-.535l-.567-2.879h-3.13l-.566 2.88a.727.727 0 0 1-.445.534 7.137 7.137 0 0 0-1.938 1.15.698.698 0 0 1-.682.125L15 22.063l-1.564 2.769 2.16 1.934a.75.75 0 0 1 .237.667 7.75 7.75 0 0 0-.093 1.143c0 .373.028.761.093 1.142a.742.742 0 0 1-.237.667l-2.16 1.934 1.564 2.77 2.72-.946a.698.698 0 0 1 .682.125 7.328 7.328 0 0 0 1.938 1.15c.23.088.395.293.445.535l.567 2.879Z"/>
    </g>
  </g>
  <defs>
    <clipPath id="a">
      <path fill="#fff" d="M0 .297h40v40H0z"/>
    </clipPath>
    <clipPath id="b">
      <path fill="#fff" d="M3 .297h35.294v40H3z"/>
    </clipPath>
    <linearGradient id="c" x1="22.915" x2="22.915" y1="17.587" y2="39.565" gradientUnits="userSpaceOnUse">
      <stop stop-color="#21E5FE"/>
      <stop offset="1" stop-color="#23BDFE"/>
    </linearGradient>
  </defs>
</svg>
