<svg aria-hidden="true" style="position: absolute; width: 0; height: 0; overflow: hidden;" version="1.1" xmlns="http://www.w3.org/2000/svg" xmlns:xlink="http://www.w3.org/1999/xlink">
<defs>
<symbol id="icon-cart" viewBox="0 0 32 32">
<path d="M20.115 26.134c-2.232-0.004-4.465-0.004-6.697-0.020-0.283-0.002-0.354 0.091-0.285 0.357 0.411 1.57-0.008 2.943-1.082 4.054-0.596 0.617-1.373 0.97-2.274 1.086-1.322 0.17-2.414-0.247-3.302-1.178-1.182-1.241-1.376-3.237-0.966-4.14 0.159-0.35 0.62-0.936 0.545-1.283-0.070-0.325-0.45-0.568-0.697-0.835-0.86-0.934-1-2.106-1.145-3.287-0.080-0.653-1.444-16.109-1.492-16.636-0.022-0.242-0.177-0.16-0.288-0.163-0.366-0.010-0.733 0-1.099-0.006-0.754-0.013-1.271-0.485-1.324-1.159-0.078-0.973 0.447-1.473 1.191-1.53 0.944-0.071 1.9-0.063 2.846-0.010 0.743 0.041 1.212 0.584 1.256 1.424 0.071 1.336 0.215 2.665 0.326 3.996-0.012 0.073 0.011 0.107 0.087 0.082 1.433 0.004 2.868 0.012 4.301 0.013 6.786 0.001 13.572 0.006 20.358-0.009 0.604-0.001 1.092 0.088 1.433 0.664 0.266 0.45 0.214 0.912 0.088 1.351-0.7 2.438-1.183 4.934-1.844 7.384-0.297 1.102-0.538 2.226-0.799 3.343-0.135 0.578-0.564 0.866-1.044 0.983-0.353 0.086-0.732 0.169-1.119 0.136-0.443-0.037-18.517 1.165-20.064 1.128 0.237 0.62 0.266 0.885 1.581 1.368 0.474 0.173 0.931 0.183 1.405 0.183 4.501 0.001 9.004-0.013 13.505 0.011 1.112 0.006 2.205 0.181 3.086 1.013 0.761 0.718 1.242 1.558 1.326 2.648 0.11 1.417-0.306 2.589-1.34 3.535-1.356 1.24-3.434 1.392-4.911 0.243-1.305-1.017-1.795-2.364-1.654-3.997 0.019-0.225 0.117-0.443 0.178-0.664 0.011-0.073-0.012-0.107-0.088-0.082v-0.002zM26.080 18.051c1.305-0.124 1.441-2.349 1.64-3.168 0.377-1.561 0.728-3.13 1.111-4.691 0.149-0.608 0.175-0.602-0.395-0.602h-21.806c-0.15 0-0.301 0.017-0.45 0-0.224-0.024-0.27 0.072-0.278 0.291-0.013 0.361 0.079 0.706 0.106 1.059 0.090 1.162 0.186 2.324 0.296 3.484 0.141 1.496 0.226 2.999 0.398 4.494 0.026 0.228 0.079 0.289 0.289 0.281 0.46-0.019 0.923-0.082 1.376-0.089 1.601-0.024 16.266-0.922 17.712-1.060v-0.001zM10.617 27.584c-0.025-0.866-0.563-1.49-1.27-1.474-0.809 0.019-1.455 0.699-1.434 1.512 0.013 0.535 0.436 1.367 1.233 1.368 0.864-0.039 1.494-0.641 1.472-1.406zM23.902 26.211c-0.776 0.041-1.352 0.632-1.272 1.391 0.094 0.899 0.691 1.375 1.488 1.386 0.639 0.008 1.242-0.824 1.204-1.568-0.040-0.765-0.612-1.252-1.419-1.209h-0.001z"></path>
</symbol>
</defs>
</svg>
