<svg xmlns="http://www.w3.org/2000/svg" width="2145" height="145" fill="none">
  <path fill="#BABFDE" d="M2143.64 79.853C2012.83 1 1832.29-31.212 1691.11 42.583c-16.71 8.735-33.51 18.777-43.89 34.582-11.16 17.008-6.91 37.505 15.83 41.654 16.44 3.006 36.65-4.62 46.07-18.08 11.4-16.301-1.26-35.054-14.56-45.933-29.85-24.41-73.96-31.823-111.93-32.849-39.44-1.049-78.92 5.14-116.83 15.252-78.57 20.957-151.36 58.638-231.55 74.574-80.57 16.018-163.94 12.387-243.155-8.357-77.382-20.261-150.513-53.464-228.764-70.884-84.865-18.894-173.674-17.857-260.291-16.419-43.761.73-87.412 3.948-129.349 16.76-38.923 11.893-75.226 30.068-112.104 46.675-37.404 16.855-75.777 31.659-114.909 44.377-33.62 10.926-69.334 22.866-105.367 20.838-14.183-.801-27.803-4.196-39.88-11.515-1.004-.601-.073-2.134.932-1.532 34.649 20.98 80.517 9.735 116.795-1.073 44.692-13.319 88.551-29.301 131.112-47.995 37.76-16.595 74.54-35.536 113.88-48.596 42.292-14.038 86.139-18.517 130.648-19.554 89.972-2.098 182.798-3.147 270.909 16.737 84.424 19.047 162.993 56.27 247.373 75.493 90.91 20.709 186.05 16.831 275.04-10.219 80.48-24.457 156.34-62.799 240.91-73.43 39.07-4.915 79.7-4.62 117.72 6.27 26.3 7.532 66.35 23.986 69.5 54.713 2.43 23.75-27.26 38.719-48.66 36.94-10.87-.908-22.48-6.636-26.51-16.95-4.43-11.315 1.96-23.632 8.99-32.519 20.53-25.942 57.81-40.263 88.87-50.623 37.2-12.376 76.49-18.882 115.79-20.52 82.04-3.418 164.26 15.252 237.93 49.645 18.17 8.486 35.8 17.962 52.91 28.276 1 .6.07 2.133-.93 1.532Z"/>
</svg>
