<svg xmlns="http://www.w3.org/2000/svg" width="40" height="41" fill="none">
  <g clip-path="url(#a)">
    <g clip-path="url(#b)">
      <path fill="url(#c)" d="M23.1302 23.7121c-.5484-.3111-.8671-.8148-.882-1.3926-.0074-.6.3261-1.163.8894-1.5037l.0964-.0593c.3409-.2074.6893-.4148.9932-.7111 1.1711-1.1259 1.2897-2.563 1.26-3.8222-.0148-.4519-.2001-.6445-.63-.6445h-.0222c-.7783.0149-1.5713.0074-2.3348 0h-4.2988c-.2446 0-.6226 0-.6523.5186-.1482 2.2592.5855 3.7555 2.3125 4.7185.5707.3185.9117.8592.9117 1.4444 0 .5852-.341 1.1334-.9191 1.4593-1.6751.9481-2.4385 2.4074-2.3125 4.4666.0222.4075.2075.5926.5929.5926h6.7374c.504 0 .593-.3185.6004-.6296.0889-2.0444-.6819-3.5037-2.357-4.4518l.0148.0148Z"/>
      <path fill="#0C67BD" d="M23.9388 21.638c.0445-.0223.0742-.0371.1112-.0593.7708-.437 1.386-1.0741 1.8678-1.9333.5188-.926.7412-2.0149.6893-3.326-.0074-.1926 0-.4814.2075-.6889.089-.0888.2002-.1555.341-.2.3706-.1185.6003-.4148.6893-.9037.0815-.4296.0963-.8888.037-1.4148-.0963-.9037-.5262-1.2963-1.4379-1.2963h-9.9244c-.8302 0-1.26.3852-1.3638 1.2074-.0593.4815-.0519.9778.0148 1.4667.0593.3852.2298.6741.5114.8519.0816.0518.1557.0888.2372.1185.3632.1259.5188.3703.4892.7555-.0074.1704 0 .3482 0 .5186v.1259c.037 2.1778.9042 3.7407 2.646 4.7703.2594.1556.5633.3704.5559.6519 0 .2815-.3039.4889-.5559.637-.6596.3778-1.2007.8667-1.6528 1.4889-.719.9926-1.0377 2.1778-.9858 3.6222.0148.326-.0445.6815-.5411.8741-.0593.0222-.126.0593-.1927.0963-.2816.1778-.4595.4667-.5188.8519-.0667.4444-.0593.8963-.0371 1.2815.0519.9555.5189 1.4 1.4824 1.4074H26.4292c.9117 0 1.3416-.3926 1.4379-1.3037.0445-.4371.0445-.8815-.0222-1.3186-.0741-.5259-.3187-.8666-.7486-1.037-.1186-.0444-.215-.1037-.2965-.1778-.1556-.1481-.2223-.3555-.2001-.6296.0148-.1852 0-.363 0-.5407-.089-2.0889-.9265-3.5852-2.5571-4.5704-.0371-.0222-.0741-.0371-.1112-.0593-.2149-.1185-.5114-.2815-.4966-.6666.0074-.363.2891-.5037.4966-.6075l.0074.0075Zm.9413 7.1481h-6.7373c-.3855 0-.5707-.1852-.593-.5926-.1186-2.0518.6374-3.5185 2.3125-4.4667.5781-.3259.9191-.874.9191-1.4666 0-.5852-.341-1.1259-.9117-1.4445-1.7269-.9629-2.4607-2.4592-2.3125-4.7185.0371-.5185.4077-.5185.6523-.5185H24.8653c.4299 0 .6152.1926.63.6444.0371 1.2593-.0889 2.6963-1.26 3.8223-.3039.2889-.6522.5037-.9932.7111l-.0963.0592c-.5707.3482-.9043.9111-.8895 1.5037.0075.5778.3262 1.0815.8821 1.3926 1.675.9482 2.4459 2.4 2.3569 4.4519-.0148.3111-.0963.6296-.6003.6296l-.0149-.0074ZM16.9495 14.438c-.1557 0-.3855-.0149-.5337-.163-.1186-.1185-.1705-.2889-.1631-.5556 0-.2074.0223-.4444.1779-.6.1186-.1185.2891-.1703.5559-.1703h.0148c2.7721.0148 5.7072.0148 8.9684 0 .2816 0 .4669.0518.5929.1777.1186.1186.1779.3037.1779.5704s-.0519.4445-.1705.563c-.1556.1555-.3928.1778-.6077.1703-1.0599-.0148-2.1421-.0074-3.1871-.0074h-2.5275c-1.0673 0-2.1642 0-3.2538.0074h-.037l-.0074.0075Zm9.6057 15.6592c.1186.1185.1705.2963.1779.563 0 .2666-.0593.4518-.1779.5703-.1556.1556-.3928.1704-.6003.1704-1.0822-.0148-2.1791-.0148-3.2464-.0074h-2.4978c-1.0525 0-2.1495 0-3.2242.0148h-.037c-.2446 0-.4151-.0518-.5263-.1629-.1556-.1482-.1779-.3778-.1779-.6074 0-.2593.0519-.4371.1631-.5482.1482-.1481.3706-.1704.5707-.1704 2.9796.0149 5.9962.0149 8.9683 0 .2002 0 .4448.0149.6004.1778h.0074ZM37.1758 15.9269c-.2891-.0074-.9265.2963-1.0155.4296-.0222.2741.2817.9334.4077 1.0296.2223.0075.9116-.274 1.0376-.3999 0-.2593-.2964-.9482-.4373-1.0593h.0075ZM37.3245 21.1047h.0445c.4002.0592.7263.074.9191-.2445-.0593-.1703-.0445-.3481-.0371-.5111.0222-.3259.0148-.4592-.2742-.5185-.0519-.0148-.0964-.0222-.1409-.0222-.3409-.0371-.6522.0592-.7782.1852-.0222.0222-.0445.0518-.0371.0814.0297.1408.0223.2963.0074.4519-.0296.4-.0148.5407.2965.5778ZM30.5793 6.2602c-.1705.1037-.6745.6593-.7561.837.0964.1778.6449.6815.8302.763.1704-.0963.6744-.6592.7634-.8444-.1038-.1704-.6523-.6741-.8301-.763l-.0074.0074ZM35.2264 13.8454c.1779-.037.8523-.4296.9784-.5778-.0297-.1852-.4225-.8592-.5708-.9777-.1853.0296-.8449.4074-.9709.5629.037.1704.4225.8519.5707.9852l-.0074.0074ZM34.108 9.912c-.0815-.1925-.541-.7777-.7041-.8888-.1927.074-.7708.5481-.8746.7111.0667.1852.5336.7778.6967.8963.1853-.0815.7634-.5481.882-.7185Z"/>
      <path fill="url(#d)" d="M28.6083 34.5417c-1.9493 1.0889-4.0617 1.7037-6.2779 1.8222-2.3569.1259-4.536-.2519-6.4779-1.1185-4.8029-2.1482-7.7232-5.7334-8.6941-10.6593-1.2082-6.1778.7634-11.2815 5.8702-15.1704 2.2309-1.6963 4.8473-2.6148 7.775-2.711.1482 0 .2594-.0149.3632-.0223.4521-.0518.6596-.0667.7263-.0222h.0074c.0519.0667.0667.2667.089.6889 0 .1481.0148.3852.2075.4814.1853.0964.4003-.0444.4744-.1037 1.0154-.6888 2.0753-1.4 3.15-2.1259.1112-.074.2817-.1852.2817-.3852 0-.2-.1927-.3259-.2669-.3777-.8746-.5778-1.7566-1.1852-2.6089-1.763l-.5337-.363c-.1038-.0666-.2372-.163-.3854-.163-.0445 0-.0964.0075-.1408.0371-.1927.1037-.1853.3852-.1779.4889 0 .0815 0 .163.0074.2296v.0148c.0074.2075.0148.3556 0 .4075v.0222l-.0222.0074c-.0816.0444-.3632.0518-.7486.0518-4.4397.0519-8.368 1.6519-11.6885 4.7704-2.9722 2.7926-4.7733 6.1926-5.3514 10.1185-.8227 5.6074.63 10.5704 4.3211 14.7482 2.4237 2.7407 5.4922 4.5629 9.1166 5.4148 1.4305.3407 2.7127.4741 3.9283.4222 6.6558-.2222 11.7404-3.2074 15.1276-8.8815 1.3638-2.2815 2.142-4.8666 2.3125-7.674h-2.8536c-.163 2.1259-.7782 4.1629-1.8233 6.0592-1.3712 2.4667-3.2909 4.4074-5.7145 5.7556h.0074Z"/>
      <path fill="#0C67BD" d="M38.9992 22.7269c-.1705 2.8074-.9487 5.3926-2.3125 7.6741-3.3872 5.674-8.4791 8.6592-15.1276 8.8814-1.2081.0519-2.4978-.0888-3.9283-.4222-3.6244-.8518-6.6929-2.6741-9.1165-5.4148-3.6912-4.1852-5.1439-9.1481-4.3137-14.7555.578-3.926 2.3792-7.326 5.3513-10.1186 3.3205-3.111 7.2488-4.7185 11.6885-4.7703.3854 0 .6671-.0074.7486-.0519h.0148v-.0296c.0223-.0593.0149-.2074 0-.4074v-.0148c0-.0667 0-.1482-.0074-.2297 0-.1037-.0074-.3852.1779-.4889.0445-.0296.0964-.037.1408-.037.1409 0 .2817.0963.3854.163l.5337.363c.8524.5851 1.7344 1.1851 2.609 1.7629.0741.0519.2668.1778.2668.3778s-.1705.311-.2817.3852c-1.0821.7185-2.142 1.437-3.15 2.1259-.0815.0518-.2891.2-.4743.1037-.1853-.0963-.2002-.3407-.2076-.4815-.0222-.4148-.037-.6222-.0889-.6815h-.0074c-.0667-.0518-.2669-.037-.7264.0148-.1038.0149-.2149.0223-.3632.0223-2.9277.1037-5.544 1.0148-7.775 2.711-5.1068 3.889-7.0783 9.0001-5.8702 15.1704.9635 4.926 3.8912 8.5112 8.6941 10.6593 1.9419.8667 4.121 1.2444 6.478 1.1185 2.2087-.1185 4.3211-.7333 6.2778-1.8222 2.4237-1.3556 4.3434-3.2889 5.7145-5.7556 1.0525-1.8963 1.6677-3.9333 1.8234-6.0592h-1.0229c-.0889.8963-.2372 1.8815-.5485 2.8741-1.0154 3.2222-2.935 5.7703-5.6997 7.5777-2.3792 1.5556-5.0771 2.2815-8.027 2.1556-2.5793-.1111-4.9511-.9111-7.0561-2.3778-2.8239-1.9778-4.6843-4.6741-5.5218-8.0074-.6523-2.6074-.5782-5.1852.2297-7.6741 1.1266-3.4666 3.3057-6.1185 6.4632-7.8815 1.6454-.9185 3.402-1.4666 5.2328-1.6296.2816-.0222.4743.0222.6077.1556.1334.1259.1853.3185.1779.5852-.0222.3852-.0074.7777 0 1.1555v.2c0 .0593-.0074.126 0 .1704v.0815l.0741-.0445a3.3171 3.3171 0 0 1 .1038-.074c.0371-.0297.0815-.0667.126-.0963.3854-.2445.7634-.5112 1.1414-.763l.0297-.0222c.1334-.089.2668-.1852.4002-.2741l1.4008-.9407c1.2452-.8445 2.4978-1.6815 3.743-2.5334a2.4642 2.4642 0 0 0 .1631-.1185l.0519-.037-.0519-.037c-.0445-.0371-.1038-.0741-.1779-.126-.3039-.2074-.6078-.4074-.9116-.6148l-1.3268-.8963C24.2348 2.4973 22.7154 1.475 21.1959.4454c-.0296-.0148-.0518-.037-.0815-.0592a.2839.2839 0 0 1-.0445-.037l-.0741-.0593v.5629c0 .363-.0148.7408 0 1.1037.0297.5482-.1927.7926-.7412.8297-2.9425.1851-5.5737.9777-7.8121 2.363C5.4976 9.4453 2.355 15.7194 3.111 23.7935c.3558 3.8 1.8826 7.237 4.536 10.2074 3.7431 4.1851 8.4125 6.3037 13.8899 6.3037h.4299c4.6027-.0889 8.7015-1.7778 12.1851-5.0223 2.394-2.2296 4.1061-4.9851 5.0993-8.1851.4744-1.5482.7338-2.9704.7931-4.363h-1.0451v-.0074Z"/>
    </g>
  </g>
  <defs>
    <linearGradient id="c" x1="21.5145" x2="21.5145" y1="15.5269" y2="28.838" gradientUnits="userSpaceOnUse">
      <stop stop-color="#12E4FD"/>
      <stop offset="1" stop-color="#24BEFD"/>
    </linearGradient>
    <linearGradient id="d" x1="21.4855" x2="21.4855" y1="2.4898" y2="39.3343" gradientUnits="userSpaceOnUse">
      <stop stop-color="#12E4FD"/>
      <stop offset="1" stop-color="#24BEFD"/>
    </linearGradient>
    <clipPath id="a">
      <path fill="#fff" d="M0 .2972h40v40H0z"/>
    </clipPath>
    <clipPath id="b">
      <path fill="#fff" d="M3 .2972h37.037v40H3z"/>
    </clipPath>
  </defs>
</svg>
