<svg xmlns="http://www.w3.org/2000/svg" width="71" height="79" fill="none">
  <g clip-path="url(#a)">
    <g clip-path="url(#b)">
      <path fill="url(#c)" d="M27.4765 42.9923c-2.7447-2.3524-4.8689-5.752-5.5776-9.4283-1.864-.9438-3.0828-3.0526-3.0828-5.4318 0-2.5487 1.395-4.7772 3.4781-5.5951 4.3794-2.6602 7.3802-7.0346 8.0316-11.7146a.899.899 0 0 1 .043-.1777c.0102-.0268.0246-.0516.0369-.0784a.6232.6232 0 0 1 .0409-.0847c.0185-.0331.043-.062.0656-.0909.0143-.0186.0246-.0372.0409-.0537a.8604.8604 0 0 1 .1352-.1239c.0041-.0021.0082-.0042.0103-.0062a.9057.9057 0 0 1 .1434-.0868c.0225-.0103.045-.0165.0676-.0247.0327-.0124.0655-.0269.1024-.0372.0286-.0083.0573-.0104.088-.0145.0308-.0041.0594-.0124.0902-.0124a.7931.7931 0 0 1 .1393.0062h.0409a.8792.8792 0 0 1 .1762.0434c.0246.0083.0471.0227.0717.033.0307.0145.0614.0248.0901.0434.0307.0186.0553.0393.084.0599.0205.0165.043.0289.0614.0454.0451.0414.0861.0868.1229.1343C36.1 15.9528 41.6715 20.1 48.1279 22.4421c.1065 0 .2151.0145.3216.0516 2.1487.7807 3.5907 3.0485 3.5907 5.6426 0 2.3772-1.2208 4.488-3.0827 5.4319-.6964 3.6123-2.7612 6.9581-5.4363 9.3044v2.1025c3.982 4.6635 11.7144 3.3582 14.6579 2.6436-1.5608-2.4784-2.3003-4.1431-2.3003-6.5967 0-4.3517.3544-6.3241.6965-8.2304.3564-1.9807.723-4.0295.723-8.9512 0-5.8884-2.4518-11.6114-6.9049-16.114-3.8099-3.8518-8.1278-5.8655-10.4261-5.8655-4.748 0-6.5752 1.2454-6.5936 1.2578h-.002c-.0082.0062-.0185.0103-.0267.0165-.2683.1838-.596.2045-.8746.0847-2.2184-.8179-5.6329.097-8.9328 2.3979-4.6702 3.257-9.66 9.7546-9.66 18.2226 0 4.9237.3687 6.9705.7231 8.9512.342 1.9063.6964 3.8787.6964 8.2304 0 2.4371-.7313 4.0977-2.2737 6.5534 2.9845.603 10.6207 1.582 14.4531-3.1125v-1.4706Z"/>
      <path fill="#0C67BD" d="M36.8624 35.3877c-1.5465 1.0802-1.6633 1.0822-3.1033.031-.2601-.188-.4998-.283-.7251-.283-.254 0-.4875.1198-.7046.3615-.4056.4502-.383.9665.0656 1.454.7455.8116 1.7144 1.2412 2.8758 1.2743 1.2003-.0227 2.1958-.4647 2.9476-1.3156.4383-.4957.4342-.9976-.0103-1.4541-.4014-.4089-.8295-.4316-1.3478-.0681h.0021ZM28.0874 25.5153h-.0328c-.6083 0-.9565.3139-1.1307 1.0141-.0696.2829-.0634.5948-.0594.822 0 .0888.0021.1611 0 .2169v.442a12.999 12.999 0 0 1 0 .5679c-.0184.5205.1025.9315.3503 1.1897.2069.2148.4978.3325.8808.3242.8992 0 1.1225-.8117 1.1512-1.4912.0307-.6898.0594-1.3961-.039-2.057-.1024-.6816-.469-1.0203-1.1183-1.0307l-.0021.0021ZM43.7198 28.2292l-.0164-.3057c0-.1135.002-.2251.0061-.3387.0062-.2396.0123-.4667-.0102-.6898-.0922-.9707-.4363-1.3735-1.1819-1.3735h-.0533c-.4875.0124-1.0569.1735-1.1224 1.3198-.0451.7766-.0574 1.423.0286 2.053.0492.3676.2622 1.2206 1.1389 1.1979.9648-.0248 1.1737-.8179 1.2106-1.2867.0143-.1859.0102-.3759.0061-.5763h-.0061Z"/>
      <path fill="#0C67BD" d="M58.6544 55.9462c-1.7369-1.1401-8.4514-4.0853-12.3433-5.7582-1.0712-.4606-1.9008-1.295-2.3678-2.3173 2.5133 1.8154 5.6104 2.3565 8.4084 2.3565 3.9533 0 7.3105-1.0801 7.5727-1.1669a.929.929 0 0 0 .5838-.5762.9395.9395 0 0 0-.1004-.8179c-2.0176-3.0836-2.6874-4.4756-2.6874-6.6463 0-4.1844.3236-5.9895.6678-7.8979.3707-2.0612.7538-4.1926.7538-9.2837 0-6.384-2.6424-12.5718-7.4437-17.4254C47.9642 2.6375 43.1403 0 39.9674 0c-4.1745 0-6.3703.8798-7.2429 1.3466-2.7837-.822-6.5649.1797-10.2356 2.7407-5.0553 3.5256-10.4547 10.5643-10.4547 19.753 0 5.0911.383 7.2226.7538 9.2838.3421 1.9104.6678 3.7135.6678 7.8979 0 2.1707-.6719 3.5627-2.6875 6.6463a.9334.9334 0 0 0-.0942.8344.9303.9303 0 0 0 .6104.5721c.2458.0702 3.1913.9025 6.78.9025 3.0316 0 6.5199-.5948 9.2298-2.7386-.3789 1.3053-1.3191 2.3999-2.6054 2.9514-2.6567 1.1421-6.6285 2.877-9.4347 4.2257-.002 0-.0041.002-.0061.002-1.3007.6258-2.3515 1.167-2.9005 1.5284-.5571.2396-3.2487 1.4994-5.936 4.5686C3.7363 63.5653.5573 69.0694.5 78h1.8456c.045-6.574 1.9008-12.1649 5.3769-16.1779 2.6607-3.0732 5.3666-4.1761 5.3912-4.1864a.7964.7964 0 0 0 .1843-.0992c.338-.2334 1.0365-.6093 2.0443-1.1049 4.7337 6.1877 12.1999 9.8579 20.1352 9.8579H35.5a25.4466 25.4466 0 0 0 8.9553-1.6337.9333.9333 0 0 0 .3667-.1425c4.2298-1.6668 7.9742-4.4509 10.7681-8.1148 1.0426.5122 1.7657.9005 2.1098 1.138a.857.857 0 0 0 .1823.0971c.0267.0103 2.7325 1.1153 5.3933 4.1865 3.4781 4.015 5.3318 9.6059 5.3769 16.1778h1.8456c-.0574-8.9305-3.2364-14.4347-5.9075-17.4852-2.6874-3.0691-5.3789-4.329-5.9361-4.5686v.0021Zm-45.6308-8.3729c1.5424-2.4557 2.2736-4.1142 2.2736-6.5534 0-4.3517-.3543-6.3241-.6964-8.2304-.3564-1.9807-.7231-4.0295-.7231-8.9512 0-8.468 4.9898-14.9656 9.66-18.2226 3.2978-2.3008 6.7145-3.2137 8.9328-2.3979.2786.1198.6063.0991.8746-.0847.0082-.0062.0185-.0103.0267-.0165h.002c.0185-.0124 1.8456-1.2578 6.5936-1.2578 2.2983 0 6.6162 2.0158 10.4261 5.8656 4.4531 4.5025 6.9049 10.2235 6.9049 16.1139 0 4.9238-.3687 6.9705-.723 8.9512-.3421 1.9063-.6965 3.8787-.6965 8.2304 0 2.4516.7415 4.1163 2.3003 6.5967-2.9434.7147-10.6759 2.022-14.6579-2.6436v-2.1025c2.6751-2.3463 4.7399-5.6921 5.4363-9.3044 1.864-.9439 3.0828-3.0526 3.0828-5.4319 0-2.5941-1.4421-4.8618-3.5908-5.6425-.1065-.0393-.2151-.0537-.3216-.0517-6.4563-2.3421-12.0278-6.4893-16.1511-12.0451a.8516.8516 0 0 0-.1229-.1342c-.0205-.0186-.041-.031-.0615-.0455-.0266-.0206-.0533-.0434-.084-.0599-.0287-.0165-.0594-.0289-.0901-.0433-.0246-.0104-.0471-.0248-.0717-.0331a.8843.8843 0 0 0-.1762-.0434h-.0409c-.0471-.0041-.0922-.0082-.1393-.0062-.0307 0-.0594.0083-.0901.0124-.0287.0042-.0574.0062-.0881.0145-.0348.0082-.0676.0227-.1024.0372-.0226.0082-.0451.0144-.0676.0247a.9148.9148 0 0 0-.1434.0868c-.0041.0021-.0082.0041-.0103.0062a.969.969 0 0 0-.1351.1239c-.0144.0165-.0267.0372-.041.0537-.0225.0289-.0471.0599-.0656.0909-.0163.0268-.0266.0578-.0409.0847-.0123.0268-.0266.0516-.0369.0784a.899.899 0 0 0-.043.1777c-.6514 4.6801-3.6522 9.0565-8.0316 11.7146-2.0852.8179-3.478 3.0485-3.478 5.5951 0 2.3772 1.2208 4.488 3.0827 5.4318.7087 3.6764 2.8329 7.0759 5.5776 9.4284v1.4684c-3.8324 4.6946-11.4686 3.7156-14.453 3.1125v.0021Zm29.9467-6.7042c-.2868.2871-.5838.5556-.8849.8097a.1413.1413 0 0 0-.0266.0227c-2.0504 1.7163-4.3876 2.6829-6.5588 2.6829h-.1413c-2.5011 0-5.2254-1.2826-7.4724-3.5153-2.2491-2.2367-3.8017-5.1881-4.2564-8.0982 0-.0124-.0062-.0227-.0082-.0351a.8632.8632 0 0 0-.0246-.0971c-.0082-.0268-.0164-.0557-.0287-.0805a1.4825 1.4825 0 0 0-.0389-.0806.9703.9703 0 0 0-.0451-.0785.9235.9235 0 0 0-.0532-.0702c-.0185-.0227-.0369-.0454-.0574-.0661a.6456.6456 0 0 0-.0676-.0599c-.0225-.0186-.0471-.0371-.0717-.0557-.0225-.0166-.0471-.0289-.0737-.0434a.7317.7317 0 0 0-.0901-.0434c-.0103-.0041-.0205-.0124-.0328-.0165-1.4011-.5205-2.3781-2.1273-2.3781-3.9097s.975-3.3872 2.3719-3.8932c.0062 0 .0103-.0041.0144-.0062a.8583.8583 0 0 0 .1454-.0702s.0041-.0021.0062-.0041c0 0 .002 0 .0041-.0021 4.2462-2.5631 7.331-6.6029 8.5395-11.0703 4.3773 5.2853 10.0758 9.2053 16.5936 11.3946 1.1184.6712 1.864 2.0901 1.864 3.6494 0 1.7824-.9771 3.3893-2.3781 3.9097-.0123.0042-.0226.0124-.0349.0166a1.0538 1.0538 0 0 0-.0839.0413.5939.5939 0 0 0-.0779.0475.8032.8032 0 0 0-.0655.0516c-.0246.0207-.0492.0413-.0717.064-.0205.0207-.0369.0413-.0553.0641a.6303.6303 0 0 0-.0553.0743.9584.9584 0 0 0-.0451.0764c-.0143.0269-.0287.0537-.041.0826-.0102.0269-.0204.0537-.0286.0806a.73.73 0 0 0-.0246.0971c-.0021.0124-.0082.0227-.0082.0351-.4547 2.91-2.0074 5.8614-4.2564 8.0982l-.0021-.0021ZM17.0506 55.6137c1.3048-.6114 2.8963-1.3301 4.7255-2.1377.2745 2.9287 1.0467 5.6694 2.247 8.0177-2.6751-1.4705-5.0532-3.4594-6.9725-5.88Zm26.7186 7.3175a23.6342 23.6342 0 0 1-8.2712 1.4994h-.0205c-2.9148 0-5.76-.5349-8.4085-1.5345-2.0053-2.654-3.2384-6.2477-3.5067-10.2008.596-.2581 1.2105-.5246 1.8455-.7972 2.3761-1.0203 3.9124-3.3624 3.9124-5.9668v-1.5759c1.8988 1.1918 3.9799 1.8898 6.0364 1.8898h.1414c2.1077 0 4.2421-.7311 6.1778-1.9786v1.6647c0 2.6044 1.5362 4.9465 3.9123 5.9668.5858.252 1.1552.4978 1.7062.7373-.256 3.982-1.4952 7.6067-3.5251 10.2958Zm3.0397-1.39c1.2249-2.3813 2.0053-5.1592 2.2736-8.1251 1.8579.8179 3.472 1.547 4.7952 2.1666-1.9439 2.4598-4.3568 4.4756-7.0688 5.9585Z"/>
      <path fill="url(#d)" d="M57.8824 57.6357a.8616.8616 0 0 1-.1823-.0971c-.3462-.2375-1.0672-.6258-2.1098-1.138-2.794 3.666-6.5383 6.448-10.7681 8.1147a.9188.9188 0 0 1-.3667.1425 25.49 25.49 0 0 1-8.9554 1.6337h-.0225c-7.9353 0-15.4015-3.6701-20.1352-9.8579-1.0078.4957-1.7062.8716-2.0442 1.105a.9895.9895 0 0 1-.1844.0991c-.0245.0103-2.7304 1.1132-5.3912 4.1865-3.478 4.015-5.3318 9.6059-5.3769 16.1779h66.3089c-.0451-6.574-1.9009-12.1649-5.3769-16.1779-2.6608-3.0733-5.3667-4.1762-5.3933-4.1865l-.002-.002Z"/>
    </g>
  </g>
  <defs>
    <linearGradient id="c" x1="35.6013" x2="35.6013" y1="1.8609" y2="48.3467" gradientUnits="userSpaceOnUse">
      <stop stop-color="#0EB7E6"/>
      <stop offset="1" stop-color="#0EDBF9"/>
    </linearGradient>
    <linearGradient id="d" x1="35.5001" x2="35.5001" y1="56.4006" y2="78.0021" gradientUnits="userSpaceOnUse">
      <stop stop-color="#0EB7E6"/>
      <stop offset="1" stop-color="#0EDBF9"/>
    </linearGradient>
    <clipPath id="a">
      <path fill="#fff" d="M.5 0h70v79H.5z"/>
    </clipPath>
    <clipPath id="b">
      <path fill="#fff" d="M.5 0h70v78H.5z"/>
    </clipPath>
  </defs>
</svg>
