<svg xmlns="http://www.w3.org/2000/svg" width="40" height="41" fill="none">
  <g clip-path="url(#a)">
    <g clip-path="url(#b)">
      <path fill="url(#c)" d="m2.022 10.221 3.255 26.346h14.42V22.138l4.136-4.34 1.99.025.824-8.189s-4.502 3.385-8.197 1.974c-6.5-2.48-5.555-4.11-10.392-4.47-3.49-.26-6.027 3.092-6.027 3.092l-.009-.009Z"/>
      <path fill="#0C67BD" d="m27.683 7.986.09-.71c.294-2.405.587-4.803.898-7.21.016-.155.016-.228.008-.252a1.008 1.008 0 0 0-.245-.017c-3.638.017-7.325.017-10.897.017H10.946c-3.523 0-7.17 0-10.75-.017A.838.838 0 0 0 0-.186c0 .032 0 .09.016.195.44 3.328.89 6.868 1.379 10.824.228 1.827.448 3.662.669 5.49l.09.726c.236 1.933.464 3.858.7 5.79l.784 6.314.13 1.028c.294 2.324.58 4.64.865 6.965.022.158.095.237.22.237 4.51-.008 9.34-.016 14.755-.008v-1.632c-4.55 0-8.662-.008-12.805 0-.628 0-.759-.375-.8-.75-.465-3.883-.995-8.149-1.647-13.418l-.057-.473c-.425-3.41-.865-6.9-1.322-10.334-.09-.677.114-1.06.734-1.362 1.632-.8 3.826-1.632 6.314-.922 1.337.383 2.634.987 3.947 1.868 1.436.954 2.945 1.64 4.495 2.047 1.9.498 3.817.335 5.872-.49.155-.065.31-.122.498-.187l.791-.293-.807 6.566h1.623l.611-4.797c.22-1.737.433-3.474.645-5.212h-.017Zm-.938-5.57c-.269 1.835-.473 3.703-.677 5.505l-.081.694c-.065.554-.318.921-.808 1.158-1.41.677-2.862 1.28-5.048 1.28h-.115c-1.427-.049-3.213-.766-5.31-2.137-1.753-1.142-3.442-1.86-5.18-2.177-1.859-.351-3.751-.041-5.945.97-.278.123-.514.237-.743.098-.22-.122-.277-.391-.301-.653-.163-1.63-.384-3.238-.628-5.016-.025-.171-.033-.383.122-.538.147-.155.35-.163.506-.155h4.429c6.297 0 12.593 0 18.89-.008h.033c.27 0 .547 0 .734.22.18.204.163.506.122.767v-.008Z"/>
      <path fill="#0C67BD" d="M20.22 23.435c.05.033.09.065.139.098-.057.033-.114.065-.163.098-.074-.082-.082-.147.024-.196Z"/>
      <path fill="#0C67BD" d="M36.958 39.03V17.8a.756.756 0 0 0-.743-.767h-12.39a.717.717 0 0 0-.521.229L19.168 21.6a.772.772 0 0 0-.212.538v16.893c0 .424.335.766.742.766h16.526a.756.756 0 0 0 .742-.766h-.008ZM20.432 22.457l3.704-3.89H35.48v19.698H20.432V22.456Z"/>
      <path fill="url(#d)" d="M33.206 27.554v-2.039H23.1v2.04h10.106Z"/>
      <path fill="#0C67BD" d="M22.594 27.554v-2.039c0-.285.228-.522.505-.522h10.107c.277 0 .505.237.505.522v2.04a.517.517 0 0 1-.505.521H23.099a.517.517 0 0 1-.505-.522Zm1.003-1.517v.995H32.7v-.995h-9.103Z"/>
      <path fill="url(#e)" d="M33.206 32.326v-2.04H23.1v2.04h10.106Z"/>
      <path fill="#0C67BD" d="M22.594 32.326v-2.04c0-.285.228-.521.505-.521h10.107c.277 0 .505.236.505.522v2.039a.517.517 0 0 1-.505.522H23.099a.517.517 0 0 1-.505-.522Zm1.003-1.517v.995H32.7v-.995h-9.103ZM9.103 14.691c-.033-.701.008-1.362 1.003-1.354.946 0 1.101.588 1.06 1.33-.04.726.033 1.541-1.084 1.517-1.069-.016-.987-.791-.98-1.485v-.008ZM13.932 18.533c-.033-.702.008-1.362 1.003-1.354.946 0 1.101.587 1.06 1.33-.04.725.033 1.541-1.084 1.517-1.069-.017-.987-.792-.98-1.485v-.008ZM10.139 24.03c-.033-.7.008-1.362 1.003-1.354.946 0 1.101.588 1.06 1.33-.04.726.033 1.542-1.084 1.517-1.069-.016-.987-.791-.98-1.484v-.009Z"/>
    </g>
  </g>
  <defs>
    <linearGradient id="c" x1="14.335" x2="14.335" y1="7.124" y2="36.567" gradientUnits="userSpaceOnUse">
      <stop stop-color="#12E3FD"/>
      <stop offset="1" stop-color="#23BFFD"/>
    </linearGradient>
    <linearGradient id="d" x1="28.153" x2="28.153" y1="25.515" y2="27.554" gradientUnits="userSpaceOnUse">
      <stop stop-color="#12E2FD"/>
      <stop offset="1" stop-color="#23BEFD"/>
    </linearGradient>
    <linearGradient id="e" x1="28.153" x2="28.153" y1="30.287" y2="32.326" gradientUnits="userSpaceOnUse">
      <stop stop-color="#12E2FD"/>
      <stop offset="1" stop-color="#23BEFD"/>
    </linearGradient>
    <clipPath id="a">
      <path fill="#fff" d="M0 .297h40v40H0z"/>
    </clipPath>
    <clipPath id="b">
      <path fill="#fff" d="M0-.203h36.958v40H0z"/>
    </clipPath>
  </defs>
</svg>
