<svg xmlns="http://www.w3.org/2000/svg" width="22" height="32" fill="none">
  <g clip-path="url(#a)">
    <path fill="url(#b)" d="M7.15 26.24s-.468 3.933-2.106 5.1h6.323l-4.218-5.1Z"/>
    <path fill="url(#c)" d="M9.458 15.067v8.55l5.651 7.657 3.851-.177s2.409-2.794 1.606-5.567c-.803-2.773-3.112-3.135-3.112-3.135l-1.205.715-.444.671-1.396-.67.19-1.673 1.483-1.42s-.343-3.32-2.442-4.096c-2.1-.776-2.706-.327-2.706-.327l-1.476-.529v.001Z"/>
    <path fill="#0C67BD" d="M9.875 15.787c0 2.188.034 4.332-.012 6.474-.032 1.413.579 2.506 1.458 3.544 1.101 1.298 2.147 2.642 3.218 3.966.22.272.434.547.668.807.25.28.114.555-.097.697-.178.12-.453.16-.674-.119-.808-1.014-1.689-1.973-2.466-3.009-.845-1.125-1.942-2.076-2.539-3.373-.364-.792-.567-1.616-.536-2.533.069-2.046.018-4.098-.013-6.147-.01-.644-.525-1.247-1.032-1.329-1-.163-1.494.058-1.837.808-.102.223-.06.453-.062.677-.007 1.615.007 3.23.001 4.845-.007 2.108.78 3.916 2.095 5.542.439.544.96 1.003 1.44 1.504.716.746 1.437 1.487 2.158 2.23.202.208.327.453.211.732-.079.19-.267.249-.49.237-.181-.009-.252-.137-.348-.234a767.552 767.552 0 0 1-3.304-3.36c-.214-.218-.26-.303-.37.108-.322 1.203-.852 2.32-1.739 3.242-.22.23-.476.39-.747.124-.255-.251-.193-.525.044-.796a6.876 6.876 0 0 0 1.603-3.241c.138-.687-.085-1.199-.406-1.75-.548-.94-.865-1.948-1.006-3.038-.286-2.216-.042-4.432-.127-6.646a.632.632 0 0 1 .058-.303c.337-.588.245-1.228.292-1.857.073-.962.04-1.936.278-2.884.022-.085.012-.212-.039-.273-.062-.073-.17-.018-.264.02-2.079.835-4.033-.4-4.387-2.367-.209-1.165.372-2.88 1.98-3.312.03-.007.054-.05.081-.051.93-.033.946-.8 1.154-1.403C4.588 1.959 5.47 1.072 6.92.7 8.437.31 9.975.418 11.47.565c2.048.2 3.507 1.84 3.567 3.93a5.25 5.25 0 0 1-.173 1.538c-.145.544.022 1.093.332 1.577.135.213.31.404.422.627.138.273.297.665-.122.841-.251.107-.335.206-.7.383-.097.048-.05.192-.06.297-.111 1.29-.658 2.336-1.742 3.096-.427.3-.9.315-1.37.222-.16-.032-.312-.03-.524-.058.3.535.76.877 1.138 1.29.72.782 1.76 1.14 2.492 1.927.923.993 1.473 2.137 1.762 3.424.053.234.152.346.35.454.668.364 1.025.927 1.035 1.69.002.174-.006.316.201.433 1.606.898 2.612 2.193 2.861 4.056.249 1.857-.21 3.457-1.51 4.817-.215.227-.45.475-.795.15-.344-.324-.132-.587.103-.81a4.204 4.204 0 0 0 1.275-2.527c.251-1.96-.366-3.683-2.34-4.828-.222-.13-.325-.037-.434.105-.952 1.239-2.04 1.036-2.943.256-.651-.562-.805-1.546-.141-2.441.31-.419.61-.864 1.182-.98.231-.046.208-.217.168-.37-.324-1.285-.936-2.392-2.037-3.197-.105-.077-.187-.158-.336-.155-1.109.03-2.194-.104-3.26-.524l.004-.001Zm-3.606-1.871c.9-.288 1.752-.316 2.485.19.774.533 1.614.845 2.506 1.08.128.035.214.073.28-.04.07-.12-.068-.159-.126-.213a7.835 7.835 0 0 1-1.389-1.756c-.196-.336-.383-.613-.829-.653-.32-.029-.394-.33-.34-.58a.46.46 0 0 1 .576-.366c.755.162 1.508.333 2.255.527.287.075.555.07.778-.098.742-.56 1.238-1.282 1.279-2.226.024-.53.255-.905.675-1.191.019-.013.123.016.158-.034.07-.097-.044-.13-.086-.184-.684-.88-.642-1.915-.513-2.911a6.459 6.459 0 0 0-.052-1.885c-.032-.198-.157-.359-.376-.1-.63.75-1.47 1.074-2.435 1.105-.177.006-.233.096-.264.214-.173.667-.57 1.206-.975 1.75-.56.754-1 .821-1.653.46-.325-.18-.517-.03-.66.225-.188.336-.152.672.088.973.257.32.56.553 1.01.562.326.007.567.222.561.53-.007.344-.298.427-.62.436-.35.01-.647-.12-.953-.25-.116-.05-.219-.219-.382-.096-.367.276-.834.479-.696 1.09.044.19.01.405-.036.616-.197.918-.175 1.856-.267 2.826v-.001Zm.219-6.282c-.102-1.082 1.046-2.145 2.227-1.465.182.105.24.016.312-.079.412-.54.79-1.112.976-1.758.159-.55.465-.731 1.007-.72.699.016 1.309-.216 1.789-.744.373-.411.357-.624-.127-.89-.575-.315-1.178-.533-1.858-.517-.98.023-1.968.07-2.941-.017-.478-.044-.824.171-1.19.312-.664.256-1.142.772-1.48 1.403-.407.761-.485 1.621-.446 2.422.057 1.156.744 2.128 1.388 3.076.07.105.168.244.345.102.11-.088.211-.111.136-.322-.091-.258-.2-.539-.138-.803ZM3.982 9.722c.4.035.797-.026 1.165-.27.212-.141.23-.238.08-.44-.687-.931-1.219-1.95-1.37-3.097-.067-.503-.344-.408-.58-.324-1.123.393-1.542 1.437-1.393 2.366.15.928 1.06 1.904 2.099 1.765h-.001ZM14.729 22.05c-.074.415.126.716.432.911.346.22.74.199 1.072-.064.28-.221.404-.556.567-.861.175-.329.1-.606-.139-.864-.264-.284-.596-.423-.95-.241-.467.24-.958.498-.983 1.119Z"/>
    <path fill="url(#d)" d="M6.488 7.635c-.062.264.047.545.138.803.075.21-.026.234-.136.322-.177.142-.273.003-.345-.102-.645-.947-1.332-1.92-1.388-3.076-.04-.8.04-1.66.446-2.422.337-.631.815-1.147 1.48-1.403.366-.142.712-.356 1.19-.312.973.088 1.96.04 2.941.017.681-.015 1.283.203 1.858.517.484.266.5.479.127.89-.48.528-1.09.76-1.79.745-.54-.013-.847.168-1.006.719-.185.647-.565 1.219-.976 1.758-.071.094-.13.184-.312.08-1.18-.681-2.33.382-2.227 1.464Z"/>
    <path fill="url(#e)" d="M3.982 9.722c-1.039.139-1.949-.837-2.098-1.765-.15-.93.269-1.973 1.392-2.366.237-.084.514-.179.58.324.152 1.147.683 2.166 1.371 3.097.15.202.13.299-.08.44-.369.245-.764.305-1.166.27h.001Z"/>
  </g>
  <defs>
    <linearGradient id="b" x1="8.205" x2="8.205" y1="26.24" y2="31.34" gradientUnits="userSpaceOnUse">
      <stop stop-color="#0EB4E5"/>
      <stop offset="1" stop-color="#10E3FD"/>
    </linearGradient>
    <linearGradient id="c" x1="15.094" x2="15.094" y1="15.066" y2="31.274" gradientUnits="userSpaceOnUse">
      <stop stop-color="#0EB4E5"/>
      <stop offset="1" stop-color="#10E3FD"/>
    </linearGradient>
    <linearGradient id="d" x1="8.904" x2="8.904" y1="1.439" y2="8.82" gradientUnits="userSpaceOnUse">
      <stop stop-color="#0EB4E5"/>
      <stop offset="1" stop-color="#10E3FD"/>
    </linearGradient>
    <linearGradient id="e" x1="3.59" x2="3.59" y1="5.524" y2="9.735" gradientUnits="userSpaceOnUse">
      <stop stop-color="#0EB4E5"/>
      <stop offset="1" stop-color="#10E3FD"/>
    </linearGradient>
    <clipPath id="a">
      <path fill="#fff" d="M.863.431h20.141v31.373H.864z"/>
    </clipPath>
  </defs>
</svg>
