<svg xmlns="http://www.w3.org/2000/svg" width="40" height="41" fill="none">
  <g clip-path="url(#a)">
    <g clip-path="url(#b)">
      <path fill="url(#c)" d="M14.062 3.14V.993h25.225V34.98s-.256 4.444-4.348 4.652c-4.093.208-5.318-3.835-5.318-3.835l-.104-7.87-15.463-.457V15.614s3.139-1.53 3.043-6.181C17 4.78 14.054 3.148 14.054 3.148l.008-.009Z"/>
      <path fill="#0C67BD" d="M13.246 1.386c.232-1.049.288-1.089 1.433-1.089h24C39.864.297 40 .433 40 1.61v33.027c0 3.242-2.41 5.66-5.653 5.66H12.573c-3.548 0-5.902-2.346-5.91-5.877v-6.365c0-.872.216-1.088 1.097-1.088h5.037c.336 0 .545-.016.545-.457-.016-2.986-.008-5.973-.008-8.959v-.624c-2.61 1.329-5.222 1.553-7.888.448-1.762-.729-3.14-1.93-4.14-3.555C-.696 10.562-.36 6.374 2.09 3.46 4.26.882 8.49-.968 13.246 1.386Zm25.273 17.23V2.467c0-.456-.032-.697-.609-.697-7.503.024-15.015.016-22.518.024-.192 0-.489-.144-.56.177-.049.256-.105.544.143.76.088.08.177.168.265.264 3.387 3.523 3.387 8.895-.016 12.402-.305.313-.425.609-.417 1.033.016 3.259.024 6.517 0 9.776 0 .608.136.777.76.777 4.517-.032 9.042-.016 13.558-.016 1.13 0 1.25.12 1.25 1.28 0 2.17-.024 4.348.008 6.518.048 2.978 3.003 4.884 5.701 3.675 1.69-.76 2.435-2.162 2.435-3.971V18.616Zm-7.96 20.096c-1.578-1.521-1.754-3.443-1.674-5.46.048-1.402 0-2.81.016-4.22 0-.432-.08-.592-.56-.592-6.535.016-13.077.016-19.612 0-.448 0-.593.112-.585.576.024 1.778.008 3.555.008 5.325 0 2.794 1.674 4.467 4.453 4.475h17.17c.231 0 .48.064.784-.096v-.008ZM9.202 16.59c1.08-.008 2.394-.408 3.643-1.129a4.08 4.08 0 0 0 1.057-.84c.425-.44.64-.64.913-1.017a7.38 7.38 0 0 0-4.853-11.73c-4.228-.656-8.136 2.474-8.464 6.782-.32 4.235 3.09 7.918 7.704 7.934Z"/>
      <path fill="#0C67BD" d="M26.675 6.222h5.694c.464 0 .84.12.945.624.104.513-.289.857-1.001.857H21.085c-.536 0-1.049-.08-1.057-.736 0-.657.489-.753 1.033-.753h5.614v.008ZM26.73 11.41h5.542c.544 0 1.041.096 1.041.753 0 .656-.513.736-1.057.736H21.1c-.537 0-1.057-.064-1.073-.72-.016-.705.528-.777 1.089-.769h5.613ZM26.738 16.59h5.542c.553 0 1.033.112 1.025.76-.008.601-.472.73-.993.73H21.005c-.52 0-.985-.129-.993-.73 0-.656.48-.76 1.033-.76h5.693ZM26.738 21.778h5.542c.552 0 1.033.113 1.025.77-.008.6-.473.72-.993.72H21.005c-.521 0-.985-.128-.985-.729 0-.657.488-.76 1.033-.76h5.693-.008ZM14.062 6.238c-.024.304-.2.504-.376.713-1.594 1.817-3.18 3.635-4.781 5.452-.56.632-.881.656-1.474.08-.632-.617-1.257-1.257-1.89-1.882-.36-.352-.536-.752-.144-1.16.425-.44.841-.257 1.218.128.328.336.696.632.985 1 .392.489.64.369 1-.056 1.322-1.56 2.691-3.09 4.037-4.627.264-.297.552-.505.969-.329.304.129.448.369.456.681Z"/>
    </g>
  </g>
  <defs>
    <clipPath id="a">
      <path fill="#fff" d="M0 .297h40v40H0z"/>
    </clipPath>
    <clipPath id="b">
      <path fill="#fff" d="M0 .297h40v40H0z"/>
    </clipPath>
    <linearGradient id="c" x1="26.67" x2="26.67" y1=".994" y2="39.641" gradientUnits="userSpaceOnUse">
      <stop stop-color="#21E3FE"/>
      <stop offset="1" stop-color="#22BEFE"/>
    </linearGradient>
  </defs>
</svg>
