<svg xmlns="http://www.w3.org/2000/svg" width="40" height="41" fill="none">
  <g clip-path="url(#a)">
    <g clip-path="url(#b)">
      <path fill="url(#c)" d="M38.195 10.283s1.419-2.144 1.064-4.296c-.572-3.522-4.288-2.86-4.288-2.86-2.675-3.096-5.77-.662-5.77-.662-3.805-2.264-6.787.661-6.787.661-.652-.653-1.49-.903-2.32-.927-1.838-.056-3.684.927-3.684.927-2.2-2.861-5.714-.717-5.714-.717S9.084.974 7.004.974C.984.982 2.83 8.14 2.83 8.14c-1.176.895-1.555 2.064-1.58 3.168-.048 1.749.807 3.328.807 3.328s-1.37 0-1.37 2.507c0 2.506 1.555 4.231 1.555 4.231S.686 23.638.686 26.023c0 3.04 2.796 5.723 5.714 5.723 2.91 0 4.997-1.846 4.997-4.296s-2.861-4.296-2.861-4.296c1.966-3.876-.653-6.383-.653-6.383.097-.072.177-.153.25-.226 1.773-1.853-.25-5.134-.25-5.134 1.733-.668 2.08-3.28 2.08-3.28 2.022 1.556 5.359.298 5.359.298 2.635 2.49 5.36.411 5.36.411 2.2 2.386 5.657.597 5.657.597 1.902 1.49 5.771-.597 5.771-.597-2.2 4.055.717 6.263.717 6.263-3.07 1.757-.717 6.02-.717 6.02-2.144 2.322 0 5.602 0 5.602-1.668.056-2.861 2.144-2.861 2.144-2.918-2.144-5.714.717-5.714.717s-5.715-1.04-5.715 4.296c0 3.28 2.861 3.578 2.861 5.722h5.715c0-3.135 1.185-3.578 1.185-3.578 3.578 2.804 5.835-1.435 5.835-1.435 4.231.66 5.827-3.933 5.827-6.319 0-2.385-1.725-4.65-1.725-4.65 1.902-2.684.121-5.545.121-5.545s1.604-2.144 1.604-4.054c0-1.91-1.064-3.756-1.064-3.756l.016.016ZM6.408 4.915c.596 0 1.072.476 1.072 1.072 0 .597-.476 1.072-1.072 1.072a1.066 1.066 0 0 1-1.072-1.072c0-.596.475-1.072 1.072-1.072Zm0 10.373c0 .298-.121.564-.314.758-.194.193-.46.314-.758.314a1.066 1.066 0 0 1-1.072-1.072c0-.443.274-.83.66-.983.13-.056.267-.089.412-.089.596 0 1.072.476 1.072 1.072Zm-3.579-3.933c0-.596.476-1.072 1.072-1.072.597 0 1.072.476 1.072 1.072 0 .596-.475 1.072-1.072 1.072a1.066 1.066 0 0 1-1.072-1.072Zm1.79 15.023a1.066 1.066 0 0 1-1.072-1.072c0-.596.475-1.072 1.072-1.072.596 0 1.072.476 1.072 1.072 0 .597-.476 1.072-1.072 1.072Zm1.072-4.65a1.066 1.066 0 0 1-1.072-1.072c0-.596.475-1.072 1.072-1.072.596 0 1.072.476 1.072 1.072 0 .596-.476 1.072-1.072 1.072Zm3.215 5.722c0 .597-.475 1.072-1.072 1.072a1.066 1.066 0 0 1-1.071-1.072c0-.596.475-1.072 1.071-1.072.597 0 1.072.476 1.072 1.072Zm11.09-20.39c-.79 0-1.434-.645-1.434-1.435s.645-1.435 1.434-1.435c.79 0 1.435.645 1.435 1.435s-.645 1.434-1.435 1.434Zm8.584.354c-.79 0-1.435-.645-1.435-1.435s.645-1.434 1.435-1.434 1.435.644 1.435 1.434c0 .79-.645 1.435-1.435 1.435Zm7.157 1.435c-.79 0-1.435-.645-1.435-1.435s.645-1.435 1.435-1.435 1.434.645 1.434 1.435-.644 1.435-1.434 1.435Z"/>
      <path fill="#0C67BD" d="M7.842 28.522a1.072 1.072 0 1 0 0-2.144 1.072 1.072 0 0 0 0 2.144ZM35.736 5.987c-.79 0-1.434.645-1.434 1.435s.645 1.435 1.434 1.435c.79 0 1.435-.645 1.435-1.435s-.645-1.435-1.435-1.435ZM28.588 4.56c-.79 0-1.435.646-1.435 1.435 0 .79.645 1.435 1.435 1.435s1.435-.645 1.435-1.435-.645-1.434-1.435-1.434ZM19.996 4.198c-.79 0-1.434.645-1.434 1.435s.644 1.434 1.434 1.434c.79 0 1.435-.644 1.435-1.434 0-.79-.645-1.435-1.435-1.435ZM6.408 4.915c-.597 0-1.072.476-1.072 1.072 0 .597.475 1.072 1.072 1.072.596 0 1.072-.475 1.072-1.072 0-.596-.476-1.072-1.072-1.072ZM4.264 15.288c0 .597.475 1.072 1.072 1.072.298 0 .564-.12.757-.314.194-.194.315-.46.315-.758 0-.596-.476-1.072-1.072-1.072a.962.962 0 0 0-.411.089c-.387.161-.661.54-.661.983ZM5.69 21.728a1.072 1.072 0 1 0 0-2.144 1.072 1.072 0 0 0 0 2.144ZM4.619 24.234c-.597 0-1.072.476-1.072 1.072 0 .597.475 1.072 1.072 1.072.596 0 1.072-.475 1.072-1.072 0-.596-.476-1.072-1.072-1.072ZM3.901 12.427a1.072 1.072 0 1 0 0-2.144 1.072 1.072 0 0 0 0 2.144Z"/>
      <path fill="#0C67BD" d="M38.976 10.3c.42-.75 1.266-2.564.96-4.425-.194-1.193-.726-2.104-1.572-2.709-1.112-.79-2.458-.814-3.12-.765C33.07.136 30.515.805 29.16 1.659c-2.83-1.458-5.416-.443-6.754.573-.637-.444-1.419-.694-2.297-.71-1.419-.04-2.805.46-3.53.766C14.74.37 12.194.886 10.752 1.595 10.099 1.127 8.696.297 6.996.297c-1.7 0-3.135.572-4.022 1.717-1.475 1.902-1.112 4.78-.903 5.867C1.112 8.76.588 9.93.564 11.291c-.032 1.192.306 2.288.572 2.974C.588 14.627 0 15.425 0 17.142c0 2.015.903 3.57 1.402 4.28C.927 22.236 0 24.073 0 26.032c0 3.264 2.893 6.23 6.141 6.391.484.443.5.943.484 1.749-.024 1.12-.064 2.652 2.49 3.256l.315-1.33c-1.467-.346-1.459-.83-1.435-1.886.016-.556.024-1.241-.266-1.894 2.563-.491 4.36-2.41 4.36-4.852 0-2.144-1.797-3.812-2.691-4.513 1.136-2.7.298-4.94-.58-6.125 1.353-1.677.515-4.014-.017-5.126.903-.653 1.378-1.717 1.62-2.499 1.765.758 3.877.282 4.747.024 2.023 1.669 4.2 1.193 5.432.508 2.056 1.741 4.7.91 5.682.508 1.379.782 3.24.395 4.562-.073-.66 2.354.266 4.022.951 4.868-1.837 1.645-1.249 4.4-.491 6.02-1.387 1.863-.742 4.055-.21 5.232-.919.37-1.62 1.136-2.03 1.676-2.314-1.257-4.611-.089-5.756.927-.854-.089-3.038-.17-4.585 1.12-1.056.879-1.588 2.192-1.588 3.893 0 2.087 1.023 3.143 1.845 3.998.645.668 1.016 1.071 1.016 1.724h1.37c0-1.24-.741-2.007-1.402-2.684-.75-.773-1.467-1.507-1.467-3.046 0-1.282.37-2.233 1.088-2.837 1.418-1.193 3.796-.782 3.82-.782a.69.69 0 0 0 .613-.193c.096-.097 2.426-2.402 4.82-.645a.677.677 0 0 0 1-.21c.28-.491 1.24-1.765 2.288-1.805a.701.701 0 0 0 .588-.37.709.709 0 0 0-.032-.694c-.016-.032-1.83-2.853-.073-4.763a.696.696 0 0 0 .097-.798c-.08-.153-1.99-3.7.46-5.102a.678.678 0 0 0 .338-.548.693.693 0 0 0-.266-.588c-.097-.08-2.41-1.926-.532-5.392a.672.672 0 0 0-.12-.806.672.672 0 0 0-.807-.121c-.967.524-3.764 1.652-5.021.66a.676.676 0 0 0-.733-.072c-.121.065-3.03 1.516-4.844-.45a.692.692 0 0 0-.92-.082c-.088.073-2.304 1.677-4.472-.37a.693.693 0 0 0-.71-.145c-.032.008-3.006 1.096-4.698-.202a.683.683 0 0 0-.677-.088.678.678 0 0 0-.42.54c-.088.612-.547 2.305-1.652 2.732a.67.67 0 0 0-.402.419.7.7 0 0 0 .064.58c.016.032 1.725 2.853.322 4.32-.048.048-.096.097-.16.145a.665.665 0 0 0-.267.508.687.687 0 0 0 .21.532c.024.024 2.232 2.192.516 5.577a.682.682 0 0 0 .241.887c.025.016 2.547 1.676 2.547 3.715 0 2.04-1.813 3.61-4.32 3.61-2.506 0-5.029-2.45-5.029-5.036 0-2.136 1.419-4.24 1.435-4.264a.68.68 0 0 0-.057-.838c-.016-.016-1.378-1.58-1.378-3.78 0-1.378.467-1.797.685-1.822a.68.68 0 0 0 .588-.338.698.698 0 0 0 .017-.677c0-.016-.766-1.443-.726-2.99.024-1.12.452-1.983 1.314-2.636a.7.7 0 0 0 .25-.717c-.008-.032-.83-3.32.564-5.118.612-.798 1.58-1.177 2.934-1.177 1.78 0 3.223 1.25 3.24 1.258a.692.692 0 0 0 .814.072c.12-.072 3.022-1.781 4.82.548a.676.676 0 0 0 .862.186c.016-.008 1.708-.895 3.344-.847.774.017 1.403.266 1.862.726a.676.676 0 0 0 .96 0c.104-.105 2.667-2.515 5.963-.564.242.145.549.12.774-.049.266-.21 2.668-1.942 4.836.564a.686.686 0 0 0 .637.226c.016 0 1.459-.242 2.482.492.548.387.879.983 1.008 1.805.298 1.846-.952 3.788-.96 3.804a.678.678 0 0 0-.024.717c.008.017.975 1.717.975 3.418 0 1.7-1.45 3.627-1.466 3.65a.682.682 0 0 0-.033.767c.065.104 1.508 2.522-.096 4.787a.69.69 0 0 0 .016.814c.016.024 1.587 2.112 1.587 4.231 0 1.25-.54 3.563-2.03 4.844-.83.71-1.846.983-3.007.798a.676.676 0 0 0-.709.355c-.008.016-.935 1.676-2.361 1.982-.774.162-1.588-.096-2.443-.765a.694.694 0 0 0-.66-.105c-.274.105-1.637.782-1.637 4.215h1.37c0-1.604.323-2.37.549-2.7 1.04.677 2.079.91 3.103.693 1.547-.322 2.587-1.604 3.038-2.265 1.378.113 2.636-.29 3.651-1.16 1.725-1.475 2.507-4.086 2.507-5.884 0-1.998-1.064-3.868-1.588-4.666 1.354-2.29.532-4.57.097-5.48.483-.734 1.49-2.467 1.49-4.103 0-1.636-.636-3.063-.967-3.732h-.008Z"/>
      <path fill="#0C67BD" d="M23.55 33.172h-1.37v2.862h1.37v-2.861ZM28.588 31.77h-2.861v1.37h2.86v-1.37ZM33.472 29.466l-2.149 2.149.97.969 2.148-2.149-.97-.969ZM35.146 25.894l-.97.969 2.15 2.148.968-.969-2.148-2.148Z"/>
    </g>
  </g>
  <defs>
    <clipPath id="a">
      <path fill="#fff" d="M0 .297h40v40H0z"/>
    </clipPath>
    <clipPath id="b">
      <path fill="#fff" d="M0 .297h40v39.315H0z"/>
    </clipPath>
    <linearGradient id="c" x1="20.001" x2="20.001" y1=".974" y2="39.604" gradientUnits="userSpaceOnUse">
      <stop stop-color="#12E3FD"/>
      <stop offset="1" stop-color="#23BEFD"/>
    </linearGradient>
  </defs>
</svg>
