<svg xmlns="http://www.w3.org/2000/svg" width="40" height="41" fill="none">
  <g clip-path="url(#a)">
    <g clip-path="url(#b)">
      <path fill="#0C67BD" d="m20.66 40.297-.38-.194c-.465-.242-11.49-5.918-13.739-9.485-3.13-4.96-3.51-22.207-3.525-22.939L3 6.854l.836.03C12.63 7.197 20.044.835 20.115.773l.544-.475.529.49c.063.063 6.609 6.129 15.797 6.129h.371l.852-.016-.047.841c-.04.732-1.073 17.933-4.212 22.9-2.153 3.42-12.477 9.205-12.92 9.454l-.37.21v-.008ZM4.616 8.457c.118 3.497.725 17.31 3.257 21.344 1.61 2.562 9.41 6.985 12.746 8.729 3.139-1.784 10.434-6.253 11.98-8.706 2.556-4.049 3.676-17.823 3.92-21.343-8.171-.156-14.142-4.61-15.9-6.09-1.862 1.473-8.258 6.036-16.003 6.074v-.007Z"/>
      <path fill="url(#c)" d="M20.635 4.082s-6.522 5.7-14.425 5.411c0 0 .308 15.169 2.918 19.311 1.846 2.936 11.507 7.888 11.507 7.888s9.047-5.053 10.821-7.872c2.627-4.166 3.51-19.303 3.51-19.303-8.431.148-14.33-5.435-14.33-5.435Zm.19 23.18c-4.307 0-7.793-3.441-7.793-7.693 0-4.251 3.486-7.693 7.793-7.693 4.306 0 7.792 3.442 7.792 7.693 0 4.252-3.486 7.693-7.792 7.693Z"/>
      <path fill="#0C67BD" d="M19.61 23.953a.676.676 0 0 1-.505-.226l-3.202-3.574a.658.658 0 0 1 .055-.934.678.678 0 0 1 .947.054l2.673 2.983 5.12-6.323a.664.664 0 0 1 .938-.101c.292.225.339.646.102.926l-5.615 6.938a.674.674 0 0 1-.505.25h-.016l.008.007Z"/>
      <path fill="#0C67BD" d="M20.588 28.173c-4.677 0-8.479-3.753-8.479-8.37 0-4.618 3.802-8.37 8.479-8.37s8.479 3.752 8.479 8.37c0 4.617-3.802 8.37-8.479 8.37Zm0-15.573c-4.022 0-7.296 3.232-7.296 7.203s3.274 7.202 7.296 7.202 7.296-3.231 7.296-7.202S24.61 12.6 20.588 12.6Z"/>
    </g>
  </g>
  <defs>
    <clipPath id="a">
      <path fill="#fff" d="M0 .297h40v40H0z"/>
    </clipPath>
    <clipPath id="b">
      <path fill="#fff" d="M3 .297h35.2v40H3z"/>
    </clipPath>
    <linearGradient id="c" x1="20.588" x2="20.588" y1="4.082" y2="36.692" gradientUnits="userSpaceOnUse">
      <stop stop-color="#12E4FD"/>
      <stop offset="1" stop-color="#24BEFD"/>
    </linearGradient>
  </defs>
</svg>
