<svg xmlns="http://www.w3.org/2000/svg" width="40" height="41" fill="none">
  <g clip-path="url(#a)">
    <mask id="b" width="37" height="37" x="0" y="2" maskUnits="userSpaceOnUse" style="mask-type:luminance">
      <path fill="#fff" d="M36.0436 2.7763H0V38.82h36.0436V2.7763Z"/>
    </mask>
    <g mask="url(#b)">
      <path fill="url(#c)" d="M18.1601 6.0054c8.08 0 14.6254 6.48 14.6254 14.48 0 1.4327-.5891 3.8327-1.3382 5.0618-.9745-.2036-6.2036-3.4763-11.549-1.5491-7.4764 2.6982-9.0982 7.2218-9.7528 8.5964-3.9854-2.5891-6.6182-7.04-6.6182-12.1091 0-8 6.5528-14.48 14.6255-14.48h.0073Z"/>
      <path fill="#0C67BD" d="M30.8145 20.4854c0-.3709-.3054-.6691-.6763-.6691h-1.3964c-.3709 0-.6764.2982-.6764.6691s.3055.6691.6764.6691h1.3964c.3709 0 .6763-.2982.6763-.6691ZM8.335 20.4854c0-.3709-.3054-.6691-.6763-.6691H6.2623c-.371 0-.6764.2982-.6764.6691s.3055.6691.6764.6691h1.3964c.3709 0 .6763-.2982.6763-.6691ZM8.7277 26.9727l1.2073-.6909c.2182-.1237.3345-.3491.3345-.5819 0-.1163-.0291-.2254-.0872-.3345-.1891-.32-.5964-.4291-.9237-.2473l-1.2073.6909c-.1527.0873-.269.2328-.3127.4073a.6916.6916 0 0 0 .0655.5091c.189.32.5963.4291.9236.2473ZM9.6076 15.5981c.1818-.32.0727-.7272-.2473-.9091l-1.2073-.6909c-.1527-.0872-.3345-.1091-.509-.0654-.1746.0436-.32.1527-.4073.3127a.6756.6756 0 0 0-.0873.3345.718.718 0 0 0 .0218.1746c.0437.1745.16.3127.3128.4073l1.2072.6909c.32.1818.7346.0727.9237-.2473l-.0073-.0073ZM13.4979 11.0963l-.6909-1.2c-.1818-.32-.5964-.429-.9164-.2473a.6692.6692 0 0 0-.3418.5818c0 .1091.0291.2255.0873.3273l.6909 1.2c.1818.32.5964.4291.9164.2473.32-.1818.4363-.5891.2472-.9091h.0073ZM26.9088 14.6308c-.2109.1237-.3346.3491-.3346.5746 0 .1164.0291.2327.0946.3345.0872.1528.24.2619.4145.3055.1746.0436.3564.0218.5091-.0727l1.2073-.6982c.32-.1891.4291-.5964.24-.9091-.1891-.32-.6037-.4218-.9237-.24l-1.2072.6982v.0072ZM18.1529 10.7108c.3709 0 .6764-.2981.6764-.669V8.6599c0-.3709-.3055-.669-.6764-.669s-.6763.2981-.6763.669v1.3819c0 .3709.3054.669.6763.669ZM23.7015 9.8236l-.6982 1.2a.6773.6773 0 0 0 .2473.9163c.32.1819.7345.0728.9236-.2472l.6982-1.2c.1818-.32.0727-.7273-.2473-.9091-.1527-.0873-.3345-.1091-.5091-.0655-.1745.0437-.32.1527-.4073.3127l-.0072-.0072ZM9.4033 20.4854c0 .3709.3055.6691.6764.6691h8.2327c.3709 0 .6764-.2982.6764-.6691v-7.9055c0-.3709-.3055-.669-.6764-.669s-.6764.2981-.6764.669v7.2364h-7.5563c-.371 0-.6764.2982-.6764.6691Z"/>
    </g>
    <path fill="#0C67BD" d="M8.1164 35.6636s-.0146.0436-.0146.0582H6.5382v3.1563h33.3454v-3.1563h-1.6727c-.2691-1.0182-1.36-4.5746-4.0291-7.6582 1.0255-2.2473 1.6-4.7418 1.6-7.3673 0-9.8618-8.0218-17.891-17.8909-17.891C8.0219 2.8128 0 10.8419 0 20.7037c0 6.2545 3.2364 11.7672 8.1164 14.9672v-.0072Zm28.8072-.1382H9.36c1.7891-6.5455 7.3527-11.0909 13.7891-11.1491h.16c9.5927.0145 12.8291 8.4945 13.6073 11.1491h.0072Zm-13.6145-12.4h-.1673c-.3345 0-.6545.0145-.9309.0291-.1309 0-.2691.0145-.4.0145.1818-.6909.7346-1.1854 1.3964-1.1854.5891 0 1.1272.4872 1.3454 1.1418h-1.2436Zm15.3891 13.8545v.6546H7.7164v-.6546h30.9818ZM1.36 20.7036c0-9.1128 7.4182-16.531 16.5309-16.531s16.5309 7.4182 16.5309 16.531c0 2.2327-.4509 4.3563-1.2582 6.3054-1.8109-1.7309-4.2109-3.1709-7.3672-3.6727-.1891-1.44-1.2946-2.5964-2.5891-2.5964-1.3746 0-2.48 1.1419-2.6182 2.64-5.5636 1.0255-10.1891 5.1855-12.08 10.9237-4.32-2.9891-7.1491-7.9709-7.1491-13.6Z"/>
  </g>
  <defs>
    <linearGradient id="c" x1="3.5273" x2="32.7855" y1="19.2999" y2="19.2999" gradientUnits="userSpaceOnUse">
      <stop stop-color="#12E5FD"/>
      <stop offset="1" stop-color="#24BDFD"/>
    </linearGradient>
    <clipPath id="a">
      <path fill="#fff" d="M0 2.7763h39.8764v36.1091H0z"/>
    </clipPath>
  </defs>
</svg>
