<svg xmlns="http://www.w3.org/2000/svg" width="1547" height="129" fill="none">
  <path fill="#BABFDE" d="M.983 71.041C95.322.891 225.533-27.767 327.354 37.886c12.049 7.77 24.168 16.704 31.65 30.766 8.047 15.131 4.982 33.366-11.413 37.057-11.863 2.674-26.438-4.11-33.231-16.085-8.223-14.502.91-31.186 10.503-40.864 21.527-21.717 53.344-28.312 80.727-29.225 28.443-.933 56.913 4.572 84.261 13.57 56.665 18.643 109.161 52.167 166.993 66.344 58.105 14.25 118.233 11.021 175.366-7.434 55.809-18.026 108.552-47.565 164.988-63.063 61.202-16.81 125.252-15.886 187.722-14.607 31.56.65 63.05 3.513 93.29 14.91 28.07 10.581 54.25 26.75 80.85 41.525 26.98 14.995 54.65 28.166 82.87 39.48 24.25 9.721 50.01 20.343 76 18.539 10.23-.713 20.05-3.733 28.76-10.245.72-.534.05-1.898-.67-1.363-24.99 18.665-58.07 8.662-84.24-.954a720.35 720.35 0 0 1-94.56-42.699c-27.23-14.764-53.76-31.615-82.13-43.234-30.5-12.488-62.12-16.473-94.22-17.396-64.89-1.866-131.84-2.8-195.386 14.89-60.887 16.946-117.553 50.06-178.405 67.163-65.569 18.424-134.186 14.974-198.369-9.091-58.043-21.759-112.747-55.87-173.741-65.328-28.178-4.373-57.487-4.11-84.905 5.579-18.965 6.7-47.85 21.339-50.12 48.675-1.758 21.13 19.654 34.447 35.094 32.864 7.835-.808 16.209-5.904 19.115-15.08 3.198-10.066-1.413-21.024-6.483-28.93-14.805-23.08-41.693-35.82-64.094-45.037-26.827-11.01-55.164-16.799-83.51-18.256C150.901-2.685 91.603 13.924 38.471 44.522c-13.108 7.55-25.82 15.981-38.16 25.156-.724.535-.053 1.898.672 1.364Z"/>
</svg>
