<svg xmlns="http://www.w3.org/2000/svg" width="40" height="41" fill="none">
  <g clip-path="url(#a)">
    <g clip-path="url(#b)">
      <path fill="url(#c)" d="M10.757 13.2582c.0794-.254.1747-.524.2779-.8416.1588-.4684.5002-.7463.9051-.7463.4446.0159.7464.2541.921.7384.0715.1985.1429.4049.2065.6113.1588.4685.3017.8893.4843 1.3021 1.0957 2.4772 2.9853 4.1763 5.6292 5.0417l.9686.3176c.4764.1588.7146.4129.7702.786v.1191c.0079.1985-.0556.6908-.794.9369-1.1354.3732-2.4136.794-3.5093 1.5721-1.6356 1.175-2.7868 2.763-3.422 4.7082l-.1032.3255c-.0794.2382-.1588.4923-.2462.7305v.0158c-.1667.4129-.4525.6273-.8654.6432l.9528 9.4878h16.8082l.4129-3.9063c-.0318.0874-.0715.1588-.1032.2462l-.0715.2302c-.0555.1667-.1111.3494-.1746.5161-.1271.3335-.3573.5081-.6828.5161-.3653 0-.6114-.1906-.7384-.5637l-.135-.405c-.135-.4208-.2779-.8495-.4843-1.2465-.8178-1.5959-2.1279-2.6915-3.8984-3.2473a26.3945 26.3945 0 0 1-.5955-.1985c-.3731-.127-.5558-.3652-.5558-.7066s.1906-.5955.5717-.7225l.3652-.1191c.4049-.135.8972-.2938 1.3259-.5161 1.58-.8178 2.6519-2.112 3.2077-3.8508.0555-.1826.1191-.3731.1985-.5954.127-.3653.3969-.5796.7145-.5796.3494.0079.5876.1985.7225.5716.0477.1429.1033.2859.1509.4367.1032.3017.2064.6193.3335.9131.1984.4446.4366.8575.7066 1.2227l1.0321-9.7737a.4638.4638 0 0 1-.1508.0238c-.3176 0-.532-.1668-.6352-.4764l-.1032-.3017c-.0953-.2858-.1985-.6114-.3493-.8972-.5876-1.1433-1.5245-1.9293-2.7948-2.3263-.1667-.0476-.3017-.0953-.4367-.1429-.3096-.1032-.4764-.3176-.4764-.6114 0-.2937.1668-.5161.4923-.6272l.2699-.0873c.2859-.0953.6511-.2144.9528-.3653 1.1274-.5796 1.9055-1.5085 2.2946-2.755a9.1145 9.1145 0 0 1 .1429-.4367c.1032-.3097.3334-.4923.6193-.4923.3017.008.5161.1747.6272.4844.0397.1032.0715.2143.1112.3175.0794.2541.1508.4605.2381.659.008.0238.0318.0477.0397.0715l.2541-2.374h-23.43l.7305 7.2489c.1191-.2858.2303-.5796.3256-.8892l-.008.0079Z"/>
      <path fill="#0C67BD" d="M36.6483 12.4246c-.0318-.262-.2065-.4446-.5002-.5399l-.5002-.1668c-.5161-.1667-.9528-.4208-1.3498-.7145L35.3938.5944H7.478L9.0659 16.442c-.778.9607-1.7467 1.7388-2.9139 2.3422-.6193.3176-1.3259.5479-1.8975.7305l-.5161.1667c-.5002.1668-.7384.4685-.7384.921 0 .4526.2302.7305.7146.8972.27.0873.532.1747.8495.2779 2.4693.7701 4.3112 2.2866 5.4863 4.478l1.4371 14.339H31.162l.8654-8.1937c.135-.1112.2541-.2382.4049-.3415.7622-.5478 1.6594-.8416 2.4534-1.0956.5716-.1906.6272-.5796.6193-.7384V30.13c-.0477-.2938-.2382-.5002-.5955-.6193l-.6828-.2302c-.659-.2144-1.2465-.5082-1.7626-.8734l1.4926-14.1485c.135-.1191.27-.2461.4129-.3493.5399-.3891 1.1909-.6034 1.7626-.786.5002-.1668.524-.532.524-.6431v-.0715l-.0079.0159ZM11.8448 25.6917c-.0953-.1984-.2065-.3811-.3097-.5637a10.158 10.158 0 0 0-.6193-.9766c-.3652-.516-.7701-.9845-1.2147-1.4212-.8099-.7939-1.7547-1.4608-2.8504-2.0087l-.2302-.1111.2302-.1191c1.0243-.5241 1.7865-1.0401 2.4613-1.6435.0239-.0159.0477-.0397.0636-.0556.3255-.3017.6272-.6193.913-.9448.1588-.1827.3176-.3732.4605-.5638.3097-.4049.5955-.8336.8495-1.2782l.3732-.6749.1826.3652c1.0878 2.0881 2.7313 3.692 4.867 4.7797l.3414.1191-.3255.1508c-2.1993 1.1116-3.8587 2.763-4.9305 4.9067l-.135.2779-.1191-.2302-.0079-.008Zm17.888 13.3228H12.9246l-.9528-9.4879c.4129-.0079.6987-.2223.8575-.6431v-.0159c.0953-.2382.1747-.4923.2541-.7304l.1032-.3256c.6352-1.9452 1.7864-3.5331 3.422-4.7082 1.0877-.7781 2.3739-1.1989 3.5093-1.572.7384-.2382.8098-.7305.8019-.9369v-.1191c-.0556-.3732-.3017-.6272-.7701-.786l-.9687-.3176c-2.6439-.8734-4.5335-2.5645-5.6292-5.0417-.1826-.4129-.3255-.8337-.4843-1.3021a13.8654 13.8654 0 0 0-.2064-.6114c-.1747-.4843-.4685-.7225-.921-.7384-.405 0-.7464.2779-.9052.7464a25.6048 25.6048 0 0 0-.2779.8416c-.0952.3096-.2064.6034-.3255.8892l-.7304-7.2489-.4685-4.7082h24.3907l-.5002 4.7082-.2541 2.374s-.0318-.0477-.0397-.0715c-.0873-.1985-.1588-.405-.2382-.659-.0318-.1111-.0714-.2144-.1111-.3176-.1112-.3096-.3256-.4764-.6273-.4843-.2779 0-.5161.1826-.6193.4923-.0555.1667-.1032.3017-.1429.4367-.397 1.2465-1.1671 2.1754-2.2945 2.755-.3097.1588-.667.2779-.9528.3652l-.27.0874c-.3175.1032-.4922.3255-.4922.6272 0 .3017.1667.5081.4764.6114.1349.0476.2779.0952.4366.1429 1.2625.397 2.2073 1.175 2.7948 2.3263.1429.2858.2541.6114.3493.8972l.1033.3017c.1111.3096.3255.4764.6351.4764.0556 0 .1033-.0159.1509-.0239l-1.0322 9.7738a6.8319 6.8319 0 0 1-.7066-1.2227c-.127-.2938-.2382-.6114-.3335-.9131-.0476-.1429-.0952-.2938-.1508-.4367-.135-.3652-.3732-.5637-.7225-.5716-.3255 0-.5876.2143-.7146.5796-.0714.2223-.1429.4128-.1985.5954-.5478 1.7388-1.6276 3.033-3.2076 3.8508-.4287.2223-.921.3811-1.3259.516l-.3653.1191c-.3811.1271-.5716.3732-.5716.7225 0 .3494.1905.5796.5558.7067.1905.0635.3731.127.5954.1985 1.7626.5557 3.0806 1.6435 3.8984 3.2473.2064.397.3494.8257.4843 1.2465l.135.4049c.127.3732.3732.5558.7384.5638.3176 0 .5558-.1827.6828-.5161.0635-.1747.1191-.3494.1747-.5161l.0714-.2303c.0318-.0873.0715-.1587.1033-.2461l-.4129 3.9063.0079-.0079Zm2.9059-8.7892.0556.0159-.0556.0238c-.1429.0714-.2699.1667-.4128.2461-.3017.1747-.5876.3573-.8575.5558-.3176.2382-.6114.4922-.8813.7701-.5399.5638-1.0004 1.1989-1.3656 1.9135l-.0238.0556v-.0238c-.8099-1.58-1.9691-2.7392-3.5649-3.5411h-.0239l.0239-.0239c.7463-.389 1.3021-.7622 1.7943-1.2068a8.058 8.058 0 0 0 1.58-1.9849l.1906-.3414.0635.127c.4287.8099.9766 1.5165 1.6355 2.1199.2303.2144.4685.4288.7305.6114.2382.1667.4923.3096.7463.4605.1191.0714.2303.1508.3573.2143l.0079.008Zm1.4768-17.6261c-.3096.1747-.5955.3811-.8654.6035-.3335.2778-.6352.5796-.8972.921a7.1147 7.1147 0 0 0-.5002.7701c-.5637-1.048-1.3497-1.8261-2.4057-2.3898.4764-.262.8495-.5161 1.183-.8178a5.9848 5.9848 0 0 0 1.1751-1.4768l.0476-.0873c.2223.4128.5002.7781.8019 1.1195.2223.2461.4605.4763.7225.6828.2303.1826.4844.3493.7464.5002.0476.0238.0794.0556.127.0794-.0556.0317-.0953.0635-.1509.0952h.0159Z"/>
    </g>
  </g>
  <defs>
    <clipPath id="a">
      <path fill="#fff" d="M0 .5945h40v40H0z"/>
    </clipPath>
    <clipPath id="b">
      <path fill="#fff" d="M3 .5945h33.6483v40H3z"/>
    </clipPath>
    <linearGradient id="c" x1="21.424" x2="21.424" y1="6.8906" y2="39.0065" gradientUnits="userSpaceOnUse">
      <stop stop-color="#12E4FD"/>
      <stop offset="1" stop-color="#25BCFD"/>
    </linearGradient>
  </defs>
</svg>
