<svg xmlns="http://www.w3.org/2000/svg" width="40" height="41" fill="none">
  <g clip-path="url(#a)">
    <g clip-path="url(#b)">
      <path fill="#0C67BD" d="M15.6006 16.2517c-.019-.4486.0073-.8664.6396-.8636.6002.0028.7022.373.676.8454-.0263.4626.0189.9786-.6921.9659-.6789-.0126-.6279-.5019-.6235-.9463v-.0014ZM30.4454 13.6357c.1821.1094.5186.1584.3817.4416-.0918.1879-.3482.1654-.5158-.0224.0292-.1444-.1019-.3365.1341-.4206v.0014ZM21.6367 15.3433c.0306-.0421.0598-.0827.0903-.1248.0292.0491.0583.0981.0875.1486-.07.0645-.1312.0743-.1778-.0238Z"/>
      <path fill="url(#c)" d="M14.5355 28.1878c1.8911 0 3.7836.0112 5.6747-.0084.4225-.0042.5886.0645.5769.5229-.0349 1.3992-.0189 2.7997-.0087 4.2002.0029.3561-.0539.5482-.4983.6744-1.4773.4177-2.7404 1.193-3.7865 2.3033-.6746.7164-1.4584 1.137-2.5685 1.0459-1.3972-.115-2.8104-.0267-4.2178-.0309-.8698-.0028-1.4671-.5397-1.4744-1.3893-.0204-2.2865.0029-4.5731-.0306-6.8597-.0073-.4892.2753-.4528.5842-.4528 1.9159-.0042 3.8317-.0014 5.7475-.0028l.0015-.0028Z"/>
      <path fill="url(#d)" d="M14.8535 39.071c.5886-.5355 1.0752-.9953 1.5822-1.4327.6935-.5973 1.4132-1.1679 2.1053-1.7679 1.6273-1.4089 4.3722-1.4692 6.0578-.1093 1.2923 1.043 2.5351 2.1435 3.906 3.3099H14.8535Zm8.3904-3.0071c.0743-.4977-.287-.53-.6585-.5678-.4633-.0477-.609.3154-.6265.5916-.0233.3673.2914.6421.6775.6603.4399.0225.6366-.2579.6075-.6841Zm1.5268.8397c-.4079-.0546-.6803.0477-.6556.5019.0219.3856.1282.6589.6294.6211.3919-.0294.6629-.1626.6775-.5566.0146-.4121-.1865-.6533-.6513-.5664Zm-3.5825 1.531c.4647.0574.6061-.1501.6104-.565.0044-.436-.1865-.5454-.6119-.5636-.4545-.021-.6774.265-.676.551.0015.3098.1865.6925.676.5776h.0015Z"/>
      <path fill="#0C67BD" d="M17.9949 21.2566c.0233-.4177-.0991-.914.6264-.8986.5988.0126.6906.3505.6994.8285.0087.5314-.1618.9576-.7416.9786-.6148.021-.5959-.4767-.5828-.9085h-.0014ZM15.5285 24.017c-.0743-.4486.0306-.722.6643-.7318.7605-.0126.6207.4416.6469.872.0291.4837-.0845.8342-.6731.83-.6789-.0042-.6571-.4697-.6381-.9702ZM23.2452 36.0625c.0291.4261-.1675.7065-.6075.6841-.3861-.0196-.7008-.293-.6775-.6603.0175-.2748.1632-.6379.6265-.5916.3715.0378.7328.0701.6585.5678ZM24.7705 36.9022c.4647-.0855.6672.1556.6512.5664-.0146.394-.2856.5271-.6775.5566-.5012.0378-.609-.2369-.6294-.6211-.0247-.4542.2477-.5565.6557-.5019ZM21.1897 38.4332c-.491.1149-.6746-.2692-.676-.5776-.0015-.286.2214-.572.676-.551.424.0196.6163.1276.6119.5636-.0044.4149-.1457.6224-.6105.565h-.0014Z"/>
      <path fill="#0C67BD" d="M29.8685 38.4682c-.8451-.6813-1.6449-1.4118-2.4768-2.1057-.7401-.6169-1.2704-1.1552-2.2364-1.8295-.5376-.3758-.7605-.666-.7561-1.2926.0306-4.4105.0189-8.8224.0146-13.2329 0-1.1327-.6309-1.744-1.7964-1.7594-.7999-.0098-1.6012-.0252-2.401.0056-.5813.0224-1.0301.035-.9281-.757.0525-.408-.3074-.6407-.7474-.6225-.3773.0154-.5929.2565-.5347.5958.1297.7472-.2622.7935-.893.7879-3.5899-.0266-7.1797-.0168-10.7696-.0112-1.1247.0014-1.4059.1963-1.7497 1.2211a1.1135 1.1135 0 0 1-.0656.1542v12.6076c.0787.1878.2433.3196.5886.3266.7314.0155.8013-.485.7984-1.0388-.0087-1.8435.0117-9.585-.0146-11.43-.0058-.4542.1224-.579.6003-.5776 5.2405.0169 10.4796.0155 15.7201.0028.6134-.0014.8902.1374.8858.8118-.0306 4.0151-.016 8.0302-.0087 12.044 0 .2818-.1137.5453-.1224.8089-.0131.3449-.1705.3491-.4429.3617-.3686.0168-.3701-.1795-.3686-.436.0058-1.5407-.0058-3.0815.0058-4.6222.0088-1.165-.3642-1.6641-1.5939-1.5393-.2156.021-.437-.0028-.6541.0042-.3409.0112-.6425.0547-.6483-.457-.003-.244-.1734-.5692-.6119-.5342-.4036.0309-.6557.1837-.6571.5762 0 .4991-.3759.3323-.6192.3323-2.9838.0098-5.9675.007-8.9513.0042-.3628 0-.711.0112-1.0388.1991-.37.2131-.5784.4528-.574.921.0233 2.6357.003 5.2713 0 7.9083 0 .6926.9616 1.7791 1.7774 2.1296.596.2565 1.1903.1612 1.792.1598 1.068-.0028 2.1344 0 3.281 0-.4924.7052-1.0956 1.0487-1.942 1.0374-1.0563-.014-1.9581.0421-2.9168-.2327-1.4263-.4079-2.417-1.2337-2.79-2.6945-.083-.3239-.1195-.6112-.115-.9365.0189-2.0076.0057-4.0151.013-6.0227 0-.2664-.0408-.5243-.2491-.6884-.2273-.1794-.539-.2215-.8188-.1401-.2885.0841-.2608.3631-.2622.593-.0073.7472 0 1.4944-.0117 2.2403-.0029.1345.0568.3294-.0451.4247v4.1105c0 1.3417.845 2.3497 1.1786 2.6833 1.0388 1.0389 2.1446 1.8996 3.8215 1.859 3.1265-.0757 6.2574-.021 9.3869-.021 3.3961 0 6.7921-.0043 10.1867.0056.5901.0014 1.1175-.272 1.2734-.708.134-.3743-.1268-.9211-.5085-1.2295l-.0043.0028Zm-15.9416-1.5435c-1.3972-.115-2.8104-.0267-4.2178-.0309-.8698-.0028-1.4671-.5397-1.4744-1.3893-.0204-2.2865.003-4.5731-.0306-6.8597-.0073-.4892.2754-.4528.5842-.4528 1.9159-.0042 3.8317-.0014 5.7476-.0014 1.8911 0 3.7836.0098 5.6747-.0098.4225-.0042.5886.0645.5769.5229-.035 1.3992-.0189 2.7997-.0087 4.2002.0029.3561-.0539.5482-.4983.6743-1.4773.4178-2.7405 1.1931-3.7865 2.3034-.6746.7164-1.4584 1.137-2.5686 1.0445l.0015-.0014Zm.928 2.1463c.5886-.5355 1.0752-.9953 1.5822-1.4328.6935-.5972 1.4133-1.1678 2.1053-1.7678 1.6274-1.4089 4.3722-1.4692 6.0578-.1093 1.2923 1.043 2.5351 2.1435 3.906 3.3099H14.8549Z"/>
      <path fill="#fff" d="M16.6104 12.1314v-11.05h18.9311v14.7343H20.4814l-3.871-3.6843Z"/>
      <path fill="#0C67BD" d="M35.5417.4225H16.6105c-.3773 0-.6847.2958-.6847.6589v11.05c0 .1753.0743.3449.2025.4683l3.871 3.6843a.6933.6933 0 0 0 .4808.1906h15.0616c.3773 0 .6847-.2958.6847-.6589V1.0814c0-.3631-.3074-.659-.6847-.659Zm-14.779 14.7343-3.4674-3.3001V1.7403h17.5631v13.4179H20.7627v-.0014Z"/>
      <path fill="url(#e)" d="M25.3133 3.766h-1.8182v9.0145h1.8182V3.7661Z"/>
      <path fill="#0C67BD" d="M25.3137 13.2277h-1.8182c-.2579 0-.4662-.2004-.4662-.4486v-9.013c0-.2481.2083-.4486.4662-.4486h1.8182c.2579 0 .4663.2005.4663.4486v9.0144c0 .2482-.2084.4487-.4663.4487v-.0015Zm-1.352-.8972h.8858V4.2133h-.8858v8.1172Z"/>
      <path fill="url(#f)" d="M29.5653 3.766h-1.8182v9.0145h1.8182V3.7661Z"/>
      <path fill="#0C67BD" d="M29.5657 13.2277h-1.8182c-.2579 0-.4663-.2004-.4663-.4486v-9.013c0-.2481.2084-.4486.4663-.4486h1.8182c.2579 0 .4662.2005.4662.4486v9.0144c0 .2482-.2083.4487-.4662.4487v-.0015Zm-1.352-.8972h.8858V4.2133h-.8858v8.1172Z"/>
    </g>
  </g>
  <defs>
    <linearGradient id="c" x1="14.4949" x2="14.4949" y1="28.1792" y2="36.9384" gradientUnits="userSpaceOnUse">
      <stop stop-color="#12E6FD"/>
      <stop offset="1" stop-color="#27BAFD"/>
    </linearGradient>
    <linearGradient id="d" x1="21.6792" x2="21.6792" y1="34.7765" y2="39.071" gradientUnits="userSpaceOnUse">
      <stop stop-color="#12E6FD"/>
      <stop offset="1" stop-color="#27BAFD"/>
    </linearGradient>
    <linearGradient id="e" x1="24.4042" x2="24.4042" y1="3.7661" y2="12.7805" gradientUnits="userSpaceOnUse">
      <stop stop-color="#12E6FD"/>
      <stop offset="1" stop-color="#27BAFD"/>
    </linearGradient>
    <linearGradient id="f" x1="28.6562" x2="28.6562" y1="3.7661" y2="12.7805" gradientUnits="userSpaceOnUse">
      <stop stop-color="#12E6FD"/>
      <stop offset="1" stop-color="#27BAFD"/>
    </linearGradient>
    <clipPath id="a">
      <path fill="#fff" d="M0 .4225h40v40H0z"/>
    </clipPath>
    <clipPath id="b">
      <path fill="#fff" d="M4.5283.4225h31.6981v40H4.5284z"/>
    </clipPath>
  </defs>
</svg>
